<?xml version="1.0" encoding="UTF-8"?>
<!DOCTYPE svg PUBLIC "-//W3C//DTD SVG 1.1//EN" "http://www.w3.org/Graphics/SVG/1.1/DTD/svg11.dtd">
<!-- Creator: CorelDRAW X7 -->
<svg xmlns="http://www.w3.org/2000/svg" xml:space="preserve" width="35.4475mm" height="52.749mm" version="1.1" style="shape-rendering:geometricPrecision; text-rendering:geometricPrecision; image-rendering:optimizeQuality; fill-rule:evenodd; clip-rule:evenodd"
viewBox="0 0 2463 3665"
 xmlns:xlink="http://www.w3.org/1999/xlink">
 <defs>
  <style type="text/css">
   <![CDATA[
    .fil9 {fill:#030303}
    .fil12 {fill:#0D0D0D}
    .fil14 {fill:#0E0E0E}
    .fil3 {fill:#1F1F1F}
    .fil4 {fill:#212121}
    .fil26 {fill:#242424}
    .fil5 {fill:#2A2A2A}
    .fil56 {fill:#3D3D3D}
    .fil27 {fill:#493614}
    .fil31 {fill:#4A4A4A}
    .fil11 {fill:#525252}
    .fil18 {fill:#635B32}
    .fil38 {fill:#645C4C}
    .fil13 {fill:#6A757A}
    .fil20 {fill:#715F70}
    .fil8 {fill:#727272}
    .fil19 {fill:#767676}
    .fil34 {fill:#77828B}
    .fil10 {fill:#7D7D7D}
    .fil17 {fill:gray}
    .fil29 {fill:#827E7D}
    .fil7 {fill:#858585}
    .fil23 {fill:#868F9A}
    .fil15 {fill:#888888}
    .fil28 {fill:#896A51}
    .fil22 {fill:#898E92}
    .fil32 {fill:#8D7B86}
    .fil30 {fill:#8E722C}
    .fil16 {fill:#949BAD}
    .fil25 {fill:#969DB3}
    .fil37 {fill:#9A9092}
    .fil47 {fill:#9A9A9A}
    .fil0 {fill:#A5A5A5}
    .fil44 {fill:#ADADAD}
    .fil43 {fill:#B4A84E}
    .fil55 {fill:#B5B5B5}
    .fil33 {fill:#BEBDBE}
    .fil24 {fill:#C3C4C4}
    .fil42 {fill:#C79869}
    .fil35 {fill:#CAC9D4}
    .fil39 {fill:#CC8B53}
    .fil53 {fill:#D0B36E}
    .fil54 {fill:#D0BA87}
    .fil46 {fill:#D4C695}
    .fil36 {fill:#DBD7BA}
    .fil51 {fill:#E3E7A7}
    .fil41 {fill:#E8CF8E}
    .fil21 {fill:#E8E9E9}
    .fil52 {fill:#E9D479}
    .fil49 {fill:#E9D9AE}
    .fil50 {fill:#EBEEB4}
    .fil2 {fill:#ECECEC}
    .fil48 {fill:#EEE46C}
    .fil45 {fill:#F2CB3C}
    .fil40 {fill:#F9FDD8}
    .fil6 {fill:#FBFBFB}
    .fil1 {fill:#FDFDFD}
   ]]>
  </style>
 </defs>
 <g id="Layer_x0020_1">
  <metadata id="CorelCorpID_0Corel-Layer"/>
  <g id="_1159095312">
   <path class="fil0" d="M120 1585c51,13 954,5 1088,5 0,-79 5,-472 -9,-518l-1071 3 -8 510z"/>
   <path class="fil0" d="M1214 1074c0,77 -6,471 9,513 95,0 1009,13 1075,1l-14 -508 -1070 -6z"/>
   <polygon class="fil1" points="1225,1670 56,1671 55,1938 1227,1944 "/>
   <path class="fil2" d="M1649 1669l-408 4 -1 269 1163 0 1 -265c-97,0 -722,12 -755,-8z"/>
   <path class="fil2" d="M1209 614l1 183 1024 4 -22 -35c-8,-12 -14,-28 -25,-45 -8,-13 -17,-24 -25,-35 -20,-27 -26,-45 -48,-71 -18,-29 -45,-87 -78,-105l-273 0c-51,0 -71,9 -83,-13l-471 4 0 113z"/>
   <path class="fil1" d="M1203 616l-1 -113 -224 -1 -622 0 -93 145c-21,32 -82,114 -94,145l1027 4c0,-44 -11,-147 7,-180z"/>
   <path class="fil3" d="M1907 2526l197 -3 -1 153 -196 -1c-25,25 -9,42 -15,79 -2,13 -4,12 -6,17l-652 2c33,22 272,11 309,11 56,0 232,16 280,6 47,-11 -1,6 14,-6 -32,26 -16,79 -13,152l-11 521 297 -8c3,-51 7,-93 7,-149l0 -122c4,-46 -5,-21 15,-40l-4 442c3,21 -3,10 8,22 -1,-78 -2,-156 -2,-234 0,-38 -1,-76 0,-114 1,-21 1,-40 1,-61 0,-29 -2,-40 11,-48 -2,-2 -5,-7 -6,-5 -1,2 -7,-5 -12,-9 -30,-27 19,31 -12,-13l-3 -53 1 -194 -1 -102 -1 -135 2 -103c33,-24 93,3 114,-20l-78 0c-7,-13 -9,-24 -15,-38l-190 0c0,-43 1,-10 -8,-17l-44 -8c0,10 -2,41 -1,49 6,38 -6,20 15,29z"/>
   <path class="fil1" d="M569 2484l-7 284 666 2 -4 -225 -460 -3c-12,-14 -3,4 -9,-17 -5,-16 0,4 -3,-14l1 -463 -182 0 -2 436z"/>
   <path class="fil2" d="M1234 2773l652 -2 2 -725 -177 2 0 380c0,101 7,53 -12,117l-463 0 -2 228z"/>
   <path class="fil4" d="M197 3501l1 -253 2 -105 63 0 3 472 -64 1 -5 -115zm-34 -362l20 3 4 21 -2 433c-11,0 -26,-2 -36,1 -38,12 -17,10 -17,21l196 23c1,1 3,4 3,6 1,1 3,4 3,5 1,1 2,3 3,5 24,-19 15,-21 15,-61l-68 0 0 -114 243 0c28,-5 15,3 30,-15l-23 0 -4 -773 -210 -2 -3 327c0,18 1,36 2,53 0,47 -6,47 -20,61l1 -440c41,0 85,0 128,0 23,0 45,0 68,1 29,0 47,2 65,-14l-247 -2c-30,12 -3,-8 -14,16 -11,27 0,374 -6,435l-124 6 0 -264 0 -95 -1 -135 1 -118 125 1c-9,-8 -3,-7 -26,-12 -4,-1 -26,-2 -31,-1 -17,0 -35,0 -53,0 -25,0 -25,-17 -23,61 1,27 1,55 1,83l0 484z"/>
   <path class="fil5" d="M1214 1074l1070 6 14 508c-66,12 -980,-1 -1075,-1 -15,-42 -9,-436 -9,-513zm-1086 1l1071 -3c14,46 9,439 9,518 -134,0 -1037,8 -1088,-5l8 -510zm2181 -237l3 24c3,31 11,60 -3,81 -20,-9 -13,16 -19,-31 -1,-13 -1,-32 -2,-46l-4 -28 0 -4 -2 1 -2 61 7 62c18,-7 10,-5 29,-9l11 117 -44 -4 -1063 -1c-61,16 -216,15 -284,9 -95,-9 -176,-8 -273,-8 -104,0 -470,17 -543,-2l-2 -1 -33 -1 0 -29 -6 3c0,32 -2,20 8,46l-4 33c0,-1 -5,-6 -1,-18 10,-36 -9,-10 20,-26 13,16 12,1 6,56l-9 72 -6 40 -6 64 -13 161c0,18 0,41 -2,59 -4,32 2,26 -30,27l4 -86 4 -65 -9 -1c0,47 -20,88 0,139 -1,26 1,8 3,16 16,50 4,-20 6,15 0,8 -10,32 -14,45 9,20 6,24 1,49l-25 0c-8,19 -13,16 6,15l22 1 16 -3 1169 -1 16 3 408 -4c122,8 263,2 387,2 88,0 315,-10 380,7l24 -2 7 -6 -1 -7 -20 -3c-394,2 -794,3 -1188,-6 -182,-5 -398,2 -590,2 -198,0 -396,0 -594,0l-3 -48 2374 2c-12,-23 -12,-14 -23,-34 -7,-12 -3,-5 -4,-15l-1 -14 -25 2 -9 -99 -18 -145 -4 -52c-6,-10 -1,9 -8,-16 -3,-9 -4,-19 -5,-28 -2,-13 -3,-28 -5,-42 -10,-29 -22,-68 -14,-92 20,7 10,-4 21,14 6,10 3,10 6,25l-4 -13c17,-47 -14,-229 -15,-287l-9 1 1 23z"/>
   <path class="fil1" d="M1133 2466c-47,-23 -73,-47 -98,-109 -13,-32 -24,-138 13,-157 28,-63 76,-99 141,-114 40,-10 37,2 37,-40l-462 2 1 482c44,9 284,3 361,3 56,1 96,12 101,-14 9,-45 -68,-15 -94,-53z"/>
   <path class="fil1" d="M1315 2102c5,-1 0,-3 14,1 6,1 9,3 15,6 137,82 141,292 -29,376 -6,1 -49,7 -54,9 -28,9 -24,-4 -20,39l458 0 -1 -487 -458 3c-1,71 19,5 75,53z"/>
   <path class="fil6" d="M134 933l1066 4c8,-42 1,-90 -6,-127 -117,0 -1023,-16 -1055,3l-5 120z"/>
   <polygon class="fil6" points="2280,896 2282,835 2265,814 1217,809 1217,936 2280,942 "/>
   <path class="fil7" d="M1111 2336l0 0zm-63 -136c-37,19 -26,125 -13,157 25,62 51,86 98,109 10,-20 -15,-15 15,-15 20,23 119,39 137,15 55,0 15,-5 30,19 170,-84 166,-294 29,-376 -6,-3 -9,-5 -15,-6 -14,-4 -9,-2 -14,-1 -33,4 -18,2 -48,0 -171,-13 -166,98 -219,98z"/>
   <path class="fil8" d="M1315 2485c-15,-24 25,-19 -30,-19 -18,24 -117,8 -137,-15 -30,0 -5,-5 -15,15 26,38 103,8 94,53 -5,26 -45,15 -101,14 -77,0 -317,6 -361,-3l-1 -482 462 -2c0,42 3,30 -37,40 -65,15 -113,51 -141,114 53,0 48,-111 219,-98 30,2 15,4 48,0 -56,-48 -76,18 -75,-53l458 -3 1 487 -458 0c-4,-43 -8,-30 20,-39 5,-2 48,-8 54,-9zm1097 -525l31 -6 -7 39c-4,39 6,35 -21,42 -4,-8 -4,0 -6,-17 0,-4 1,-18 2,-23 1,-16 2,-18 1,-35zm-1172 -5l1161 0 -7 82 -1158 -8 4 -49 0 -25zm-1215 94c8,-8 -7,-5 23,-15 -46,-3 -10,3 -27,-8l0 -31 -7 -40c50,2 16,-8 34,31l9 0 -2 -31 1173 0 -5 72 -583 8c-104,0 -514,5 -583,-2 53,33 437,-13 514,15l182 0 -1 463c3,18 -2,-2 3,14 6,21 -3,3 9,17l460 3 4 225 6 3 2 -228 463 0c19,-64 12,-16 12,-117l0 -380 177 -2c104,-14 377,6 474,-4 52,-6 34,-9 53,-4 19,6 7,0 18,11 31,-30 20,-116 20,-175 0,-61 11,-149 -6,-204l-7 6 1 60 0 50 1 39 0 95c-3,21 -2,12 -12,23 -20,-11 -10,13 -15,-23l1 -86 0 -46 0 -48 0 -62c-65,-17 -292,-7 -380,-7 -124,0 -265,6 -387,-2 33,20 658,8 755,8l-1 265 -1163 0 1 -269 -16 -3 2 274 -1172 -6 1 -267 -16 3 3 57 -1 53 1 41 -1 113 -27 0 0 -113 0 -41 0 -53 3 -58c-19,1 -14,4 -6,-15l4 -49 20 0c4,-13 14,-37 14,-45 -2,-35 10,35 -6,-15 -2,-8 -4,10 -3,-16 -57,43 -38,139 -38,250 0,33 -4,220 6,245 7,20 -2,13 16,21z"/>
   <polygon class="fil1" points="128,947 128,1056 1203,1060 1203,954 "/>
   <path class="fil7" d="M2426 1660l-1 -50 -2374 -2 3 48c198,0 396,0 594,0 192,0 408,-7 590,-2 394,9 794,8 1188,6z"/>
   <polygon class="fil1" points="1220,1061 2283,1062 2287,958 1215,952 "/>
   <path class="fil1" d="M109 2361l312 0 0 -211c43,-16 99,-2 139,-10l0 -72 -453 0 2 293z"/>
   <path class="fil9" d="M978 494l0 8 224 1 1 113 6 -2 0 -113 471 -4 -1 -3 -174 2c-47,5 -63,-9 -99,1l-204 -3 0 -250c26,-1 75,-10 98,-15 0,-17 -1,-37 0,-54 2,-71 15,12 15,-159 -75,-17 -156,-17 -243,-15 -41,1 -43,8 -75,15l0 213c31,7 76,15 114,15l0 250 -133 0z"/>
   <path class="fil10" d="M128 947l1075 7 0 106 -1075 -4 0 -109zm6 -14l5 -120c32,-19 938,-3 1055,-3 7,37 14,85 6,127l-1066 -4zm-40 -132l10 4 20 0 -6 56c-36,0 -8,5 -18,-18l0 49 18 -4 5 -7c1,7 -1,23 0,30 5,28 2,11 11,22l-6 14c-15,39 -14,68 -8,113 73,19 439,2 543,2 97,0 178,-1 273,8 68,6 223,7 284,-9l-5 -109 1072 6 -7 -62 0 46 -1063 -6 0 -127 1048 5 17 21 2 -1 5 -18 19 -1 9 -1 -9 -16 -60 -1c0,-1 -9,-18 -10,-19 -16,-17 -4,-10 -26,-12l22 35 -1024 -4 -1 -183 -6 2c-18,33 -7,136 -7,180l-1027 -4c12,-31 73,-113 94,-145l93 -145 622 0 0 -8c-28,-13 -32,-6 -65,-7 -42,-2 -34,-14 -61,-15 -39,-1 6,15 -128,15 -96,-1 -192,0 -288,0 -74,-1 -76,-10 -107,37 -48,75 -141,203 -174,266 -61,0 -45,-4 -61,11z"/>
   <path class="fil2" d="M57 1986l0 47c69,7 479,2 583,2l583 -8 5 -72 -1173 0 2 31z"/>
   <polygon class="fil2" points="1240,1980 1236,2029 2394,2037 2401,1955 1240,1955 "/>
   <path class="fil2" d="M1900 2147c160,0 126,-38 126,212 53,0 225,7 264,-5l0 -280c-38,-15 -326,-6 -390,-6l0 79z"/>
   <path class="fil11" d="M795 3103l801 -1c26,-8 7,9 23,-14 -92,0 -353,-11 -421,8l11 -103 1 -88 -413 -3c0,64 18,139 -2,201z"/>
   <path class="fil3" d="M572 2784c0,-19 12,-1 5,0 0,0 -5,21 -5,0zm-15 379c30,-9 59,-7 99,-7l0 -69 136 0 3 16c20,-62 2,-137 2,-201l1 -2 -2 -61 0 -58c-18,-7 -12,-8 -8,13l1 70c-28,11 -42,7 -73,7 -7,0 -33,1 -38,0 -29,-4 -13,4 -27,-11l5 -76c-32,21 -19,14 -59,14 22,-13 538,-13 575,-13 3,0 28,-1 30,-2 25,-6 15,-2 26,-13l-666 -2c-13,78 2,370 -5,395z"/>
   <path class="fil11" d="M1215 2990l-2 100 398 0c3,-31 8,-144 25,-170l-7 -16c-87,1 -350,-10 -410,5l-4 81z"/>
   <path class="fil12" d="M1687 2845c-8,34 3,12 -15,26 -49,0 -20,-1 -32,-11l2 -68 45 0 0 53zm-1031 -61c37,15 86,6 128,10l4 0c-4,-21 -10,-20 8,-13 109,21 290,-6 409,6l19 -1 411 -1 -2 113 -408 -1 -427 3 -1 2 413 3 -1 88 6 -3 4 -81c60,-15 323,-4 410,-5l7 16 3 24 10 -61 38 0c10,62 -5,156 8,204 -12,30 -8,35 -8,69l23 0 0 -357 68 0c22,66 25,205 16,281 -19,159 -16,98 -16,273 -11,28 -9,83 1,105 14,28 25,16 105,16 79,0 157,0 235,0 0,16 3,81 0,91 -9,46 -53,7 -60,31l0 13c54,-6 15,13 75,11 42,-2 57,-2 99,1 2,-2 4,-6 5,-5l25 -28 -45 4c-21,24 7,15 -31,24 -27,6 -38,1 -51,-14 -11,-12 -5,-1 -8,-22l4 -442c-20,19 -11,-6 -15,40l0 122c0,56 -4,98 -7,149l-297 8 11 -521c-3,-73 -19,-126 13,-152 -15,12 33,-5 -14,6 -48,10 -224,-6 -280,-6 -37,0 -276,11 -309,-11l-6 -3c-11,11 -1,7 -26,13 -2,1 -27,2 -30,2 -37,0 -553,0 -575,13 40,0 27,7 59,-14z"/>
   <path class="fil13" d="M2143 3502l-1 -262 4 -95 56 3 2 92 -1 261 1 108 -61 0 0 -107zm-29 -971l115 0 0 103 -3 135 0 101 -112 1 -1 194 113 0 0 53 -110 0c31,44 -18,-14 12,13 5,4 11,11 12,9 1,-2 4,3 6,5 -13,8 -11,19 -11,48 0,21 0,40 -1,61 -1,38 0,76 0,114 0,78 1,156 2,234 13,15 24,20 51,14 38,-9 10,0 31,-24l0 -451 30 0 0 -622c-5,-4 -13,-5 -20,-8 -21,23 -81,-4 -114,20z"/>
   <path class="fil14" d="M185 2511c18,0 36,0 53,0 5,-1 27,0 31,1 23,5 17,4 26,12l18 1 246 -2 2 157c-18,16 -36,14 -65,14 -23,-1 -45,-1 -68,-1 -43,0 -87,0 -128,0l-1 440c14,-14 20,-14 20,-61 -1,-17 -2,-35 -2,-53l3 -327 210 2 4 773 23 0c1,-27 7,-26 8,-61 1,-27 0,-56 0,-83 0,-50 9,-116 -8,-160 7,-25 -8,-317 5,-395l7 -284c-21,-1 -29,-2 -58,-3 -11,0 -18,0 -29,-2 -19,-3 -10,-2 -18,-6 5,-40 2,-14 -6,-16l-106 1c-9,3 -7,-27 -7,15l-137 0c-15,32 5,33 -23,38z"/>
   <polygon class="fil15" points="1225,2897 1633,2898 1635,2785 1224,2786 "/>
   <path class="fil13" d="M289 2641l-5 135 0 95 -114 0 0 264 124 -6c6,-61 -5,-408 6,-435 11,-24 -16,-4 14,-16l-1 -153 -18 -1 -6 117z"/>
   <polygon class="fil16" points="314,2678 561,2680 559,2523 313,2525 "/>
   <path class="fil3" d="M1710 3156l45 0 9 174c7,27 -10,7 14,23 0,-175 -3,-114 16,-273 9,-76 6,-215 -16,-281l-68 0 0 357z"/>
   <polygon class="fil1" points="433,2431 555,2431 555,2231 560,2160 433,2159 "/>
   <polygon class="fil1" points="1899,2431 1983,2431 2012,2429 2012,2162 1983,2161 1899,2161 "/>
   <polygon class="fil16" points="1907,2675 2103,2676 2104,2523 1907,2526 "/>
   <path class="fil17" d="M1899 2161l84 0 29 1 0 267 -29 2 -84 0 0 -270zm1 -93c64,0 352,-9 390,6l0 280c-39,12 -211,5 -264,5 0,-250 34,-212 -126,-212l0 -79zm-14 703c2,-5 4,-4 6,-17 6,-37 -10,-54 15,-79l0 -149c-21,-9 -9,9 -15,-29 -1,-8 1,-39 1,-49l44 8c11,-22 -7,-8 31,-13 62,-8 60,19 60,-68l213 0c82,2 60,21 60,-304 55,0 43,-2 53,-15 -123,17 -342,-17 -455,7 -1,-2 -5,-7 -6,-8 -1,-1 -5,-7 -5,-9l-2 725z"/>
   <polygon class="fil18" points="796,2839 798,2900 1225,2897 1224,2786 1205,2787 1208,2838 "/>
   <path class="fil19" d="M433 2159l127 1 -5 71 0 200 -122 0 0 -272zm-326 -91l453 0 0 72c-40,8 -96,-6 -139,10l0 211 -312 0 -7 -1c15,19 14,16 68,15l250 0 0 68c-57,0 -51,-6 -68,15l106 -1c22,-25 -11,-2 17,-11 9,-4 18,-4 28,-4 16,-1 37,1 54,1l0 30 -93 0c8,4 -1,3 18,6 11,2 18,2 29,2 29,1 37,2 58,3l2 -436c-7,10 -8,8 -14,12l-403 -5c-10,1 -19,1 -29,4 -20,5 -8,0 -18,9z"/>
   <path class="fil20" d="M796 2839l412 -1 -3 -51c-119,-12 -300,15 -409,-6l0 58z"/>
   <path class="fil21" d="M197 3501l61 4c7,-55 14,-222 -4,-262l-56 5 -1 253z"/>
   <polygon class="fil21" points="2143,3502 2203,3501 2204,3240 2142,3240 "/>
   <polygon class="fil22" points="170,2776 284,2776 289,2641 169,2641 "/>
   <polygon class="fil23" points="2113,2769 2226,2769 2229,2634 2112,2634 "/>
   <path class="fil24" d="M198 3248l56 -5c18,40 11,207 4,262l-61 -4 5 115 64 -1 -3 -472 -63 0 -2 105z"/>
   <polygon class="fil25" points="169,2641 289,2641 295,2524 170,2523 "/>
   <path class="fil26" d="M1636 2920c-17,26 -22,139 -25,170l-398 0 2 -100 -6 3 -11 103c68,-19 329,-8 421,-8l30 0c15,0 30,-1 46,-1 -13,-48 2,-142 -8,-204l-38 0 -10 61 -3 -24z"/>
   <polygon class="fil25" points="2112,2634 2229,2634 2229,2531 2114,2531 "/>
   <path class="fil27" d="M48 2034c-30,10 -15,7 -23,15 19,8 52,20 77,22l0 289 7 1 -2 -293c10,-9 -2,-4 18,-9 10,-3 19,-3 29,-4l403 5c6,-4 7,-2 14,-12 -77,-28 -461,18 -514,-15l0 -47 -9 0 0 8 0 40z"/>
   <polygon class="fil17" points="2114,2871 2226,2870 2226,2769 2113,2769 "/>
   <path class="fil28" d="M2323 1167c12,-18 -12,-15 11,-14l27 84c-3,8 -3,1 -2,16 0,1 3,19 3,19 2,14 1,14 7,33 5,41 23,112 15,150 3,6 2,-4 6,18 1,7 2,21 3,29 2,20 4,22 4,45l1 14c1,10 -3,3 4,15 11,20 11,11 23,34l22 -1 -1 54 1 7c20,-10 10,11 15,-31 7,-61 -32,-61 -47,-90 -2,-4 -43,-347 -63,-415 -15,-52 3,-15 -20,-33l4 13c-3,-15 0,-15 -6,-25 -11,-18 -1,-7 -21,-14 -8,24 4,63 14,92z"/>
   <polygon class="fil29" points="170,2871 284,2871 284,2776 170,2776 "/>
   <path class="fil27" d="M2354 2056c31,12 47,-1 79,-7 -11,-11 1,-5 -18,-11 -19,-5 -1,-2 -53,4 -97,10 -370,-10 -474,4 0,2 4,8 5,9 1,1 5,6 6,8 113,-24 332,10 455,-7z"/>
   <path class="fil30" d="M87 1078c-14,6 -19,-6 -23,68l-23 248 9 1 12 -96 8 -64 7 -39 22 -1 9 -72c6,-55 7,-40 -6,-56 -29,16 -10,-10 -20,26 -4,12 1,17 1,18l4 -33z"/>
   <path class="fil31" d="M2082 3633c10,-6 -1,-3 16,-6l74 0c35,0 70,-1 104,-1 -7,32 10,22 -34,24l-116 0c-54,0 -29,2 -44,-17zm181 -45l-25 28c-1,-1 -3,3 -5,5 -42,-3 -57,-3 -99,-1 -60,2 -21,-17 -75,-11l0 -13c-46,19 8,57 14,61 25,12 194,7 197,6 44,-15 3,-63 -7,-75z"/>
   <path class="fil17" d="M1680 497c12,22 32,13 83,13l273 0c33,18 60,76 78,105 7,-25 10,-11 -26,-66 -13,-20 -25,-36 -37,-55l-372 0 1 3z"/>
   <path class="fil32" d="M337 3657c-1,-2 -2,-4 -3,-5 0,-1 -2,-4 -3,-5 0,-2 -2,-5 -3,-6l-196 -23c-15,12 -15,-7 -15,46l197 0c28,-3 -10,3 13,-3 1,0 4,-1 5,-2 1,0 3,-1 5,-2z"/>
   <polygon class="fil33" points="2203,3501 2143,3502 2143,3609 2204,3609 "/>
   <polygon class="fil34" points="2116,3118 2226,3118 2226,3065 2113,3065 "/>
   <polygon class="fil35" points="2142,3240 2204,3240 2202,3148 2146,3145 "/>
   <polygon class="fil36" points="50,1395 46,1460 74,1460 87,1299 62,1299 "/>
   <path class="fil37" d="M2098 3627c-17,3 -6,0 -16,6 15,19 -10,17 44,17l116 0c44,-2 27,8 34,-24 -34,0 -69,1 -104,1l-74 0z"/>
   <path class="fil38" d="M79 1032l6 -3c14,-28 7,-19 9,-50 3,-50 -7,-21 15,-33 14,23 9,84 9,113l2 1c-6,-45 -7,-74 8,-113l6 -14c-9,-11 -6,6 -11,-22 -1,-7 1,-23 0,-30l-5 7 -1 45c-32,-4 -23,1 -17,-41l0 -49 4 -38 -10 -4c-8,3 -8,-14 -7,49l-8 182z"/>
   <path class="fil39" d="M2287 958l-4 104 44 4 -11 -117c-19,4 -11,2 -29,9z"/>
   <path class="fil36" d="M2363 1450c16,15 10,-18 14,16l7 -11c8,-38 -10,-109 -15,-150l-24 0 18 145z"/>
   <polygon class="fil40" points="43,1825 15,1825 15,1938 42,1938 "/>
   <path class="fil39" d="M85 1029l0 29 33 1c0,-29 5,-90 -9,-113 -22,12 -12,-17 -15,33 -2,31 5,22 -9,50z"/>
   <path class="fil40" d="M2442 1825l-26 9 -1 86c5,36 -5,12 15,23 10,-11 9,-2 12,-23l0 -95z"/>
   <path class="fil41" d="M74 1460l-28 0 -4 86c32,-1 26,5 30,-27 2,-18 2,-41 2,-59z"/>
   <path class="fil41" d="M2397 1547c0,-23 -2,-25 -4,-45 -1,-8 -2,-22 -3,-29 -4,-22 -3,-12 -6,-18l-7 11c-4,-34 2,-1 -14,-16l9 99 25 -2z"/>
   <path class="fil10" d="M2212 766c9,-32 7,-15 -2,-22 -11,-42 -64,-86 -75,-129 -12,-9 -3,-1 -21,0 22,26 28,44 48,71 8,11 17,22 25,35 11,17 17,33 25,45z"/>
   <path class="fil42" d="M2312 862l-24 4c1,14 1,33 2,46 6,47 -1,22 19,31 14,-21 6,-50 3,-81z"/>
   <path class="fil43" d="M2341 1253l3 -17 17 1 -27 -84c-23,-1 1,-4 -11,14 2,14 3,29 5,42 1,9 2,19 5,28 7,25 2,6 8,16z"/>
   <path class="fil44" d="M651 2860c14,15 -2,7 27,11 5,1 31,0 38,0 31,0 45,4 73,-7l-1 -70 -4 0 0 66 -133 0z"/>
   <polygon class="fil45" points="2416,1740 2441,1736 2440,1676 2416,1678 "/>
   <polygon class="fil46" points="62,1299 87,1299 93,1235 70,1235 "/>
   <path class="fil47" d="M1406 497c36,-10 52,4 99,-1l-8 -17c-25,-2 -59,-13 -91,18z"/>
   <polygon class="fil45" points="15,1731 43,1731 40,1674 18,1673 "/>
   <polygon class="fil48" points="15,1784 42,1784 43,1731 15,1731 "/>
   <path class="fil46" d="M2341 1253l4 52 24 0c-6,-19 -5,-19 -7,-33 0,0 -3,-18 -3,-19 -1,-15 -1,-8 2,-16l-17 -1 -3 17z"/>
   <path class="fil49" d="M12 1658l25 0c5,-25 8,-29 -1,-49l-20 0 -4 49z"/>
   <polygon class="fil48" points="2416,1788 2441,1786 2441,1736 2416,1740 "/>
   <polygon class="fil50" points="15,1825 43,1825 42,1784 15,1784 "/>
   <path class="fil46" d="M100 843c10,23 -18,18 18,18l6 -56 -20 0 -4 38z"/>
   <polygon class="fil51" points="2416,1834 2442,1825 2441,1786 2416,1788 "/>
   <polygon class="fil49" points="2426,1660 2446,1663 2447,1609 2425,1610 "/>
   <path class="fil49" d="M21 1995l27 -1 0 -8c-18,-39 16,-29 -34,-31l7 40z"/>
   <path class="fil52" d="M48 2034l0 -40 -27 1 0 31c17,11 -19,5 27,8z"/>
   <path class="fil52" d="M2436 1993l-21 3 -3 -36c1,17 0,19 -1,35 -1,5 -2,19 -2,23 2,17 2,9 6,17 27,-7 17,-3 21,-42z"/>
   <polygon class="fil36" points="2436,1993 2443,1954 2412,1960 2415,1996 "/>
   <polygon class="fil53" points="70,1235 93,1235 99,1195 77,1196 "/>
   <path class="fil42" d="M118 888l-18 4c-6,42 -15,37 17,41l1 -45z"/>
   <polygon class="fil54" points="2288,866 2312,862 2309,838 2284,838 "/>
   <polygon class="fil36" points="2284,834 2284,838 2309,838 2308,815 2289,816 "/>
   <path class="fil55" d="M1640 2860c12,10 -17,11 32,11 18,-14 7,8 15,-26l-9 15 -38 0z"/>
   <path class="fil55" d="M187 3163l-4 -21 -20 -3 20 21c0,0 3,2 4,3z"/>
   <path class="fil56" d="M1111 2336l0 0zm0 0l0 0z"/>
   <line class="fil15" x1="1111" y1="2336" x2="1111" y2= "2336" />
  </g>
 </g>
</svg>
