<?xml version="1.0" encoding="UTF-8"?>
<!DOCTYPE svg PUBLIC "-//W3C//DTD SVG 1.1//EN" "http://www.w3.org/Graphics/SVG/1.1/DTD/svg11.dtd">
<!-- Creator: CorelDRAW X7 -->
<svg xmlns="http://www.w3.org/2000/svg" xml:space="preserve" width="60.2792mm" height="38.673mm" version="1.1" style="shape-rendering:geometricPrecision; text-rendering:geometricPrecision; image-rendering:optimizeQuality; fill-rule:evenodd; clip-rule:evenodd"
viewBox="0 0 4689 3008"
 xmlns:xlink="http://www.w3.org/1999/xlink">
 <defs>
  <style type="text/css">
   <![CDATA[
    .fil51 {fill:#848688}
    .fil52 {fill:#727376}
    .fil16 {fill:black}
    .fil49 {fill:#050505}
    .fil40 {fill:#121C1B}
    .fil12 {fill:#14211D}
    .fil18 {fill:#1A2835}
    .fil1 {fill:#1B1B1B}
    .fil58 {fill:#1E1E1E}
    .fil23 {fill:#2A3738}
    .fil38 {fill:#343434}
    .fil19 {fill:#343D44}
    .fil56 {fill:#353326}
    .fil43 {fill:#35666A}
    .fil20 {fill:#374A55}
    .fil8 {fill:#3B3B3B}
    .fil13 {fill:#454C55}
    .fil57 {fill:#495965}
    .fil9 {fill:#4D3812}
    .fil25 {fill:#4D4D4D}
    .fil10 {fill:#544E49}
    .fil50 {fill:#545C66}
    .fil24 {fill:#54626C}
    .fil42 {fill:#585132}
    .fil32 {fill:#586674}
    .fil34 {fill:#616161}
    .fil60 {fill:#666666}
    .fil36 {fill:#67584D}
    .fil46 {fill:#68572F}
    .fil47 {fill:#687579}
    .fil31 {fill:#697589}
    .fil59 {fill:#6C6C6C}
    .fil21 {fill:#717171}
    .fil14 {fill:#733333}
    .fil28 {fill:#767779}
    .fil7 {fill:#7A7A7A}
    .fil2 {fill:#7E7E7E}
    .fil48 {fill:#858B94}
    .fil17 {fill:#898989}
    .fil44 {fill:#898D8E}
    .fil30 {fill:#8B734D}
    .fil6 {fill:#8E8E8E}
    .fil29 {fill:#9298AA}
    .fil54 {fill:#949BB2}
    .fil64 {fill:#9AA4B1}
    .fil62 {fill:#A5A7A9}
    .fil61 {fill:#A9A9AA}
    .fil5 {fill:#B1B1B1}
    .fil37 {fill:#B6B8BA}
    .fil39 {fill:#C3C9CC}
    .fil22 {fill:#C5C5C5}
    .fil3 {fill:#C9C9C9}
    .fil45 {fill:#CECECE}
    .fil53 {fill:#CED0D1}
    .fil26 {fill:#D18F2F}
    .fil4 {fill:#D5D5D5}
    .fil35 {fill:#D6D7D9}
    .fil33 {fill:#D7B131}
    .fil41 {fill:#DADCDC}
    .fil15 {fill:#E1E1E1}
    .fil0 {fill:#E3E3E4}
    .fil55 {fill:#F0D6A5}
    .fil27 {fill:#F1E7CD}
    .fil63 {fill:#F4F3FA}
    .fil11 {fill:#FDFDFD}
   ]]>
  </style>
 </defs>
 <g id="Layer_x0020_1">
  <metadata id="CorelCorpID_0Corel-Layer"/>
  <g id="_1159097976">
   <path class="fil0" d="M2672 1892c-8,-30 -4,-87 -3,-121 0,-47 29,-33 80,-33l-1 150c-18,6 -53,9 -76,4zm652 -38c-1,-32 -5,-117 4,-143 19,-2 47,-7 65,0 4,25 6,116 -3,140l-66 3zm225 -154l69 -3 -6 140 -65 5 2 -142zm563 107l-23 0 2 -129 23 -2c47,-20 38,23 38,60 0,60 16,70 -40,71zm-1511 156l1779 -120 52 -3 0 -54c-16,-38 -28,-352 -32,-423 -9,-134 -27,-277 -29,-415 -52,-11 -94,-1 -140,-12l-5 860c1,26 6,32 -13,40 -21,-7 -8,9 -15,-17 0,-1 -1,-26 -1,-29l6 -857 -716 -32 -2 653 399 -11c42,-2 146,-8 181,0 2,-1 3,-1 4,-2 1,0 3,-1 5,-2l9 -2c12,-2 44,-3 52,4 10,9 3,48 -3,62l-644 23c-10,52 10,216 -10,246l-20 -2 -1 -243 -760 26 10 -25 17 -52 615 -18c39,-3 83,6 120,-8l1 -648 -869 -44 -1 1044c0,78 -2,56 11,61z"/>
   <path class="fil1" d="M2720 2299c-76,0 -209,-18 -273,-18l0 -12c96,0 186,-23 285,-23 -7,27 -12,16 -12,53zm-930 -196l5 10 142 6 12 1 66 4 119 -5c3,10 11,420 11,469 -2,0 -33,0 -33,0 -23,4 -13,1 -20,10l15 1 3 352c-26,6 -47,9 -72,8l-21 6 -35 0c-11,-8 -9,17 -9,-11 -21,-6 -9,-4 -23,3 -6,4 -4,6 -3,12 1,1 2,3 3,5l76 6c51,-2 109,-16 149,-17 4,9 4,9 12,14 0,0 12,6 3,-17 -7,-19 -42,-18 -75,-21 0,-53 8,-168 -3,-213 13,-12 1,-8 25,-15l-20 -1 1 -116 32 -6 0 -14 4 -98c4,3 14,11 18,12 50,14 21,1 31,-9 -28,-9 -24,-4 -48,-20 -5,-32 -1,-58 -6,-90 -2,-12 -8,-38 -8,-47 1,-34 -8,-25 28,-29 11,15 17,3 1,55 -7,22 -7,40 -1,63 14,59 53,107 119,75 14,-11 5,-6 16,-21 7,-9 16,-20 25,-29 14,2 27,1 40,5 25,7 19,2 19,16 16,-8 13,-12 21,-18 -45,-1 -73,-5 -116,-7 -56,-1 -71,-6 -78,-59 50,2 102,1 145,6 26,4 41,7 69,7 61,1 46,-6 72,14 2,-47 0,-82 51,-86 -6,38 -39,119 8,133 22,25 31,18 71,18 36,0 43,6 77,6 0,119 44,228 132,301 49,41 315,66 365,42 13,-7 55,-33 64,-43 126,-140 151,-322 123,-504 -3,-22 -4,-27 -9,-44 -4,-14 -13,-27 -9,-42 -43,-49 -9,-47 -100,-134 -51,-49 -126,-29 -198,-38 -1,-24 2,-18 -8,-34l-45 0 -13 32c-102,-10 -130,14 -183,67 -36,36 -75,97 -88,162 -99,2 -200,24 -297,29 -71,4 -240,32 -295,25l-2 -180c-24,-4 -43,-2 -62,-5 -43,-6 -3,-2 -33,-23 -38,-14 -173,14 -195,17 -22,2 -42,1 -65,4z"/>
   <path class="fil2" d="M2363 2169c24,0 30,-1 50,10 12,75 -9,67 -57,70 -18,1 -43,2 -62,-3l-2 -69 -18 -12c-11,-25 -10,-109 -1,-135 37,-16 113,-10 150,-4l-1 118c-3,15 0,7 -5,15 -12,3 -41,2 -54,10zm238 -206c-10,14 -10,13 -50,14l-376 24c-113,5 -370,-18 -439,-9l-71 5 -3 320c-32,15 -138,11 -175,6 -31,-5 -34,-21 -103,-5l0 82 191 101c49,22 41,37 108,29 37,-4 110,-8 135,-18 2,-18 19,-43 35,-82l41 -79c13,-25 18,-37 45,-39l-1 -60c-24,-5 -59,-6 -82,-7 -14,-1 -28,-1 -43,-2 -2,0 -22,-2 -23,-2 -2,0 -4,-1 -5,-1l-10 -5c-12,-5 -8,-114 -8,-114 5,-28 -3,-17 23,-18 23,-3 43,-2 65,-4 22,-3 157,-31 195,-17 30,21 -10,17 33,23 19,3 38,1 62,5l2 180c55,7 224,-21 295,-25 97,-5 198,-27 297,-29 13,-65 52,-126 88,-162 53,-53 81,-77 183,-67l13 -32 45 0c10,16 7,10 8,34 72,9 147,-11 198,38 91,87 57,85 100,134l366 -35c33,-7 23,-19 23,-60 -1,-55 0,-111 0,-166l379 -29c30,0 33,4 36,-24l177 -12c15,-1 -2,1 11,-1 19,-4 5,0 14,-5l0 -6 -1779 120z"/>
   <path class="fil0" d="M2548 1968c0,-188 0,-376 0,-563l-1 -550 -420 -20c-10,72 1,1059 1,1162l420 -29z"/>
   <path class="fil3" d="M1826 800l4 -3c6,-19 -14,-11 60,-13 50,-1 197,-22 157,36 1,34 5,13 -13,19 -18,35 -37,48 -45,95 -25,129 -22,43 -35,108 -15,78 -29,159 -44,239 -9,46 -51,249 -50,288 0,26 -6,19 -6,72 0,24 0,48 0,72 0,11 1,24 1,36 -1,22 0,27 -8,34 -24,13 -231,13 -281,15l-2 164c26,3 53,0 77,4 30,5 10,5 31,9 13,2 32,1 46,3l402 19 -3 -1037c0,-59 8,-111 -15,-158 -15,-30 -53,-93 -55,-122 1,-23 -9,-31 -23,-64 -8,-20 -8,-16 -17,-32 -4,-6 -7,-11 -9,-13l-7 -8c-2,0 -4,-1 -6,-2 -1,-1 -3,-2 -5,-3l-17 -7c-17,-5 -71,0 -91,1 -42,3 -81,4 -124,8l-248 15 0 221 248 -10c20,0 47,-7 65,2 24,11 2,-21 13,12z"/>
   <path class="fil4" d="M3457 889c-26,-36 -46,-68 -70,-104 -14,-21 -64,-92 -68,-110 40,0 48,32 90,100 23,35 58,84 76,119l712 33c-32,-58 -128,-169 -144,-208 32,4 19,-1 35,17l136 190 141 6c-11,-16 -61,-101 -67,-120 2,-23 -7,-17 -8,-53 -1,-23 4,-43 -4,-59l1 82c-21,-11 -31,-28 -41,-58 -13,-20 -80,-15 -110,-18 -36,-2 -82,-8 -121,-8l-1111 -77 -33 -4c-77,-1 -374,-42 -419,-30 27,32 111,239 143,263l862 39z"/>
   <path class="fil5" d="M1679 1176c-5,28 -102,114 -127,150 -1,1 -2,3 -3,4 0,1 -1,2 -2,3 -13,20 -32,50 -50,63l-8 4 7 20c-6,2 -268,59 -272,59 0,49 -5,36 39,43l3 209c4,27 15,24 28,49 -16,-9 -21,-18 -28,-35 -12,10 -11,-13 -12,17 2,15 -6,10 9,26 16,16 2,8 23,10 9,-1 5,-6 12,2l6 -17c14,30 30,19 118,15 93,-4 374,-13 427,-21 0,-265 4,-247 55,-506l51 -263c8,-15 2,-3 8,-11 24,-35 13,-98 62,-151l6 -5c1,0 2,-2 3,-2 18,-6 14,15 13,-19l-6 -28c-15,8 -12,4 -29,35 -27,51 -41,61 -50,109 -18,99 -28,70 -103,117 -23,15 -43,32 -66,47 -93,65 -107,100 -169,152 12,-19 50,-61 66,-71 -7,-9 10,-13 -11,-5z"/>
   <path class="fil6" d="M777 1032l-87 427c67,1 522,9 543,0 10,-8 88,-405 89,-438l-545 11z"/>
   <path class="fil5" d="M1188 1890c0,-37 9,-28 44,-31 27,-3 50,-4 78,-4 92,0 117,-11 117,23 0,246 31,198 -129,211 -131,11 -110,-20 -110,-51l0 -148zm-159 447l544 -47c0,-42 5,-281 -6,-307 -6,-15 -10,8 -9,-57 1,-41 1,-83 0,-123 -68,-11 -183,10 -257,7 -92,-3 -181,-10 -272,-10l0 537z"/>
   <path class="fil7" d="M1381 849c-8,4 -4,0 -14,10 -10,12 -16,31 -34,51l-542 15 62 -91 542 -21 -14 36zm108 -276l0 223 -185 6 -30 2 -113 4 -23 1 -188 8 101 -222 438 -22zm1821 41c-20,4 -15,13 -34,15l-331 -24c0,-17 18,-21 18,-95 8,-5 12,-2 25,-14 -22,-1 -23,-8 -48,-4l-31 -12c-19,25 -52,18 -94,18l-208 12c-33,0 -34,-16 -41,71l-190 -12c-164,-14 -407,-46 -558,-25l-573 31c-42,0 -60,6 -95,6 -34,1 -68,0 -101,0 -11,16 -100,209 -107,237 -109,0 -102,-15 -142,48 -37,58 -46,56 -59,142 0,0 1,0 1,1 1,1 2,2 2,2l9 8c0,-2 3,-5 3,-4 1,2 4,-3 5,-3 1,-1 4,-2 5,-4l17 -65c105,-18 293,-7 408,-15 25,-2 47,-1 71,-2 77,-3 61,-14 66,13l7 -1 3 -16 6 -9c13,-15 35,-45 37,-64 43,-21 -18,-33 82,-40 55,-3 343,-15 363,-9 -11,-33 11,-1 -13,-12 -18,-9 -45,-2 -65,-2l-248 10 0 -221 248 -15c43,-4 82,-5 124,-8 20,-1 74,-6 91,-1l17 7c2,1 4,2 5,3 2,1 4,2 6,2 -8,-24 -4,-9 0,-15l424 35c11,-16 -7,-8 15,-6 18,2 14,4 22,10 45,-12 342,29 419,30l38 0c-18,-23 2,-8 -23,-17l-142 -13c-57,-3 -106,-11 -166,-12 8,7 -1,12 4,-7l7 -41 295 -17c34,0 86,-29 47,72 -8,20 -18,27 -27,39l1111 77c13,-15 1,-10 14,-26l-30 -126c-12,-29 -46,-17 -129,-25 -26,-3 -68,-11 -97,-11 -28,19 -391,-27 -417,-30 0,37 -11,122 -46,134z"/>
   <path class="fil6" d="M1489 1400l8 -4c18,-13 37,-43 50,-63 1,-1 2,-2 2,-3 1,-1 2,-3 3,-4 25,-36 122,-122 127,-150 4,-19 -2,-3 8,-16l38 -33c38,-39 120,-93 168,-121l-283 9c-86,5 -186,5 -272,5l-87 435 234 -54c1,0 3,-1 4,-1z"/>
   <path class="fil4" d="M1991 563l7 8c2,2 5,7 9,13 9,16 9,12 17,32 14,33 24,41 23,64 22,45 49,103 76,149l412 19c18,6 6,-2 12,7l1 550c0,187 0,375 0,563 11,-12 5,-1 9,-19l0 -740c0,-79 11,-321 -10,-373l-132 -253 -424 -35c-4,6 -8,-9 0,15z"/>
   <path class="fil3" d="M627 1521c0,53 -8,151 7,194l597 21 2 -206c-197,-3 -416,-11 -606,-9z"/>
   <path class="fil8" d="M1161 2336c34,-10 77,-10 113,-12 34,-2 68,-7 97,-8l-2 78c-48,-2 -171,-6 -208,-18l0 -40zm419 -351c16,-8 49,-6 72,-10l-3 339 -69 5 0 -334zm-551 -185c91,0 180,7 272,10 74,3 189,-18 257,-7 1,40 1,82 0,123 -1,65 3,42 9,57 11,26 6,265 6,307l-544 47 0 -537zm-146 359c-16,-51 1,-283 -5,-360l38 -4c-1,118 4,243 5,363l-38 1zm403 -361c-42,9 -280,-6 -344,-9 -54,-2 -115,-4 -172,-7 -150,-9 -66,2 -130,-45 17,21 20,18 32,43 -44,0 -275,-15 -304,-8 -15,4 -7,1 -16,7l12 0 35 -3c11,2 10,-6 9,5l219 10 13 -1 230 11 2 359c9,4 4,1 23,2 12,0 16,-1 30,0l2 -366 94 4 2 540 -95 -5 -31 -1c11,32 9,132 3,167l1 5 4 -11 -1 -126c2,-36 -4,-22 14,-29 34,21 -22,4 43,54l0 102c1,3 3,6 5,9 1,1 4,2 5,1 2,-1 4,-4 5,-6 -6,-24 -3,-78 -1,-105 32,29 17,14 21,65 17,-1 19,-2 33,-9 17,-10 11,6 15,-16 7,4 18,12 26,16 24,14 6,20 32,2 63,70 217,65 321,76 107,11 221,18 324,6 32,-4 25,-11 43,2 20,-19 20,-4 28,-25 -25,10 -98,14 -135,18 -67,8 -59,-7 -108,-29l-191 -101 0 -82c69,-16 72,0 103,5 37,5 143,9 175,-6l3 -320 71 -5c-10,-10 -1,-10 -18,-14 -14,-2 -33,-1 -46,-3 -21,-4 -1,-4 -31,-9 -24,-4 -51,-1 -77,-4l2 -164c50,-2 257,-2 281,-15 8,-7 7,-12 8,-34 0,-12 -1,-25 -1,-36 0,-24 0,-48 0,-72 0,-53 6,-46 6,-72 -1,-39 41,-242 50,-288 15,-80 29,-161 44,-239 13,-65 10,21 35,-108 8,-47 27,-60 45,-95 -1,0 -2,2 -3,2l-6 5c-49,53 -38,116 -62,151 -6,8 0,-4 -8,11l-51 263c-51,259 -55,241 -55,506 -53,8 -334,17 -427,21 -88,4 -104,15 -118,-15l-6 17c-7,-8 -3,-3 -12,-2z"/>
   <path class="fil9" d="M3457 889l3 13 -1 648c-37,14 -81,5 -120,8l118 2c-3,19 -1,36 -7,46 -124,0 -243,11 -369,12 -62,0 -130,5 -189,6 -66,2 -119,14 -185,4l-10 25 760 -26 1 243 20 2c20,-30 0,-194 10,-246l644 -23c6,-14 13,-53 3,-62 -8,-7 -40,-6 -52,-4l-9 2c-2,1 -4,2 -5,2 -1,1 -2,1 -4,2l53 2 0 37 -213 11c-8,0 -10,0 -18,-2l-18 -9c8,-53 7,6 15,-39l-399 11 2 -653 716 32 -6 857c0,3 1,28 1,29 7,26 -6,10 15,17 19,-8 14,-14 13,-40l5 -860 -7 -10 -136 -190c-16,-18 -3,-13 -35,-17 16,39 112,150 144,208l-712 -33c-18,-35 -53,-84 -76,-119 -42,-68 -50,-100 -90,-100 4,18 54,89 68,110 24,36 44,68 70,104z"/>
   <path class="fil10" d="M1250 1533c6,19 3,73 4,97 0,19 1,34 3,53 1,10 3,20 2,30 0,3 -1,9 -1,11 -3,11 -3,7 -8,13 -20,-14 -14,-198 0,-204zm-623 -12c190,-2 409,6 606,9l-2 206 -597 -21c-15,-43 -7,-141 -7,-194zm-6 194c-34,0 -539,-8 -550,-20 -11,-11 -6,-155 -5,-183l553 9 2 194zm274 -237c73,0 239,-5 301,8l-2 36 -606 -9 0 -39c98,-4 207,3 307,4zm-317 34l-436 -9c-125,0 -116,9 -115,-36l552 7 -1 38zm744 -491c-1,33 -79,430 -89,438 -21,9 -476,1 -543,0l87 -427 545 -11zm508 -224l176 -9c-10,22 -27,47 -38,66 -15,25 -17,42 -49,45 -55,6 -136,3 -195,5 -63,3 -125,4 -189,5 -64,1 -126,7 -191,4l-6 9 600 -17 -17 88 -600 12 14 -67 -7 1 -12 67 -534 11c-31,0 -8,2 -16,-9 -1,2 -4,3 -5,4 -1,0 -4,5 -5,3 0,-1 -3,2 -3,4l-9 -8c0,0 -1,-1 -2,-2 0,-1 -1,-1 -1,-1 -3,21 -33,28 -52,37 -23,12 -40,22 -61,34l-97 68c-6,5 -2,1 -6,6 -9,10 -2,-3 -6,9l1 15c0,0 1,2 1,3 58,-47 181,-125 243,-149 0,31 -54,266 -67,327 -29,141 44,94 -324,94 -49,0 -99,1 -148,0 -15,0 -122,-10 -130,0 27,-3 85,-18 111,-22 32,-6 86,-3 107,-32 -21,5 -4,6 -29,1l-144 27c-48,11 -95,21 -140,32l0 53 41 0c0,42 1,83 0,125 0,69 -9,59 29,96 32,32 26,35 84,40 40,2 89,0 130,0l66 0c-71,-33 -239,33 -272,-65 113,-4 357,11 497,15 49,2 33,-4 65,15 -6,-19 9,-11 71,-10l480 15c38,-1 47,-1 63,20 1,-30 0,-7 12,-17 7,17 12,26 28,35 -13,-25 -24,-22 -28,-49l-3 -209c-44,-7 -39,6 -39,-43 4,0 266,-57 272,-59l-7 -20c-1,0 -3,1 -4,1l-234 54 87 -435c86,0 186,0 272,-5l283 -9c-48,28 -130,82 -168,121l-38 33c-10,13 -4,-3 -8,16 21,-8 4,-4 11,5 -16,10 -54,52 -66,71 62,-52 76,-87 169,-152 23,-15 43,-32 66,-47 75,-47 85,-18 103,-117 9,-48 23,-58 50,-109 17,-31 14,-27 29,-35l6 28c40,-58 -107,-37 -157,-36 -74,2 -54,-6 -60,13z"/>
   <path class="fil2" d="M519 1162c-45,21 -216,201 -235,237 25,5 8,4 29,-1 -21,29 -75,26 -107,32 -26,4 -84,19 -111,22 8,-10 115,0 130,0 49,1 99,0 148,0 368,0 295,47 324,-94 13,-61 67,-296 67,-327 -62,24 -185,102 -243,149 0,-1 -1,-3 -1,-3l-1 -15z"/>
   <polygon class="fil11" points="1051,595 950,817 1138,809 1161,808 1274,804 1304,802 1489,796 1489,573 "/>
   <path class="fil11" d="M621 1715l-2 -194 -553 -9c-1,28 -6,172 5,183 11,12 516,20 550,20z"/>
   <path class="fil12" d="M4017 1944l30 1c14,37 12,78 -25,91l-5 -92zm-94 -6l3 160 54 0 1 229 -58 -7c-2,22 0,36 6,50 -24,61 9,127 -14,194 -8,23 -6,52 2,73l-12 15c9,2 3,1 11,3 9,1 21,2 30,2 3,1 17,1 20,1l24 8c-8,9 4,13 -38,9 -13,-1 -22,-6 -30,3 90,0 12,14 142,-6 23,-4 31,-2 42,-17 -6,-24 -1,-18 -29,-18 0,-17 1,-39 1,-54 -2,-26 0,-27 -25,-29l0 -190c38,-3 24,-33 24,-130l1 -278c2,-17 8,-18 -8,-23 -39,-13 -113,5 -147,5z"/>
   <path class="fil3" d="M925 2162c-42,20 -176,-2 -234,-2l0 151c55,16 204,1 237,24l95 5 -2 -540 -94 -4 -2 366z"/>
   <path class="fil13" d="M2068 2122c10,5 22,-10 17,29 -5,33 -5,15 -17,21 -8,-4 -17,-2 -17,-27 2,-36 1,-14 17,-23zm-250 390l10 2c2,-17 12,-35 18,-55 28,-15 55,-11 88,-6 11,26 7,102 5,136 21,19 26,5 34,25l-3 69 -83 -11 5 6c35,36 45,18 81,36l0 240c0,28 -2,3 9,11l-1 -360 34 3c11,41 2,294 2,357l21 -6 -9 -2c7,-72 -5,-301 -1,-344 20,-2 52,-3 64,-15 7,-9 -3,-6 20,-10 0,0 31,0 33,0 0,-49 -8,-459 -11,-469l-119 5c8,26 1,405 0,465l-63 -1 -2 -275 -1 -112 0 -75 0 -6 -12 -1 2 119 -160 -10c1,-22 -1,-43 -1,-65 -2,-62 0,-49 17,-50l-5 -10c-26,1 -18,-10 -23,18 0,0 -4,109 8,114l10 5c1,0 3,1 5,1 1,0 21,2 23,2 15,1 29,1 43,2 23,1 58,2 82,7l1 60c-27,2 -32,14 -45,39l-41 79c-16,39 -33,64 -35,82z"/>
   <path class="fil14" d="M2548 1968l-420 29c0,-103 -11,-1090 -1,-1162l420 20c-6,-9 6,-1 -12,-7l-412 -19c-27,-46 -54,-104 -76,-149 2,29 40,92 55,122 23,47 15,99 15,158l3 1037 -402 -19c17,4 8,4 18,14 69,-9 326,14 439,9l376 -24c40,-1 40,0 50,-14 -13,-5 -11,17 -11,-61l1 -1044 869 44 -3 -13 -862 -39c-32,-24 -116,-231 -143,-263 -8,-6 -4,-8 -22,-10 -22,-2 -4,-10 -15,6l132 253c21,52 10,294 10,373l0 740c-4,18 2,7 -9,19z"/>
   <path class="fil11" d="M645 2091l-2 53 229 16 -2 -359 -230 -11 -1 72c26,19 31,7 48,40 52,103 -13,148 -42,189z"/>
   <path class="fil15" d="M1830 797l-4 3c-20,-6 -308,6 -363,9 -100,7 -39,19 -82,40 -2,19 -24,49 -37,64 65,3 127,-3 191,-4 64,-1 126,-2 189,-5 59,-2 140,1 195,-5 32,-3 34,-20 49,-45 11,-19 28,-44 38,-66l-176 9z"/>
   <polygon class="fil11" points="399,1776 364,1779 368,2286 680,2313 680,2159 403,2140 "/>
   <polygon class="fil11" points="1338,922 1335,938 1321,1005 1921,993 1938,905 "/>
   <path class="fil15" d="M1381 849l14 -36 -542 21 -62 91 542 -15c18,-20 24,-39 34,-51 10,-10 6,-6 14,-10z"/>
   <path class="fil16" d="M3099 109c10,14 4,-1 9,22 1,2 1,20 1,23 0,16 -1,32 -1,48l-5 284 -146 -6c-21,6 -10,-11 -17,12 25,-4 26,3 48,4l240 -11 -58 -2c-9,-18 -1,-12 -15,-31l-9 -8c0,-13 -5,-13 -3,-28 2,-24 7,-19 18,-21 7,-20 3,-45 3,-75 0,-28 -7,-189 6,-207 115,0 91,-20 90,-41 -1,-10 0,-42 -1,-48 -4,-21 -15,-23 -71,-24 -71,0 -121,-1 -178,12 0,24 -7,76 6,90 10,11 61,13 83,7z"/>
   <path class="fil17" d="M3228 485l-240 11c-13,12 -17,9 -25,14 0,74 -18,78 -18,95l331 24c19,-2 14,-11 34,-15 28,-44 37,-73 37,-134l-119 5z"/>
   <path class="fil11" d="M766 1008c8,11 -15,9 16,9l534 -11 12 -67c-5,-27 11,-16 -66,-13 -24,1 -46,0 -71,2 -115,8 -303,-3 -408,15l-17 65z"/>
   <path class="fil18" d="M2707 1628c66,10 119,-2 185,-4 59,-1 127,-6 189,-6 126,-1 245,-12 369,-12 6,-10 4,-27 7,-46l-118 -2 -615 18 -17 52z"/>
   <path class="fil19" d="M2388 2457c13,40 -10,16 -21,56 -2,7 -1,15 -2,21 -4,21 -35,71 -51,88 -13,14 -12,13 -25,22 -17,14 -12,5 -22,28 -13,31 5,5 -21,30 7,-6 8,12 3,-8 -6,-26 0,-8 -9,-17 -11,11 -10,14 -24,25 -29,-7 -1,-4 -29,-13 -21,16 -14,6 -24,28l-26 -6c-24,7 -12,3 -25,15 75,1 129,29 224,-70 43,-44 85,-142 99,-203 21,0 43,-1 64,2 71,10 52,6 61,-8 -47,-14 -14,-95 -8,-133 -51,4 -49,39 -51,86 -26,-20 -11,-13 -72,-14 -28,0 -43,-3 -69,-7 -43,-5 -95,-4 -145,-6 7,53 22,58 78,59 43,2 71,6 116,7 -8,6 -5,10 -21,18z"/>
   <path class="fil16" d="M3366 146l46 3c12,48 0,173 3,232 23,-11 24,-16 55,-17l-2 -212 34 -7c81,18 59,-20 59,-91 -57,-5 -175,-27 -243,6 0,63 -19,98 48,86z"/>
   <path class="fil20" d="M2288 2486c-10,33 -3,5 -17,27 -3,3 -22,67 -61,60 -23,-13 -3,-8 -18,-18 -15,-11 -5,-1 -26,-10l-16 29 0 14 -32 6 -1 116 20 1 26 6c10,-22 3,-12 24,-28 28,9 0,6 29,13 14,-11 13,-14 24,-25 9,9 3,-9 9,17 5,20 4,2 -3,8 26,-25 8,1 21,-30 10,-23 5,-14 22,-28 13,-9 12,-8 25,-22 16,-17 47,-67 51,-88 1,-6 0,-14 2,-21 11,-40 34,-16 21,-56 0,-14 6,-9 -19,-16 -13,-4 -26,-3 -40,-5 -9,9 -18,20 -25,29 -11,15 -2,10 -16,21z"/>
   <path class="fil21" d="M4224 926l7 10c46,11 88,1 140,12 2,138 20,281 29,415 4,71 16,385 32,423 0,-1 0,-13 1,-15l56 -9c-1,1 -4,0 -5,3 -1,2 -4,2 -5,3 -29,13 -24,-4 -23,69l15 12c32,0 100,-6 129,-10 72,-10 93,28 88,-62 -2,-35 -6,-30 -42,-29l-214 -6 -30 -497c-6,-83 -15,-159 -17,-249 -1,-61 -34,-117 -67,-164 -15,-23 7,-6 -20,-20 6,19 56,104 67,120l-141 -6z"/>
   <path class="fil22" d="M640 1737c64,47 -20,36 130,45 57,3 118,5 172,7 64,3 302,18 344,9 -21,-2 -7,6 -23,-10 -15,-16 -7,-11 -9,-26 -16,-21 -25,-21 -63,-20l-480 -15c-62,-1 -77,-9 -71,10z"/>
   <path class="fil23" d="M3179 444l-33 0 9 8c14,19 6,13 15,31l58 2 119 -5c0,61 -9,90 -37,134 35,-12 46,-97 46,-134 26,3 389,49 417,30 -44,-1 -20,-10 -22,-53 -1,-33 -15,-43 -33,-60 -16,9 -15,3 -16,3 -12,-1 -2,-5 -8,-3 30,8 36,25 35,62 -1,-1 -2,-3 -3,-4l-7 -6c-30,-20 27,9 -8,-4 -3,-1 -21,-3 -25,-3 -18,0 -41,4 -49,4 -33,-1 -4,-5 -38,-12 -10,-2 -17,-1 -26,-3 -2,-1 -3,-1 -5,-2l-11 -5c-1,-2 -4,-2 -5,-3 2,-34 5,-23 27,-35l-12 -12c2,-10 15,-5 -12,-6 -23,-1 -14,0 -29,6l-44 -6c24,25 53,44 38,96 -9,4 -18,5 -32,3l-82 -11c-47,-10 -174,3 -227,-12z"/>
   <path class="fil22" d="M284 1772c8,4 1,2 14,5 6,1 9,1 16,1 13,1 24,-1 38,1 9,-6 1,-3 16,-7 29,-7 260,8 304,8 -12,-25 -15,-22 -32,-43 -32,-19 -16,-13 -65,-15 -140,-4 -384,-19 -497,-15 33,98 201,32 272,65l-66 0z"/>
   <path class="fil24" d="M2038 2959c25,1 46,-2 72,-8l-3 -352 -15 -1c-12,12 -44,13 -64,15 -4,43 8,272 1,344l9 2z"/>
   <path class="fil11" d="M511 2116c-17,-27 -67,-49 -60,-99 -1,-1 -2,-5 -2,-5l-10 -39c-1,-43 12,-88 41,-118 41,-45 96,-44 149,-12l-2 -52 -219 -10 3 346 218 17 0 -40c-1,2 18,-3 -13,11 -34,16 -72,12 -105,1z"/>
   <polygon class="fil5" points="1279,1878 1279,2077 1416,2068 1415,1873 "/>
   <path class="fil7" d="M900 2501c6,-35 8,-135 -3,-167l31 1c-33,-23 -182,-8 -237,-24l0 -151c58,0 192,22 234,2 -14,-1 -18,0 -30,0 -19,-1 -14,2 -23,-2l-229 -16 2 -53 -29 1c3,-21 4,-19 6,-33 1,59 -99,51 -111,57 33,11 71,15 105,-1 31,-14 12,-9 13,-11l0 40 -218 -17 -3 -346c1,-11 2,-3 -9,-5l4 364 277 19 0 154 -312 -27 -4 -507 -12 0c8,32 5,393 3,473 -1,50 -19,47 107,53 94,5 191,23 291,24 33,0 37,6 70,6 91,0 69,-20 71,130 0,4 1,14 1,17l4 14c0,1 0,3 1,5z"/>
   <path class="fil24" d="M976 2516c-4,44 5,114 3,162 -2,53 -3,108 -1,160l81 -6c1,-6 -1,-303 -3,-319l-80 3z"/>
   <path class="fil6" d="M2871 617l33 4c9,-12 19,-19 27,-39 39,-101 -13,-72 -47,-72l-295 17 -7 41c-5,19 4,14 -4,7 60,1 109,9 166,12l142 13c25,9 5,-6 23,17l-38 0z"/>
   <path class="fil11" d="M588 1513l606 9 2 -36c-62,-13 -228,-8 -301,-8 -100,-1 -209,-8 -307,-4l0 39z"/>
   <path class="fil25" d="M1056 2513c2,16 4,313 3,319l-81 6c-2,-52 -1,-107 1,-160 2,-48 -7,-118 -3,-162l80 -3zm-114 0l18 0c15,26 14,305 0,330 -32,-3 -16,13 -20,-70 -2,-30 -5,-53 -5,-83 0,-38 -6,-153 7,-177zm34 -13c-1,2 -3,5 -5,6 -1,1 -4,0 -5,-1 -2,-3 -4,-6 -5,-9l-56 -1 -4 11c26,0 14,-1 23,6 0,114 6,213 6,320 -28,7 -56,4 -71,24 7,25 23,21 53,24 144,15 117,-12 226,-12l0 -36c-26,0 -33,-6 -65,-6 0,-49 -2,-293 -12,-320 7,-23 10,-3 0,-17 -26,0 -61,2 -85,11z"/>
   <path class="fil5" d="M1580 1985l0 334 69 -5 3 -339c-23,4 -56,2 -72,10z"/>
   <path class="fil26" d="M594 1944c14,13 8,49 -1,69l-68 -4c5,37 11,45 38,49l17 4c-24,19 -34,17 -64,6 0,-2 1,-4 1,-5 1,-1 1,-4 2,-5l4 -6c9,-14 1,8 4,-3 -33,-39 -23,-96 -10,-149 -39,18 -39,74 -20,117 3,5 7,11 9,15 8,17 0,-4 9,24 -56,-38 -45,-87 -26,-151l-24 0c-28,30 -8,78 -14,112 -7,50 43,72 60,99 12,-6 112,2 111,-57 23,-55 22,-90 5,-146 -39,-1 -11,-4 -48,-21l15 52z"/>
   <path class="fil27" d="M27 1467c-1,45 -10,36 115,36l436 9 1 -38 -552 -7z"/>
   <path class="fil28" d="M2015 2213l-6 107c-25,-1 -42,3 -59,-7l2 275 63 1c1,-60 8,-439 0,-465l-66 -4 0 6 65 1 1 86z"/>
   <path class="fil29" d="M1937 2119l-142 -6c-17,1 -19,-12 -17,50 0,22 2,43 1,65l160 10 -2 -119z"/>
   <path class="fil30" d="M451 2017c6,-34 -14,-82 14,-112 8,-37 26,-69 63,-74 20,-3 39,4 52,13 17,11 24,17 27,37l20 32c17,56 18,91 -5,146 -2,14 -3,12 -6,33l29 -1c29,-41 94,-86 42,-189 -17,-33 -22,-21 -48,-40l1 -72 -13 1 2 52c-53,-32 -108,-33 -149,12 -29,30 -42,75 -41,118l10 39c0,0 1,4 2,5z"/>
   <path class="fil23" d="M3929 2370c-6,-14 -8,-28 -6,-50l58 7 -1 -229 -54 0 -3 -160c-17,13 -6,-4 -12,18l0 414 18 0z"/>
   <path class="fil31" d="M3392 403c1,1 3,2 4,3 1,1 3,2 4,3 1,1 3,2 4,3l19 26c-45,-2 -70,7 -111,5 -35,-1 -65,-5 -106,-4 -1,-2 -1,-5 -2,-6l-6 -22c-11,-21 18,-5 -14,-14 7,22 3,32 -5,47 53,15 180,2 227,12l82 11c14,2 23,1 32,-3 15,-52 -14,-71 -38,-96l44 6c-11,-26 0,-6 -25,-12 -27,-6 -29,20 -29,-71 1,-46 0,-91 0,-136 30,0 23,-3 30,-10l-34 7 2 212c-31,1 -32,6 -55,17 -3,-59 9,-184 -3,-232l-46 -3c11,11 12,9 41,9 0,43 0,86 0,130 0,86 10,75 -15,118z"/>
   <path class="fil32" d="M2759 465c-8,-34 -9,-56 32,-49 8,20 6,29 1,48l-33 1zm251 -38c1,1 3,2 4,2 38,28 -7,-14 13,11 13,18 6,2 10,25 -53,-4 -110,6 -232,-4 -1,-21 -2,-37 -10,-52 -19,-11 -20,-4 -40,0 -19,41 -17,68 35,70l19 1c47,2 67,13 100,0l31 12c7,-23 -4,-6 17,-12l146 6 5 -284c0,-16 1,-32 1,-48 0,-3 0,-21 -1,-23 -5,-23 1,-8 -9,-22l0 277c-40,-20 -80,9 -89,41z"/>
   <path class="fil33" d="M883 2159l38 -1c-1,-120 -6,-245 -5,-363l-38 4c6,77 -11,309 5,360z"/>
   <path class="fil11" d="M1269 2079c0,-45 7,-170 -6,-201l-64 -3c-4,42 -2,92 -2,134 0,81 -3,67 72,70z"/>
   <path class="fil34" d="M1269 2079c-75,-3 -72,11 -72,-70 0,-42 -2,-92 2,-134l64 3c13,31 6,156 6,201zm146 -206l1 195 -137 9 0 -199 136 -5zm-227 17l0 148c0,31 -21,62 110,51 160,-13 129,35 129,-211 0,-34 -25,-23 -117,-23 -28,0 -51,1 -78,4 -35,3 -44,-6 -44,31z"/>
   <path class="fil35" d="M1982 2965l35 0c0,-63 9,-316 -2,-357l-34 -3 1 360z"/>
   <path class="fil36" d="M1161 2336l0 40c37,12 160,16 208,18l2 -78c-29,1 -63,6 -97,8 -36,2 -79,2 -113,12z"/>
   <path class="fil37" d="M1846 2459l86 4c4,23 0,38 0,60l-104 -9 -10 -2c-8,21 -8,6 -28,25l0 11 13 0c9,4 25,45 29,52l141 14c-8,-20 -13,-6 -34,-25 2,-34 6,-110 -5,-136 -33,-5 -60,-9 -88,6z"/>
   <path class="fil38" d="M2404 2187c5,23 7,27 -2,50l-51 2 2 -50 51 -2zm-104 -1l43 7 -2 47 -41 -2 0 -52zm-21 -146l42 1 -1 115 -42 -2 1 -114zm130 -4c8,31 6,81 1,113l-80 8 3 -115 76 -6zm-46 133c13,-8 42,-7 54,-10 5,-8 2,0 5,-15l1 -118c-37,-6 -113,-12 -150,4 -9,26 -10,110 1,135l18 12 2 69c19,5 44,4 62,3 48,-3 69,5 57,-70 -20,-11 -26,-10 -50,-10z"/>
   <path class="fil23" d="M2150 2574l16 -29c21,9 11,-1 26,10 15,10 -5,5 18,18 39,7 58,-57 61,-60 14,-22 7,6 17,-27 -66,32 -105,-16 -119,-75 -6,-23 -6,-41 1,-63 16,-52 10,-40 -1,-55 -36,4 -27,-5 -28,29 0,9 6,35 8,47 5,32 1,58 6,90 24,16 20,11 48,20 -10,10 19,23 -31,9 -4,-1 -14,-9 -18,-12l-4 98z"/>
   <path class="fil39" d="M3161 395c22,6 8,4 23,2 32,9 3,-7 14,14l6 22c1,1 1,4 2,6 41,-1 71,3 106,4 41,2 66,-7 111,-5l-19 -26c-1,-1 -3,-2 -4,-3 -1,-1 -3,-2 -4,-3 -1,-1 -3,-2 -4,-3 -44,0 -72,-3 -113,-8 -40,-6 -74,-7 -109,-15l0 -267c-13,18 -6,179 -6,207 0,30 4,55 -3,75z"/>
   <path class="fil40" d="M4065 1543c-35,-8 -139,-2 -181,0 -8,45 -7,-14 -15,39l18 9c8,2 10,2 18,2l213 -11 0 -37 -53 -2z"/>
   <path class="fil39" d="M3010 427c-33,0 -72,-8 -101,-11 -37,-4 -80,-7 -114,-7 8,15 9,31 10,52 122,10 179,0 232,4 -4,-23 3,-7 -10,-25 -20,-25 25,17 -13,-11 -1,0 -3,-1 -4,-2z"/>
   <path class="fil41" d="M942 2513c-13,24 -7,139 -7,177 0,30 3,53 5,83 4,83 -12,67 20,70 14,-25 15,-304 0,-330l-18 0z"/>
   <path class="fil42" d="M2713 1801l-2 64 -32 1c0,-29 -7,-39 2,-65l32 0zm-41 91c23,5 58,2 76,-4l1 -150c-51,0 -80,-14 -80,33 -1,34 -5,91 3,121z"/>
   <path class="fil43" d="M3718 397c-25,-24 -26,-14 -66,-19 -26,-3 -50,-4 -85,-4l12 12c-22,12 -25,1 -27,35 1,1 4,1 5,3l11 5c2,1 3,1 5,2 9,2 16,1 26,3 34,7 5,11 38,12 8,0 31,-4 49,-4 4,0 22,2 25,3 35,13 -22,-16 8,4l7 6c1,1 2,3 3,4 1,-37 -5,-54 -35,-62 6,-2 -4,2 8,3 1,0 0,6 16,-3z"/>
   <path class="fil44" d="M1887 2672l83 11 3 -69 -141 -14c-4,-7 -20,-48 -29,-52l-13 0c14,20 9,20 20,39 6,10 15,20 22,31 23,34 18,35 55,54z"/>
   <path class="fil45" d="M2333 2042l-3 115 80 -8c5,-32 7,-82 -1,-113l-76 6z"/>
   <path class="fil36" d="M3331 1772l29 -5 0 56 -18 4c-10,-22 -11,-28 -11,-55zm-7 82l66 -3c9,-24 7,-115 3,-140 -18,-7 -46,-2 -65,0 -9,26 -5,111 -4,143z"/>
   <path class="fil21" d="M2187 2977c-8,-5 -8,-5 -12,-14 -40,1 -98,15 -149,17l-76 -6c-1,-2 -2,-4 -3,-5 -1,-6 -3,-8 3,-12 -29,0 -25,4 -48,6l0 35c115,0 75,27 254,-7 2,0 12,-3 14,-3 15,-6 7,-2 17,-11z"/>
   <path class="fil46" d="M3556 1755l27 2 -4 57 -23 -1 0 -58zm-9 87l65 -5 6 -140 -69 3 -2 142z"/>
   <path class="fil47" d="M905 2495l56 1 0 -102c-65,-50 -9,-33 -43,-54 -18,7 -12,-7 -14,29l1 126z"/>
   <path class="fil48" d="M1950 2313c17,10 34,6 59,7l6 -107c-12,0 -32,0 -42,-1 -29,-4 -8,4 -24,-11l1 112z"/>
   <path class="fil49" d="M4015 698c39,0 85,6 121,8 30,3 97,-2 110,18 22,-8 15,-1 21,-24l-26 -12c-28,0 -83,-7 -107,-11 -25,-3 -83,-8 -105,-5 -13,16 -1,11 -14,26z"/>
   <path class="fil50" d="M976 2500c24,-9 59,-11 85,-11 10,14 7,-6 0,17 15,-4 27,-5 41,-11l0 -42c-26,18 -8,12 -32,-2 -8,-4 -19,-12 -26,-16 -4,22 2,6 -15,16 -14,7 -16,8 -33,9 -4,-51 11,-36 -21,-65 -2,27 -5,81 1,105z"/>
   <path class="fil51" d="M489 1905c-19,64 -30,113 26,151 -9,-28 -1,-7 -9,-24 -2,-4 -6,-10 -9,-15 -19,-43 -19,-99 20,-117 -13,53 -23,110 10,149 -3,11 5,-11 -4,3l-4 6c-1,1 -1,4 -2,5 0,1 -1,3 -1,5 30,11 40,13 64,-6l-17 -4c-27,-4 -33,-12 -38,-49 -13,-23 -12,-43 -7,-70 11,-39 9,-51 53,-57 -33,-21 -70,-8 -82,23z"/>
   <path class="fil52" d="M518 1939c-5,27 -6,47 7,70l68 4c9,-20 15,-56 1,-69l-76 -5z"/>
   <path class="fil53" d="M1828 2514l104 9c0,-22 4,-37 0,-60l-86 -4c-6,20 -16,38 -18,55z"/>
   <path class="fil54" d="M1949 2201c16,15 -5,7 24,11 10,1 30,1 42,1l-1 -86 -65 -1 0 75z"/>
   <path class="fil27" d="M465 1905l24 0c12,-31 49,-44 82,-23l36 -1c-3,-20 -10,-26 -27,-37 -13,-9 -32,-16 -52,-13 -37,5 -55,37 -63,74z"/>
   <polygon class="fil45" points="2278,2154 2320,2156 2321,2041 2279,2040 "/>
   <path class="fil30" d="M4115 1728l-1 50 -10 4c-5,6 -3,10 -7,14 30,7 5,-1 15,11 56,-1 40,-11 40,-71 0,-37 9,-80 -38,-60l-17 11c-1,1 -3,3 -4,4l38 2 2 73c-5,20 -1,9 -13,20 1,-17 7,-48 -5,-58z"/>
   <path class="fil55" d="M571 1882c-44,6 -42,18 -53,57l76 5 -15 -52c37,17 9,20 48,21l-20 -32 -36 1z"/>
   <path class="fil55" d="M1250 1533c-14,6 -20,190 0,204 5,-6 5,-2 8,-13 0,-2 1,-8 1,-11 1,-10 -1,-20 -2,-30 -2,-19 -3,-34 -3,-53 -1,-24 2,-78 -4,-97z"/>
   <path class="fil56" d="M4112 1807c-10,-12 15,-4 -15,-11 4,-4 2,-8 7,-14 -13,-9 -5,16 -10,-21 -1,-9 0,-24 0,-33l21 0c12,10 6,41 5,58 12,-11 8,0 13,-20l-2 -73 -38 -2c1,-1 3,-3 4,-4l17 -11 -23 2 -2 129 23 0z"/>
   <path class="fil35" d="M2353 2189l-2 50 51 -2c9,-23 7,-27 2,-50l-51 2z"/>
   <path class="fil57" d="M4022 2036c37,-13 39,-54 25,-91l-30 -1 5 92z"/>
   <path class="fil58" d="M4432 1786l0 54 -52 3 0 6 91 0 -15 -12c-1,-73 -6,-56 23,-69 1,-1 4,-1 5,-3 1,-3 4,-2 5,-3l-56 9c-1,2 -1,14 -1,15z"/>
   <path class="fil59" d="M3922 2678c8,-9 17,-4 30,-3 42,4 30,0 38,-9l-24 -8c-3,0 -17,0 -20,-1 -9,0 -21,-1 -30,-2 -8,-2 -2,-1 -11,-3l12 -15c-16,5 -28,5 -42,12 2,23 3,19 18,29l29 0z"/>
   <path class="fil60" d="M4246 724c10,30 20,47 41,58l-1 -82 -9 -12 -36 0 26 12c-6,23 1,16 -21,24z"/>
   <path class="fil61" d="M2681 1801c-9,26 -2,36 -2,65l32 -1 2 -64 -32 0z"/>
   <polygon class="fil62" points="2300,2238 2341,2240 2343,2193 2300,2186 "/>
   <path class="fil63" d="M3146 444l33 0c8,-15 12,-25 5,-47 -15,2 -1,4 -23,-2 -11,2 -16,-3 -18,21 -2,15 3,15 3,28z"/>
   <path class="fil63" d="M2759 465l33 -1c5,-19 7,-28 -1,-48 -41,-7 -40,15 -32,49z"/>
   <path class="fil64" d="M2068 2172c12,-6 12,12 17,-21 5,-39 -7,-24 -17,-29 -16,9 -15,-13 -17,23 0,25 9,23 17,27z"/>
   <polygon class="fil62" points="3556,1813 3579,1814 3583,1757 3556,1755 "/>
   <path class="fil62" d="M3331 1772c0,27 1,33 11,55l18 -4 0 -56 -29 5z"/>
   <path class="fil62" d="M4104 1782l10 -4 1 -50 -21 0c0,9 -1,24 0,33 5,37 -3,12 10,21z"/>
  </g>
 </g>
</svg>
