<?xml version="1.0" encoding="UTF-8"?>
<!DOCTYPE svg PUBLIC "-//W3C//DTD SVG 1.1//EN" "http://www.w3.org/Graphics/SVG/1.1/DTD/svg11.dtd">
<!-- Creator: CorelDRAW X7 -->
<svg xmlns="http://www.w3.org/2000/svg" xml:space="preserve" width="73.5307mm" height="36.2687mm" version="1.1" style="shape-rendering:geometricPrecision; text-rendering:geometricPrecision; image-rendering:optimizeQuality; fill-rule:evenodd; clip-rule:evenodd"
viewBox="0 0 6105 3011"
 xmlns:xlink="http://www.w3.org/1999/xlink">
 <defs>
  <style type="text/css">
   <![CDATA[
    .fil10 {fill:#606062}
    .fil12 {fill:black}
    .fil8 {fill:#142422}
    .fil11 {fill:#1A2523}
    .fil23 {fill:#1C1C1C}
    .fil3 {fill:#212121}
    .fil7 {fill:#372E2C}
    .fil6 {fill:#383838}
    .fil22 {fill:#3C3C3C}
    .fil9 {fill:#444C55}
    .fil21 {fill:#4B6469}
    .fil20 {fill:#52492D}
    .fil14 {fill:#636C78}
    .fil18 {fill:#6B564D}
    .fil19 {fill:#736A51}
    .fil26 {fill:#9097A8}
    .fil13 {fill:#978A6E}
    .fil4 {fill:#A5A5A5}
    .fil1 {fill:darkgray}
    .fil25 {fill:#BABABA}
    .fil24 {fill:#BDBDBD}
    .fil17 {fill:#E5E5E5}
    .fil5 {fill:#ECECEC}
    .fil16 {fill:#F60000}
    .fil15 {fill:#FD0000}
    .fil2 {fill:#FEFEFE}
    .fil0 {fill:white}
   ]]>
  </style>
 </defs>
 <g id="Layer_x0020_1">
  <metadata id="CorelCorpID_0Corel-Layer"/>
  <path class="fil0" d="M4786 1858c11,33 9,112 2,152l-127 0 6 -152 119 0zm-1257 -2l126 -1 3 151 -129 2 0 -152zm-302 -2c11,29 6,116 4,151l-126 0c-1,-11 0,-131 2,-138 4,-23 20,-16 50,-15 23,0 47,-1 70,2zm-1245 148c-1,-41 -6,-115 3,-153l125 4 0 145c-34,12 -91,6 -128,4zm1424 -314c58,26 1339,-13 1352,14l7 29c0,12 -1,28 -2,40 -151,10 -508,-1 -684,-1 -85,1 -642,-5 -677,4l-2 258 -45 -2 2 -260 -1326 -5c6,-27 27,-50 39,-75l1280 1 7 -703 -1497 5 0 1072 3609 14 -148 -1091c-26,-8 -311,-8 -346,-2 0,179 -8,357 -8,536 0,77 1,488 -11,530l-44 0c-7,-27 0,-500 5,-509l2 -552 -1507 0c0,239 -6,459 -6,697z"/>
  <path class="fil1" d="M2048 2320c0,-57 -21,-45 85,-45l-6 39c-7,10 -21,6 -39,6 -13,0 -27,0 -40,0zm-600 -62c-2,-21 0,-52 -1,-74 0,-32 -5,-44 30,-44 33,0 123,-4 149,7 1,30 0,59 1,88 0,53 17,58 -177,49l-2 -26zm705 -144c11,23 8,82 6,111 -2,27 -4,26 -31,27l-108 0c-22,-5 -17,-5 -16,-33 0,-32 -7,-78 5,-107l144 2zm-1170 211c-14,10 -45,6 -67,7 -39,0 -46,7 -50,-29l-69 0c0,105 -5,55 23,91 5,12 108,55 129,63 47,19 87,42 132,61 15,-40 8,-300 6,-356 45,-16 36,-24 101,-23 39,0 81,-5 117,8 4,25 2,51 2,77 1,45 3,42 -26,57l0 242c98,11 77,-6 124,-60l92 -111c80,-12 261,3 353,3 59,0 321,-10 354,5 59,0 203,7 252,-3 11,-10 20,-29 28,-43 13,-22 91,-98 115,-111 69,-39 136,-71 236,-65 154,10 311,100 362,237 36,-17 470,2 543,2 186,0 373,0 559,0 10,-10 -2,-3 13,-8 7,-2 14,-3 22,-3l138 3 -3 88c11,-25 0,-64 7,-77 11,-18 -9,-12 7,-3l1 0 5 -226c29,-10 121,1 163,-3l-1 -37 260 1c188,9 414,-6 600,1 40,1 65,14 67,-8 -5,-20 12,-14 -27,-16l-87 -5c-46,2 -93,1 -140,1l-4147 -16c-19,-7 -12,-3 -13,-28l-159 0 0 277 -22 7z"/>
  <path class="fil2" d="M3352 953l-33 -160c-12,-16 -14,-21 -10,-47l52 2c14,39 16,69 26,113 31,135 -2,114 110,114l1414 -12c1,-30 -70,-155 -79,-198 -11,-13 -11,-9 -9,-27l42 -1c17,23 89,198 110,241l342 1 -35 -260c-55,-13 -734,0 -852,0l-2556 4 -14 256 1493 -4 -1 -22z"/>
  <path class="fil2" d="M1166 1174l3 671c0,48 -2,178 6,219l637 0 -4 -1075 -645 0 3 185z"/>
  <path class="fil3" d="M2204 2360l3 5 237 0c-7,82 -38,64 -39,232 -2,188 162,363 352,395 22,4 45,0 70,4 47,7 73,-7 113,-16 38,-10 115,-47 139,-65 85,-63 169,-202 169,-312 0,-88 5,-45 -14,-122 -9,-35 -19,-81 -37,-106 -51,-137 -208,-227 -362,-237 -100,-6 -167,26 -236,65 -24,13 -102,89 -115,111 -8,14 -17,33 -28,43 -49,10 -193,3 -252,3z"/>
  <path class="fil4" d="M3412 691c-19,24 -71,17 -113,17l-991 0c-381,0 -746,5 -1125,5l-23 250c10,0 7,-3 6,9l10 -32c36,-276 -73,-215 329,-215 104,0 207,-2 311,-2l-1 115 11 -79c0,-5 -1,-13 0,-18 5,-18 -2,-12 13,-20l27 0 -8 171 -4 1100c0,17 -4,59 6,73l0 -1072 1497 -5 -7 703 12 -2c-6,-164 2,-432 2,-619 0,-39 -10,-92 25,-83 22,5 13,21 13,77l-3 266c1,118 4,242 0,360l7 -2c0,-238 6,-458 6,-697l1507 0 1 -17 -9 -11 -1414 12c-112,0 -79,21 -110,-114 -10,-44 -12,-74 -26,-113l-52 -2c-4,26 -2,31 10,47l-3 -34c52,0 41,-8 49,39l32 164c-3,29 2,9 -8,21 -30,-1 -14,7 -31,-19 -19,-30 10,7 -6,-11l1 22 -1493 4 14 -256 2556 -4c118,0 797,-13 852,0 -16,-14 -288,-7 -348,-6 -4,0 -28,-1 -29,-1 -19,-8 -13,2 -16,-21 3,-20 12,-13 62,-12l356 0c51,0 95,-6 147,-5 -7,77 -25,26 -155,43 -10,65 104,806 120,941 6,52 15,99 22,154 3,27 13,138 25,159 7,-24 -3,-86 11,-113 10,-2 4,6 6,-19l0 -198c0,-79 5,-139 5,-220l8 -671c3,-15 6,-37 4,-54 -3,-26 -6,-23 -34,-23l-572 1c-4,-20 -14,-35 -22,-53 -17,-4 -4,9 -19,-19l-36 -78c-106,-3 -223,3 -330,4 -217,0 -434,-3 -651,4 -77,2 -255,-15 -317,-1 -9,44 -10,67 -33,103 -12,18 -48,75 -74,57z"/>
  <path class="fil5" d="M1013 977l-49 50c-27,35 -20,20 -33,69 -14,52 -15,45 -41,55 -145,55 -200,91 -330,174 -20,13 -33,27 -54,41 -47,32 -162,144 -162,144 -20,13 -277,25 -344,58 0,54 -2,45 51,45 0,49 0,98 0,147 -1,43 -2,30 44,69 15,13 6,9 24,13l673 5c0,-32 1,-67 0,-98 -2,-38 -16,-67 7,-97 5,-42 38,-145 51,-190 18,-64 35,-123 52,-186 56,-211 38,-93 60,-149 1,-1 6,-20 6,-23 23,-88 49,-66 95,-141 -9,-7 -11,-9 -24,-14l-26 28z"/>
  <path class="fil6" d="M5518 1996l580 4 0 85 -579 -2 -1 -87zm-3701 -1002l32 -1 3 1071 -34 -1 -1 -1069zm3100 549c9,-21 5,-107 5,-134l5 -421 39 2c0,173 -7,353 -8,527l-6 514c-3,13 -2,8 -7,15l-27 -9c-6,-22 -4,-25 -4,-51 1,-100 10,-380 3,-443zm365 -824l35 260 -342 -1c-21,-43 -93,-218 -110,-241l-42 1c-2,18 -2,14 9,27 2,-27 -7,-11 11,-17 29,-4 45,58 67,108 10,23 46,100 49,121l-39 -3 -1 17 -2 552c-5,9 -12,482 -5,509l44 0c12,-42 11,-453 11,-530 0,-179 8,-357 8,-536 35,-6 320,-6 346,2l148 1091 -3609 -14c-10,-14 -6,-56 -6,-73l4 -1100c-8,13 -3,62 -7,76 -6,16 3,6 -12,15 -28,5 -23,-4 -20,-49l7 -175 -11 79 -5 144 -647 -1 0 8 645 0 4 1075 -637 0c-8,-41 -6,-171 -6,-219l-3 -671c-38,-21 -10,-11 -9,-17 1,-2 3,-1 5,-2 0,-94 3,-73 -20,-77 29,-2 11,1 22,-8l-1 -64c-24,11 -12,8 -32,29 -44,45 -27,45 -54,118l-19 7c-1,-2 -4,0 -6,0 -13,37 -25,88 -33,122 -10,41 -25,86 -33,120 -13,52 -60,203 -64,244 23,-8 13,0 25,-17 3,-5 2,-10 4,-17 -14,21 4,18 5,20l68 -16c15,-10 68,-221 71,-239l-3 15c34,-25 39,-156 68,-198l0 606c0,72 6,124 6,198l-63 0 0 -40 -113 0 0 -164c26,-1 29,-2 40,-17 -10,4 -10,-1 -1,5l-2 -155 -110 20c1,49 3,122 6,169l-65 16c3,34 5,63 5,98 0,17 -1,35 -1,51l13 37c29,-2 73,-9 98,2l3 121 -1 174c-1,15 -5,13 8,10l22 -7 0 -277 159 0c1,25 -6,21 13,28l4147 16c47,0 94,1 140,-1l87 5c39,2 22,-4 27,16 -2,22 -27,9 -67,8 -186,-7 -412,8 -600,-1l0 4c42,16 581,6 673,6 1,-22 -1,-13 6,-28l515 0 0 -102c-13,-6 -414,-96 -447,-97 -60,0 -121,1 -181,1l0 -38c-14,27 -4,89 -11,113 -12,-21 -22,-132 -25,-159 -7,-55 -16,-102 -22,-154 -16,-135 -130,-876 -120,-941 130,-17 148,34 155,-43 -52,-1 -96,5 -147,5l-356 0c-50,-1 -59,-8 -62,12 3,23 -3,13 16,21 1,0 25,1 29,1 60,-1 332,-8 348,6z"/>
  <path class="fil5" d="M385 1901c26,-9 161,-5 197,-4 10,30 7,63 7,95 0,109 17,100 -102,100 -18,0 -89,4 -99,-2 -12,-7 -10,-168 -3,-189zm420 -51l-14 6c-1,0 -3,0 -5,1l-577 -3c0,93 6,187 4,279 -5,171 -12,157 41,156l617 1c0,-48 0,-97 0,-145 0,-26 -2,-49 -2,-74 -1,-36 7,-35 -14,-58l-1 -176 -49 13z"/>
  <path class="fil7" d="M3398 1770l-3 255 -35 1 1 -214c1,-47 -6,-42 37,-42zm8 -82l-7 2 -37 -1 -12 2 -1280 -1c-12,25 -33,48 -39,75l1326 5 -2 260 45 2 2 -258c35,-9 592,-3 677,-4 176,0 533,11 684,1 1,-12 2,-28 2,-40l-7 -29c-13,-27 -1294,12 -1352,-14z"/>
  <path class="fil2" d="M1166 972l-3 9 647 1 5 -144 1 -115c-104,0 -207,2 -311,2 -402,0 -293,-61 -329,215l-10 32z"/>
  <path class="fil8" d="M4580 2272c-9,-22 -20,-73 -15,-106 21,-6 56,-9 72,3 9,11 2,-6 8,20 15,59 -21,87 -65,83zm-96 105c9,50 -3,153 -3,226 0,34 1,43 28,51 0,43 -9,103 6,141l0 79 -34 0 0 74 -34 11c2,65 45,51 108,51 54,0 109,0 164,0 0,-59 -27,-21 -29,-73 -2,-42 11,-65 -33,-68 0,-77 5,-136 5,-215l29 0 6 -470c0,-39 -4,-34 -40,-34l0 -34 254 0 0 -4 -260 -1 1 37c-42,4 -134,-7 -163,3l-5 226z"/>
  <path class="fil9" d="M1301 2533c43,13 107,-9 97,-32 0,0 8,238 9,266l-109 -8 3 -226zm-22 2l11 215c-45,0 -18,-2 -34,6l0 -142c38,-10 23,-35 23,-79zm-102 -362c0,28 -2,64 -12,84 -25,-2 -20,-7 -28,-33 -17,-57 -11,-51 40,-51zm-96 345c8,21 6,22 5,45 0,17 -2,33 6,45 14,-1 28,11 68,12 24,0 49,0 73,0l6 322c-23,0 -90,4 -109,-2 -1,0 -2,-1 -3,-1 -1,0 -2,-1 -3,-2l-6 -2c0,0 -2,0 -2,0l-24 24c21,-5 145,6 187,6l0 6c-27,0 -72,-5 -91,2 -13,5 -6,1 -15,9 34,0 92,9 118,-5 9,-4 27,-22 21,-39 -6,-20 -24,-13 -50,-13 0,-28 -5,-28 -6,-56 -1,-22 0,-46 0,-68l192 0c8,-12 23,-19 17,-38 -6,-20 -19,-13 -45,-13l0 -221c0,-38 -5,-39 12,-62 11,-14 22,-25 33,-40 29,-36 44,-66 79,-68 84,-4 262,6 363,6 100,0 200,0 300,0l-3 -5c-33,-15 -295,-5 -354,-5 -92,0 -273,-15 -353,-3l-92 111c-47,54 -26,71 -124,60l0 -242c29,-15 27,-12 26,-57 0,-26 2,-52 -2,-77 -36,-13 -78,-8 -117,-8 -65,-1 -56,7 -101,23 2,56 9,316 -6,356z"/>
  <path class="fil10" d="M1013 977l26 -28c13,5 15,7 24,14 -46,75 -72,53 -95,141 0,3 -5,22 -6,23 -22,56 -4,-62 -60,149 -17,63 -34,122 -52,186 -13,45 -46,148 -51,190l-2 176c3,29 -3,10 8,22l49 -13 1 176 20 5 -13 -37c0,-16 1,-34 1,-51 0,-35 -2,-64 -5,-98l65 -16c-3,-47 -5,-120 -6,-169l110 -20 2 155c-9,-6 -9,-1 1,-5 18,10 12,-2 12,-27 0,-17 -1,-34 -3,-50 -2,-13 -5,-26 -4,-42 0,-32 -4,-23 17,-34 -19,-29 -3,-46 15,-109 8,-27 33,-100 25,-123l3 -15c-3,18 -56,229 -71,239l-68 16c-1,-2 -19,1 -5,-20 -2,7 -1,12 -4,17 -12,17 -2,9 -25,17 4,-41 51,-192 64,-244 8,-34 23,-79 33,-120 8,-34 20,-85 33,-122 2,0 5,-2 6,0l19 -7c27,-73 10,-73 54,-118 20,-21 8,-18 32,-29l1 64c-11,9 7,6 -22,8 23,4 20,-17 20,77 -2,1 -4,0 -5,2 -1,6 -29,-4 9,17l-3 -185 0 -8 3 -9c1,-12 4,-9 -6,-9 -14,-7 -62,-15 -84,-20 -17,-3 -21,-9 -39,3 -11,8 -20,19 -24,31z"/>
  <path class="fil10" d="M4150 431c6,-36 -5,-6 15,-22 23,-18 39,-11 66,-20 41,-13 49,-16 103,-14 114,6 165,-9 158,73 -46,-17 -18,-10 -84,-11 -98,-1 -103,17 -132,8 -57,-20 -71,2 -117,-10 -1,0 -4,0 -5,-2 -1,-2 -3,-1 -4,-2zm-187 0l0 41c-39,1 -77,-1 -116,1 -118,6 -27,12 -95,17l-221 3c-2,-10 0,-20 -1,-28l-11 -32c-8,17 -5,9 -5,32 -23,0 -19,-2 -34,5 0,36 -1,51 5,79 -11,8 -17,14 -27,24 -40,39 1,51 -46,118 26,18 62,-39 74,-57 23,-36 24,-59 33,-103 62,-14 240,3 317,1 217,-7 434,-4 651,-4 107,-1 224,-7 330,-4l36 78c15,28 2,15 19,19 -22,-34 -37,-78 -51,-106l-289 0c0,-50 5,-112 -11,-147 -30,0 -65,5 -91,-5 -23,10 -46,6 -73,7 0,-82 15,-170 3,-255l-71 -1c12,15 -17,8 28,12 6,1 26,-1 34,-1l0 243 -283 0c-8,17 -3,24 -11,40l-45 0c-6,10 -5,7 -6,23l-43 0z"/>
  <path class="fil11" d="M4481 2874l34 0 0 -79 -34 -17 0 -73c-18,-12 -4,-10 -28,-12 0,-71 6,-122 6,-192l22 0 2 -124c-16,-9 4,-15 -7,3 -7,13 4,52 -7,77l3 -88 -138 -3c-8,0 -15,1 -22,3 -15,5 -3,-2 -13,8 2,27 -5,75 -5,113 19,12 4,9 29,11l0 192 -29 0 0 80 -28 0c0,38 1,21 17,45l170 0c22,1 28,5 51,5l0 40c-40,0 -12,-2 -23,11z"/>
  <path class="fil12" d="M3767 368l0 68c14,0 29,1 42,2 24,0 28,4 31,-13 6,-59 2,-142 2,-204 0,-134 -13,-81 102,-107l0 -96c-69,-16 -220,-22 -278,5l0 91c33,16 56,11 102,11l-1 243z"/>
  <polygon class="fil1" points="5519,2083 6098,2085 6098,2000 5518,1996 "/>
  <path class="fil13" d="M119 1842c3,11 -20,145 -2,214 8,30 18,32 53,32l0 45c15,8 6,5 28,6l6 158c200,0 386,6 582,6 0,58 -15,83 34,91 -28,-36 -23,14 -23,-91l69 0c4,36 11,29 50,29 22,-1 53,3 67,-7 -13,3 -9,5 -8,-10l-91 3 -4 -295 92 -4c0,39 -7,90 4,122l-3 -121c-25,-11 -69,-4 -98,-2l-20 -5c21,23 13,22 14,58 0,25 2,48 2,74 0,48 0,97 0,145l-617 -1c-53,1 -46,15 -41,-156 2,-92 -4,-186 -4,-279l577 3c2,-1 4,-1 5,-1l14 -6c-11,-12 -5,7 -8,-22l2 -176c-23,30 -9,59 -7,97 1,31 0,66 0,98l-673 -5z"/>
  <path class="fil12" d="M4289 114l71 1c12,85 -3,173 -3,255 27,-1 50,3 73,-7l0 -238c25,0 85,-9 102,-17l0 -96c-82,-19 -193,-14 -277,6 0,73 -12,113 34,96z"/>
  <path class="fil14" d="M1173 2982c9,-8 2,-4 15,-9 19,-7 64,-2 91,-2l0 -6c-42,0 -166,-11 -187,-6l24 -24c0,0 2,0 2,0l6 2c1,1 2,2 3,2 1,0 2,1 3,1 19,6 86,2 109,2l-6 -322c-24,0 -49,0 -73,0 -40,-1 -54,-13 -68,-12 8,7 -13,6 17,6 0,110 6,201 6,311 -49,0 -65,38 -52,51 15,16 84,6 110,6z"/>
  <path class="fil15" d="M4917 1543c7,63 -2,343 -3,443 0,26 -2,29 4,51l27 9c5,-7 4,-2 7,-15l6 -514c1,-174 8,-354 8,-527l-39 -2 -5 421c0,27 4,113 -5,134z"/>
  <polygon class="fil16" points="1818,2063 1852,2064 1849,993 1817,994 "/>
  <polygon class="fil5" points="387,2086 564,2086 559,1911 388,1913 "/>
  <path class="fil15" d="M3362 1689l37 1c4,-118 1,-242 0,-360l3 -266c0,-56 9,-72 -13,-77 -35,-9 -25,44 -25,83 0,187 -8,455 -2,619z"/>
  <path class="fil5" d="M975 2315l1 -174c-11,-32 -4,-83 -4,-122l-92 4 4 295 91 -3z"/>
  <path class="fil14" d="M1298 2759l109 8c-1,-28 -9,-266 -9,-266 10,23 -54,45 -97,32l-3 226z"/>
  <path class="fil17" d="M3519 433l11 32c1,8 -1,18 1,28l221 -3c68,-5 -23,-11 95,-17 39,-2 77,0 116,-1l0 -41c-38,0 -94,6 -123,-6 -3,17 -7,13 -31,13 -13,-1 -28,-2 -42,-2l0 -68c-7,15 -4,41 -4,63l-244 2z"/>
  <path class="fil5" d="M1458 2277l153 2c5,-27 6,-101 -2,-124l-151 -2 0 124z"/>
  <path class="fil10" d="M4150 431c1,1 3,0 4,2 1,2 4,2 5,2 46,12 60,-10 117,10 29,9 34,-9 132,-8 66,1 38,-6 84,11 7,-82 -44,-67 -158,-73 -54,-2 -62,1 -103,14 -27,9 -43,2 -66,20 -20,16 -9,-14 -15,22z"/>
  <path class="fil18" d="M2011 1908c23,0 53,0 68,8l4 54 -69 4 -3 -66zm-29 94c37,2 94,8 128,-4l0 -145 -125 -4c-9,38 -4,112 -3,153z"/>
  <path class="fil19" d="M3131 1913l70 3 2 61 -70 -5 -2 -59zm96 -59c-23,-3 -47,-2 -70,-2 -30,-1 -46,-8 -50,15 -2,7 -3,127 -2,138l126 0c2,-35 7,-122 -4,-151z"/>
  <path class="fil18" d="M4756 1981l-70 0 -3 -64 75 3 -2 61zm-89 -123l-6 152 127 0c7,-40 9,-119 -2,-152l-119 0z"/>
  <path class="fil18" d="M3553 1913l72 2 2 63 -71 -1 -3 -64zm-24 95l129 -2 -3 -151 -126 1 0 152z"/>
  <path class="fil17" d="M2015 2240l126 0 2 -109 -128 -2c-7,30 -6,81 0,111z"/>
  <path class="fil20" d="M388 1913l171 -2 5 175 -177 0 1 -173zm-3 -12c-7,21 -9,182 3,189 10,6 81,2 99,2 119,0 102,9 102,-100 0,-32 3,-65 -7,-95 -36,-1 -171,-5 -197,4z"/>
  <path class="fil15" d="M3319 793l33 160c16,18 -13,-19 6,11 17,26 1,18 31,19 10,-12 5,8 8,-21l-32 -164c-8,-47 3,-39 -49,-39l3 34z"/>
  <path class="fil16" d="M1826 759l-7 175c-3,45 -8,54 20,49 15,-9 6,1 12,-15 4,-14 -1,-63 7,-76l8 -171 -27 0c-15,8 -8,2 -13,20 -1,5 0,13 0,18z"/>
  <path class="fil15" d="M4832 765c9,43 80,168 79,198l9 11 39 3c-3,-21 -39,-98 -49,-121 -22,-50 -38,-112 -67,-108 -18,6 -9,-10 -11,17z"/>
  <path class="fil16" d="M3398 1770c-43,0 -36,-5 -37,42l-1 214 35 -1 3 -255z"/>
  <path class="fil21" d="M4580 2272c44,4 80,-24 65,-83 -6,-26 1,-9 -8,-20 -16,-12 -51,-9 -72,-3 -5,33 6,84 15,106z"/>
  <path class="fil22" d="M2015 2240c-6,-30 -7,-81 0,-111l128 2 -2 109 -126 0zm-6 -128c-12,29 -5,75 -5,107 -1,28 -6,28 16,33l108 0c27,-1 29,0 31,-27 2,-29 5,-88 -6,-111l-144 -2z"/>
  <path class="fil23" d="M1458 2153l151 2c8,23 7,97 2,124l-153 -2 0 -124zm-10 105l2 26c194,9 177,4 177,-49 -1,-29 0,-58 -1,-88 -26,-11 -116,-7 -149,-7 -35,0 -30,12 -30,44 1,22 -1,53 1,74z"/>
  <polygon class="fil24" points="4758,1920 4683,1917 4686,1981 4756,1981 "/>
  <polygon class="fil24" points="3556,1977 3627,1978 3625,1915 3553,1913 "/>
  <path class="fil25" d="M2014 1974l69 -4 -4 -54c-15,-8 -45,-8 -68,-8l3 66z"/>
  <polygon class="fil24" points="3133,1972 3203,1977 3201,1916 3131,1913 "/>
  <path class="fil5" d="M2048 2320c13,0 27,0 40,0 18,0 32,4 39,-6l6 -39c-106,0 -85,-12 -85,45z"/>
  <path class="fil26" d="M1165 2257c10,-20 12,-56 12,-84 -51,0 -57,-6 -40,51 8,26 3,31 28,33z"/>
 </g>
</svg>
