<?xml version="1.0" encoding="UTF-8"?>
<!DOCTYPE svg PUBLIC "-//W3C//DTD SVG 1.1//EN" "http://www.w3.org/Graphics/SVG/1.1/DTD/svg11.dtd">
<!-- Creator: CorelDRAW X7 -->
<svg xmlns="http://www.w3.org/2000/svg" xml:space="preserve" width="76.0361mm" height="81.6751mm" version="1.1" style="shape-rendering:geometricPrecision; text-rendering:geometricPrecision; image-rendering:optimizeQuality; fill-rule:evenodd; clip-rule:evenodd"
viewBox="0 0 2128 2286"
 xmlns:xlink="http://www.w3.org/1999/xlink">
 <defs>
  <style type="text/css">
   <![CDATA[
    .fil8 {fill:#727376}
    .fil4 {fill:black}
    .fil2 {fill:#161616}
    .fil1 {fill:#262626}
    .fil13 {fill:#434444}
    .fil12 {fill:#535353}
    .fil11 {fill:#636363}
    .fil5 {fill:#848484}
    .fil3 {fill:#9D9D9D}
    .fil6 {fill:#C4C4C4}
    .fil7 {fill:#D4D4D4}
    .fil0 {fill:#EBEBEB}
    .fil9 {fill:#F17900}
    .fil10 {fill:#FD8A01}
   ]]>
  </style>
 </defs>
 <g id="Layer_x0020_1">
  <metadata id="CorelCorpID_0Corel-Layer"/>
  <path class="fil0" d="M218 1877l51 1c21,-4 378,-1 432,-1 50,0 96,3 145,3 61,0 562,-6 574,4 104,0 208,0 312,0 52,0 104,0 156,0 51,0 103,-4 151,-3 8,-7 8,-7 23,-7l-24 -212c-6,-32 -15,-70 -16,-105 -1,-20 -4,-34 -7,-53 -2,-13 -8,-37 -8,-48l-30 -2c-16,-4 -416,-4 -432,0 -25,6 -130,2 -164,2l-1138 0 -1 82 -19 2c0,29 -1,59 -1,88 0,34 -2,19 -6,37 -3,16 -7,188 -1,207l3 5z"/>
  <path class="fil1" d="M515 277c5,7 -8,3 8,6 -10,5 -4,10 -12,19l-28 271c-1,16 -6,29 4,38 18,-5 7,-8 26,-11l247 -11c93,-5 188,-15 283,-13l-2 -78 -3 -231 20 0 4 255c5,13 3,36 3,52 92,2 183,4 274,11 93,7 185,7 279,12l-3 -24 -31 -227c-7,-44 -1,-51 -18,-68l18 3c8,41 16,91 21,135 5,36 18,106 18,140 6,-3 4,7 5,-9l-24 -192c-6,-7 -6,-17 -8,-25 -1,-10 -4,-14 -4,-27 3,-2 2,-2 7,-4 1,-1 4,-2 5,-2l-1 -10 -5 -9c-45,-10 -213,-9 -269,-11 -91,-2 -184,-5 -274,-5 -174,0 -363,12 -540,15z"/>
  <path class="fil0" d="M1587 1093c5,5 6,7 7,18l-3 117c-6,29 0,63 -1,94 -21,-10 -842,-4 -944,-4l-1 6c27,0 915,3 946,-2 -2,15 -16,34 -22,44l-901 0c-12,-5 -18,-18 -24,-28 -8,-15 -3,-31 -5,-50 -2,-5 -8,-194 3,-210l2 -95c-2,-9 -1,-21 -1,-31 -1,-30 3,-23 4,-28 0,-2 1,-2 2,-3l-1 -23c-3,-12 1,-59 5,-66l0 -58c38,-30 1,-24 101,-24l753 -1c29,0 34,-5 51,10 22,19 10,16 15,45 2,3 2,3 4,9 3,10 1,31 1,44 1,12 5,37 1,50l0 26c2,3 3,3 4,9 1,5 1,1 1,6 0,7 -1,7 -2,12l1 34c-69,-7 -167,-1 -239,-1l-643 0c-27,0 -46,-5 -53,5l819 0c33,0 84,2 116,-2l4 97zm-423 -389l-51 2 -9 -16c-47,0 -94,-1 -141,0 -93,1 -171,10 -261,18 -19,2 -51,1 -68,4 -14,2 -4,-2 -15,7l-25 20c-1,18 -1,25 -5,39 -4,11 -6,108 -7,121 0,22 3,84 -2,101 -6,20 -2,11 -4,57 -8,-4 -5,-7 -16,-10 -17,-5 -66,2 -82,4l-219 24c-53,5 -26,8 -48,15 -14,4 -10,-2 -21,8 -7,7 -9,10 -8,23 15,0 28,3 46,3 54,0 326,-4 337,4 21,9 20,18 19,48l1 129c0,25 0,17 -16,43 -33,7 -324,0 -381,0 -25,14 -11,1 -32,55 -2,7 0,-2 -2,7 75,12 311,-2 418,3l46 1c14,1 6,-2 12,3 42,-7 657,-2 717,-2l538 0c47,0 139,4 180,-4l2 -4c0,-1 0,-2 0,-3 0,0 1,-1 1,-2l-17 -43 -27 -11c-78,-4 -323,7 -362,-1 -21,-13 -19,-12 -19,-42 -1,-22 -2,-44 -2,-68 0,-135 2,-78 17,-111 9,-6 15,-6 27,-6 9,1 17,1 25,1l252 0c22,-1 31,4 49,5 18,0 29,-5 45,-5 1,-12 2,-8 -2,-15 -4,-9 -17,-17 -25,-22 -44,-29 -23,-13 -30,-27 -29,-1 -49,-9 -83,-9 -31,-1 -61,0 -87,-6l-78 -14c-11,-1 -32,-1 -43,-3 -10,-2 -7,-3 -20,-5 -5,0 -15,0 -18,-4 -6,-12 -18,-170 -19,-197 0,-40 -2,-95 -42,-117 -1,0 -1,-1 -2,-1 0,0 -1,-1 -2,-1l-123 -6c-14,-1 -8,-3 -19,-4 -24,-5 -80,-2 -107,-2 -33,-1 -67,-4 -104,-4 -15,0 -38,-1 -52,1 -3,1 -16,5 -21,7 -8,3 -13,10 -13,10 0,-1 -1,1 -2,2z"/>
  <path class="fil2" d="M92 1399l-37 81 -26 91 -23 152c0,32 -6,81 -6,111l12 164c3,18 6,31 8,49 9,63 9,41 24,94 4,15 9,31 17,44 20,33 23,49 49,68 40,30 19,19 90,22 42,2 158,17 184,1 5,-4 12,-9 17,-14 33,-32 51,-67 66,-109 22,-65 23,-58 38,-137 4,-18 17,-86 13,-105 4,-15 5,-5 4,-17l-2 -13c-46,0 -37,-2 -43,12 0,18 -5,51 -13,64 -3,23 -12,47 -20,65 -6,18 -16,32 -27,44 -17,18 -20,17 -50,13 11,-5 9,3 21,-7 35,-27 24,-40 41,-53l19 -61 15 -74c-28,-8 -126,-2 -163,-3 3,34 7,61 13,92 5,31 17,49 23,77 -15,-7 -15,-18 -22,-34 -5,-13 -11,-28 -14,-39 -5,-25 -15,-70 -13,-95 -11,-1 -12,1 -18,-4l-51 -1 -53 -2c-4,-26 -22,-173 -19,-188 -3,-4 -1,0 -3,-7 -6,-19 -17,-177 -25,-201l-2 -10c-1,0 -2,1 -2,2 -16,20 -3,8 -14,12l-19 68c9,4 -2,4 6,0 7,-3 0,-4 0,-4l-3 17c0,-4 2,-2 -2,-5 -13,-10 6,-3 -4,1 -19,63 -31,195 -31,265 -1,137 6,146 27,272 -3,-5 1,3 -3,-7 -1,-1 -1,-2 -1,-2 0,-1 -1,-2 -1,-3 -1,-3 -1,-6 -2,-9l-10 -64c-23,-144 -15,-321 21,-461 11,-45 15,-59 30,-99 1,-1 2,-3 2,-4l2 -4c1,-2 2,-5 4,-8 12,-23 2,-15 21,-21 -6,7 -10,16 -12,27 31,0 26,2 35,-15 6,-12 0,-8 9,-11 -3,10 -6,13 -9,24l20 2 2 -26c31,-2 79,2 113,1l335 0c-6,-5 2,-2 -12,-3l-46 -1c-107,-5 -343,9 -418,-3l-25 0 -14 -1c-4,-9 -14,-70 -14,-82 -1,34 14,41 -1,60 0,1 -1,1 -1,2l-3 3c0,1 -1,2 -1,2 0,0 -2,5 -3,5z"/>
  <path class="fil1" d="M644 983l-2 95 -2 17c34,-5 646,-2 710,-2 36,0 218,-5 235,3 -10,4 -742,4 -887,4l-46 -1c-11,2 -12,-5 -11,27 56,-8 940,-1 943,1 -3,1 -889,8 -943,1l0 29c52,-7 939,-1 944,1 -13,9 -218,4 -232,4 -59,0 -683,3 -711,-2 -2,35 -3,28 7,30 23,5 909,-6 938,3l0 -100 -4 -97c-32,4 -83,2 -116,2l-819 0c7,-10 26,-5 53,-5l643 0c72,0 170,-6 239,1l-1 -34c-18,12 -85,5 -112,5 -195,0 -389,0 -584,0 -76,0 -158,3 -234,0l-4 8c-5,12 3,2 -4,10z"/>
  <path class="fil1" d="M656 1340l920 0 -8 16c-73,4 -156,0 -230,0l-643 0c-28,0 -31,7 -39,-16zm-17 -52c2,19 -3,35 5,50 6,10 12,23 24,28l901 0c6,-10 20,-29 22,-44 -31,5 -919,2 -946,2l1 -6c102,0 923,-6 944,4 1,-31 -5,-65 1,-94 -5,-7 -3,-13 -3,-32l-947 -1 0 29c33,-5 86,-1 122,-1l822 2c-8,5 -18,4 -29,4 -133,-2 -880,4 -915,-2l0 26c3,1 2,1 8,1 1,1 5,1 6,1 137,4 900,-6 925,0l5 3c0,-1 2,0 2,1 -70,6 -164,1 -237,1 -60,0 -679,3 -709,-2l0 31c33,-5 86,-2 122,-2 126,0 811,-4 824,3 -18,6 -418,2 -474,2 -60,0 -449,4 -474,-4z"/>
  <path class="fil2" d="M2073 1449l29 -1c0,77 -13,145 -16,220 -5,20 -6,80 -8,105 -4,36 -5,74 -11,108l-28 0c-48,-1 -100,3 -151,3 -52,0 -104,0 -156,0 -104,0 -208,0 -312,0l289 3 2 36c-6,37 11,198 15,234 1,14 4,29 7,44 4,13 5,30 9,41 3,9 12,25 17,35 9,-4 53,-1 71,0l98 6c34,0 51,13 62,-12l19 -58c2,-10 6,-19 9,-31 13,-50 21,-166 21,-219 -12,7 -10,9 -11,26l-13 93c-13,-31 -21,-148 -21,-193 1,0 2,-1 3,-1l24 -4c13,2 8,14 11,43 1,6 1,13 2,19 3,14 1,9 8,14 7,-8 7,-7 5,-22 0,0 -2,-2 -3,-4 0,-2 0,-3 -1,-4l16 2 -22 0 0 -23c4,-10 5,-5 8,-14 -13,-15 -7,4 -11,-12 15,-1 26,1 36,-1l4 -13c9,-31 5,-14 2,-36 -1,-12 16,-139 15,-168l14 -171c1,-10 1,-19 2,-28 3,-21 4,-11 12,-23l-15 0c-3,0 -10,0 -12,0 -5,0 -5,0 -10,2 -8,2 -4,0 -9,4z"/>
  <path class="fil3" d="M1138 662c-8,-8 -8,4 -13,-7 -2,-4 -3,-21 -2,-27l34 1c2,9 2,9 -1,18 -5,17 -8,12 -9,12 6,-18 8,-22 -12,-23 0,0 -9,-3 -6,14 3,12 2,5 9,12zm-1023 456c-27,39 -30,8 -34,43 -7,51 -5,23 -4,64 11,22 12,54 12,83 0,16 0,31 0,46 0,21 3,26 3,45 1,0 3,-5 3,-5 0,0 1,-1 1,-2l3 -3c0,-1 1,-1 1,-2 15,-19 0,-26 1,-60 2,-24 -4,-60 -9,-81 -5,-24 -4,-58 0,-85 7,-2 30,-14 34,-17 3,3 5,6 7,9 12,17 -3,6 13,12 0,-11 -10,-72 1,-95 9,-17 10,8 12,-24 25,-10 17,-13 22,-21 8,-13 3,5 16,-26l210 -18c34,-3 60,3 74,-4 8,-4 0,1 8,-14 10,-17 13,-8 14,-58l13 -77c5,-18 -1,-36 4,-52 0,-1 1,-2 1,-2l3 -7c14,-39 -2,-62 24,-90 29,-1 16,-2 32,-6l109 -1c79,0 199,-11 283,-12l111 -1c20,-1 22,-1 23,18l4 20c13,-1 1,1 7,-5l8 -21 33 -1c-3,29 7,19 7,19 9,2 2,0 7,-1 31,-9 36,-22 89,-21 92,0 190,7 280,7 23,0 48,-1 71,-1 17,1 16,2 26,11 21,19 17,-3 28,25 0,1 0,1 1,2 0,1 0,2 1,2l1 5c4,17 -3,4 7,30l16 92c2,36 9,67 9,76 1,36 -3,33 13,53l5 6c1,2 2,3 3,6 26,0 38,0 60,5 17,3 45,2 63,2 0,0 -1,1 -2,1l-12 4c38,0 23,3 43,5l137 8 18 26c2,3 1,2 3,5 10,12 2,-4 16,19l9 12c24,35 12,46 23,68 2,3 23,29 38,25 -6,-26 -26,-18 -34,-41 -16,-47 -12,-74 -39,-111 -8,-10 -26,-37 -32,-42 -26,-24 -259,-14 -275,-25 -18,-12 -24,-140 -26,-175 -2,-32 -11,-30 -15,-50l10 0c-1,-1 -2,-2 -3,-3 -1,-1 -2,-1 -3,-2l-5 -4c-5,-4 -3,2 -7,-6 0,-20 -3,-45 -15,-63 -3,-4 -2,-3 -5,-5 1,11 1,3 -2,6 -10,-13 -3,3 -19,-21 -81,-1 -162,0 -242,0 -23,0 -41,-1 -59,-2l-181 -4c-1,0 -25,24 -47,5 -8,-7 -1,-6 -33,-5 -36,0 -72,0 -108,0 -31,0 -74,-2 -104,1 -67,7 -244,9 -311,9 -31,0 -22,-1 -39,12 -15,10 -20,7 -21,32 -1,17 1,37 -1,52 -5,28 -8,22 -21,35 0,38 0,76 -1,113 0,32 -1,59 -13,86 -7,16 -22,14 -70,15l-138 10c-22,2 -46,3 -71,4 -4,4 -2,3 -5,7 -3,4 -2,2 -6,7l-31 52c-4,8 -6,5 -10,13l-21 59z"/>
  <path class="fil1" d="M1461 755c19,0 39,0 58,0 26,-1 28,1 40,14l-890 2c13,-20 19,-15 45,-15 19,0 39,1 58,0 228,-3 460,-1 689,-1zm-808 77l-1 28 923 -1 -1 -30c-27,4 -761,3 -863,3 -23,0 -47,4 -57,-5 23,-6 744,-2 862,-2l57 -3 0 -18c-5,-29 7,-26 -15,-45 -17,-15 -22,-10 -51,-10l-753 1c-100,0 -63,-6 -101,24l0 58z"/>
  <path class="fil3" d="M1565 217c-18,6 -15,0 -29,-3 -10,-2 -22,-1 -32,-1 5,-9 -1,-7 8,-11l-5 -1 -18 -2 -8 2 14 10c-77,0 -149,-11 -228,-13 -71,-3 -150,-11 -221,-10 -73,1 -152,7 -225,11 -72,5 -147,15 -218,15l1 -10 -7 -1c1,8 7,-10 -1,7 -3,7 -9,6 -24,7 -47,1 -34,17 -52,42l-11 17 6 1c177,-3 366,-15 540,-15 90,0 183,3 274,5 56,2 224,1 269,11 -12,-30 -7,-26 4,-53 4,-12 9,-16 9,-27 0,-14 -8,-17 -18,-24 0,1 1,2 1,3l5 16c2,13 -4,8 -15,39l-19 -15z"/>
  <path class="fil4" d="M118 1479l-3 -34c12,0 21,1 33,2 3,0 13,0 15,1l10 3c33,-6 130,0 172,0l1184 -1c3,1 5,1 8,1 11,2 3,0 8,3 16,-4 416,-4 432,0 10,-6 71,-3 96,-5 5,-4 1,-2 9,-4 5,-2 5,-2 10,-2 2,0 9,0 12,0 -5,-7 -43,-3 -53,-3l0 -24 14 0 0 -5c-41,8 -133,4 -180,4l-538 0c-60,0 -675,-5 -717,2l-335 0c-34,1 -82,-3 -113,-1l-2 26 -20 -2c3,-11 6,-14 9,-24 -9,3 -3,-1 -9,11 -9,17 -4,15 -35,15 2,-11 6,-20 12,-27 -19,6 -9,-2 -21,21 -2,3 -3,6 -4,8l-2 4c0,1 -1,3 -2,4 -15,40 -19,54 -30,99 -36,140 -44,317 -21,461l10 64c1,3 1,6 2,9 0,1 1,2 1,3 0,0 0,1 1,2 4,10 0,2 3,7 -21,-126 -28,-135 -27,-272 0,-70 12,-202 31,-265 10,-4 -9,-11 4,-1 4,3 2,1 2,5l3 -17c0,0 7,1 0,4 -8,4 3,4 -6,0l19 -68c11,-4 -2,8 14,-12 0,-1 1,-2 2,-2l2 10z"/>
  <path class="fil5" d="M1125 598l32 0 -4 19 -25 -2 -3 -17zm-638 13c-3,10 -14,14 -21,25l0 -7c-4,7 -4,37 -5,47 -3,46 1,52 -11,54 0,18 -15,34 -20,50 -5,14 -1,46 -3,64 -9,73 18,101 -33,103 2,-13 6,-21 9,-32 -17,20 -3,22 -20,31 -1,-38 3,-90 1,-124 -3,0 -10,1 -11,1 -8,2 -3,0 -8,4 20,11 19,-32 18,119 -13,1 -17,0 -27,1 -9,0 -18,1 -27,2 -17,0 -34,1 -52,2 -103,5 -92,-6 -126,41 -24,33 -37,95 -36,126l21 -59c4,-8 6,-5 10,-13l31 -52c4,-5 3,-3 6,-7 3,-4 1,-3 5,-7 25,-1 49,-2 71,-4l138 -10c48,-1 63,1 70,-15 12,-27 13,-54 13,-86 1,-37 1,-75 1,-113 13,-13 16,-7 21,-35 2,-15 0,-35 1,-52 1,-25 6,-22 21,-32 17,-13 8,-12 39,-12 67,0 244,-2 311,-9 30,-3 73,-1 104,-1 36,0 72,0 108,0 32,-1 25,-2 33,5 22,19 46,-5 47,-5l181 4c18,1 36,2 59,2 80,0 161,-1 242,0 16,24 9,8 19,21 3,-3 3,5 2,-6 -2,-16 -18,-18 -29,-34 -7,-11 -5,-36 -12,-51 -1,16 1,6 -5,9 0,12 8,32 1,41 -5,-5 -6,-17 -9,-24l3 24c-94,-5 -186,-5 -279,-12 -91,-7 -182,-9 -274,-11 0,-16 2,-39 -3,-52 0,34 5,55 -10,52 -16,-2 -2,-58 -11,-76l2 78c-95,-2 -190,8 -283,13l-247 11c-19,3 -8,6 -26,11z"/>
  <path class="fil1" d="M649 921c3,7 -5,7 25,6 139,-4 297,4 437,-1 43,-2 452,-3 464,1 -6,9 -96,4 -111,4 -132,0 -794,5 -815,-2l-2 32c76,-4 156,2 233,-1 75,-4 157,-1 233,-1l409 0c10,0 19,0 28,0l22 -1c8,-2 3,0 8,-3l-1 -22 0 -26c0,-1 -3,-5 -3,-5 0,-1 -2,-1 -2,-2 -1,-4 -849,-2 -926,-2l1 23z"/>
  <path class="fil6" d="M1117 690c8,-5 1,-7 29,6l-36 0c5,6 2,11 28,10 10,0 18,0 26,-2 1,-1 2,-3 2,-2 0,0 5,-7 13,-10 5,-2 18,-6 21,-7 14,-2 37,-1 52,-1 37,0 71,3 104,4 27,0 83,-3 107,2 11,1 5,3 19,4l123 6c1,0 2,1 2,1 1,0 1,1 2,1 40,22 42,77 42,117 1,27 13,185 19,197 3,4 13,4 18,4 13,2 10,3 20,5 11,2 32,2 43,3l78 14c26,6 56,5 87,6 34,0 54,8 83,9 7,14 -14,-2 30,27 8,5 21,13 25,22 4,7 3,3 2,15 -16,0 -27,5 -45,5 -18,-1 -27,-6 -49,-5l-252 0c-8,0 -16,0 -25,-1 -12,0 -18,0 -27,6 22,-2 27,5 48,2 16,-3 30,-3 50,-3l206 0c20,0 34,3 53,3 17,0 36,-3 52,-1 3,27 8,204 2,222 11,-7 6,-27 5,-36l14 -117 25 2c2,26 -8,189 -15,209l-31 0 -2 4 0 5c35,0 42,3 45,-15l9 -117c1,-19 3,-41 8,-59 1,-7 2,-8 1,-15 -3,-21 -1,-3 -6,-16 -3,-9 -3,-25 -4,-35 -15,4 -36,-22 -38,-25 -11,-22 1,-33 -23,-68l-9 -12c-14,-23 -6,-7 -16,-19 -2,-3 -1,-2 -3,-5l-18 -26 -137 -8c-20,-2 -5,-5 -43,-5l12 -4c1,0 2,-1 2,-1 -18,0 -46,1 -63,-2 -22,-5 -34,-5 -60,-5 -1,-3 -2,-4 -3,-6l-5 -6c-16,-20 -12,-17 -13,-53 0,-9 -7,-40 -9,-76l-16 -92c-10,-26 -3,-13 -7,-30l-1 -5c-1,0 -1,-1 -1,-2 -1,-1 -1,-1 -1,-2 -11,-28 -7,-6 -28,-25 -10,-9 -9,-10 -26,-11 -23,0 -48,1 -71,1 -90,0 -188,-7 -280,-7 -53,-1 -58,12 -89,21 -5,1 2,3 -7,1 0,0 -10,10 -7,-19l-33 1 -8 21z"/>
  <path class="fil6" d="M101 1327c0,12 10,73 14,82l14 1c-8,-8 10,-6 -9,-6 0,-60 -16,-120 -18,-179l21 -11c0,0 1,0 1,1l24 122c3,9 1,6 6,11 -3,-32 -4,-201 4,-221l2 -25c19,-4 4,-2 20,-19 13,-14 3,-11 16,-18 0,0 1,-1 2,-1 0,0 1,-1 2,-1l8 -6c13,-12 0,-20 60,-22 27,-1 15,-2 27,-5 20,-6 86,-4 121,-15 41,-12 57,-1 91,-13l7 -2c21,-8 4,-5 18,-9l0 -55c2,-4 7,1 15,-6 1,-56 0,-114 4,-166 -13,5 5,3 6,3 0,-30 -4,-26 3,-27 1,0 2,0 3,-1 1,-38 10,-29 28,-41 6,-5 15,-3 6,-11l193 -6c5,-6 25,-3 35,-3 13,-1 19,-3 36,-3l245 0c-1,-19 -3,-19 -23,-18l-111 1c-84,1 -204,12 -283,12l-109 1c-16,4 -3,5 -32,6 -26,28 -10,51 -24,90l-3 7c0,0 -1,1 -1,2 -5,16 1,34 -4,52l-13 77c-1,50 -4,41 -14,58 -8,15 0,10 -8,14 -14,7 -40,1 -74,4l-210 18c-13,31 -8,13 -16,26 -5,8 3,11 -22,21 -2,32 -3,7 -12,24 -11,23 -1,84 -1,95 -16,-6 -1,5 -13,-12 -2,-3 -4,-6 -7,-9 -4,3 -27,15 -34,17 -4,27 -5,61 0,85 5,21 11,57 9,81z"/>
  <path class="fil7" d="M639 1288c25,8 414,4 474,4 56,0 456,4 474,-2 -13,-7 -698,-3 -824,-3 -36,0 -89,-3 -122,2l0 -31c30,5 649,2 709,2 73,0 167,5 237,-1 0,-1 -2,-2 -2,-1l-5 -3c-25,-6 -788,4 -925,0 -1,0 -5,0 -6,-1 -6,0 -5,0 -8,-1l0 -26c35,6 782,0 915,2 11,0 21,1 29,-4l-822 -2c-36,0 -89,-4 -122,1l0 -29 947 1c0,19 -2,25 3,32l3 -117c-1,-11 -2,-13 -7,-18l0 100c-29,-9 -915,2 -938,-3 -10,-2 -9,5 -7,-30 28,5 652,2 711,2 14,0 219,5 232,-4 -5,-2 -892,-8 -944,-1l0 -29c54,7 940,0 943,-1 -3,-2 -887,-9 -943,-1 -1,-32 0,-25 11,-27l46 1c145,0 877,0 887,-4 -17,-8 -199,-3 -235,-3 -64,0 -676,-3 -710,2l2 -17c-11,16 -5,205 -3,210z"/>
  <path class="fil7" d="M158 1127l407 1c-11,-8 -283,-4 -337,-4 -18,0 -31,-3 -46,-3 -1,-13 1,-16 8,-23 11,-10 7,-4 21,-8 22,-7 -5,-10 48,-15l219 -24c16,-2 65,-9 82,-4 11,3 8,6 16,10 2,-46 -2,-37 4,-57 5,-17 2,-79 2,-101 1,-13 3,-110 7,-121 4,-14 4,-21 5,-39l25 -20c11,-9 1,-5 15,-7 17,-3 49,-2 68,-4 90,-8 168,-17 261,-18 47,-1 94,0 141,0l9 16 51 -2c-8,2 -16,2 -26,2 -26,1 -23,-4 -28,-10l36 0c-28,-13 -21,-11 -29,-6 -6,6 6,4 -7,5l-4 -20 -245 0c-17,0 -23,2 -36,3 -10,0 -30,-3 -35,3l-193 6c9,8 0,6 -6,11 -18,12 -27,3 -28,41 -1,1 -2,1 -3,1 -7,1 -3,-3 -3,27 -1,0 -19,2 -6,-3 -4,52 -3,110 -4,166 -8,7 -13,2 -15,6l0 55c-14,4 3,1 -18,9l-7 2c-34,12 -50,1 -91,13 -35,11 -101,9 -121,15 -12,3 0,4 -27,5 -60,2 -47,10 -60,22l-8 6c-1,0 -2,1 -2,1 -1,0 -2,1 -2,1 -13,7 -3,4 -16,18 -16,17 -1,15 -20,19l-2 25z"/>
  <path class="fil7" d="M146 1687c-3,15 15,162 19,188l53 2 -3 -5c-6,-19 -2,-191 1,-207 4,-18 6,-3 6,-37 0,-29 1,-59 1,-88l19 -2 1 -82 1138 0c34,0 139,4 164,-2 -5,-3 3,-1 -8,-3 -3,0 -5,0 -8,-1l-1184 1c-42,0 -139,-6 -172,0l-22 2 0 92c0,14 2,22 -3,30l0 -36c-8,14 -1,132 -2,148z"/>
  <path class="fil5" d="M1324 162c0,-1 3,-5 4,-5 9,-9 -8,1 4,-3 7,15 -3,11 7,27l7 7c-7,-1 -14,-1 -21,-2l-13 -3 -1 -16c12,-7 -1,1 7,-2 1,-1 2,-1 2,-1 1,0 2,-1 2,-1 1,0 1,-1 2,-1zm-561 5c4,-6 8,-12 15,-16 8,15 6,22 0,37l-46 4c-1,-11 -4,-31 1,-37l26 8c1,0 2,2 2,1 0,0 1,2 2,3zm417 11c0,-1 -2,-4 -2,-4 -5,-7 -15,-15 -8,-33 14,-32 69,-9 49,25 -7,13 -20,16 -39,12zm-513 17c2,-2 8,-7 12,-10 29,-24 23,-11 44,-24 -5,5 1,19 5,29l-61 5zm622 -9c-2,-3 -3,-3 -5,-9 -2,-4 -1,-2 -2,-7 -1,-15 6,-24 21,-30 0,19 -6,10 -6,21 0,16 6,-3 10,25l-18 0zm-202 -13c-6,3 -3,0 -9,6 -3,3 -3,3 -3,4 -18,4 -5,3 -8,-4l-9 4 -9 -4c-6,6 11,7 -8,4l-8 -9 -6 7 -75 -1 5 -16c-1,1 -5,5 -5,6 -1,0 -2,6 -4,2 0,-1 -1,1 -2,1 -7,-1 -4,-7 -6,3 1,12 11,5 -7,12 -2,1 -10,2 -13,2 -8,-1 -18,-7 -28,-9l-105 5c5,-18 4,-20 -1,-37 9,-9 18,-23 31,-28 20,-8 27,-9 49,-12 36,-5 71,-9 106,-14 24,-4 126,10 160,16 16,3 25,9 40,13 -6,12 -10,0 -14,22 -4,18 3,18 1,33 -13,0 -26,0 -39,0 -39,3 -36,4 -33,-6zm248 -132c62,-15 89,85 23,101 -66,15 -97,-83 -23,-101zm-605 3c17,0 21,-7 42,1 11,4 20,16 25,23 18,13 13,62 -27,77 -69,26 -102,-79 -40,-101zm522 40c2,14 0,10 11,18 29,22 19,26 29,32 -7,2 -25,15 -16,24 -42,-22 -33,-9 -36,-4 37,5 35,19 37,29l-54 -2c5,-10 8,-17 9,-32l8 3c0,-6 -20,-32 -38,-36 -12,-2 -17,3 -26,0 -20,-6 -23,-11 -50,-15 -115,-17 -144,-20 -262,-1l-53 12c15,-23 -3,-53 -16,-64 4,-1 14,-3 15,-10 2,-15 8,0 -3,-5 -14,5 -14,10 -27,7 -24,-5 -38,-22 -77,18 -11,11 -7,11 -12,26 -4,14 -26,26 -37,36 -6,6 -1,4 -9,9 -28,21 -14,18 -32,20 -50,7 -26,29 -42,52 -10,15 -13,5 -40,14 -26,9 -38,53 -40,71 10,-11 8,-3 18,-10l11 -17c18,-25 5,-41 52,-42 15,-1 21,0 24,-7 8,-17 2,1 1,-7l-9 -3c-5,-13 -6,-20 0,-32 13,-21 44,-12 50,7 3,9 2,10 -1,19 -4,11 -3,9 -14,9l-19 1 -1 10c71,0 146,-10 218,-15 73,-4 152,-10 225,-11 71,-1 150,7 221,10 79,2 151,13 228,13l-14 -10c-4,-4 -9,-7 -9,-21 -1,-34 35,-25 48,-22 4,14 13,38 -8,44 -9,4 -3,2 -8,11 10,0 22,-1 32,1 14,3 11,9 29,3 -9,-7 -22,-10 -32,-13l14 -25c10,-16 10,-5 34,-12l-6 -3c-21,-9 -31,2 -44,4 -6,-16 -25,-26 -46,-20 -25,7 -23,25 -25,50 -4,0 -70,-7 -72,-8l-44 -35c17,-4 25,-3 36,-13 7,-7 17,-16 22,-28 19,-56 -45,-104 -93,-74 -19,12 -31,33 -28,66 -13,-12 -2,-8 -29,-22z"/>
  <path class="fil3" d="M807 33c11,5 5,-10 3,5 -1,7 -11,9 -15,10 13,11 31,41 16,64l53 -12c118,-19 147,-16 262,1 27,4 30,9 50,15 9,3 14,-2 26,0 18,4 38,30 38,36l0 2c3,-5 -6,-18 36,4 -9,-9 9,-22 16,-24 -10,-6 0,-10 -29,-32 -11,-8 -9,-4 -11,-18 6,-9 -16,-12 -44,-25 0,0 -1,-1 -2,-1 -25,-12 -76,-37 -98,-40l-124 -18c-19,-1 -100,13 -124,16 -27,4 -31,4 -53,17z"/>
  <path class="fil7" d="M1928 1173c-21,-7 -155,-3 -187,-3 -57,0 -50,-11 -50,46 0,28 0,64 3,90 20,3 141,0 179,0 18,0 47,3 55,-4 10,-10 6,-118 0,-129z"/>
  <path class="fil7" d="M529 1307c6,-14 4,-44 4,-66 0,-22 3,-50 -2,-70 -12,-5 -214,-3 -233,1 -5,14 -5,116 -1,131 18,7 198,5 232,4z"/>
  <polygon class="fil1" points="651,894 1577,892 1575,863 651,865 "/>
  <path class="fil3" d="M463 1884l11 2 3 7c6,-14 -3,-12 43,-12l2 13c1,12 0,2 -4,17l9 -5c5,-2 6,-1 11,-1 38,-2 32,-10 60,-17 17,-5 681,-2 715,-2 0,3 0,10 1,12 2,10 -1,4 4,10 0,-1 -2,-14 -2,-14 3,-19 -4,-5 10,-11 8,12 4,14 3,34l-6 1c5,11 -3,1 6,4 4,1 8,1 12,2 108,2 261,-1 370,-1l-2 -36 -289 -3c-12,-10 -513,-4 -574,-4 -49,0 -95,-3 -145,-3 -54,0 -411,-3 -432,1 6,5 7,3 18,4 -2,25 8,70 13,95 3,11 9,26 14,39 7,16 7,27 22,34 -6,-28 -18,-46 -23,-77 -6,-31 -10,-58 -13,-92 37,1 135,-5 163,3z"/>
  <path class="fil0" d="M1835 353c-5,65 -3,161 -2,230 0,22 3,28 4,48l66 0c20,-5 14,-55 14,-70 -1,-52 3,-182 -10,-213 -22,-2 -58,-3 -72,5z"/>
  <path class="fil0" d="M184 635c85,0 71,13 71,-105 -1,-35 4,-150 -6,-171l-67 -2c-16,20 -10,106 -10,139 0,25 0,50 -1,74 0,51 1,35 13,65z"/>
  <path class="fil8" d="M1604 355l-1 -14 206 334c-9,4 -20,5 -29,7 -11,2 -19,4 -28,6 -20,4 -43,11 -63,12 4,8 2,2 7,6l5 4c1,1 2,1 3,2 1,1 2,2 3,3 34,-11 51,-11 81,-19l29 -8c39,-10 95,8 130,-9 8,-32 2,-317 -1,-370l-5 -12c-23,-6 -81,-3 -109,-3 -1,6 0,5 -3,10l34 1c4,-3 1,-6 7,-2l0 35c0,7 -9,0 3,4l6 -18c19,0 34,-2 40,12 3,8 5,234 6,262 2,58 3,61 -43,61l-3 -6 0 28c-13,-4 -5,-1 -12,-8 0,-1 -2,-5 -3,-5 3,12 -3,7 -50,5l-55 -90c-19,-31 -36,-60 -55,-90 -18,-28 -36,-60 -55,-89 -9,-15 -19,-31 -28,-46 -7,-13 -16,-21 -15,-32l3 -13 202 -9 -4 -12c-20,3 -188,1 -204,-5l1 10c-1,0 -4,1 -5,2 -5,2 -4,2 -7,4 0,13 3,17 4,27 2,8 2,18 8,25z"/>
  <path class="fil7" d="M892 181c-1,-11 -9,-21 -4,-36 3,-8 12,-21 23,-24 31,-8 46,17 46,43l-5 16 75 1c-2,-15 -9,-28 -2,-43 5,-10 16,-20 30,-21 30,-1 47,29 32,56 -3,10 -6,9 33,6 13,0 26,0 39,0 2,-15 -5,-15 -1,-33 4,-22 8,-10 14,-22 -15,-4 -24,-10 -40,-13 -34,-6 -136,-20 -160,-16 -35,5 -70,9 -106,14 -22,3 -29,4 -49,12 -13,5 -22,19 -31,28 5,17 6,19 1,37l105 -5z"/>
  <path class="fil7" d="M1680 1179c0,-13 12,-25 27,-25l163 2c48,2 78,-10 77,38 -1,69 15,118 -21,124l-194 2c-18,1 -40,3 -49,-15 -5,-10 -3,-103 -3,-126zm305 161l0 -8c-35,4 -306,6 -317,-2 46,-1 291,2 314,-3l-3 -180c-9,0 -3,0 -5,2 -1,0 -1,3 -2,3 0,0 0,2 0,2 0,-1 0,1 -1,2l-305 0 1 -15 316 1 0 -7 -320 -1c-8,20 -14,4 -13,42l2 114c2,20 -2,38 10,47 19,9 281,5 323,3z"/>
  <path class="fil7" d="M294 1161c15,-11 91,-3 118,-4l93 -2c4,0 11,0 15,0l15 3c17,17 11,25 11,67 0,98 9,94 -57,94l-151 -1c-24,0 -52,4 -55,-20 -3,-16 -1,-57 -1,-76 0,-30 -5,-43 12,-61zm-47 -20c41,5 192,2 251,2 23,0 64,-6 72,11l-5 169c1,-29 6,-156 -1,-173 -1,0 -1,1 -2,1l-5 2c-3,2 1,1 -6,3 -4,0 -15,1 -19,1 -74,1 -216,-4 -270,0 -1,-1 -2,-2 -2,-2l-6 -5c0,-1 -1,-1 -2,-1l-1 179 310 0c-9,9 -26,6 -38,6l-276 0 0 6 310 0c8,-3 11,-9 19,-16 0,-212 16,-189 -68,-189 -44,0 -235,-2 -262,1l1 5z"/>
  <path class="fil8" d="M220 676c-2,14 4,8 -11,11 -9,-41 -9,-7 -38,-21 -19,-10 -16,-28 -16,-40 0,-55 -7,-198 0,-240 8,-51 -10,-65 51,-65 5,-7 3,-7 3,-18 25,0 3,-2 13,8 22,0 42,0 64,-1 42,-2 153,8 195,5 -3,30 -82,149 -102,182 -19,32 -35,60 -54,91 -5,9 -8,13 -13,21l-40 67 -52 0zm-81 -333c1,46 -6,320 3,338 11,13 39,8 58,8 22,0 47,3 68,-1l2 -6c14,12 60,13 98,25 6,-6 -4,-2 7,-6 -5,-18 -2,-4 -7,-11l-4 7c-15,-3 -30,-6 -46,-9 -8,-2 -34,-7 -41,-10 41,-73 110,-183 157,-259 17,-29 36,-58 52,-87l1 5c4,-4 15,-21 4,-33 0,0 -1,-1 -2,-1l0 -11 -196 6c-15,-1 -2,-2 -19,-4 -15,-2 -24,5 -43,5 -90,0 -94,-14 -92,44z"/>
  <path class="fil9" d="M247 1340l0 -6 0 -193 -1 -5c-16,-5 -68,-2 -82,3l-1 200 84 1z"/>
  <path class="fil7" d="M2039 1881l28 0c6,-34 7,-72 11,-108 2,-25 3,-85 8,-105 -6,-7 -7,8 -7,-19 -7,-24 -4,-75 -7,-96 -4,-25 -5,-66 -5,-97l-60 0c0,11 6,35 8,48 3,19 6,33 7,53 1,35 10,73 16,105l24 212c-15,0 -15,0 -23,7z"/>
  <polygon class="fil10" points="1983,1142 1985,1332 1985,1340 2063,1338 2060,1137 1983,1135 "/>
  <path class="fil6" d="M651 865l924 -2 2 29 -926 2 0 -29zm2 -33c-4,7 -8,54 -5,66 77,0 925,-2 926,2 0,1 2,1 2,2 0,0 3,4 3,5 4,-13 0,-38 -1,-50 0,-13 2,-34 -1,-44 -2,-6 -2,-6 -4,-9l0 18 -57 3c-118,0 -839,-4 -862,2 10,9 34,5 57,5 102,0 836,1 863,-3l1 30 -923 1 1 -28z"/>
  <path class="fil0" d="M656 1340c8,23 11,16 39,16l643 0c74,0 157,4 230,0l8 -16 -920 0z"/>
  <path class="fil0" d="M669 771l890 -2c-12,-13 -14,-15 -40,-14 -19,0 -39,0 -58,0 -229,0 -461,-2 -689,1 -19,1 -39,0 -58,0 -26,0 -32,-5 -45,15z"/>
  <path class="fil7" d="M184 635c-12,-30 -13,-14 -13,-65 1,-24 1,-49 1,-74 0,-33 -6,-119 10,-139l67 2c10,21 5,136 6,171 0,118 14,105 -71,105zm62 29c33,0 25,-54 23,-81 -2,-37 -4,-170 -1,-206 3,-47 6,-52 -46,-52 0,12 0,12 -4,21 -11,-10 -3,1 -8,-12 0,0 -1,-7 -1,-9 -24,1 -41,-4 -46,18l-1 181c-1,134 -20,141 44,140 0,-5 0,-10 1,-14 0,-1 0,-2 1,-3 0,-1 1,-2 1,-3 0,-1 1,-1 2,-3 0,-2 1,-2 1,-3 5,4 2,0 6,7 4,9 -1,-3 4,19l24 0z"/>
  <path class="fil7" d="M644 983c7,-8 -1,2 4,-10l4 -8c76,3 158,0 234,0 195,0 389,0 584,0 27,0 94,7 112,-5 1,-5 2,-5 2,-12 0,-5 0,-1 -1,-6 -1,-6 -2,-6 -4,-9l1 22c-5,3 0,1 -8,3l-22 1c-9,0 -18,0 -28,0l-409 0c-76,0 -158,-3 -233,1 -77,3 -157,-3 -233,1l2 -32c21,7 683,2 815,2 15,0 105,5 111,-4 -12,-4 -421,-3 -464,-1 -140,5 -298,-3 -437,1 -30,1 -22,1 -25,-6 -1,1 -2,1 -2,3 -1,5 -5,-2 -4,28 0,10 -1,22 1,31z"/>
  <path class="fil11" d="M247 1340l-84 -1 1 -200c14,-5 66,-8 82,-3 27,-3 218,-1 262,-1 84,0 68,-23 68,189 -8,7 -11,13 -19,16l-310 0zm-93 8l34 0c57,0 348,7 381,0 16,-26 16,-18 16,-43l-1 -129c1,-30 2,-39 -19,-48l-407 -1c-8,20 -7,189 -4,221z"/>
  <path class="fil12" d="M1983 1135l77 2 3 201 -78 2c-42,2 -304,6 -323,-3 -12,-9 -8,-27 -10,-47l-2 -114c-1,-38 5,-22 13,-42l320 1zm-321 212l407 2c6,-18 1,-195 -2,-222 -16,-2 -35,1 -52,1 -19,0 -33,-3 -53,-3l-206 0c-20,0 -34,0 -50,3 -21,3 -26,-4 -48,-2 -15,33 -17,-24 -17,111 0,24 1,46 2,68 0,30 -2,29 19,42z"/>
  <path class="fil11" d="M1928 1173c6,11 10,119 0,129 -8,7 -37,4 -55,4 -38,0 -159,3 -179,0 -3,-26 -3,-62 -3,-90 0,-57 -7,-46 50,-46 32,0 166,-4 187,3zm-248 6c0,23 -2,116 3,126 9,18 31,16 49,15l194 -2c36,-6 20,-55 21,-124 1,-48 -29,-36 -77,-38l-163 -2c-15,0 -27,12 -27,25z"/>
  <path class="fil8" d="M1835 353c14,-8 50,-7 72,-5 13,31 9,161 10,213 0,15 6,65 -14,70l-66 0c-1,-20 -4,-26 -4,-48 -1,-69 -3,-165 2,-230zm35 -15c-14,-11 -15,-7 -45,-6 0,18 -3,23 -3,41 0,15 0,29 0,44 0,27 0,55 0,83 1,173 -17,161 44,161 2,-10 -1,-9 4,-21l3 -5c5,6 6,8 6,18l3 6c46,0 45,-3 43,-61 -1,-28 -3,-254 -6,-262 -6,-14 -21,-12 -40,-12l-6 18c-12,-4 -3,3 -3,-4z"/>
  <path class="fil7" d="M1335 41c-74,18 -43,116 23,101 66,-16 39,-116 -23,-101z"/>
  <path class="fil7" d="M730 44l-4 4c-49,40 -19,84 6,93 25,8 45,1 59,-13 16,-17 13,-35 6,-60 -5,-7 -14,-19 -25,-23 -21,-8 -25,-1 -42,-1z"/>
  <path class="fil12" d="M491 286l-2 6 0 11c1,0 2,1 2,1 11,12 0,29 -4,33 -1,22 -20,64 -29,86 -6,15 -9,28 -14,44 -5,13 -10,27 -15,41 10,-5 51,-110 52,-115l-28 267 -11 -12c-23,-32 -21,-28 -24,-55 -9,3 -17,15 -21,-20l-2 1c-5,7 0,-5 -2,6 -9,43 23,37 17,57 0,0 1,0 2,1 1,6 -1,0 3,3l6 5 8 -1 1 24 21 0 -2 54 -81 -16c-38,-12 -84,-13 -98,-25l-2 6c20,4 128,27 145,35l6 30 1 -31c10,3 22,4 30,8 12,-2 8,-8 11,-54 1,-10 1,-40 5,-47l18 -172c5,-47 9,-126 22,-165 6,6 6,-9 5,10 8,-9 2,-14 12,-19 -16,-3 -3,1 -8,-6l-6 -1c-10,7 -8,-1 -18,10z"/>
  <path class="fil3" d="M1864 668c1,0 3,4 3,5 7,7 -1,4 12,8l0 -28c0,-10 -1,-12 -6,-18l-3 5c-5,12 -2,11 -4,21 -61,0 -43,12 -44,-161 0,-28 0,-56 0,-83 0,-15 0,-29 0,-44 0,-18 3,-23 3,-41 30,-1 31,-5 45,6l0 -35c-6,-4 -3,-1 -7,2l2 10c-82,0 -63,8 -63,172 0,40 2,80 1,120 -1,83 22,52 61,61z"/>
  <path class="fil3" d="M246 664l-24 0c-5,-22 0,-10 -4,-19 -4,-7 -1,-3 -6,-7 0,1 -1,1 -1,3 -1,2 -2,2 -2,3 0,1 -1,2 -1,3 -1,1 -1,2 -1,3 -1,4 -1,9 -1,14 -64,1 -45,-6 -44,-140l1 -181c5,-22 22,-17 46,-18 0,2 1,9 1,9 5,13 -3,2 8,12 4,-9 4,-9 4,-21 52,0 49,5 46,52 -3,36 -1,169 1,206 2,27 10,81 -23,81zm-26 12l1 -6c57,0 57,-4 57,-60l2 -230c0,-54 -4,-61 -58,-61l0 -8c-10,-10 12,-8 -13,-8 0,11 2,11 -3,18 -61,0 -43,14 -51,65 -7,42 0,185 0,240 0,12 -3,30 16,40 29,14 29,-20 38,21 15,-3 9,3 11,-11z"/>
  <path class="fil6" d="M429 508c-16,10 -10,50 -17,69l-15 -4c4,35 12,23 21,20 3,27 1,23 24,55l11 12 28 -267c-1,5 -42,110 -52,115z"/>
  <path class="fil7" d="M2069 1349l-407 -2c39,8 284,-3 362,1l27 11 17 43c0,1 -1,2 -1,2 0,1 0,2 0,3l31 0c7,-20 17,-183 15,-209l-25 -2 -14 117c1,9 6,29 -5,36z"/>
  <path class="fil11" d="M531 1171c5,20 2,48 2,70 0,22 2,52 -4,66 -7,8 -10,7 -24,7 -60,3 -49,-4 -74,-6 -152,-13 -137,45 -139,-105 0,-29 1,-17 10,-33 12,0 24,0 36,0 1,0 19,0 19,0 15,-3 7,1 15,-9l-78 0c-17,18 -12,31 -12,61 0,19 -2,60 1,76 3,24 31,20 55,20l151 1c66,0 57,4 57,-94 0,-42 6,-50 -11,-67 -20,2 -39,1 -58,1 -28,0 -44,-4 -56,8 29,0 90,-7 110,4z"/>
  <path class="fil11" d="M247 1334l276 0c12,0 29,3 38,-6l-310 0 1 -179c1,0 2,0 2,1l6 5c0,0 1,1 2,2 54,-4 196,1 270,0 4,0 15,-1 19,-1 7,-2 3,-1 6,-3l5 -2c1,0 1,-1 2,-1 7,17 2,144 1,173l5 -169c-8,-17 -49,-11 -72,-11 -59,0 -210,3 -251,-2l0 193z"/>
  <path class="fil7" d="M129 1410l25 0c2,-9 0,0 2,-7 21,-54 7,-41 32,-55l-34 0c-5,-5 -3,-2 -6,-11l-24 -122c0,-1 -1,-1 -1,-1l-21 11c2,59 18,119 18,179 19,0 1,-2 9,6z"/>
  <path class="fil13" d="M1985 1332l-2 -190 -316 -1 -1 15 305 0c1,-1 1,-3 1,-2 0,0 0,-2 0,-2 1,0 1,-3 2,-3 2,-2 -4,-2 5,-2l3 180c-23,5 -268,2 -314,3 11,8 282,6 317,2z"/>
  <path class="fil0" d="M1041 498c9,18 -5,74 11,76 15,3 10,-18 10,-52l-4 -255 -20 0 3 231z"/>
  <path class="fil7" d="M372 601c6,9 1,12 1,20 0,0 0,1 0,1 -1,15 3,12 -5,16 5,12 5,42 0,52 5,7 2,-7 7,11 -11,4 -1,0 -7,6l81 16 2 -54 -21 0 -1 -24 -8 1c-1,18 -6,51 1,64 -20,1 -20,-40 -15,-54l-18 -4 0 -23c11,6 8,6 21,8 6,-20 -26,-14 -17,-57 2,-11 -3,1 2,-6 -6,-8 3,-1 -6,-6 -5,-2 -4,-1 -10,-1 -7,11 -6,20 -7,34z"/>
  <path class="fil6" d="M2007 1456l60 0c0,31 1,72 5,97 3,21 0,72 7,96 0,27 1,12 7,19 3,-75 16,-143 16,-220l-29 1c-25,2 -86,-1 -96,5l30 2z"/>
  <path class="fil7" d="M2039 1963l3 -3c-7,-5 -5,0 -8,-14 -1,-6 -1,-13 -2,-19 -3,-29 2,-41 -11,-43l-24 4c-1,0 -2,1 -3,1 0,45 8,162 21,193l13 -93c1,-17 -1,-19 11,-26z"/>
  <path class="fil6" d="M419 753c0,41 -8,-3 -8,64 -10,-28 -3,-18 -6,-34 -1,-10 1,-5 -3,-10 3,22 8,89 7,114 -1,18 -11,17 -6,28 -3,11 -7,19 -9,32 51,-2 24,-30 33,-103 2,-18 -2,-50 3,-64 5,-16 20,-32 20,-50 -8,-4 -20,-5 -30,-8l-1 31z"/>
  <path class="fil3" d="M118 1479c8,24 19,182 25,201 2,7 0,3 3,7 1,-16 -6,-134 2,-148l0 36c5,-8 3,-16 3,-30l0 -92 22 -2 -10 -3c-2,-1 -12,-1 -15,-1 -12,-1 -21,-2 -33,-2l3 34z"/>
  <path class="fil0" d="M466 629l0 7c7,-11 18,-15 21,-25 -10,-9 -5,-22 -4,-38l28 -271c1,-19 1,-4 -5,-10 -13,39 -17,118 -22,165l-18 172z"/>
  <path class="fil0" d="M1615 573c3,7 4,19 9,24 7,-9 -1,-29 -1,-41 0,-34 -13,-104 -18,-140 -5,-44 -13,-94 -21,-135l-18 -3c17,17 11,24 18,68l31 227z"/>
  <path class="fil6" d="M1565 217l19 15c11,-31 17,-26 15,-39l-5 -16c0,-1 -1,-2 -1,-3 1,-7 -6,-8 -12,-7 -24,7 -24,-4 -34,12l-14 25c10,3 23,6 32,13z"/>
  <path class="fil12" d="M294 1161l78 0c-8,10 0,6 -15,9 0,0 -18,0 -19,0 -12,0 -24,0 -36,0 -9,16 -10,4 -10,33 2,150 -13,92 139,105 25,2 14,9 74,6 14,0 17,1 24,-7 -34,1 -214,3 -232,-4 -4,-15 -4,-117 1,-131 19,-4 221,-6 233,-1 -20,-11 -81,-4 -110,-4 12,-12 28,-8 56,-8 19,0 38,1 58,-1l-15 -3c-4,0 -11,0 -15,0l-93 2c-27,1 -103,-7 -118,4z"/>
  <path class="fil10" d="M1186 132c-28,10 -13,55 18,43 26,-10 16,-55 -18,-43z"/>
  <path class="fil10" d="M1068 173c8,-7 18,-15 11,-32 -4,-9 -17,-17 -31,-11 -21,10 -21,48 20,43z"/>
  <path class="fil10" d="M944 165c5,-50 -57,-47 -41,7 28,10 30,4 41,-7z"/>
  <path class="fil10" d="M1489 199l18 2c15,-8 22,-24 8,-38 -16,-15 -29,-3 -39,6 -1,19 1,24 13,30z"/>
  <path class="fil10" d="M604 204l19 -1c6,-6 13,-11 12,-23 -1,-10 -8,-19 -20,-20 -29,-3 -37,29 -11,44z"/>
  <path class="fil3" d="M732 192l46 -4c6,-15 8,-22 0,-37 -7,4 -11,10 -15,16 -1,-1 -2,-3 -2,-3 0,1 -1,-1 -2,-1l-26 -8c-5,6 -2,26 -1,37z"/>
  <path class="fil0" d="M448 1958c6,10 -7,8 13,8l3 -9c8,-13 13,-46 13,-64l-3 -7 -11 -2 -15 74z"/>
  <path class="fil3" d="M444 2022c-12,2 -12,5 -15,-3 -17,13 -6,26 -41,53 -12,10 -10,2 -21,7 30,4 33,5 50,-13 11,-12 21,-26 27,-44z"/>
  <path class="fil3" d="M421 646l-6 -5c-4,-3 -2,3 -3,-3 -1,-1 -2,-1 -2,-1 -13,-2 -10,-2 -21,-8l0 23 18 4c-5,14 -5,55 15,54 -7,-13 -2,-46 -1,-64z"/>
  <path class="fil7" d="M1240 154l0 -2 -8 -3c-1,15 -4,22 -9,32l54 2c-2,-10 0,-24 -37,-29z"/>
  <path class="fil12" d="M892 181c10,2 20,8 28,9 3,0 11,-1 13,-2 18,-7 8,0 7,-12 -22,25 -64,-13 -41,-41 18,-21 68,-8 47,38 1,0 2,-2 2,-1 2,4 3,-2 4,-2 0,-1 4,-5 5,-6 0,-26 -15,-51 -46,-43 -11,3 -20,16 -23,24 -5,15 3,25 4,36z"/>
  <path class="fil12" d="M1027 181l6 -7 8 9c19,3 2,2 8,-4 -33,-13 -23,-57 9,-56 35,0 40,45 9,56 3,7 -10,8 8,4 0,-1 0,-1 3,-4 6,-6 3,-3 9,-6 15,-27 -2,-57 -32,-56 -14,1 -25,11 -30,21 -7,15 0,28 2,43z"/>
  <path class="fil7" d="M2037 1909c32,1 18,2 36,15 0,-2 -1,-8 -1,-8 0,-11 -1,1 2,-10 4,-12 0,-17 -4,-24 -10,2 -21,0 -36,1 4,16 -2,-3 11,12 -3,9 -4,4 -8,14z"/>
  <path class="fil7" d="M429 2019c3,8 3,5 15,3 8,-18 17,-42 20,-65l-3 9c-20,0 -7,2 -13,-8l-19 61z"/>
  <path class="fil7" d="M944 165c-11,11 -13,17 -41,7 -16,-54 46,-57 41,-7zm-4 11c2,-10 -1,-4 6,-3 21,-46 -29,-59 -47,-38 -23,28 19,66 41,41z"/>
  <path class="fil7" d="M1068 173c-41,5 -41,-33 -20,-43 14,-6 27,2 31,11 7,17 -3,25 -11,32zm-19 6l9 4 9 -4c31,-11 26,-56 -9,-56 -32,-1 -42,43 -9,56z"/>
  <path class="fil7" d="M667 195l61 -5c-4,-10 -10,-24 -5,-29 -21,13 -15,0 -44,24 -4,3 -10,8 -12,10z"/>
  <path class="fil3" d="M797 68c7,25 10,43 -6,60 -14,14 -34,21 -59,13 -25,-9 -55,-53 -6,-93l4 -4c-62,22 -29,127 40,101 40,-15 45,-64 27,-77z"/>
  <path class="fil0" d="M2047 1938c19,0 23,3 26,-14 -18,-13 -4,-14 -36,-15l0 23 22 0 -16 -2c1,1 1,2 1,4 1,2 3,4 3,4z"/>
  <path class="fil5" d="M368 638c8,-4 4,-1 5,-16 0,0 0,-1 0,-1 0,-8 5,-11 -1,-20 -14,5 -30,10 -31,29l27 8z"/>
  <path class="fil3" d="M1289 186l18 0c-4,-28 -10,-9 -10,-25 0,-11 6,-2 6,-21 -15,6 -22,15 -21,30 1,5 0,3 2,7 2,6 3,6 5,9z"/>
  <path class="fil6" d="M1311 167l1 16 13 3c7,1 14,1 21,2l-7 -7c-10,-16 0,-12 -7,-27 -12,4 5,-6 -4,3 -1,0 -4,4 -4,5 -1,0 -1,1 -2,1 0,0 -1,1 -2,1 0,0 -1,0 -2,1 -8,3 5,-5 -7,2z"/>
  <path class="fil7" d="M1186 132c34,-12 44,33 18,43 -31,12 -46,-33 -18,-43zm-6 46c19,4 32,1 39,-12 20,-34 -35,-57 -49,-25 -7,18 3,26 8,33 0,0 2,3 2,4z"/>
  <path class="fil7" d="M597 203l7 1c-26,-15 -18,-47 11,-44 12,1 19,10 20,20 1,12 -6,17 -12,23 11,0 10,2 14,-9 3,-9 4,-10 1,-19 -6,-19 -37,-28 -50,-7 -6,12 -5,19 0,32l9 3z"/>
  <path class="fil6" d="M1138 662c-7,-7 -6,0 -9,-12 -3,-17 6,-14 6,-14 20,1 18,5 12,23 1,0 4,5 9,-12 3,-9 3,-9 1,-18l-34 -1c-1,6 0,23 2,27 5,11 5,-1 13,7z"/>
  <path class="fil7" d="M1481 201l8 -2c-12,-6 -14,-11 -13,-30 10,-9 23,-21 39,-6 14,14 7,30 -8,38l5 1c21,-6 12,-30 8,-44 -13,-3 -49,-12 -48,22 0,14 5,17 9,21z"/>
  <polygon class="fil6" points="1128,615 1153,617 1157,598 1125,598 "/>
  <path class="fil13" d="M1318 1908l-2 9c4,3 2,1 7,1l6 -1c1,-20 5,-22 -3,-34 -14,6 -7,-8 -10,11 0,0 2,13 2,14z"/>
  <path class="fil12" d="M1811 304l18 0c3,-5 2,-4 3,-10l-25 -2 4 12z"/>
 </g>
</svg>
