<?xml version="1.0" encoding="UTF-8"?>
<!DOCTYPE svg PUBLIC "-//W3C//DTD SVG 1.1//EN" "http://www.w3.org/Graphics/SVG/1.1/DTD/svg11.dtd">
<!-- Creator: CorelDRAW X7 -->
<svg xmlns="http://www.w3.org/2000/svg" xml:space="preserve" width="163.633mm" height="71.226mm" version="1.1" style="shape-rendering:geometricPrecision; text-rendering:geometricPrecision; image-rendering:optimizeQuality; fill-rule:evenodd; clip-rule:evenodd"
viewBox="0 0 11003 4789"
 xmlns:xlink="http://www.w3.org/1999/xlink">
 <defs>
  <style type="text/css">
   <![CDATA[
    .str0 {stroke:black;stroke-width:5.12383}
    .fil11 {fill:#A9ABAE}
    .fil14 {fill:#848688}
    .fil9 {fill:#010101}
    .fil4 {fill:#121212}
    .fil19 {fill:#15161A}
    .fil20 {fill:#17181C}
    .fil1 {fill:#232323}
    .fil16 {fill:#333433}
    .fil3 {fill:#464848}
    .fil21 {fill:#68131C}
    .fil12 {fill:#6B6C6C}
    .fil23 {fill:#6F111A}
    .fil10 {fill:#848885}
    .fil22 {fill:#931B25}
    .fil24 {fill:#942C32}
    .fil25 {fill:#9A3C42}
    .fil7 {fill:#9A9A9A}
    .fil18 {fill:#A15704}
    .fil26 {fill:#A96F72}
    .fil8 {fill:#AAAAAA}
    .fil2 {fill:#BABDBA}
    .fil17 {fill:#C7D9EC}
    .fil5 {fill:#D2D2D2}
    .fil15 {fill:#D7EFFD}
    .fil13 {fill:#E37800}
    .fil6 {fill:#E4E7E5}
    .fil0 {fill:#FDFDFD}
   ]]>
  </style>
 </defs>
 <g id="Layer_x0020_1">
  <metadata id="CorelCorpID_0Corel-Layer"/>
  <g id="_934602552">
   <path class="fil0" d="M8049 623c25,-2 8,-7 21,12l23 57c5,16 13,79 9,101l-40 127c-54,88 -110,139 -219,164 -23,5 -72,13 -92,14l-146 -23c-14,-5 -24,-10 -39,-15l-40 -16c-46,-23 -117,-76 -160,-109 -102,-78 -108,-202 -111,-209 -37,-7 -61,16 -102,18l-6 -19 -109 50c-8,-5 -13,-8 -21,-17 -16,-17 -9,-6 -10,-20 -17,-7 -8,0 -24,-12 -19,-4 -23,19 -37,30 -18,14 -9,3 -25,13l-102 80c-14,8 -74,56 -105,62 -20,4 -49,27 -67,40 -30,24 -37,43 -86,67l-65 44c-43,45 -25,-3 -84,62l-18 13c-62,32 -4,16 -59,38 -2,1 -3,2 -5,2l-8 4c-17,5 -15,4 -34,5 -14,29 -12,27 -49,40 -7,3 -66,30 -67,12 6,19 33,49 45,65 11,14 13,16 23,33 10,15 14,21 18,42 13,2 2,-4 14,12 0,0 10,16 11,19 8,14 15,29 24,44l115 266c39,38 136,409 147,448 42,155 66,343 66,515 -22,1 91,-5 104,-6 42,-1 86,0 128,1 47,0 72,-6 122,-6 42,0 86,1 128,0 39,0 68,-6 116,-6l376 -8c21,-193 -7,-401 -34,-583l-89 -379c-14,-45 -36,-83 -40,-128 43,33 71,195 84,241 79,283 56,264 96,527 13,82 3,212 3,299 55,0 102,-10 148,-17 136,-19 323,-69 449,-70 3,-12 6,4 -6,-5 -12,-10 -10,6 -6,-5 76,-2 41,-8 113,-22l357 -65c14,-33 20,-251 21,-305 1,-164 -50,-411 -87,-574 -10,-42 -22,-89 -32,-134 -11,-51 -31,-87 -41,-131 12,6 8,1 17,18 24,42 98,375 108,421 18,75 37,280 46,376 5,48 -9,99 0,147l4 49c0,-9 -7,5 5,-9l208 -163c1,-1 12,-10 13,-10l17 -15c1,0 3,-1 4,-2l80 -59c27,-24 81,-72 117,-78 3,-51 8,-15 32,-41 13,-15 23,-39 70,-66 14,-8 2,7 20,-20l18 -34c88,-7 34,4 89,-44 38,-33 13,-25 46,-41 28,-13 8,8 29,-21 26,-38 4,-10 32,-26 33,-19 2,-41 66,-42 10,-62 19,-107 19,-183l-11 -193c-12,-53 -25,-116 -35,-172 -17,-93 -49,-152 -74,-230 -21,-65 -35,-86 -65,-141 -12,-22 -24,-43 -35,-64l-129 -180c-15,-20 -28,-35 -47,-50 -19,-8 -967,1 -1085,1 17,9 26,26 38,42 60,77 15,57 11,61 -32,-50 -69,-102 -116,-134 -16,-7 -45,8 -62,12l-193 43c46,0 51,9 86,20 12,3 31,3 47,8 11,4 25,16 34,22 24,17 43,29 62,49 34,35 46,46 38,66z"/>
   <path class="fil1" d="M6685 3644c-6,-10 -5,9 -5,-22 0,-74 48,-43 113,-30l-30 68 -78 -16zm765 7c5,-23 6,-31 20,-55l97 -87c200,-116 446,-25 526,141 58,119 74,204 38,348 -20,-24 -7,-56 1,-104 11,-70 -39,-226 -81,-270 -20,-21 -38,-37 -58,-57 -29,-30 -29,-28 -71,-51 -58,-32 -116,-44 -184,-43 34,0 102,8 131,22 25,13 90,44 106,59l74 85c12,22 46,93 50,115 21,99 20,194 -20,280 -33,73 -67,135 -148,181 -85,47 -138,69 -250,53 -102,-15 -149,-63 -206,-122 -24,-25 -40,-72 -56,-104 -38,-74 -43,-193 -19,-279 8,-29 36,-79 50,-112zm-2868 -1364c-10,8 12,9 -24,8 -10,9 -10,-16 -7,18l7 39c19,172 15,315 -1,485 -5,38 -15,75 -33,98l-97 0 15 -66 -9 -1 -3 31c-9,62 -9,15 -154,28l-2 589c2,2 4,3 5,3l25 19c0,1 10,28 11,31 7,23 12,54 14,80l9 129c7,68 5,232 -4,297l-1 24 5 20c21,-42 19,-237 19,-304 0,-40 -6,-59 -6,-104 316,0 613,-12 932,-12 92,0 666,-22 698,-9 33,14 9,42 80,32 47,-6 46,-5 75,-47 27,6 68,16 97,18 0,46 -1,20 13,30l0 -42c76,3 100,24 176,12l17 -90c1,-7 1,-5 2,-15 1,-13 1,-8 0,-14 -7,5 -11,-5 -8,40 -20,-18 -8,3 -15,-22 -5,-14 -1,-7 4,-9 -4,25 -14,18 -16,18l-6 0c-1,1 -3,1 -4,1 -2,0 -14,5 -16,6 -5,-9 -9,-18 -13,-27 -161,0 -315,5 -475,8l-445 7c-28,-6 -14,2 -30,-18l1066 -13c8,36 -16,135 -27,169l106 -4c-10,19 8,3 -17,19 -8,5 -65,23 -89,20l-4 17c-9,-24 -2,-13 -18,-18 -28,40 60,225 86,259l37 49c10,16 3,11 17,26 8,10 14,16 24,24 22,20 13,4 41,27 19,16 46,43 70,48l-19 4c13,17 -1,3 16,14 65,38 142,51 215,60 33,4 63,5 104,5 -45,-36 -19,-30 -86,-36 -5,-1 -12,-1 -17,-2 -39,-8 24,7 -11,-3l72 4c-10,-37 -33,-43 -67,-103 -16,-28 -42,-86 -43,-123 0,-1 0,-3 0,-5l-23 -37c0,-2 -2,-4 -3,-6 -4,15 -1,11 -26,-2 -58,-30 -135,-128 -141,-206l138 18c-12,-13 18,-11 -20,-11 36,-6 29,15 38,-77 2,-17 6,-35 11,-51 7,-26 11,-27 3,-47 49,3 31,0 41,-14l5 24c53,-3 44,-19 70,-96 24,-67 47,-181 97,-231l78 -91c85,17 87,-9 152,-28 35,-10 130,-25 165,-26 8,0 294,23 335,39 2,1 4,2 6,3 -56,-3 -206,5 -254,31 -27,15 -74,34 -103,45 -41,16 -30,16 -65,42 -14,10 -8,7 -23,20 -10,10 -10,8 -19,17 -67,64 -37,13 -120,136 -58,84 -56,89 -97,201 -38,103 -32,277 -9,386 13,60 67,178 107,227l32 42c33,43 36,51 80,83l52 40c6,5 7,5 11,8l18 24c14,17 -2,4 26,17 12,5 20,9 30,13 166,62 84,38 266,57 27,3 41,-1 70,-6 52,-9 93,-10 134,-30 38,-19 73,-34 108,-51 36,-18 157,-119 178,-151l50 -71c16,-23 11,-5 16,-34l51 -119c1,-1 2,-3 3,-4 3,-19 13,-38 18,-55 6,-20 8,-44 11,-66 -7,4 -5,-1 10,3 1,-17 -3,-45 7,-53l7 -98c-28,-14 -21,-114 -35,-162 -13,-42 -44,-97 -52,-138l23 4c9,1 21,2 30,1 23,0 38,-4 62,-5l-6 -211 -186 1c0,38 7,91 29,120 4,5 10,13 15,21 10,14 19,24 30,43 -17,-10 -32,-33 -45,-53 -34,-54 -64,-88 -112,-125 -23,-18 -13,2 -24,-24 -47,-28 -119,-90 -214,-103 20,-21 -12,-14 73,-13l215 -2c91,-5 548,6 589,-10 136,-51 91,-31 208,-51 37,-7 22,5 29,-16 -10,-17 -15,-14 -60,-13 -30,1 -188,5 -195,-5 -345,16 -740,-10 -1084,8 -170,9 -366,4 -537,3 -245,0 -2647,28 -2683,19 -14,-11 -11,3 -9,-61 1,-34 6,-36 -19,-46 -13,23 -7,64 -8,100l-93 -23 -2 -32 -40 8c0,-12 -2,-33 -1,-44 3,-47 17,-35 31,-40 1,0 3,-1 5,-1 39,-13 85,0 136,12 69,-13 240,-5 319,-5 109,0 218,0 327,0 -2,-1 -4,-2 -6,-2 -42,-10 -240,-4 -333,-4l-299 5c-32,-2 -32,-9 -41,-19l157 0c-4,14 -79,6 -97,6l0 -10c-3,-9 21,0 -4,-4 -18,-2 -38,5 -46,6 -16,4 -79,10 -103,-10 16,-23 7,-18 43,-18l128 8c0,11 -15,4 3,7 25,3 127,-13 149,-21 0,-20 -1,3 -21,-13 -3,-67 10,-107 13,-171 7,-132 12,-223 -4,-358 -7,-64 -9,-136 -48,-133l-19 30z"/>
   <path class="fil0" d="M3718 3337l1 64c-35,1 -63,3 -93,4 -45,0 -70,13 -72,-29 -2,-46 13,-40 59,-40 35,1 71,-1 105,1zm-268 -375c0,-27 4,-29 15,-44l161 2c21,35 22,97 -1,134l-158 0c-24,-35 -17,-22 -17,-92zm-709 -1162l-36 101c-9,13 -4,8 -15,16l17 -51c-21,31 -39,83 -56,120 -29,63 -34,71 -34,147 0,120 -5,239 -5,360 1,104 7,255 -1,353 -11,118 1,241 -6,359 82,12 210,-3 295,-2l591 -5c80,-7 225,19 283,-16 -178,19 -382,4 -569,14 -94,5 -198,-9 -292,-1 -98,9 -198,-3 -297,3 9,-200 -4,-408 6,-608l2 -450c0,-42 -6,-94 30,-126 -18,77 -19,1 -20,132 -1,51 -1,101 -3,152 -2,98 5,201 -1,298 -10,188 -3,401 -3,591 198,0 397,-5 596,-5 99,0 203,-6 299,-4 51,0 101,2 152,2 103,1 87,-9 127,-32 -9,13 -15,17 -17,25 -6,15 -2,-1 -1,9l2 8c-61,20 -64,19 -135,19l-756 6c-93,0 -204,7 -295,0 -14,-41 5,-688 5,-789 -1,-77 -11,-331 13,-387l110 -260c14,-24 0,-8 20,-23l-36 94c17,-24 13,-39 30,-50zm0 0c-5,-34 5,-38 13,-62 1,0 11,-5 2,8 -14,20 8,0 -20,16 3,-43 23,-73 37,-107l101 -257c1,18 -2,29 -9,40 -16,25 6,19 -32,19 -10,5 -8,8 -18,31l-43 103c-20,49 -39,96 -58,142 -19,45 -40,96 -60,143 -56,136 -31,79 -83,112 -8,17 -2,12 -39,19 -136,29 -85,23 -100,164 -4,40 -7,32 -19,42l0 -159c17,5 0,202 0,226l0 676c0,12 -2,64 -7,55 -1,-1 -2,4 -3,6 -7,35 -3,185 -3,232 1,63 14,-7 14,109 0,31 -3,90 2,118l1366 -15c0,-45 -5,-150 4,-186l232 -4c14,-154 -1,-329 5,-486 2,-62 4,-448 -3,-486l-170 -2c-29,3 -24,6 -24,37 -1,160 -7,594 4,703 -10,-11 -4,2 -9,-15 -8,-28 17,-685 -5,-724 -11,63 -2,527 -1,664l-14 -1584c-28,-1 -42,-6 -78,-6 -194,1 -390,-12 -579,-12 3,-4 30,-8 47,26 -20,2 -55,-2 -66,-14l-4 37c75,0 627,6 651,24 29,21 17,106 17,152l0 335c0,82 9,92 -16,146 -143,4 -625,-20 -717,-3l121 89c-17,10 -97,-59 -136,-81l-53 78c2,-28 24,-38 32,-74 -32,7 -49,29 -70,47 -27,23 -29,34 -37,73 -51,6 -118,2 -171,2 -64,1 -100,-6 -98,-75 2,-84 56,-183 86,-256l150 -362c27,-67 11,-56 67,-95l85 -8 3 -41c-26,-2 -1,17 -61,24 9,-23 1,-9 14,-21 17,-17 7,-4 10,-3 -21,-8 -5,-6 -22,-2 -1,0 -21,8 -21,8 -7,4 -13,8 -20,12l-22 12c4,-20 -2,-5 7,-21 19,-32 20,-9 20,-9 -25,13 -33,34 -46,59l-1 -8c5,-16 17,-13 18,-17 2,-4 5,-3 8,-4l-128 315c-24,55 -23,84 -50,95z"/>
   <path class="fil0 str0" d="M1608 2481c-6,-31 -8,-84 1,-115l546 1c3,26 1,57 1,84 0,41 -4,34 -47,33 -90,-1 -469,6 -501,-3zm-1450 -55l-9 205c-5,32 -2,66 -3,100 -1,37 -5,75 -7,113 80,-35 164,-86 244,-115 42,-14 4,-12 90,-37 72,-20 81,-32 178,-46l318 -34c124,-2 218,-13 341,-14 96,-1 263,-10 351,3 99,14 77,29 148,69 3,2 23,13 28,16 19,15 57,88 70,106l47 84c3,5 3,8 5,14 1,1 2,3 2,4 14,33 51,203 55,233 11,109 14,80 25,152 29,12 166,6 207,5l144 0 -1 -338c-14,-60 17,-840 4,-897 -447,1 -792,6 -1231,79 -47,8 -99,9 -148,19l-209 38c-22,6 -48,7 -69,12 -45,12 -79,29 -126,39 -92,19 -173,57 -248,80l-65 21c-37,14 6,4 -59,21 -22,6 4,-2 -17,6l-45 16c-20,8 -29,25 -20,46z"/>
   <path class="fil1" d="M1315 4279c-11,38 -28,63 -60,85 -50,34 -47,45 -85,62 -161,73 -352,74 -490,-48 -48,-42 -33,-13 -73,-74 -10,-15 -19,-28 -30,-43 -44,-58 -57,-145 -64,-222 -11,-124 44,-229 112,-318 60,-77 189,-152 292,-153 17,1 46,-5 70,-3 77,5 119,17 191,53 192,96 282,362 196,561 -21,48 -20,74 -59,100zm-1031 -902c-13,11 -17,9 -45,11 14,9 48,-5 81,-14 28,-7 64,-25 88,-16l-34 21c22,-4 45,-17 59,-2 25,23 -6,16 -29,36 -6,111 15,94 -25,148 -30,41 -49,60 -72,117 -15,40 -44,95 -52,130 -12,49 -13,96 -18,141l-5 22c-6,53 2,175 13,232 4,21 67,183 99,225 12,15 18,25 28,39 10,15 17,20 29,37 9,14 16,27 27,40 26,30 108,91 146,122 28,23 185,95 224,100 238,32 98,27 292,11 67,-6 148,-34 207,-62l68 -28c1,-1 12,-8 13,-8l7 -7c1,-1 3,-3 4,-4l-18 0c40,-17 143,-107 169,-142 69,-90 82,-93 124,-193 14,-33 36,-77 46,-112 22,-75 31,-198 23,-273 -20,-182 -5,-101 -64,-254 -52,-137 -171,-264 -292,-342 -41,-27 -178,-81 -230,-88 -44,-6 -95,-14 -141,-18 11,-3 2,-2 8,-10l-169 20c-1,-30 2,-89 -17,-111l-2 113c-26,6 -49,16 -70,20 -25,-43 -39,-165 -32,-220l707 1c-27,-13 -652,-4 -736,-3 -117,2 -201,0 -266,103 -28,44 -134,184 -145,218z"/>
   <path class="fil1" d="M9170 4102c50,-25 82,-33 129,3 -7,33 -7,37 -46,42 -29,4 -54,2 -76,-8l-7 -37zm-67 -480c22,-84 103,-137 180,-171 19,-8 39,-9 60,-13 53,-11 150,-1 182,15l95 53c12,10 24,24 36,36 37,36 86,110 99,190 17,101 14,154 -17,247 -33,96 -16,40 -50,91 -20,30 -1,18 -29,45 -48,44 -38,22 -54,39 -33,35 6,16 -62,35 -30,8 -25,18 -114,34 -44,8 -76,5 -120,-2 -52,-8 -75,-36 -108,-41 25,-26 43,-5 43,-5 -12,-1 -10,-1 -21,-5 30,-29 44,2 77,-30 12,-12 8,-14 20,-19 10,-1 7,7 8,-8 -22,-18 -30,-36 -72,-42 -18,-2 -35,-1 -51,3 -30,9 -31,18 -35,28l-21 13c-58,-78 -84,-106 -103,-225 -14,-87 19,-214 57,-268zm378 -538l-5 5 81 2 86 1 46 -3c0,44 -2,42 11,78l-67 5c-9,-9 -12,16 -9,-14 -14,17 -24,6 -70,7 -23,1 -51,5 -67,-2l-136 -15c-5,19 0,12 -55,20 -134,17 -108,27 -221,77 -28,13 -59,43 -81,64 -32,32 -46,28 -76,77l-60 86c-1,1 -2,3 -3,4 -41,65 -32,69 -65,154 -14,36 -17,92 -22,130 -18,131 2,244 56,365 8,19 14,35 21,52 11,24 1,3 15,22l33 45c5,8 8,13 15,22 32,47 37,53 78,86l66 50c1,1 3,2 4,3l104 53c24,10 36,17 54,27 20,16 129,24 151,25 55,1 107,-16 154,-24 92,-16 263,-136 316,-220 11,-18 21,-29 34,-51 13,-22 26,-34 37,-55 36,-72 75,-198 75,-284 23,0 51,5 76,9l30 7c1,0 3,1 4,2 84,40 131,3 188,31 11,-19 3,-7 2,-19l44 -12c-5,-14 -5,-13 -9,-16l-17 -11c-1,-1 -3,-1 -4,-3 -11,-18 -5,-7 -8,-27l15 2c1,0 19,-2 19,-2l0 -98 141 15 0 -20 -5 -4c-51,-4 -126,-14 -172,-25l-24 -237c30,0 65,3 85,-6 20,36 19,22 73,24l1 -6c0,-1 1,-3 1,-3 5,-13 7,-10 15,-17 11,-10 10,15 10,-53 -21,-11 -145,-19 -167,-19 -10,-44 -23,-64 -41,-105 -24,-58 -32,-33 -32,-120l-24 0 0 -37 0 61c-22,-17 -10,-1 -19,-28l-3 -77 -679 2z"/>
   <path class="fil0" d="M68 2944l85 3 -6 333c-32,2 -81,3 -104,-7 0,42 -6,71 -6,103 23,2 17,6 45,6 1,-1 4,-3 5,-2l197 -3c11,-34 117,-174 145,-218 65,-103 149,-101 266,-103 84,-1 709,-10 736,3 113,49 138,104 188,185 51,84 81,172 98,278l14 49c47,6 132,29 178,24 12,-9 -12,-1 18,-12l-10 -140c-6,-1 3,-6 -3,7l-7 12c-1,-85 -13,-95 -18,-123l-20 -113c-3,-9 -2,-10 -5,-20 0,-2 -1,-3 -1,-5l-6 -18c-1,-2 -1,-3 -2,-5l-4 -25c-9,-53 3,-34 -18,-74 -12,-23 -13,-43 -18,-74l-70 -173c-27,-39 -19,-44 -35,-81 -13,-28 -69,-63 -113,-69 -69,-10 -276,-12 -351,-3 -147,18 -441,10 -605,37 -19,3 -37,13 -65,18 -54,11 -103,22 -151,31 -127,26 -44,6 -133,44 -61,26 -217,78 -224,135z"/>
   <path class="fil2" d="M9859 156l34 10c-13,8 -44,4 -64,4l-19 239c-37,-15 -54,-39 -83,-57 -26,-17 -62,-20 -89,-31 -29,5 -177,-10 -224,-10 -74,-1 -146,-7 -225,-7 -17,3 -5,-3 -2,5l14 27c-64,-32 -36,-27 -109,-54 2,1 4,1 5,4 8,28 2,-20 18,32 -33,-11 -76,-34 -138,-53 -32,-10 -139,-9 -154,10 -49,0 -5,3 -24,-14 -15,15 -95,0 -122,-2l-890 -51c39,13 12,-8 24,25 -36,-4 -70,-23 -141,5l-255 87c-26,8 -38,14 -62,23 -147,55 -318,102 -455,156 -37,14 -93,34 -131,44 6,-3 -3,-11 14,0 19,13 8,2 19,26 -24,-3 -74,-13 -106,5l-176 152c-7,5 -22,13 -26,17l-85 84c-30,28 -29,11 -67,56l-206 165c-7,6 -2,2 -10,8l-39 28c-48,37 -39,23 -40,45 15,5 11,2 22,12 27,25 9,2 20,31 -43,-8 -35,-25 -67,-30 -1,20 -5,16 -6,42 -5,81 -5,130 -17,216 -1,6 -2,20 -4,26 -17,85 -85,474 -76,518 0,3 1,4 1,6l11 26c-40,-15 -45,-4 -81,8 9,15 6,7 16,22 13,-11 36,-16 59,-18 8,9 8,11 15,20l21 23 8 -30c-35,-20 17,-91 28,-123l32 -85c9,-22 11,-14 20,-40l138 -337 19 -98c4,12 9,11 19,27 20,38 -1,30 35,28 -4,-21 -8,-27 -18,-42 -10,-17 -12,-19 -23,-33 -12,-16 -39,-46 -45,-65 -27,-18 -18,-32 -45,-43 9,-22 14,-12 40,-35l74 -55c10,-7 15,-11 25,-18l96 -68c16,-12 6,-9 20,-22 25,-22 7,7 63,-41 1,-1 5,-5 7,-6l61 -42c1,-1 3,-2 4,-2 36,-23 13,-12 37,-30 8,-7 17,-11 26,-17l273 -196c1,-1 3,-1 4,-2 37,-19 15,-19 34,-28 22,11 83,80 92,93 16,12 7,5 24,12 3,-27 -4,-49 -40,-60 7,-13 12,-9 20,-20 8,-9 1,0 7,-11 1,-1 4,-7 5,-10 0,-2 1,-3 2,-5 31,0 72,-12 93,-27l6 -5c22,-16 28,-13 53,-22 18,-6 21,-9 35,-18 44,-29 64,-2 127,-39l23 -14c32,-11 29,7 72,-12l160 -60c10,-4 26,-8 37,-11 -7,1 -5,4 -12,-2 -12,-10 -21,-2 61,-29 59,-20 16,-4 21,-21 30,-16 96,-10 129,-35 21,-16 32,-13 59,-21 29,-9 27,-18 62,-19 22,6 22,43 67,52 1,-21 7,-18 -22,-45 -11,-9 -16,-17 -27,-24 102,2 238,4 330,16 107,13 228,3 337,16l339 15c29,0 64,-2 92,1 24,2 19,1 43,20 5,4 4,4 10,9 21,17 80,58 93,76 19,15 32,30 47,50l129 180c11,21 23,42 35,64 30,55 44,76 65,141 25,78 57,137 74,230 10,56 23,119 35,172l11 193c0,76 -9,121 -19,183 0,21 -2,57 -15,71l-15 15c-24,16 -18,1 -32,16 -1,1 -2,2 -3,3l-4 8c-14,21 -10,23 -43,25 -1,25 3,17 -9,33l-71 63c-22,17 -24,25 -35,38l-80 36c-1,28 3,22 -10,39 -11,14 -10,13 -34,15 -3,59 -8,25 -39,52l-6 6c-26,24 -38,8 -67,43 -20,25 -8,24 -35,39 -32,18 -11,5 -30,24l-23 14c-42,26 3,33 -55,35l-9 30c-39,5 -31,11 -37,16 -25,23 -5,6 -33,19 -10,9 7,34 -55,59 -97,39 -61,61 -113,72l-3 -36c-9,11 -6,48 -10,66l-52 202 29 -22c16,-14 10,-16 40,-38l390 -355c13,-12 10,-13 27,-27l173 -156c14,-12 13,-16 27,-27 16,-13 15,-10 31,-25 34,-34 78,-73 107,-111 12,-15 15,-17 26,-29 10,-13 29,-61 32,-79 17,17 36,-32 -1,58 -9,24 -9,33 -29,46 7,12 -6,3 13,5 34,-18 37,-52 53,-91 77,-184 60,-451 21,-639 -8,-39 -16,-83 -25,-123 -7,-29 -35,-91 -35,-115 5,-58 -81,-212 -114,-271 -9,-17 -18,-33 -27,-52 -10,-19 -20,-34 -31,-49 -5,-7 -10,-14 -16,-21 -12,-15 -9,-5 -18,-27 -22,-15 -67,-90 -121,-137 37,0 15,-1 62,34 24,17 27,25 42,48 29,-29 6,-23 6,-41 104,0 208,0 311,0 99,0 148,-16 189,19l50 59c5,43 -40,538 -46,632 -7,105 -14,206 -41,306 -13,46 -25,92 -36,136 -4,15 -11,50 -22,62l-41 24c-13,4 2,17 -9,-1l-12 38c-3,12 -7,23 -12,37 -8,22 -19,45 -24,74l74 -44c10,-10 10,-6 14,-24l-2 12c12,-12 8,7 22,-53l68 -281c20,-81 11,-64 41,-74l9 -4c-10,-11 -24,-15 -30,-18l86 -1097c-21,-24 -19,21 -9,-12 8,-24 -13,0 12,-11 -1,-29 13,-57 34,-68 -19,-5 -33,-12 -53,-13 -17,0 -21,3 -33,10 0,1 -2,2 -3,3 0,32 -6,20 12,39z"/>
   <path class="fil3" d="M5007 2938c15,-15 -4,-7 26,-11l189 -2c233,0 1502,-11 1523,0l0 19c-15,11 -15,8 -55,8l-377 1c-146,3 -294,0 -439,0 -100,0 -834,12 -866,3l-1 -18zm-117 -29c-1,22 6,19 -16,26 -21,7 -31,2 -40,-3 4,-28 -12,-16 17,-23 4,-1 33,0 39,0zm210 -235l265 0 0 215 -1 24 -118 5 -122 0 -24 -1 0 -243zm-86 233c0,-50 -1,-102 0,-152 2,-85 4,-79 77,-79l0 236 -77 -5zm4726 -95l0 35 -34 1 -24 -3 0 -31 58 -2zm-4576 -199l126 0 0 53 -25 1 -101 0 0 -54zm283 281l-72 1c-2,-51 -3,-101 -3,-152 0,-93 15,-71 -67,-78l-1 -59 -43 -3 -79 -1 -72 5 0 60c-32,0 -68,-4 -90,8 -24,45 -18,129 -16,188l0 36c-55,0 -112,-2 -166,0 -26,1 -51,6 -77,9 -92,13 -52,5 -68,22 42,-5 112,-27 136,-11 -1,29 7,22 -24,30 -2,0 -29,3 -37,5 -72,10 -108,2 -174,8 -23,2 -68,10 -82,-9 -18,-3 -3,4 -3,-7l-128 -8c-36,0 -27,-5 -43,18 24,20 87,14 103,10 8,-1 28,-8 46,-6 25,4 1,-5 4,4l0 10c18,0 93,8 97,-6l-157 0c9,10 9,17 41,19l299 -5c93,0 291,-6 333,4 2,0 4,1 6,2l4338 -22c10,31 5,85 4,119l-425 3c-9,17 -7,5 -7,20 1,22 -2,11 9,20l-2 -33 449 -6 5 -5c-23,-3 -14,6 -22,-12l0 -98 5 -9 696 -3 0 120 3 77c9,27 -3,11 19,28l0 -61c0,-27 3,-107 -4,-130 -6,-20 -8,-3 -8,-40l-212 -8c-17,-6 -10,-5 -10,-18 0,-8 2,-24 2,-35l134 0 0 -96 -59 -1 -4 -172c0,-19 6,-42 -10,-40l7 213 -64 1 15 -219c-9,13 -9,10 -11,40l-20 322 -271 2c16,-35 15,-37 15,-87 38,-7 67,10 66,-30 -1,-36 -28,-20 -69,-26l27 -224c5,-22 1,-18 -18,-15l-42 157 -45 1 31 -234 -6 1 -9 26c-57,-4 -222,-18 -256,5l254 11 -24 190c-12,0 -26,3 -35,3l-19 -2c-1,-2 -3,-1 -5,-2 -8,-55 13,-114 -7,-154 -1,29 -3,57 -2,86 0,11 1,34 0,44 -3,36 5,16 -11,24 -15,-10 -8,-33 -8,-74 1,-31 2,-50 -10,-74 -6,51 -13,114 -1,164 34,-9 134,-8 169,-2 21,31 21,160 10,200 -24,7 -150,10 -172,-1 -21,-15 -11,-118 -10,-141 -17,17 -15,32 -14,62 0,16 0,32 0,49l-75 -1 1 -140c29,-6 59,1 73,-1l13 -4 2 -19 -14 6c-21,5 -46,3 -68,3 -10,-19 3,8 2,-16 0,0 -1,-2 -1,-4 0,-1 0,-2 -1,-4 -30,26 -21,51 -21,100 0,29 -7,79 5,101 -22,3 -27,-7 -32,-6 -13,16 6,8 -25,11 -6,1 -17,-1 -24,-2 -83,-6 -98,4 -153,5l-178 -444 -11 4 123 437c-26,-13 -2,-3 -15,-16 -16,-16 6,-11 -10,-6 -8,14 8,7 -12,9l-562 6c-25,-10 -44,-8 -72,-8 -19,-18 -23,-44 -19,-76 13,-3 21,-5 34,-9l35 -20c-23,-1 -27,1 -48,7 -23,7 -36,5 -34,25 3,36 1,41 14,67 -80,0 -159,1 -238,0 -67,0 -162,20 -232,2 -33,-4 -23,-5 -59,3l-55 11c-1,-2 -3,1 -5,2 64,20 315,-16 358,13 -11,10 4,4 -19,8 -33,8 -415,2 -447,-3 -36,-6 -168,7 -233,2l34 -33c-67,43 -9,35 -165,34l-583 0 -8 -31 -197 -7c-32,3 -72,6 -100,-6l-7 -236 0 -131c0,-15 1,-33 1,-48 0,-9 -1,-15 -2,-24 -3,-13 -1,-5 -7,-14 -9,14 -6,11 -53,10 -123,-2 -266,5 -384,-3 -51,-3 -414,-7 -430,6 17,12 801,12 874,7 -20,25 4,6 -23,16l-123 2c-2,30 6,68 -8,95 -22,2 -23,4 -42,-4 -8,-28 -4,-61 -4,-94l-473 -2 -3 98 -52 -2 -1 -96 -145 -1 0 414c136,15 611,-15 680,6 -36,0 -68,0 -104,3 -34,2 -56,-3 -91,-3 -89,-1 -27,30 -89,8 -19,-7 -38,-1 -40,-2 -1,0 -3,26 1,-6 -55,0 -133,-11 -180,8 -37,15 -9,0 -57,-5l-318 -3c23,1 54,18 73,-7z"/>
   <path class="fil1" d="M3121 1409c-18,83 6,461 -10,601 -26,7 -39,0 -57,-7l-10 37c0,-2 2,-41 -5,-69 -6,-26 -15,-25 -16,-69 -2,-56 0,-114 0,-171 1,-104 -9,-226 12,-322l-88 0c-56,39 -40,28 -67,95l-150 362c-30,73 -84,172 -86,256 -2,69 34,76 98,75 53,0 120,4 171,-2 8,-39 10,-50 37,-73 21,-18 38,-40 70,-47 -8,36 -30,46 -32,74l53 -78c39,22 119,91 136,81l-121 -89c92,-17 574,7 717,3 25,-54 16,-64 16,-146l0 -335c0,-46 12,-131 -17,-152 -24,-18 -576,-24 -651,-24z"/>
   <path class="fil0" d="M5110 2988c-109,0 -218,0 -327,0 -79,0 -250,-8 -319,5l0 127c36,9 2438,-19 2683,-19 171,1 367,6 537,-3 344,-18 739,8 1084,-8l259 -2 425 -3c1,-34 6,-88 -4,-119l-4338 22z"/>
   <path class="fil1" d="M4049 3265c-28,-49 -23,-34 -23,-102l1 -755c0,-50 -8,-99 13,-109 16,6 10,-9 15,23 7,47 -3,921 -6,943zm-45 -2115l6 26c1,13 1,26 2,38 10,343 -10,772 10,1080l-196 -3 4 -24 -20 31c0,-34 -5,-73 -5,-116l-4 -804 14 1584c-1,-137 -10,-601 1,-664 22,39 -3,696 5,724 5,17 -1,4 9,15 -11,-109 -5,-543 -4,-703 0,-31 -5,-34 24,-37l170 2c7,38 5,424 3,486 -6,157 9,332 -5,486l-232 4c-9,36 -4,141 -4,186l-1366 15c-5,-28 -2,-87 -2,-118 0,-116 -13,-46 -14,-109 0,-47 -4,-197 3,-232 0,-7 2,-38 1,-44 -6,-39 5,-15 -13,-27l1 338 -144 0c-42,22 -181,-8 -233,9l29 3 39 247c-29,15 -63,30 -105,50l-25 1 -44 1c-46,5 -131,-18 -178,-24 63,61 21,13 54,91l5 11c-1,-33 -12,-17 19,-26l100 4 -3 240c11,20 -6,139 -10,175 -2,10 -3,17 -6,23 -7,13 -11,8 -19,24 13,6 16,-11 4,47 -3,16 -4,33 -4,57 62,14 43,22 94,-10 96,-60 78,-71 88,-167 5,-40 13,-70 13,-115 13,7 18,10 30,18 -2,30 -18,39 18,49 9,-17 25,-203 25,-238l91 0c0,34 6,85 -6,110l8 34 31 4 -1 -8 -26 0 1 -232c72,-1 473,-15 506,-5 14,18 7,43 6,82l64 -1c6,-36 1,-130 26,-174 21,-39 51,-13 153,-20 60,-5 76,-20 82,19 1,-1 2,-4 3,-5 0,-2 1,-4 2,-5 0,-2 1,-4 2,-6l5 -34c25,-9 50,-7 82,-7l5 22c14,21 5,7 19,17 6,-9 -12,-6 13,-8l336 0 12 -38c40,0 92,-14 95,27 16,6 -17,0 14,3l201 -3c72,2 154,-2 228,-2l-9 -325c-4,9 -3,7 -6,19l-18 0c0,-82 -4,-176 0,-256 3,-60 20,-186 2,-250 4,-282 -8,-547 -8,-828 0,-140 0,-280 0,-421l-2 -83c-21,-80 -10,-22 -13,-118 -5,-143 1,-128 -62,-132 16,4 9,1 19,8 11,7 2,0 10,12z"/>
   <path class="fil0" d="M868 4357l8 -7c13,-8 -2,0 13,-7 137,-63 278,82 71,67 -70,-5 -92,-10 -92,-53zm11 -725c20,-38 45,-43 102,-45 40,-2 107,4 89,53 -20,53 -165,76 -191,-8zm38 -64c-2,2 -3,2 -4,4 -1,2 -3,3 -4,3 -36,20 -6,-10 -87,31 -30,16 -64,25 -89,46 -23,18 -43,42 -65,64 -31,30 -31,35 -53,80 -17,35 -31,46 -39,89 -5,31 -18,89 -17,119 4,99 42,216 111,286 85,85 133,114 264,136 77,13 161,-5 221,-37 102,-54 52,-14 120,-79 18,-16 21,-24 40,-31 39,-26 38,-52 59,-100 86,-199 -4,-465 -196,-561 -72,-36 -114,-48 -191,-53 -24,-2 -53,4 -70,3z"/>
   <path class="fil4" d="M8341 4100l12 -24c27,-73 5,-45 48,-58 -19,8 -20,4 -35,-2 11,-13 3,-17 48,-19 20,-1 23,-4 43,-5l11 32c7,26 -1,3 8,22 22,52 9,36 46,89l5 7c11,16 15,15 19,31 -50,31 -168,32 -229,24 -8,-30 21,-64 24,-97zm-218 -797c-4,-4 -2,-3 -10,-9 -4,-3 -7,-5 -11,-8 -99,-76 -126,-57 -163,-93l813 -6c-21,16 -39,18 -60,40l-47 44c-61,53 -208,13 -340,28 -60,8 -122,0 -182,4zm0 0c11,26 1,6 24,24 48,37 78,71 112,125 13,20 28,43 45,53 -11,-19 -20,-29 -30,-43 -5,-8 -11,-16 -15,-21 -22,-29 -29,-82 -29,-120l186 -1 6 211c-24,1 -39,5 -62,5 -9,1 -21,0 -30,-1l-23 -4c8,41 39,96 52,138 14,48 7,148 35,162l29 6c3,32 10,54 7,85 8,9 3,-1 8,20 2,10 3,16 5,27l-63 13c-15,-4 -17,1 -10,-3 -3,22 -5,46 -11,66 -5,17 -15,36 -18,55 -1,1 -2,3 -3,4l-51 119c24,17 5,8 36,13 44,7 64,11 107,3 25,-5 52,-11 72,-14 68,-10 36,-12 71,-20 20,30 115,112 149,131l308 101c42,9 130,48 184,48 -18,-10 -30,-17 -54,-27l-104 -53c-1,-1 -3,-2 -4,-3l-66 -50c-41,-33 -46,-39 -78,-86 -7,-9 -10,-14 -15,-22l-33 -45c-14,-19 -4,2 -15,-22 -7,-17 -13,-33 -21,-52 -54,-121 -74,-234 -56,-365 5,-38 8,-94 22,-130 33,-85 24,-89 65,-154 1,-1 2,-3 3,-4l60 -86c30,-49 44,-45 76,-77 22,-21 53,-51 81,-64 113,-50 87,-60 221,-77 55,-8 50,-1 55,-20l-322 -20c-11,-9 -8,2 -9,-20 0,-15 -2,-3 7,-20l-259 2c7,10 165,6 195,5 45,-1 50,-4 60,13 -7,21 8,9 -29,16 -117,20 -72,0 -208,51 -41,16 -498,5 -589,10l-215 2c-85,-1 -53,-8 -73,13 95,13 167,75 214,103z"/>
   <path class="fil5" d="M5959 2036c-1,1 -3,3 -3,4 0,0 0,2 0,2 0,-1 2,0 4,0 26,7 7,-26 25,25l28 95c13,57 23,89 0,136l19 24c63,0 64,1 71,35l0 89 336 3c6,9 4,1 7,14 1,9 2,15 2,24 0,15 -1,33 -1,48 26,26 33,24 59,44 21,16 89,69 108,62 -9,-108 4,-109 -20,-251 -33,-184 -73,-364 -139,-542 -8,-22 -26,-87 -39,-98l6 -31 -115 -266c-9,-15 -16,-30 -24,-44 -1,-3 -11,-19 -11,-19 -12,-16 -1,-10 -14,-12 -36,2 -15,10 -35,-28 -10,-16 -15,-15 -19,-27l-19 98 -138 337c-9,26 -11,18 -20,40l-32 85c-11,32 -63,103 -28,123l-8 30z"/>
   <path class="fil0" d="M9703 1735l-37 161c21,16 23,5 47,30 17,18 19,25 54,24l9 -20c-3,-39 63,-221 73,-279 -44,15 -66,53 -107,69l6 -28 25 -102c14,-23 6,-3 23,-19l70 -58c13,-8 15,-10 27,-14 7,-38 90,-329 106,-347l77 -253c1,0 3,-1 4,-2 -10,-50 -32,-89 -38,-129 24,35 28,90 48,129l116 -25c1,48 -46,173 -57,233l525 17 -2 -56c-20,-6 -5,-13 -49,-20 -45,-7 -46,-9 -93,-35 -51,-28 -101,-66 -150,-99 -5,-3 -15,-9 -18,-12l-13 -18 302 4 3 -31c11,-48 -8,-77 -22,-115 -19,-9 -35,-39 -37,-51 -41,-20 -270,-24 -334,-25l78 207c-13,-9 -16,-10 -20,-26l6 42 -86 -4 -10 -36c-5,31 -4,25 -15,35l-157 -502c-7,-23 -43,-150 -54,-164 -23,-4 -93,-20 -104,-8l-86 1097c6,3 20,7 30,18l-9 4c-30,10 -21,-7 -41,74l-68 281c-14,60 -10,41 -22,53z"/>
   <path class="fil6" d="M4349 1052c-31,-23 -46,-34 -76,-63 -28,3 -8,-5 -45,36l-75 82c-10,11 -33,26 -38,40l-7 2409c40,27 95,32 137,7l7 -2276c0,-91 -11,-83 31,-135 15,-18 21,-25 33,-45 1,-1 2,-3 3,-4 0,-1 1,-3 2,-4l28 -47z"/>
   <path class="fil0" d="M3830 2267l-4 24 196 3c-20,-308 0,-737 -10,-1080 -1,-12 -1,-25 -2,-38l-6 -26c-180,-2 -378,32 -531,37 -102,3 -150,29 -255,10 -57,-10 -208,-47 -238,-45 -1,47 -28,69 12,86 -2,2 -4,2 -5,5 -7,35 -6,7 -7,8 -12,21 2,-27 -3,14 -3,28 8,12 -14,35 -23,25 -29,21 -45,47 68,-33 33,-18 116,-23 7,-7 1,-9 19,-20l10 22c38,0 736,15 762,23 5,17 12,880 5,918z"/>
   <path class="fil4" d="M6818 3783l12 8c-1,29 3,56 7,84 8,54 4,29 -12,68 9,19 8,16 22,30 1,2 3,4 3,6l23 37c0,2 0,4 0,5 1,37 27,95 43,123 34,60 57,66 67,103l-72 -4c35,10 -28,-5 11,3 5,1 12,1 17,2 67,6 41,0 86,36 8,15 59,49 77,63 50,39 28,30 91,55 20,8 35,15 52,22 28,12 136,62 164,55l-18 -24c-4,-3 -5,-3 -11,-8l-52 -40c-44,-32 -47,-40 -80,-83l-32 -42c-40,-49 -94,-167 -107,-227 -23,-109 -29,-283 9,-386 41,-112 39,-117 97,-201 83,-123 53,-72 120,-136 9,-9 9,-7 19,-17 15,-13 9,-10 23,-20 35,-26 24,-26 65,-42 29,-11 76,-30 103,-45 48,-26 198,-34 254,-31 -2,-1 -4,-2 -6,-3 -41,-16 -327,-39 -335,-39 -35,1 -130,16 -165,26 -65,19 -67,45 -152,28l-78 91c-50,50 -73,164 -97,231 -26,77 -17,93 -70,96l-5 -24c-10,14 8,17 -41,14 8,20 4,21 -3,47 -5,16 -9,34 -11,51 -9,92 -2,71 -38,77 38,0 8,-2 20,11z"/>
   <path class="fil6" d="M8049 623c0,2 0,3 0,6l-1 11c3,31 53,91 23,178 -18,53 -18,94 -93,154 -53,43 -24,30 -100,62 -138,56 -331,-3 -434,-87l-50 -38c23,-26 236,-160 280,-187 56,-35 247,-168 284,-183 44,41 39,43 62,70 20,23 8,15 29,14zm-1042 115c1,14 -6,3 10,20 8,9 13,12 21,17l109 -50 6 19c41,-2 65,-25 102,-18 3,7 9,131 111,209 43,33 114,86 160,109l40 16c15,5 25,10 39,15l146 23c20,-1 69,-9 92,-14 109,-25 165,-76 219,-164l40 -127c4,-22 -4,-85 -9,-101l-23 -57c-13,-19 4,-14 -21,-12 8,-20 -4,-31 -38,-66 -19,-20 -38,-32 -62,-49 -9,-6 -23,-18 -34,-22 -16,-5 -35,-5 -47,-8 -35,-11 -40,-20 -86,-20l193 -43c17,-4 46,-19 62,-12 -9,-13 -14,-16 -26,-29 -4,-3 -9,-8 -12,-12 -8,-12 -4,-1 -5,-13 -45,-9 -45,-46 -67,-52 -35,1 -33,10 -62,19 -27,8 -38,5 -59,21 -33,25 -99,19 -129,35 -5,17 38,1 -21,21 -82,27 -73,19 -61,29 7,6 5,3 12,2 -11,3 -27,7 -37,11l-160 60c-43,19 -40,1 -72,12l-23 14c-63,37 -83,10 -127,39 -14,9 -17,12 -35,18 -25,9 -31,6 -53,22l-6 5c-21,15 -62,27 -93,27 -1,2 -2,3 -2,5 -1,3 -4,9 -5,10 -6,11 1,2 -7,11 -8,11 -13,7 -20,20 36,11 43,33 40,60z"/>
   <path class="fil0" d="M9321 501c9,22 6,12 18,27 6,7 11,14 16,21 11,15 21,30 31,49 9,19 18,35 27,52 33,59 119,213 114,271 49,165 82,270 94,457 6,103 6,155 -7,255 -19,143 -16,94 -59,221 45,-24 87,-133 95,-186 25,-157 28,-237 14,-400 -3,-38 -15,-78 -22,-116 -8,-40 -14,-76 -23,-118 -9,-41 -29,-75 -33,-111 21,43 36,101 47,156 39,197 40,161 47,372 2,59 -21,153 -15,191 11,18 -4,5 9,1l41 -24c11,-12 18,-47 22,-62 11,-44 23,-90 36,-136 27,-100 34,-201 41,-306 6,-94 51,-589 46,-632 -27,-10 -93,10 -105,11 -39,3 -80,9 -116,12 -75,6 -174,1 -251,1 16,24 31,36 45,62l97 177c10,20 10,17 12,47l-22 -16c-1,-1 -2,-3 -3,-4l-112 -204c-12,-16 -42,-43 -46,-62 -18,-8 -24,-11 -38,-6z"/>
   <path class="fil2" d="M3217 1156c-7,0 -15,0 -23,-1 -15,0 -35,0 -50,-2 -30,-4 -62,-15 -91,-19 11,-4 21,-18 30,-29l168 -1 -8 49c-1,0 -3,0 -4,1 -2,0 -4,0 -5,0l-17 2zm85 6c-33,-2 -37,-28 -30,-56l333 4 -5 40c-75,21 -217,15 -298,12zm-351 -9c17,8 18,-13 17,36 0,1 -4,24 -4,25 -11,23 18,2 -15,13 -32,11 -89,23 -132,23 -8,-29 -7,-31 1,-63l99 12 -8 -21 -31 -12c-18,-3 -55,-8 -71,2 -35,21 24,-39 -16,18l-6 10c27,0 9,-10 23,5l-1 57 -45 6c-38,-3 -152,54 -197,89 -19,14 -40,28 -54,49l133 -6c-11,32 -28,60 -42,92 -12,27 -23,65 -38,87l-2 10 79 -162c1,-2 4,-9 7,-12 5,-8 3,-5 9,-11l140 2c-14,-12 4,-4 -24,-11 -1,0 -18,-1 -19,-2 -10,0 -25,1 -36,1 -25,0 -50,0 -74,0 24,-6 33,-18 57,-29 57,-26 67,-41 112,-71 22,-14 43,-17 79,-17 -2,30 -11,38 -18,64 -20,74 -10,56 0,61l-101 257c-14,34 -34,64 -37,107 28,-16 6,4 20,-16 9,-13 -1,-8 -2,-8 -8,24 -18,28 -13,62 27,-11 26,-40 50,-95l128 -315c-3,1 -6,0 -8,4 -1,4 -13,1 -18,17l1 8c13,-25 21,-46 46,-59 0,0 -1,-23 -20,9 -9,16 -3,1 -7,21l22 -12c7,-4 13,-8 20,-12 0,0 20,-8 21,-8 17,-4 1,-6 22,2 -3,-1 7,-14 -10,3 -13,12 -5,-2 -14,21 60,-7 35,-26 61,-24l-3 41 -85 8 88 0c-21,96 -11,218 -12,322 0,57 -2,115 0,171 1,44 10,43 16,69 7,28 5,67 5,69l10 -37c18,7 31,14 57,7 16,-140 -8,-518 10,-601l4 -37c11,12 46,16 66,14 -17,-34 -44,-30 -47,-26 189,0 385,13 579,12 36,0 50,5 78,6l4 804c0,43 5,82 5,116l20 -31c7,-38 0,-901 -5,-918 -26,-8 -724,-23 -762,-23l-10 -22c-18,11 -12,13 -19,20 -83,5 -48,-10 -116,23 16,-26 22,-22 45,-47 22,-23 11,-7 14,-35 5,-41 -9,7 3,-14 1,-1 0,27 7,-8 1,-3 3,-3 5,-5 -40,-17 -13,-39 -12,-86 30,-2 181,35 238,45 105,19 153,-7 255,-10 153,-5 351,-39 531,-37 -8,-12 1,-5 -10,-12 -10,-7 -3,-4 -19,-8l-179 8 0 -119c-26,6 -20,8 -39,28 -21,23 -80,8 -150,5 -75,-4 -145,-11 -221,-15 -46,-2 -286,-5 -316,-29 -26,-21 -40,-45 -66,-60 -35,27 -29,41 -28,95 1,36 -12,70 -25,110z"/>
   <path class="fil0" d="M7548 4168c9,-45 52,-58 93,-56 49,3 73,23 89,50 -41,30 -7,15 -33,33 -5,4 -108,43 -149,-27zm136 -462c30,-41 -10,-4 10,-34l13 -10c2,0 14,2 17,3 -26,13 -23,-11 -26,22 -5,48 87,41 94,43l-26 12c13,20 29,33 40,66 12,34 4,62 -3,91 -10,41 7,21 -29,50 -26,21 -31,26 -62,40l17 22c0,-1 2,1 2,2l-21 -12c-14,-10 16,-8 -22,-9 -22,-1 -41,9 -66,11 -2,26 2,19 -6,34 1,-68 -3,0 9,-54 -81,-2 -141,-79 -127,-169 4,-22 11,-39 24,-56 71,-90 105,-54 162,-52zm-234 -55c-14,33 -42,83 -50,112 -24,86 -19,205 19,279 16,32 32,79 56,104 57,59 104,107 206,122 112,16 165,-6 250,-53 81,-46 115,-108 148,-181 40,-86 41,-181 20,-280 -4,-22 -38,-93 -50,-115l-74 -85c-16,-15 -81,-46 -106,-59 -29,-14 -97,-22 -131,-22l-11 8c-2,1 -3,2 -5,3l-41 8c46,-39 197,8 271,55 50,32 126,141 140,210 5,23 15,83 17,101 1,26 -13,119 -26,148 -43,98 -39,97 -116,172 -20,20 -86,61 -109,68 -186,60 -283,-28 -321,-35 25,-27 41,-8 41,-7 39,19 46,29 118,16 102,-19 176,-68 238,-149l64 -123c4,-15 4,-25 8,-41 14,-64 6,-171 -26,-225l-16 -27c-12,-26 -5,-23 -27,-38 -43,-28 -49,-48 -78,-69 -22,-16 -99,-53 -139,-49 -6,12 -6,-4 1,13l3 5c34,77 -104,66 -162,49 -26,-8 -43,18 -55,35 -14,20 -33,39 -57,50z"/>
   <path class="fil7" d="M4092 2712c-22,92 17,434 -10,487l9 325c-10,8 0,3 -15,8 -12,3 1,0 -12,2 -2,0 -20,0 -24,0 -69,-3 -104,3 -158,4 -70,0 -147,3 -216,0l5 102c28,-12 92,-9 120,-2l6 35 11 -23 521 -1c-2,-26 -7,-57 -14,-80 -1,-3 -11,-30 -11,-31l-25 -19c-1,0 -3,-1 -5,-3l2 -589c145,-13 145,34 154,-28 -29,-10 -35,-13 -44,-44 -29,-93 -10,-140 -9,-252 0,-76 -10,-187 14,-259 13,-36 2,-4 33,-55 35,197 33,231 26,436 -2,48 -17,104 -17,143l9 1 9 -15c12,-94 27,-418 1,-502l-4 -61 78 0c22,5 20,22 22,17 1,-1 2,4 3,5 -3,-34 -3,-9 7,-18 36,1 14,0 24,-8l-24 0 -17 -32c-32,-8 -96,-7 -130,-2 -55,62 -78,122 -86,216 -5,47 -5,91 -5,140 1,46 7,98 6,140 1,40 23,112 41,141 16,25 19,14 26,35 -35,0 -79,6 -109,-6 -11,-41 -2,-301 -2,-365l3 -378c-4,-72 -6,-552 0,-609 10,-95 -5,-349 9,-375 8,-16 5,-7 16,-20l83 -109c-29,-2 -17,-1 -44,-11l-28 47c-1,1 -2,3 -2,4 -1,1 -2,3 -3,4 -12,20 -18,27 -33,45 -42,52 -31,44 -31,135l-7 2276c-42,25 -97,20 -137,-7l7 -2409c5,-14 28,-29 38,-40l75 -82c37,-41 17,-33 45,-36 -6,-17 -8,-14 -13,-30 -40,22 -78,86 -119,124 -26,23 -45,30 -46,75l2 360c0,81 -6,159 -5,238 5,320 -7,638 0,956z"/>
   <path class="fil8" d="M7609 2657l-28 116c-5,66 -11,69 -35,88 -62,47 -25,35 -125,34l-545 -21c-93,-12 -165,-15 -270,-17 10,-26 9,-11 15,-33 5,-15 5,-34 8,-52l6 -90c0,-172 -24,-360 -66,-515 -11,-39 -108,-410 -147,-448l-6 31c13,11 31,76 39,98 66,178 106,358 139,542 24,142 11,143 20,251 9,22 -8,117 -10,146 -36,-18 -39,-38 -77,-63 -5,-3 -17,-8 -24,-12l-56 -46 7 236c28,12 68,9 100,6l197 7 8 31 583 0c156,1 98,9 165,-34l-34 33c65,5 197,-8 233,-2 32,5 414,11 447,3 23,-4 8,2 19,-8 -43,-29 -294,7 -358,-13 2,-1 4,-4 5,-2l55 -11c36,-8 26,-7 59,-3l456 -69c-2,-20 11,-18 34,-25 21,-6 25,-8 48,-7 34,-25 69,-4 86,-60l30 -48c-37,16 -109,2 -145,10l-125 23c-37,2 -47,13 -79,17 -16,1 -31,0 -46,3 -68,15 -223,50 -289,52 -4,16 -8,-15 4,5 8,13 6,-8 2,6 -31,1 -61,1 -92,2 -43,0 -121,35 -231,37l23 -105c1,-19 7,-37 11,-56 5,-20 8,-39 9,-60 0,-87 10,-217 -3,-299 -40,-263 -17,-244 -96,-527 -13,-46 -41,-208 -84,-241 4,45 26,83 40,128l89 379c27,182 55,390 34,583z"/>
   <path class="fil0" d="M5004 2863c-2,-59 -8,-143 16,-188 22,-12 58,-8 90,-8l0 -60 72 -5c-7,-32 -6,-107 -9,-146 -3,-40 -9,-93 -21,-128 -36,-17 -381,-6 -455,-6 4,170 7,359 7,541l300 0z"/>
   <path class="fil0" d="M8049 623c-21,1 -9,9 -29,-14 -23,-27 -18,-29 -62,-70 -37,15 -228,148 -284,183 -44,27 -257,161 -280,187l50 38c103,84 296,143 434,87 76,-32 47,-19 100,-62 75,-60 75,-101 93,-154 30,-87 -20,-147 -23,-178l1 -11c0,-3 0,-4 0,-6z"/>
   <path class="fil1" d="M9513 1889c-10,24 -75,93 -102,110 -10,6 -11,-1 -10,5 39,-1 64,39 104,88 45,54 84,57 67,108 -24,71 -36,52 -133,59 -61,4 -123,10 -186,12 0,-33 -2,-75 5,-107 9,-42 43,4 28,-63 40,-2 30,-1 31,-42 -1,4 -2,1 -2,14 0,0 1,23 2,24 -41,-1 -30,-17 -108,63l-94 83c-13,12 -28,30 -42,43 -17,17 -29,21 -47,39 -83,85 -63,56 -51,122l3 -48 673 -37 -12 45c-72,7 -48,-12 -62,47 -16,1 -572,27 -598,17l-14 -7c-1,-1 -3,-3 -4,-3l8 30 11 -4 199 -3 8 35c5,-10 3,-8 -2,-34 50,0 395,-18 430,-9 14,6 6,-7 11,12l6 -1 6 -11 75 1c0,18 -15,71 -25,86 19,-3 23,-7 18,15l14 -100 101 -1c-7,-21 -13,-15 -41,-15 -19,-1 -36,1 -55,3 -35,5 -67,1 -100,5 -9,0 -56,6 -39,-42 7,-20 19,-15 47,-14 37,0 81,-1 118,-2l-1 -1c-20,-13 -12,8 -12,-18 -1,1 -2,1 -2,2 -5,17 -77,13 -89,12 12,-66 91,-277 96,-343 -46,-18 -103,-109 -73,-153 49,1 12,3 37,64 11,27 24,41 43,53 18,-17 28,-69 26,-98l-9 20c-35,1 -37,-6 -54,-24 -24,-25 -26,-14 -47,-30l37 -161 2 -12c-4,18 -4,14 -14,24l-74 44c5,-29 16,-52 24,-74 5,-14 9,-25 12,-37l12 -38c-6,-38 17,-132 15,-191 -7,-211 -8,-175 -47,-372 -11,-55 -26,-113 -47,-156 4,36 24,70 33,111 9,42 15,78 23,118 7,38 19,78 22,116 14,163 11,243 -14,400 -8,53 -50,162 -95,186 43,-127 40,-78 59,-221 13,-100 13,-152 7,-255 -12,-187 -45,-292 -94,-457 0,24 28,86 35,115 9,40 17,84 25,123 39,188 56,455 -21,639 -16,39 -19,73 -53,91z"/>
   <path class="fil6" d="M3676 3779l2 258 115 1 7 38 534 -1c9,-65 11,-229 4,-297 -31,-11 -572,1 -662,1z"/>
   <path class="fil0" d="M9401 3869c-3,22 -17,39 -29,50 -37,34 -32,5 -33,39 -3,-5 -1,-28 -29,2 -1,1 -2,6 -3,5 0,-1 -2,3 -3,5 -8,-32 -14,-7 -39,-23l-43 17c4,35 5,14 11,26 5,8 6,-5 6,9 -1,-1 1,-1 -12,-5 0,0 -7,-1 -11,-2 0,-4 -2,-14 -2,-15 0,-1 0,-2 0,-4l4 -29c-48,-7 -68,-22 -93,-60l-9 -12c-12,12 14,14 -19,8 -13,20 -2,4 -7,20l-5 14c-1,-4 -6,-13 -6,-21 -1,-39 -15,32 1,-9 1,-2 4,-6 5,-8 16,-15 -1,0 17,-7 31,-12 -16,23 13,-5 -21,-50 -14,-111 23,-154 52,-60 77,-41 147,-37 2,-16 -9,-33 15,-39 28,-6 19,3 22,4 -1,1 -3,1 -3,1l-10 2c-10,4 -6,-2 -15,9 10,38 49,44 86,46 -2,6 -6,8 -3,16 2,4 23,30 32,58 11,34 11,75 -8,99zm-298 -247c-38,54 -71,181 -57,268 19,119 45,147 103,225l21 -13c4,-10 5,-19 35,-28 16,-4 33,-5 51,-3 42,6 50,24 72,42 -1,15 2,7 -8,8 3,27 9,24 1,42 84,-4 133,-64 184,-117 27,-30 29,-45 51,-97 18,-41 21,-67 28,-118 10,-81 -32,-183 -66,-230 -34,-48 -101,-112 -159,-125l-55 10c80,35 -38,71 -84,68 -42,-2 -42,-21 -65,14l-52 54z"/>
   <path class="fil9" d="M1014 3236c-6,8 3,7 -8,10 46,4 97,12 141,18 52,7 189,61 230,88 121,78 240,205 292,342 59,153 44,72 64,254 8,75 -1,198 -23,273 -10,35 -32,79 -46,112 -42,100 -55,103 -124,193 -26,35 -129,125 -169,142l18 0c20,5 1,5 24,-1l106 -58c18,-12 21,-16 38,-29 27,-20 49,-34 72,-57l87 -108c31,-44 49,-51 74,-126l58 -137c24,-30 22,-15 23,-39 8,-16 12,-11 19,-24 3,-6 4,-13 6,-23 4,-36 21,-155 10,-175l-5 12c-32,2 -38,4 -50,-3 4,-44 26,-4 25,-69l-33 0c-7,-46 -31,-124 -53,-158l-5 -11c-33,-78 9,-30 -54,-91l-14 -49c-2,2 -10,6 -11,7 -22,-45 -57,-81 -92,-110 -21,-16 -30,-26 -54,-43l-40 -33c-1,-1 -7,-5 -8,-6l-8 -6c-31,-20 -174,-80 -221,-86 -45,-6 -91,-14 -133,-18 -44,-5 -90,6 -136,9z"/>
   <path class="fil5" d="M123 2712c11,35 5,125 -7,146 -4,7 -31,28 -42,38 -22,22 -25,16 -25,58 11,-10 1,-5 19,-10 7,-57 163,-109 224,-135 89,-38 6,-18 133,-44 48,-9 97,-20 151,-31 28,-5 46,-15 65,-18 164,-27 458,-19 605,-37 75,-9 282,-7 351,3 44,6 100,41 113,69 16,37 8,42 35,81l70 173c5,31 6,51 18,74 21,40 9,21 18,74l4 25c1,2 1,3 2,5l6 18c0,2 1,3 1,5 3,10 2,11 5,20l20 113c5,28 17,38 18,123l7 -12c6,-13 -3,-8 3,-7l10 140c-30,11 -6,3 -18,12l44 -1c17,-37 -8,-107 -14,-142 -26,-157 -65,-401 -120,-541 -8,-19 -14,-39 -22,-58 -13,-30 -15,-28 -30,-54 -19,-33 -45,-75 -73,-94 -51,-33 -83,-43 -104,-59 36,-1 84,0 111,16 73,44 71,13 95,40 53,61 131,176 144,256 12,71 -1,27 24,112 19,65 47,139 63,209l14 0c-11,-72 -14,-43 -25,-152 -4,-30 -41,-200 -55,-233 0,-1 -1,-3 -2,-4 -2,-6 -2,-9 -5,-14l-47 -84c-13,-18 -51,-91 -70,-106 -5,-3 -25,-14 -28,-16 -71,-40 -49,-55 -148,-69 -88,-13 -255,-4 -351,-3 -123,1 -217,12 -341,14l-318 34c-97,14 -106,26 -178,46 -86,25 -48,23 -90,37 -80,29 -164,80 -244,115 2,-38 6,-76 7,-113 1,-34 -2,-68 3,-100l9 -205c-22,18 -18,-27 -18,30 -9,32 -15,223 -17,256z"/>
   <path class="fil10" d="M8799 261c19,17 -25,14 24,14 15,-19 122,-20 154,-10 62,19 105,42 138,53 -16,-52 -10,-4 -18,-32 -1,-3 -3,-3 -5,-4 73,27 45,22 109,54l-14 -27c-3,-8 -15,-2 2,-5 79,0 151,6 225,7 47,0 195,15 224,10 51,-3 94,35 113,40l66 -210c-25,-3 -95,33 -130,40 67,-42 139,-27 146,-80 1,-3 2,-4 2,-6l2 51 22 0c-18,-19 -12,-7 -12,-39 1,-1 3,-2 3,-3 12,-7 16,-10 33,-10 20,1 34,8 53,13 -14,-22 3,-6 -20,-16 -50,-23 -57,31 -57,-63 25,-14 115,-32 147,-19 2,58 10,79 10,86 -15,8 -8,2 -19,7l-14 8c-1,-2 -4,2 -5,3l21 69 -49 -2c0,-27 3,-15 -12,-31 -12,7 -13,6 -16,30l-20 -4c-25,11 -4,-13 -12,11 -10,33 -12,-12 9,12 11,-12 81,4 104,8 11,14 47,141 54,164l157 502c11,-10 10,-4 15,-35l10 36 86 4 -6 -42c4,16 7,17 20,26l-78 -207c64,1 293,5 334,25 -6,-20 4,-9 -15,-20 -6,-3 -20,-4 -26,-4 -23,-3 -44,-1 -66,-4 -31,-11 -36,10 -76,-4l-121 -6 -36 2c-14,-69 -47,-144 -65,-209l-18 -54c-7,-13 -5,-8 -8,-11 -2,15 -4,-3 1,22l148 470c-26,8 -41,4 -66,-3l-200 -639c-45,-120 -22,-93 -19,-124 4,-34 -15,-12 -7,-88l44 19c0,-2 16,-21 -41,-32 -105,-21 -271,47 -365,88l-381 146c0,-1 -2,2 -4,4l2 50c-168,0 -120,-10 -237,-45 -44,-13 -191,-11 -240,14z"/>
   <path class="fil0" d="M10164 379c3,3 1,-2 8,11l18 54c18,65 51,140 65,209l36 -2 46 -4 31 -45c5,-6 5,-6 10,-14l42 -62c4,-6 6,-11 11,-19l159 -244c47,-52 13,-25 42,-55 10,-11 3,1 11,-13l7 -16c4,-13 9,9 1,-13 -67,-1 -146,-17 -220,-18 -184,-4 -139,-31 -170,49l-149 -8c13,30 59,158 52,190z"/>
   <path class="fil10" d="M7219 368l-534 186c-44,12 -54,32 -108,77 -33,28 -64,51 -97,80l-444 366c-19,13 -34,28 -51,40 -36,25 -27,2 -51,41 -27,47 -23,15 -35,52 -39,119 -19,206 -20,326 -1,31 -5,61 -3,92 5,86 11,172 7,261l0 79c-69,25 -82,-2 -82,80l33 18c36,36 49,102 56,154 1,9 -9,27 39,48 -3,-52 -6,-24 -19,-45 28,39 13,37 43,45 -1,-14 -27,-109 -35,-134 -8,-25 -15,-43 -23,-63 -9,-24 -22,-40 -31,-60 -10,-15 -7,-7 -16,-22 36,-12 41,-23 81,-8l-11 -26c0,-2 -1,-3 -1,-6 -9,-44 59,-433 76,-518 2,-6 3,-20 4,-26 12,-86 12,-135 17,-216 1,-26 5,-22 6,-42 32,5 24,22 67,30 -11,-29 7,-6 -20,-31 -11,-10 -7,-7 -22,-12 1,-22 -8,-8 40,-45l39 -28c8,-6 3,-2 10,-8l206 -165c38,-45 37,-28 67,-56l85 -84c4,-4 19,-12 26,-17l176 -152c32,-18 82,-8 106,-5 -11,-24 0,-13 -19,-26 -17,-11 -8,-3 -14,0 38,-10 94,-30 131,-44 137,-54 308,-101 455,-156 24,-9 36,-15 62,-23l255 -87c71,-28 105,-9 141,-5 -12,-33 15,-12 -24,-25 -93,-18 -216,41 -299,67 -46,15 -89,31 -134,47 -42,16 -95,36 -135,46z"/>
   <path class="fil10" d="M10095 1938l123 0 75 5 -2 46 -195 -5 -1 -46zm-49 2l33 -2 -1 46 -31 -3 -1 -41zm-19 5l0 38c-50,2 -98,10 -145,10l0 -41 145 -7zm-28 -793c-16,18 -99,309 -106,347 -42,139 -14,98 -93,161 -16,13 -34,24 -52,32l-6 28c41,-16 63,-54 107,-69 -10,58 -76,240 -73,279 2,29 -8,81 -26,98 21,22 61,22 96,25l18 -63 4 22c57,0 129,-4 181,6 -10,51 -24,103 -36,156 -7,28 -12,53 -19,80 -9,42 -22,64 -7,83 35,-61 45,-236 77,-307l143 0c-20,7 -37,49 -43,73 22,-12 18,-7 35,-38 8,-14 14,-24 23,-35 38,0 93,8 120,5 -4,-26 20,-13 -27,-19 -43,-5 -236,-14 -250,2 29,-12 96,-7 129,-3 54,6 80,-9 128,-9 -1,-2 -6,-10 -7,-12l0 -55c2,-16 1,-10 -5,-12l-226 1 3 -27 23 -9c51,-12 136,-2 188,4 -15,-18 -3,-11 -26,-20 -30,-11 -150,1 -176,3 7,-32 24,-82 21,-120 -19,18 -42,141 -45,163l-189 16c-3,-60 213,-727 209,-770 -6,-67 65,-221 66,-276l-84 23c-69,339 -167,731 -229,1063 -4,24 -4,39 -19,60 -1,1 -3,6 -4,5 -1,-1 -3,3 -6,5l195 -901c-10,-12 9,-3 -5,3 -18,9 14,10 -7,2z"/>
   <path class="fil5" d="M7994 349c1,12 -3,1 5,13 3,4 8,9 12,12 12,13 17,16 26,29 47,32 84,84 116,134 4,-4 49,16 -11,-61 -12,-16 -21,-33 -38,-42 118,0 1066,-9 1085,-1 -13,-18 -72,-59 -93,-76 -6,-5 -5,-5 -10,-9 -24,-19 -19,-18 -43,-20 -28,-3 -63,-1 -92,-1l-339 -15c-109,-13 -230,-3 -337,-16 -92,-12 -228,-14 -330,-16 11,7 16,15 27,24 29,27 23,24 22,45z"/>
   <path class="fil11" d="M1014 3236c46,-3 92,-14 136,-9 42,4 88,12 133,18 47,6 190,66 221,86 0,-3 -16,-25 -26,-38 -15,-19 -21,-22 -22,-56 -1,-54 1,-109 1,-162l-26 -16 -707 -1c-7,55 7,177 32,220 21,-4 44,-14 70,-20l2 -113c19,22 16,81 17,111l169 -20z"/>
   <path class="fil6" d="M10092 1168c4,43 -212,710 -209,770l189 -16c3,-22 26,-145 45,-163 -4,-21 56,-268 67,-317 11,-51 70,-283 67,-315l-146 -7 -13 48z"/>
   <path class="fil10" d="M8684 2450l-47 160c-6,40 -9,44 -36,76 -1,1 -2,2 -3,3l-11 11 -30 48c24,11 17,-1 66,-41 20,-17 38,-39 58,-58 12,-11 18,-13 30,-25 17,-16 9,-17 33,-17 37,0 80,0 116,3 -15,-11 2,-5 -25,-8l-96 -1 89 -86 75 3c15,21 23,69 47,93 16,15 104,249 107,262 -51,-9 -526,-9 -575,1 0,-46 5,-54 -11,-66l-35 20c-13,4 -21,6 -34,9 -4,32 0,58 19,76 28,0 47,-2 72,8l-3 -45 529 -1c53,1 15,5 48,31 16,-5 -6,-10 10,6 13,13 -11,3 15,16l-123 -437 -8 -30c1,0 3,2 4,3l14 7c26,10 582,-16 598,-17 14,-59 -10,-40 62,-47l12 -45 -673 37 -3 48c-12,-66 -32,-37 51,-122 18,-18 30,-22 47,-39 14,-13 29,-31 42,-43l94 -83c78,-80 67,-64 108,-63 -1,-1 -2,-24 -2,-24 0,-13 1,-10 2,-14 13,-15 16,-22 39,-31 22,-8 30,-5 45,-24 -1,-6 0,1 10,-5 27,-17 92,-86 102,-110 -19,-2 -6,7 -13,-5 20,-13 20,-22 29,-46 37,-90 18,-41 1,-58 -3,18 -22,66 -32,79 -11,12 -14,14 -26,29 -29,38 -73,77 -107,111 -16,15 -15,12 -31,25 -14,11 -13,15 -27,27l-173 156c-17,14 -14,15 -27,27l-390 355c-30,22 -24,24 -40,38l-29 22 52 -202c4,-18 1,-55 10,-66 -1,-17 -4,-97 6,-113 -9,-48 5,-99 0,-147 -9,-96 -28,-301 -46,-376 -10,-46 -84,-379 -108,-421 -9,-17 -5,-12 -17,-18 10,44 30,80 41,131 10,45 22,92 32,134 37,163 88,410 87,574 -1,54 -7,272 -21,305z"/>
   <path class="fil0" d="M9706 2578l-27 224c41,6 68,-10 69,26 1,40 -28,23 -66,30 0,50 1,52 -15,87l271 -2 20 -322c2,-30 2,-27 11,-40l-15 219 64 -1 -7 -213c11,-10 -6,-1 13,-6 21,-5 82,4 118,-4 -5,-43 -49,-3 -106,-24 -20,-4 -44,4 -76,-3 7,-72 9,-52 -11,-59 -25,-9 -8,-9 -36,-10 -30,-1 -70,-9 -92,-3l-101 1 -14 100z"/>
   <path class="fil6" d="M7629 2634c-1,21 -4,40 -9,60 -4,19 -10,37 -11,56 45,-2 98,0 142,-4 27,-2 29,-13 48,-22 18,-8 403,-56 450,-64l170 -30c37,-12 -6,-16 75,-17 46,0 98,0 143,-3l47 -160 -357 65c-72,14 -37,20 -113,22 -4,11 -6,-5 6,5 12,9 9,-7 6,5 -126,1 -313,51 -449,70 -46,7 -93,17 -148,17z"/>
   <path class="fil4" d="M2562 1585c-1,30 -67,163 -83,201 -20,48 -81,166 -88,210 61,-15 119,-1 180,-8 52,-33 27,24 83,-112 20,-47 41,-98 60,-143 19,-46 38,-93 58,-142l43 -103c10,-23 8,-26 18,-31 -1,-2 -2,-4 -3,-5 -11,-27 -8,-17 -5,-49l-28 -1 -140 -2c-6,6 -4,3 -9,11 -3,3 -6,10 -7,12l-79 162z"/>
   <path class="fil8" d="M7578 3547c5,-7 49,-30 58,-32 18,-4 43,-4 53,13 7,12 3,0 4,13 -41,3 -67,32 -115,6zm-128 104c24,-11 43,-30 57,-50 12,-17 29,-43 55,-35 58,17 196,28 162,-49l-3 -5c-7,-17 -7,-1 -1,-13 40,-4 117,33 139,49 29,21 35,41 78,69 22,15 15,12 27,38l16 27c32,54 40,161 26,225 -4,16 -4,26 -8,41l-64 123c-62,81 -136,130 -238,149 -72,13 -79,3 -118,-16 0,-1 -16,-20 -41,7 38,7 135,95 321,35 23,-7 89,-48 109,-68 77,-75 73,-74 116,-172 13,-29 27,-122 26,-148 -2,-18 -12,-78 -17,-101 -14,-69 -90,-178 -140,-210 -74,-47 -225,-94 -271,-55l41 -8c2,-1 3,-2 5,-3l11 -8c68,-1 126,11 184,43 42,23 42,21 71,51 20,20 38,36 58,57 42,44 92,200 81,270 -8,48 -21,80 -1,104 36,-144 20,-229 -38,-348 -80,-166 -326,-257 -526,-141l-97 87c-14,24 -15,32 -20,55z"/>
   <path class="fil6" d="M10117 1759c3,38 -14,88 -21,120 26,-2 146,-14 176,-3 23,9 11,2 26,20 -52,-6 -137,-16 -188,-4l-23 9 -3 27 226 -1c6,2 7,-4 5,12l0 55c1,2 6,10 7,12 -48,0 -74,15 -128,9 -33,-4 -100,-9 -129,3 14,-16 207,-7 250,-2 47,6 23,-7 27,19 -3,-88 7,-94 -27,-133 -1,-1 -2,-2 -3,-4l-8 -8c11,-36 44,-81 63,-113 16,-29 46,-94 74,-110l6 642c11,-2 15,11 15,-35 0,-18 0,-37 0,-55 0,-85 4,-45 -8,-112 -14,-80 14,-301 -3,-368 -10,-42 -6,-36 -4,-87 3,-68 4,-160 1,-228 -19,6 -9,50 -7,67l-260 -5 -64 273z"/>
   <path class="fil5" d="M4515 1866l0 42 86 -6 44 348c-27,0 -28,-6 -44,7 39,-3 41,69 48,133 16,135 11,226 4,358 -3,64 -16,104 -13,171 20,16 21,-7 21,13 -22,8 -124,24 -149,21 14,19 59,11 82,9 66,-6 102,2 174,-8 8,-2 35,-5 37,-5 31,-8 23,-1 24,-30 -24,-16 -94,6 -136,11 16,-17 -24,-9 68,-22 26,-3 51,-8 77,-9 54,-2 111,0 166,0l0 -36 -300 0c0,-182 -3,-371 -7,-541 74,0 419,-11 455,6 -1,-4 -5,-22 -5,-22 -2,-18 -6,-10 4,-20 0,-2 -1,-4 -1,-6l-9 -23c-29,-9 -51,4 -109,-5 -39,-6 -81,-3 -121,-3 -61,0 -178,7 -230,-1l-46 -346 459 10c66,-1 423,8 450,2 -6,-5 1,-2 -13,-6l-797 -14c-24,-1 -87,11 -100,-10 9,-11 14,-9 45,-8 18,1 37,2 55,2 35,0 68,-2 104,-1 70,2 138,0 207,4 43,2 65,-4 104,-4 66,1 253,23 308,7l-34 -8c-8,0 -22,1 -30,1l-177 -4c-81,1 -163,-1 -244,-1 -40,0 -71,-5 -116,-5 -43,0 -207,4 -237,-9 -29,-13 -17,-12 -51,-3 -20,6 -37,6 -53,11z"/>
   <path class="fil6" d="M2262 3894c14,-10 428,-18 484,-18l-3 -219c-33,-10 -434,4 -506,5l-1 232 26 0z"/>
   <path class="fil7" d="M9103 3622l52 -54c23,-35 23,-16 65,-14 46,3 164,-33 84,-68l55 -10c12,-7 56,6 69,11 20,8 42,18 61,28 18,9 115,82 127,102 4,7 5,10 8,16 40,81 71,132 51,238 -16,79 -24,73 -48,122l-8 16c0,1 -1,3 -2,4l-50 52c-30,25 -24,4 -73,43l-10 9c-33,32 -29,15 -82,38 -41,18 -112,38 -158,20 0,0 -18,-21 -43,5 33,5 56,33 108,41 44,7 76,10 120,2 89,-16 84,-26 114,-34 68,-19 29,0 62,-35 16,-17 6,5 54,-39 28,-27 9,-15 29,-45 34,-51 17,5 50,-91 31,-93 34,-146 17,-247 -13,-80 -62,-154 -99,-190 -12,-12 -24,-26 -36,-36l-95 -53c-32,-16 -129,-26 -182,-15 -21,4 -41,5 -60,13 -77,34 -158,87 -180,171z"/>
   <path class="fil6" d="M6635 2682l-6 90c162,0 314,8 464,19 164,12 317,0 481,0l7 -18 28 -116 -376 8c-48,0 -77,6 -116,6 -42,1 -86,0 -128,0 -50,0 -75,6 -122,6 -42,-1 -86,-2 -128,-1 -13,1 -126,7 -104,6z"/>
   <path class="fil6" d="M6172 1238c1,18 60,-9 67,-12 37,-13 35,-11 49,-40 19,-1 17,0 34,-5l8 -4c2,0 3,-1 5,-2 55,-22 -3,-6 59,-38l18 -13c59,-65 41,-17 84,-62l65 -44c49,-24 56,-43 86,-67 18,-13 47,-36 67,-40 31,-6 91,-54 105,-62l102 -80c16,-10 7,1 25,-13 14,-11 18,-34 37,-30 -9,-13 -70,-82 -92,-93 -19,9 3,9 -34,28 -1,1 -3,1 -4,2l-273 196c-9,6 -18,10 -26,17 -24,18 -1,7 -37,30 -1,0 -3,1 -4,2l-61 42c-2,1 -6,5 -7,6 -56,48 -38,19 -63,41 -14,13 -4,10 -20,22l-96 68c-10,7 -15,11 -25,18l-74 55c-26,23 -31,13 -40,35 27,11 18,25 45,43z"/>
   <path class="fil3" d="M284 3377l-197 3c-1,-1 -4,1 -5,2l19 10 -89 21 0 14 133 11 93 -2 -150 482 -40 147c-31,-1 -21,-11 -48,-8 16,12 26,15 49,20 26,-54 -11,-31 77,-75 34,-17 68,-38 106,-47l0 16 5 -22c5,-45 6,-92 18,-141 8,-35 37,-90 52,-130 23,-57 42,-76 72,-117 40,-54 19,-37 25,-148 23,-20 54,-13 29,-36 -14,-15 -37,-2 -59,2l34 -21c-24,-9 -60,9 -88,16 -33,9 -67,23 -81,14 28,-2 32,0 45,-11z"/>
   <path class="fil4" d="M6246 3723c-20,51 41,194 89,252 46,56 42,72 115,123 130,89 75,42 194,99 20,10 25,15 46,8l19 -4c-24,-5 -51,-32 -70,-48 -28,-23 -19,-7 -41,-27 -10,-8 -16,-14 -24,-24 -14,-15 -7,-10 -17,-26l-37 -49c-26,-34 -114,-219 -86,-259 16,5 9,-6 18,18l4 -17c24,3 81,-15 89,-20 25,-16 7,0 17,-19l-106 4c11,-34 35,-133 27,-169l-1066 13c16,20 2,12 30,18l445 -7c160,-3 314,-8 475,-8 4,9 8,18 13,27 2,-1 14,-6 16,-6 1,0 3,0 4,-1l6 0c2,0 12,7 16,-18 -5,2 -9,-5 -4,9 7,25 -5,4 15,22 -3,-45 1,-35 8,-40 1,6 1,1 0,14 -1,10 -1,8 -2,15l-17 90c-76,12 -100,-9 -176,-12l0 42z"/>
   <path class="fil1" d="M8557 2748c-17,56 -52,35 -86,60 16,12 11,20 11,66 49,-10 524,-10 575,-1 -3,-13 -91,-247 -107,-262l15 45 -103 -1 -2 -45c-36,-3 -79,-3 -116,-3 -24,0 -16,1 -33,17 -12,12 -18,14 -30,25 -20,19 -38,41 -58,58 -49,40 -42,52 -66,41z"/>
   <path class="fil6" d="M2847 3899c-3,64 10,237 -3,281 59,0 193,11 235,-7l-2 -48 -101 -2c-10,-23 -10,-45 1,-68l104 -6 -3 -342c-54,-6 -89,11 -107,-8 -12,-15 -8,18 -10,-16l-105 0 -9 216z"/>
   <path class="fil7" d="M9187 2519c3,23 101,245 124,301 14,35 31,86 49,97 5,-1 10,9 32,6 -12,-22 -5,-72 -5,-101 0,-49 -9,-74 21,-100 1,2 1,3 1,4 0,2 1,4 1,4 1,24 -12,-3 -2,16 22,0 47,2 68,-3l14 -6 3 -2c-12,-50 -5,-113 1,-164 12,24 11,43 10,74 0,41 -7,64 8,74 16,-8 8,12 11,-24 1,-10 0,-33 0,-44 -1,-29 1,-57 2,-86 20,40 -1,99 7,154 2,1 4,0 5,2l19 2c9,0 23,-3 35,-3l24 -190 -254 -11c34,-23 199,-9 256,-5l9 -26c-5,-19 3,-6 -11,-12 -35,-9 -380,9 -430,9 5,26 7,24 2,34z"/>
   <polygon class="fil6" points="3565,3779 3190,3781 3190,4049 3566,4041 "/>
   <path class="fil0" d="M10616 1368c8,-36 34,-70 55,-104 33,-53 31,-39 30,-119 -9,-18 -28,-10 -77,-11l-272 -10c-12,2 -3,11 -15,21 -20,18 -42,65 -59,96 -26,46 -63,98 -74,156 167,-6 183,-38 412,-29z"/>
   <path class="fil10" d="M5507 2354c-7,24 -33,23 -60,30 -2,-18 -96,-195 -107,-213l52 -9 115 192zm63 -294c1,22 41,94 54,126 16,39 32,102 37,140 -97,0 -89,-3 -101,40 -13,1 -22,5 -32,3 -8,-2 -3,-1 -10,-6l-11 -9 -53 -140c-23,-57 -36,-86 -64,-125 32,-9 62,-19 92,-29 11,-4 37,-12 48,-13 31,-2 0,-4 30,10l10 3zm-408 237c61,3 62,12 75,74 1,-2 2,-7 3,-8 4,-8 5,-9 8,-12l-15 -70 74 1c3,20 15,47 26,71 -2,38 49,102 81,130 15,13 34,22 50,34 -1,-6 -4,-24 -3,-31 3,-52 -4,-28 23,-33 -8,-13 -18,-38 -24,-58l55 -17 10 35c6,-39 24,-35 32,-37l4 68 45 2 0 -95c31,11 105,10 124,-7 11,10 9,11 12,25 38,-13 169,-5 218,-5l-1 82 44 -1 0 -80 90 0c1,-11 -2,-8 10,-8 -7,-34 -8,-35 -71,-35l-19 -24c23,-47 13,-79 0,-136l-28 -95c-18,-51 1,-18 -25,-25 21,54 50,135 49,196 -1,38 -5,32 -32,45l-20 -13c-1,0 -2,-1 -4,-2 -2,28 7,23 9,43 2,19 3,7 -3,18 -15,-11 -13,-16 -17,-31 -10,-34 -9,-27 -25,-37 9,29 17,36 21,65l-107 3c-28,1 -79,-3 -102,-8 49,-22 132,-2 154,-17 -17,-11 -41,-9 -64,-10 -52,-74 -5,-24 -142,-2 4,-51 -36,-119 -48,-165l-12 -9c-23,-20 -17,-26 -31,-43 -11,-15 -1,-9 -16,-15 -10,-38 -21,-6 -28,-48 -3,-15 -2,-47 1,-57 -2,16 0,24 -1,38 0,8 0,11 -2,18 -6,35 -54,35 -118,55 -58,18 -79,1 -79,68l-36 0c0,36 -11,29 -11,66 1,21 6,36 5,59l-120 0c-8,13 -12,18 -19,38z"/>
   <path class="fil5" d="M7609 2750l-23 105c110,-2 188,-37 231,-37 31,-1 61,-1 92,-2 4,-14 6,7 -2,-6 -12,-20 -8,11 -4,-5 66,-2 221,-37 289,-52 15,-3 30,-2 46,-3 32,-4 42,-15 79,-17l125 -23c36,-8 108,6 145,-10l11 -11c1,-1 2,-2 3,-3 27,-32 30,-36 36,-76 -45,3 -97,3 -143,3 -81,1 -38,5 -75,17l-170 30c-47,8 -432,56 -450,64 -19,9 -21,20 -48,22 -44,4 -97,2 -142,4z"/>
   <path class="fil1" d="M5613 2360l93 -1 0 61 0 26 -93 -2 0 -84zm-52 84c-24,-2 -12,8 -18,-18 -11,27 5,21 -59,27 -27,5 -20,-19 -23,33 -1,7 2,25 3,31 -5,58 -1,140 -1,201 0,33 2,72 0,103 -2,26 -17,51 -16,73 -19,25 -50,8 -73,7l318 3c48,5 20,20 57,5 47,-19 125,-8 180,-8 -4,32 -2,6 -1,6 2,1 21,-5 40,2 62,22 0,-9 89,-8 35,0 57,5 91,3 36,-3 68,-3 104,-3 -69,-21 -544,9 -680,-6l0 -414 145 1 1 96 52 2 3 -98 473 2c0,33 -4,66 4,94 19,8 20,6 42,4 14,-27 6,-65 8,-95l123 -2c27,-10 3,9 23,-16 -73,5 -857,5 -874,-7 16,-13 379,-9 430,-6 118,8 261,1 384,3 47,1 44,4 53,-10l-336 -3 0 -89c-12,0 -9,-3 -10,8l-2 84 -88 -4 -44 1 -218 -2 1 -75c-3,-14 -1,-15 -12,-25 -19,17 -93,18 -124,7l0 95 -45 -2z"/>
   <path class="fil5" d="M7581 2773l-7 18c-164,0 -317,12 -481,0 -150,-11 -302,-19 -464,-19 -3,18 -3,37 -8,52 -6,22 -5,7 -15,33 105,2 177,5 270,17l545 21c100,1 63,13 125,-34 24,-19 30,-22 35,-88z"/>
   <path class="fil6" d="M9360 2917c-18,-11 -35,-62 -49,-97 -23,-56 -121,-278 -124,-301l-8 -35 -199 3 178 444c55,-1 70,-11 153,-5 7,1 18,3 24,2 31,-3 12,5 25,-11z"/>
   <path class="fil5" d="M10203 2150c22,-19 16,-3 31,-13 15,-11 7,-13 9,-27l-28 -7c9,-16 6,-24 22,-39 23,2 25,4 32,27 9,27 8,66 -25,72 -29,4 -28,-2 -41,-13zm-235 241c2,-4 7,5 5,-35 10,12 3,-4 9,20 0,1 1,15 1,15 12,-26 51,-84 67,-109 15,-22 23,-40 34,-57 14,-20 22,-41 35,-55l-8 -4c-24,-9 -54,-17 -24,-71 0,0 10,-15 11,-15 13,-15 -5,-3 17,-13 42,14 29,38 29,76 28,-2 31,-8 52,3 -24,14 -32,-3 -43,2 -14,18 -133,221 -141,254l90 -5c-1,2 -3,3 -4,6 -2,12 -9,-1 -12,30 -2,19 4,30 -5,44l22 -2c1,-66 -7,-59 41,-130l169 -258c12,-21 19,-28 29,-52 -27,3 -82,-5 -120,-5 -9,11 -15,21 -23,35 -17,31 -13,26 -35,38 6,-24 23,-66 43,-73l-143 0c-32,71 -42,246 -77,307 -15,-19 -2,-41 7,-83 7,-27 12,-52 19,-80 12,-53 26,-105 36,-156 -52,-10 -124,-6 -181,-6l51 5c2,0 3,1 5,2l8 5c-2,56 6,13 -12,27 -11,9 -16,6 -19,-3 109,0 92,-12 92,31l-21 9c-1,1 -3,2 -4,3 -2,28 -1,49 -10,70l-18 70c1,-1 6,-1 -1,-4 -15,-9 16,-12 -12,9l-7 1c-4,34 -15,66 -14,104l56 28 6 22z"/>
   <path class="fil6" d="M8716 2268c-10,16 -7,96 -6,113l3 36c52,-11 16,-33 113,-72 62,-25 45,-50 55,-59 28,-13 8,4 33,-19 6,-5 -2,-11 37,-16l9 -30c58,-2 13,-9 55,-35l23 -14c19,-19 -2,-6 30,-24 27,-15 15,-14 35,-39 29,-35 41,-19 67,-43l6 -6c31,-27 36,7 39,-52 24,-2 23,-1 34,-15 13,-17 9,-11 10,-39l80 -36c11,-13 13,-21 35,-38l71 -63c12,-16 8,-8 9,-33 33,-2 29,-4 43,-25l4 -8c1,-1 2,-2 3,-3 14,-15 8,0 32,-16l15 -15c13,-14 15,-50 15,-71 -64,1 -33,23 -66,42 -28,16 -6,-12 -32,26 -21,29 -1,8 -29,21 -33,16 -8,8 -46,41 -55,48 -1,37 -89,44l-18 34c-18,27 -6,12 -20,20 -47,27 -57,51 -70,66 -24,26 -29,-10 -32,41 -36,6 -90,54 -117,78l-80 59c-1,1 -3,2 -4,2l-17 15c-1,0 -12,9 -13,10l-208 163c-12,14 -5,0 -5,9l-4 -49z"/>
   <path class="fil0" d="M9481 3084l679 -2 0 -120 -696 3 -5 9 0 98c8,18 -1,9 22,12z"/>
   <path class="fil6" d="M2215 3989c-1,33 0,23 -8,48 -11,34 1,26 7,77 3,24 8,35 36,60l46 27c27,16 12,11 37,15 34,5 94,6 120,-7 15,-6 52,-41 62,-55 23,-29 32,-34 35,-90 3,-71 -38,-124 -101,-150l-12 39c-19,3 -31,10 -48,-4 -10,-7 -8,-15 -18,-32l-7 -10c-32,1 -47,0 -68,16 -14,9 -8,6 -16,16l-29 24c-1,1 -2,2 -3,3l-13 12c-8,6 -12,7 -20,11z"/>
   <path class="fil3" d="M10443 1380l-1 29c-23,14 -202,55 -241,62l1 -64 241 -27zm295 35c-36,-1 -77,-1 -116,-3l-92 -3 -16 -25c12,-8 -19,-8 27,-11l342 12c101,5 93,-18 93,37 -77,0 -160,-5 -238,-7zm-232 -42l1 36 -55 -2 0 -29 54 -5zm148 -518c17,17 16,72 17,103 0,36 3,73 1,108l2 56 -525 -17c11,-60 58,-185 57,-233l-116 25c-20,-39 -24,-94 -48,-129 6,40 28,79 38,129 -1,1 -3,2 -4,2l-77 253c21,8 -11,7 7,-2 14,-6 -5,-15 5,-3l-195 901c3,-2 5,-6 6,-5 1,1 3,-4 4,-5 15,-21 15,-36 19,-60 62,-332 160,-724 229,-1063l84 -23c-1,55 -72,209 -66,276l13 -48 146 7c3,32 -56,264 -67,315 -11,49 -71,296 -67,317l64 -273 260 5c-2,-17 -12,-61 7,-67l27 1c41,5 85,1 127,1 44,0 81,7 128,7 87,0 169,5 246,10l27 -6c-9,-10 -14,-11 -18,-25 -14,-44 11,-20 12,-20 -5,-18 2,-7 -17,-12 0,0 -35,-4 -37,-4 -29,2 -165,3 -182,-8l-145 0c-229,-9 -245,23 -412,29 11,-58 48,-110 74,-156 17,-31 39,-78 59,-96 12,-10 3,-19 15,-21l272 10c49,1 68,-7 77,11l33 -1c-9,-18 13,-19 -54,-19l0 -230 48 4c-16,-7 -37,-9 -60,-6 0,-35 -4,-130 -36,-153 14,38 33,67 22,115z"/>
   <path class="fil3" d="M3053 4116l-72 0 0 -37 812 -21 0 39 -740 19zm40 -60l2 -348 86 -5 1 350 -89 3zm483 -358l87 -2 7 235 -4 112 -89 0 -1 -345zm-386 83l1 -78c80,0 307,-16 370,-2l4 78 1 262 -376 8 0 -268zm-208 -82l2 -31 802 -16 2 33 -806 14zm92 -136l1 31 4 50 -109 1 1 54c18,19 53,2 107,8l3 342 -104 6c-11,23 -11,45 -1,68l101 2 2 48 -5 74 -7 43 5 18c21,-22 12,-53 15,-73l3 -112 89 1 -2 114c-4,29 -5,38 -11,64 29,-9 3,4 17,-16 5,-9 -8,-1 10,-17 -8,-18 -15,-130 -1,-150l370 -8 -4 53c-4,42 -18,86 -19,114l7 14 16 -2 12 -107 0 -67 82 -4 24 -1c20,-4 50,-6 74,-6 39,0 45,9 46,-29l-7 -38 -115 -1 -2 -258 -3 -83 122 -3 2 -20 -6 -35c-28,-7 -92,-10 -120,2l-5 -102c69,3 146,0 216,0 54,-1 89,-7 158,-4 4,0 22,0 24,0 13,-2 0,1 12,-2 15,-5 5,0 15,-8 -74,0 -156,4 -228,2l-201 3c-31,-3 2,3 -14,-3 17,42 13,77 8,113l-76 -4c-32,-43 -1,-52 -12,-82 -8,-22 -3,-11 -23,-24l7 46 8 64 -369 5c-16,-13 -11,-23 -8,-48 2,-17 4,-35 9,-51 -14,-10 -5,4 -19,-17l6 118 -84 0c-7,-47 -3,-90 -6,-117l-2 -11c0,-1 -1,-3 -1,-5l-5 34c-1,2 -2,4 -2,6 -1,1 -2,3 -2,5 -1,1 -2,4 -3,5z"/>
   <path class="fil5" d="M3797 3673l-2 20 -122 3 3 83c90,0 631,-12 662,-1l-9 -129 -521 1 -11 23z"/>
   <path class="fil2" d="M9401 3869l0 0zm0 0c19,-24 19,-65 8,-99 -9,-28 -30,-54 -32,-58 -3,-8 1,-10 3,-16 -37,-2 -76,-8 -86,-46 9,-11 5,-5 15,-9l10 -2c0,0 2,0 3,-1 -3,-1 6,-10 -22,-4 -24,6 -13,23 -15,39 -70,-4 -95,-23 -147,37 -37,43 -44,104 -23,154 -29,28 18,-7 -13,5 -18,7 -1,-8 -17,7 -1,2 -4,6 -5,8 -16,41 -2,-30 -1,9 0,8 5,17 6,21l5 -14c5,-16 -6,0 7,-20 33,6 7,4 19,-8l9 12c25,38 45,53 93,60l-4 29c0,2 0,3 0,4 0,1 2,11 2,15 4,1 11,2 11,2 13,4 11,4 12,5 0,-14 -1,-1 -6,-9 -6,-12 -7,9 -11,-26l43 -17c25,16 31,-9 39,23 1,-2 3,-6 3,-5 1,1 2,-4 3,-5 28,-30 26,-7 29,-2 1,-34 -4,-5 33,-39 12,-11 26,-28 29,-50z"/>
   <path class="fil7" d="M1953 3594l25 -1 -36 -266c7,-44 39,-2 73,-34 52,-17 191,13 233,-9 -41,1 -178,7 -207,-5l-14 0c-16,-70 -44,-144 -63,-209 -25,-85 -12,-41 -24,-112 -13,-80 -91,-195 -144,-256 -24,-27 -22,4 -95,-40 -27,-16 -75,-17 -111,-16 21,16 53,26 104,59 28,19 54,61 73,94 15,26 17,24 30,54 8,19 14,39 22,58 55,140 94,384 120,541 6,35 31,105 14,142z"/>
   <path class="fil4" d="M10499 3652c11,25 2,72 4,104l255 36c6,41 11,151 -2,181l96 0c0,-50 11,-159 -6,-195 -25,0 -16,-2 -37,6 -35,-7 -22,-19 -74,-8l-2 -199c28,0 67,1 88,-6 -18,0 -10,1 -24,-3 -3,-1 -5,-1 -6,-4 -2,-3 -4,-3 -6,-5 -23,-1 -12,-4 -37,-6 -291,-21 -249,-44 -249,99z"/>
   <path class="fil2" d="M2235 3978l13 -12c1,-1 2,-2 3,-3l29 -24c8,-10 2,-7 16,-16 21,-16 36,-15 68,-16l7 10c10,17 8,25 18,32 17,14 29,7 48,4l12 -39c63,26 104,79 101,150 -3,56 -12,61 -35,90 -10,14 -47,49 -62,55 -26,13 -86,12 -120,7 -25,-4 -10,1 -37,-15l-46 -27c-28,-25 -33,-36 -36,-60 -6,-51 -18,-43 -7,-77 8,-25 7,-15 8,-48 8,-4 12,-5 20,-11zm324 242c-10,-3 -9,7 -8,-11 12,-9 31,-46 39,-64 22,-46 26,-124 0,-179l-44 -65c-49,-6 -233,-6 -283,1l-31 -4 -8 -34c-62,71 -91,184 -64,277 5,17 37,65 48,80 27,36 112,74 175,75 24,1 82,-13 101,-20 25,-11 63,-33 75,-56z"/>
   <path class="fil7" d="M1315 4279c-19,7 -22,15 -40,31 -68,65 -18,25 -120,79 -60,32 -144,50 -221,37 -131,-22 -179,-51 -264,-136 -69,-70 -107,-187 -111,-286 -1,-30 12,-88 17,-119 8,-43 22,-54 39,-89 22,-45 22,-50 53,-80 22,-22 42,-46 65,-64 25,-21 59,-30 89,-46 81,-41 51,-11 87,-31 1,0 3,-1 4,-3 1,-2 2,-2 4,-4 -103,1 -232,76 -292,153 -68,89 -123,194 -112,318 7,77 20,164 64,222 11,15 20,28 30,43 40,61 25,32 73,74 138,122 329,121 490,48 38,-17 35,-28 85,-62 32,-22 49,-47 60,-85z"/>
   <path class="fil1" d="M8123 3303c60,-4 122,4 182,-4 132,-15 279,25 340,-28l47 -44c21,-22 39,-24 60,-40l-813 6c37,36 64,17 163,93 4,3 7,5 11,8 8,6 6,5 10,9z"/>
   <path class="fil0" d="M5248 2351c1,75 27,174 13,252l43 3 1 59c82,7 67,-15 67,78 0,51 1,101 3,152l72 -1c-1,-22 14,-47 16,-73 2,-31 0,-70 0,-103 0,-61 -4,-143 1,-201 -16,-12 -35,-21 -50,-34 -32,-28 -83,-92 -81,-130l-85 -2z"/>
   <path class="fil8" d="M3680 4111l-24 1c0,48 -6,75 -6,118l-73 2 -3 -49 -12 107 -16 2c23,9 68,4 98,4 33,-50 9,-43 134,-43l353 -5c33,-1 46,-7 85,-7 31,0 61,0 92,0 23,-34 30,-77 30,-122l-5 -20c-9,10 -2,0 -8,15 -4,10 -1,1 -3,11 -2,7 -2,17 -2,24 -47,6 -116,8 -164,8l-482 12c1,-27 6,-35 6,-58z"/>
   <path class="fil10" d="M2673 3894c-7,25 -32,93 -49,105 -8,-70 -22,-58 -46,-104l24 -1 18 0 53 0zm70 -237l3 219c-56,0 -470,8 -484,18l1 8c50,-7 234,-7 283,-1l44 65c26,55 22,133 0,179 -8,18 -27,55 -39,64 -1,18 -2,8 8,11 19,-6 41,-43 51,-62 30,-56 22,-129 45,-187 12,-30 25,-52 32,-83 87,0 73,29 73,-146l37 0c0,67 -1,134 0,201 0,42 10,49 12,85 2,33 0,71 0,104 0,46 3,53 11,86 12,47 -7,60 43,61 75,0 134,-7 202,-7l2 18 7 -43 -226 3c-3,-29 -10,-43 -4,-70 13,-44 0,-217 3,-281 11,-105 -5,-207 11,-305l217 0 -1 -31c-6,-39 -22,-24 -82,-19 -102,7 -132,-19 -153,20 -25,44 -20,138 -26,174l-64 1c1,-39 8,-64 -6,-82z"/>
   <path class="fil1" d="M1608 2481c32,9 411,2 501,3 43,1 47,8 47,-33 0,-27 2,-58 -1,-84l-546 -1c-9,31 -7,84 -1,115z"/>
   <polygon class="fil0" points="5100,2917 5124,2918 5246,2918 5364,2913 5365,2889 5365,2674 5100,2674 "/>
   <path class="fil6" d="M9743 2064c40,12 48,20 95,10 -8,54 -31,115 -44,169 -6,25 -34,133 -56,150 0,26 -8,5 12,18 15,-12 24,-9 48,-8l153 0c19,-4 15,5 17,-12l-6 -22 -56 -28c-1,-38 10,-70 14,-104l7 -1c28,-21 -3,-18 12,-9 7,3 2,3 1,4l18 -70c9,-21 8,-42 10,-70 1,-1 3,-2 4,-3l21 -9c0,-43 17,-31 -92,-31 3,9 8,12 19,3 18,-14 10,29 12,-27l-8 -5c-2,-1 -3,-2 -5,-2l-51 -5 -4 -22 -18 63c-35,-3 -75,-3 -96,-25 -19,-12 -32,-26 -43,-53 -25,-61 12,-63 -37,-64 -30,44 27,135 73,153z"/>
   <path class="fil0" d="M10164 379l-8 -6c-12,-16 -13,-33 -19,-54l-53 -207c10,12 3,2 10,16l15 38 90 1c-18,-9 -15,-14 -11,-38 35,-13 76,2 108,-12 -32,-23 -32,-20 -83,-22 -39,-1 -74,-4 -110,-4 -23,-32 -36,-40 -38,-55l-44 -19c-8,76 11,54 7,88 -3,31 -26,4 19,124l200 639c25,7 40,11 66,3l-148 -470c-5,-25 -3,-7 -1,-22z"/>
   <path class="fil8" d="M10164 379c7,-32 -39,-160 -52,-190l149 8c31,-80 -14,-53 170,-49 74,1 153,17 220,18l84 15c32,9 -9,-4 13,5l9 4c-7,25 -8,16 -23,34 -10,12 -11,17 -19,30l-303 403c40,14 45,-7 76,4 2,-15 72,-93 86,-109 16,-19 20,-24 33,-40l127 -152 77 -95c14,-19 13,-13 29,-32 -9,-42 -3,-32 -43,-51 -78,-37 -263,-43 -353,-51 -41,-4 -115,4 -148,-14 -32,14 -73,-1 -108,12 -4,24 -7,29 11,38l-90 -1 -15 -38c-7,-14 0,-4 -10,-16l53 207c6,21 7,38 19,54l8 6z"/>
   <path class="fil6" d="M9321 501c14,-5 20,-2 38,6 4,19 34,46 46,62l112 204c1,1 2,3 3,4l22 16c-2,-30 -2,-27 -12,-47l-97 -177c-14,-26 -29,-38 -45,-62 77,0 176,5 251,-1 36,-3 77,-9 116,-12 12,-1 78,-21 105,-11l-50 -59c-41,-35 -90,-19 -189,-19 -103,0 -207,0 -311,0 0,18 23,12 -6,41 -15,-23 -18,-31 -42,-48 -47,-35 -25,-34 -62,-34 54,47 99,122 121,137z"/>
   <path class="fil2" d="M9320 4121c-12,5 -8,7 -20,19 -33,32 -47,1 -77,30 11,4 9,4 21,5 46,18 117,-2 158,-20 53,-23 49,-6 82,-38l10 -9c49,-39 43,-18 73,-43l50 -52c1,-1 2,-3 2,-4l8 -16c24,-49 32,-43 48,-122 20,-106 -11,-157 -51,-238 -3,-6 -4,-9 -8,-16 -12,-20 -109,-93 -127,-102 -19,-10 -41,-20 -61,-28 -13,-5 -57,-18 -69,-11 58,13 125,77 159,125 34,47 76,149 66,230 -7,51 -10,77 -28,118 -22,52 -24,67 -51,97 -51,53 -100,113 -184,117 8,-18 2,-15 -1,-42z"/>
   <path class="fil3" d="M10295 3864c1,2 3,2 4,3l17 11c4,3 4,2 9,16l-44 12c46,0 191,23 240,32l235 35c13,-30 8,-140 2,-181l-255 -36c11,40 13,54 5,92 -41,22 -154,17 -213,16z"/>
   <path class="fil0" d="M5007 2938l1 18c32,9 766,-3 866,-3 145,0 293,3 439,0l377 -1c40,0 40,3 55,-8l0 -19c-21,-11 -1290,0 -1523,0l-189 2c-30,4 -11,-4 -26,11z"/>
   <path class="fil12" d="M2741 1800c-17,11 -13,26 -30,50l36 -94c-20,15 -6,-1 -20,23l-110 260c-24,56 -14,310 -13,387 0,101 -19,748 -5,789 91,7 202,0 295,0l756 -6c71,0 74,1 135,-19l-2 -8c-1,-10 -5,6 1,-9 2,-8 8,-12 17,-25 -40,23 -24,33 -127,32 -51,0 -101,-2 -152,-2 -96,-2 -200,4 -299,4 -199,0 -398,5 -596,5 0,-190 -7,-403 3,-591 6,-97 -1,-200 1,-298 2,-51 2,-101 3,-152 1,-131 2,-55 20,-132 -36,32 -30,84 -30,126l-2 450c-10,200 3,408 -6,608 99,-6 199,6 297,-3 94,-8 198,6 292,1 187,-10 391,5 569,-14 -58,35 -203,9 -283,16l-591 5c-85,-1 -213,14 -295,2 7,-118 -5,-241 6,-359 8,-98 2,-249 1,-353 0,-121 5,-240 5,-360 0,-76 5,-84 34,-147 17,-37 35,-89 56,-120l-17 51c11,-8 6,-3 15,-16l36 -101z"/>
   <path class="fil0" d="M4451 2854l95 0c6,-34 -2,-3 11,-17 16,-170 20,-313 1,-485l-106 0c26,84 11,408 -1,502z"/>
   <path class="fil5" d="M3680 4111c0,23 -5,31 -6,58l482 -12c48,0 117,-2 164,-8 0,-7 0,-17 2,-24 2,-10 -1,-1 3,-11 6,-15 -1,-5 8,-15l1 -24 -534 1c-1,38 -7,29 -46,29 -24,0 -54,2 -74,6z"/>
   <path class="fil0" d="M7795 3894c41,-111 -84,-223 -184,-146 -192,148 105,360 184,146z"/>
   <path class="fil5" d="M88 3918l150 -482 -93 2 -99 4c1,69 0,307 17,357 16,44 14,55 14,113 7,18 -6,10 11,6z"/>
   <path class="fil0" d="M5507 2354l11 9c7,5 2,4 10,6 10,2 19,-2 32,-3 12,-43 4,-40 101,-40 -5,-38 -21,-101 -37,-140 -13,-32 -53,-104 -54,-126l-10 -3c-30,-14 1,-12 -30,-10 -11,1 -37,9 -48,13 -30,10 -60,20 -92,29 28,39 41,68 64,125l53 140z"/>
   <path class="fil0" d="M5629 2127c12,46 52,114 48,165 137,-22 90,-72 142,2 23,1 47,-1 64,10 -22,15 -105,-5 -154,17 23,5 74,9 102,8l107 -3c-4,-29 -12,-36 -21,-65 16,10 15,3 25,37 4,15 2,20 17,31 6,-11 5,1 3,-18 -2,-20 -11,-15 -9,-43 -30,-8 -15,-6 -43,-45 13,21 16,-7 19,45 -48,-21 -38,-39 -39,-48 -7,-52 -20,-118 -56,-154l-136 41c-14,5 -14,5 -25,10 -18,8 -17,9 -44,10z"/>
   <path class="fil6" d="M10291 651l121 6 303 -403c8,-13 9,-18 19,-30 15,-18 16,-9 23,-34l-9 -4c-22,-9 19,4 -13,-5l-84 -15c8,22 3,0 -1,13l-7 16c-8,14 -1,2 -11,13 -29,30 5,3 -42,55l-159 244c-5,8 -7,13 -11,19l-42 62c-5,8 -5,8 -10,14l-31 45 -46 4z"/>
   <path class="fil1" d="M1504 3331l8 6c1,1 7,5 8,6l40 33c24,17 33,27 54,43 35,29 70,65 92,110 1,-1 9,-5 11,-7 -17,-106 -47,-194 -98,-278 -50,-81 -75,-136 -188,-185l26 16c0,53 -2,108 -1,162 1,34 7,37 22,56 10,13 26,35 26,38z"/>
   <path class="fil6" d="M4430 2899l3 -31c0,-39 15,-95 17,-143 7,-205 9,-239 -26,-436 -31,51 -20,19 -33,55 -24,72 -14,183 -14,259 -1,112 -20,159 9,252 9,31 15,34 44,44z"/>
   <path class="fil13" d="M49 2954c-18,23 -4,7 -31,20 7,19 -13,9 19,12 0,59 -11,251 6,287 23,10 72,9 104,7l6 -333 -85 -3c-18,5 -8,0 -19,10z"/>
   <path class="fil8" d="M0 4057c27,-3 17,7 48,8l40 -147c-17,4 -4,12 -11,-6 0,-58 2,-69 -14,-113 -17,-50 -16,-288 -17,-357l99 -4 -133 -11c-17,61 -6,230 -6,309 0,58 -6,93 -6,152 0,56 0,112 0,169z"/>
   <path class="fil5" d="M10672 1066c2,-35 -1,-72 -1,-108 -1,-31 0,-86 -17,-103l-3 31 -302 -4 13 18c3,3 13,9 18,12 49,33 99,71 150,99 47,26 48,28 93,35 44,7 29,14 49,20z"/>
   <path class="fil10" d="M9738 2393c22,-17 50,-125 56,-150 13,-54 36,-115 44,-169 -47,10 -55,2 -95,-10 -5,66 -84,277 -96,343 12,1 84,5 89,-12 0,-1 1,-1 2,-2z"/>
   <polygon class="fil6" points="3793,4097 3793,4058 2981,4079 2981,4116 3053,4116 "/>
   <polygon class="fil6" points="3577,4043 3666,4043 3670,3931 3663,3696 3576,3698 "/>
   <path class="fil1" d="M8341 4100c-3,33 -32,67 -24,97 61,8 179,7 229,-24 -4,-16 -8,-15 -19,-31l-5 -7c-37,-53 -24,-37 -46,-89 -9,-19 -1,4 -8,-22l-11 -32c-20,1 -23,4 -43,5 -45,2 -37,6 -48,19 15,6 16,10 35,2 -43,13 -21,-15 -48,58l-12 24z"/>
   <path class="fil8" d="M3193 4269c45,-10 121,-3 170,-3 65,0 114,-6 171,-6l5 18c1,-28 15,-72 19,-114 -14,16 -3,-16 -12,16l-350 2 -4 -63c-14,20 -7,132 1,150z"/>
   <polygon class="fil6" points="3182,4053 3181,3703 3095,3708 3093,4056 "/>
   <path class="fil5" d="M3190 3781l375 -2 -4 -78c-63,-14 -290,2 -370,2l-1 78z"/>
   <path class="fil12" d="M10976 1443c-77,-5 -159,-10 -246,-10 -47,0 -84,-7 -128,-7 -42,0 -86,4 -127,-1l-1 69c76,12 195,7 275,8 54,1 175,-40 227,-59z"/>
   <path class="fil12" d="M1978 3593c42,-20 76,-35 105,-50l-39 -247 -29 -3c-34,32 -66,-10 -73,34l36 266z"/>
   <polygon class="fil0" points="9029,3128 9351,3148 9487,3163 9565,3161 9557,3091 9476,3089 9027,3095 "/>
   <path class="fil12" d="M9868 2414l207 -3 0 52c-51,0 -161,5 -204,-5l-3 -44zm-48 3l37 -7 -1 48 -36 1 0 -42zm148 -26c-2,17 2,8 -17,12l-153 0c-24,-1 -33,-4 -48,8l1 1 53 2 0 42c-30,6 -165,3 -179,14 33,-4 65,0 100,-5 19,-2 36,-4 55,-3 28,0 34,-6 41,15 22,-6 62,2 92,3 28,1 11,1 36,10 20,7 18,-13 11,59 32,7 56,-1 76,3l112 1c-16,-22 2,-7 -21,-16l-155 -2 3 -42c61,-10 111,1 169,4 -14,-14 7,-6 -27,-14 -10,-3 -61,2 -81,-6l45 0c9,-14 3,-25 5,-44 3,-31 10,-18 12,-30 1,-3 3,-4 4,-6l-90 5c8,-33 127,-236 141,-254 11,-5 19,12 43,-2 -21,-11 -24,-5 -52,-3 0,-38 13,-62 -29,-76 -22,10 -4,-2 -17,13 -1,0 -11,15 -11,15 -30,54 0,62 24,71l8 4c-13,14 -21,35 -35,55 -11,17 -19,35 -34,57 -16,25 -55,83 -67,109 0,0 -1,-14 -1,-15 -6,-24 1,-8 -9,-20 2,40 -3,31 -5,35z"/>
   <path class="fil0" d="M9523 2764l30 -1 6 40 48 0 4 -39 31 0 3 69c-5,1 -18,2 -19,3 -9,2 -13,0 -23,10 0,55 8,12 21,49 -16,13 -67,7 -97,3l-4 -34c27,-4 32,4 44,-12 -6,-27 -7,-13 -42,-18l-2 -70zm-33 -27l-2 19 2 35c-1,23 -11,126 10,141 22,11 148,8 172,1 11,-40 11,-169 -10,-200 -35,-6 -135,-7 -169,2l-3 2z"/>
   <path class="fil0" d="M4049 3265c3,-22 13,-896 6,-943 -5,-32 1,-17 -15,-23 -21,10 -13,59 -13,109l-1 755c0,68 -5,53 23,102z"/>
   <path class="fil7" d="M3191 3644l369 -5 -8 -64c-49,-12 -288,-3 -356,-3 -6,29 -12,43 -5,72z"/>
   <polygon class="fil6" points="3788,3685 3786,3652 2984,3668 2982,3699 "/>
   <path class="fil1" d="M5152 2328c12,35 18,88 21,128 3,39 2,114 9,146l79 1c14,-78 -12,-177 -13,-252 -3,3 -4,4 -8,12 -1,1 -2,6 -3,8 -13,-62 -14,-71 -75,-74 -26,-3 -9,-2 -11,-11 -10,10 -6,2 -4,20 0,0 4,18 5,22z"/>
   <path class="fil12" d="M3192 3545c-5,16 -7,34 -9,51 -3,25 -8,35 8,48 -7,-29 -1,-43 5,-72 68,0 307,-9 356,3l-7 -46c20,13 15,2 23,24 11,30 -20,39 12,82l76 4c5,-36 9,-71 -8,-113 -3,-41 -55,-27 -95,-27l-12 38 -336 0c-25,2 -7,-1 -13,8z"/>
   <path class="fil3" d="M2564 1575c15,-22 26,-60 38,-87 14,-32 31,-60 42,-92l-133 6 -3 2 -5 5c0,0 -2,2 -2,3l-99 75c12,22 142,84 162,88z"/>
   <path class="fil0" d="M8493 2921l562 -6c20,-2 4,5 12,-9 -33,-26 5,-30 -48,-31l-529 1 3 45z"/>
   <path class="fil5" d="M3192 4119l4 63 350 -2c9,-32 -2,0 12,-16l4 -53 -370 8z"/>
   <path class="fil2" d="M7795 3894c-79,214 -376,2 -184,-146 100,-77 225,35 184,146zm-111 -188c-57,-2 -91,-38 -162,52 -13,17 -20,34 -24,56 -14,90 46,167 127,169 -12,54 -8,-14 -9,54 8,-15 4,-8 6,-34 25,-2 44,-12 66,-11 38,1 8,-1 22,9l21 12c0,-1 -2,-3 -2,-2l-17 -22c31,-14 36,-19 62,-40 36,-29 19,-9 29,-50 7,-29 15,-57 3,-91 -11,-33 -27,-46 -40,-66l26 -12c-7,-2 -99,5 -94,-43 3,-33 0,-9 26,-22 -3,-1 -15,-3 -17,-3l-13 10c-20,30 20,-7 -10,34z"/>
   <path class="fil2" d="M6447 2666l56 46c7,4 19,9 24,12 38,25 41,45 77,63 2,-29 19,-124 10,-146 -19,7 -87,-46 -108,-62 -26,-20 -33,-18 -59,-44l0 131z"/>
   <path class="fil6" d="M10419 3486c16,28 19,87 26,127l17 94c4,23 12,16 -5,23l5 4c13,13 4,-3 13,18l7 77c-37,12 -117,5 -161,8 0,0 -18,2 -19,2l-15 -2c3,20 -3,9 8,27 59,1 172,6 213,-16 8,-38 6,-52 -5,-92 -2,-32 7,-79 -4,-104l-42 -173c-7,-22 -5,-58 -11,-72 0,68 1,43 -10,53 -8,7 -10,4 -15,17 0,0 -1,2 -1,3l-1 6z"/>
   <path class="fil0" d="M6847 3973c-14,-14 -13,-11 -22,-30 16,-39 20,-14 12,-68 -4,-28 -8,-55 -7,-84l-12 -8 -138 -18c6,78 83,176 141,206 25,13 22,17 26,2z"/>
   <path class="fil0" d="M5864 2011c9,20 22,36 31,60 8,20 15,38 23,63 8,25 34,120 35,134 2,1 3,2 4,2l20 13c27,-13 31,-7 32,-45 1,-61 -28,-142 -49,-196 -2,0 -4,-1 -4,0 0,0 0,-2 0,-2 0,-1 2,-3 3,-4l-21 -23c-7,-9 -7,-11 -15,-20 -23,2 -46,7 -59,18z"/>
   <path class="fil14" d="M1790 3673c22,34 46,112 53,158l33 0c1,65 -21,25 -25,69 12,7 18,5 50,3l5 -12 3 -240 -100 -4c-31,9 -20,-7 -19,26z"/>
   <path class="fil5" d="M2797 1402l28 1c-3,32 -6,22 5,49 1,1 2,3 3,5 38,0 16,6 32,-19 7,-11 10,-22 9,-40 -10,-5 -20,13 0,-61 7,-26 16,-34 18,-64 -36,0 -57,3 -79,17 -45,30 -55,45 -112,71 -24,11 -33,23 -57,29 24,0 49,0 74,0 11,0 26,-1 36,-1 1,1 18,2 19,2 28,7 10,-1 24,11z"/>
   <path class="fil0" d="M9936 117c-21,11 -35,39 -34,68l20 4c3,-24 4,-23 16,-30 15,16 12,4 12,31l49 2 -21 -69c1,-1 4,-5 5,-3l14 -8c11,-5 4,1 19,-7 0,-7 -8,-28 -10,-86 -32,-13 -122,5 -147,19 0,94 7,40 57,63 23,10 6,-6 20,16z"/>
   <path class="fil0" d="M5959 2446l1 -82c-49,0 -180,-8 -218,5l-1 75 218 2z"/>
   <path class="fil10" d="M5014 2907l77 5 0 -236c-73,0 -75,-6 -77,79 -1,50 0,102 0,152z"/>
   <path class="fil6" d="M3464 3023c0,18 9,17 27,17 116,0 134,12 134,-29 0,-103 2,-77 -67,-76 -29,0 -66,-5 -92,4l-2 84z"/>
   <path class="fil15" d="M8860 2610l2 45 103 1 -15 -45c-24,-24 -32,-72 -47,-93l-75 -3 -89 86 96 1c27,3 10,-3 25,8z"/>
   <path class="fil10" d="M4464 3120l0 -127c-51,-12 -97,-25 -136,-12 -2,0 -4,1 -5,1 -14,5 -28,-7 -31,40 -1,11 1,32 1,44l40 -8 2 32 93 23c1,-36 -5,-77 8,-100 25,10 20,12 19,46 -2,64 -5,50 9,61z"/>
   <path class="fil0" d="M10514 1384l16 25 92 3c39,2 80,2 116,3 78,2 161,7 238,7 0,-55 8,-32 -93,-37l-342 -12c-46,3 -15,3 -27,11z"/>
   <path class="fil8" d="M2847 3899l9 -216 105 0c2,34 -2,1 10,16l-1 -54 109 -1 -4 -50 -217 0c-16,98 0,200 -11,305z"/>
   <path class="fil16" d="M10809 3784l0 -79c-1,-29 0,-61 0,-91 29,-8 25,-15 25,-49 -22,-5 -19,-6 -49,-6 2,2 4,2 6,5 1,3 3,3 6,4 14,4 6,3 24,3 -21,7 -60,6 -88,6l2 199c52,-11 39,1 74,8z"/>
   <path class="fil8" d="M2844 4180c-6,27 1,41 4,70l226 -3 5 -74c-42,18 -176,7 -235,7z"/>
   <path class="fil10" d="M9632 2487l-31 234 45 -1 42 -157c10,-15 25,-68 25,-86l-75 -1 -6 11z"/>
   <path class="fil3" d="M10321 3837c44,-3 124,4 161,-8l-7 -77c-9,-21 0,-5 -13,-18l0 20 -141 -15 0 98z"/>
   <path class="fil5" d="M5507 2354l-115 -192 -52 9c11,18 105,195 107,213 27,-7 53,-6 60,-30z"/>
   <path class="fil1" d="M9638 321c27,11 63,14 89,31 29,18 46,42 83,57l19 -239c20,0 51,4 64,-4l-34 -10 -22 0 -2 -51c0,2 -1,3 -2,6 -7,53 -79,38 -146,80 35,-7 105,-43 130,-40l-66 210c-19,-5 -62,-43 -113,-40z"/>
   <path class="fil8" d="M10202 1407l-1 64c39,-7 218,-48 241,-62l1 -29 -241 27z"/>
   <path class="fil10" d="M3086 3513c0,2 1,4 1,5l2 11c3,27 -1,70 6,117l84 0 -6 -118 -5 -22c-32,0 -57,-2 -82,7z"/>
   <path class="fil1" d="M896 3625c21,-25 29,-25 72,-27l-5 75c-41,-2 -59,-11 -67,-48zm-17 7c26,84 171,61 191,8 18,-49 -49,-55 -89,-53 -57,2 -82,7 -102,45z"/>
   <path class="fil10" d="M9490 2791l-2 -35 -13 4c-14,2 -44,-5 -73,1l-1 140 75 1c0,-17 0,-33 0,-49 -1,-30 -3,-45 14,-62z"/>
   <path class="fil1" d="M9603 2846c10,-10 14,-8 23,-10 1,-1 14,-2 19,-3l-3 -69 -31 0 -4 39 -48 0 -6 -40 -30 1 2 70c35,5 36,-9 42,18 -12,16 -17,8 -44,12l4 34c30,4 81,10 97,-3 -13,-37 -21,6 -21,-49z"/>
   <path class="fil2" d="M9748 1692c18,-8 36,-19 52,-32 79,-63 51,-22 93,-161 -12,4 -14,6 -27,14l-70 58c-17,16 -9,-4 -23,19l-25 102z"/>
   <path class="fil7" d="M9625 2470c14,-11 149,-8 179,-14l0 -42 -53 -2c-37,1 -81,2 -118,2 -28,-1 -40,-6 -47,14 -17,48 30,42 39,42z"/>
   <path class="fil0" d="M9871 2458c43,10 153,5 204,5l0 -52 -207 3 3 44z"/>
   <polygon class="fil2" points="3087,4235 3177,4238 3179,4124 3090,4123 "/>
   <polygon class="fil0" points="10096,1984 10291,1989 10293,1943 10218,1938 10095,1938 "/>
   <path class="fil2" d="M3574 4183l3 49 73 -2c0,-43 6,-70 6,-118l-82 4 0 67z"/>
   <path class="fil5" d="M4451 2854l-9 15 -15 66 97 0c18,-23 28,-60 33,-98 -13,14 -5,-17 -11,17l-95 0z"/>
   <path class="fil3" d="M970 4381c-25,-8 -46,-18 -58,-37 7,-4 134,-23 141,42 -26,8 -59,2 -83,-5zm-102 -24c0,43 22,48 92,53 207,15 66,-130 -71,-67 -15,7 0,-1 -13,7l-8 7z"/>
   <polygon class="fil0" points="5613,2444 5706,2446 5706,2420 5706,2359 5613,2360 "/>
   <path class="fil4" d="M3464 3023l2 -84c26,-9 63,-4 92,-4 69,-1 67,-27 67,76 0,41 -18,29 -134,29 -18,0 -27,1 -27,-17zm-14 -61c0,70 -7,57 17,92l158 0c23,-37 22,-99 1,-134l-161 -2c-11,15 -15,17 -15,44z"/>
   <polygon class="fil0" points="6003,2445 6091,2449 6093,2365 6003,2365 "/>
   <path class="fil0" d="M7567 4183c24,11 52,13 86,8 31,-4 43,-8 45,-36 -26,-46 -145,-41 -131,28z"/>
   <path class="fil12" d="M3566 3394l-1 -42c23,9 125,12 142,-3l1 42c-23,-13 -128,-14 -142,3zm47 -58c-46,0 -61,-6 -59,40 2,42 27,29 72,29 30,-1 58,-3 93,-4l-1 -64c-34,-2 -70,0 -105,-1z"/>
   <path class="fil0" d="M6685 3644l78 16 30 -68c-65,-13 -113,-44 -113,30 0,31 -1,12 5,22z"/>
   <path class="fil0" d="M9170 4102l7 37c22,10 47,12 76,8 39,-5 39,-9 46,-42 -47,-36 -79,-28 -129,-3z"/>
   <polygon class="fil0" points="5164,2667 5265,2667 5290,2666 5290,2613 5164,2613 "/>
   <path class="fil9" d="M4273 989c30,29 45,40 76,63 27,10 15,9 44,11 -2,-52 -87,-108 -105,-111 -29,-6 -19,-5 -28,7 5,16 7,13 13,30z"/>
   <path class="fil6" d="M2949 1227c-2,-11 3,-7 -13,-19 -14,-11 -7,-6 -19,-9l-99 -12c-8,32 -9,34 -1,63 43,0 100,-12 132,-23z"/>
   <path class="fil10" d="M9487 3163c16,7 44,3 67,2 46,-1 56,10 70,-7 -3,30 0,5 9,14l10 -80 -86 -1 8 70 -78 2z"/>
   <path class="fil5" d="M4452 2352l106 0 -7 -39c-1,-1 -2,-6 -3,-5 -2,5 0,-12 -22,-17l-78 0 4 61z"/>
   <path class="fil7" d="M3072 4308l94 -6c6,-26 7,-35 11,-64l-90 -3c-3,20 6,51 -15,73z"/>
   <path class="fil3" d="M7567 4183c-14,-69 105,-74 131,-28 -2,28 -14,32 -45,36 -34,5 -62,3 -86,-8zm-19 -15c41,70 144,31 149,27 26,-18 -8,-3 33,-33 -16,-27 -40,-47 -89,-50 -41,-2 -84,11 -93,56z"/>
   <path class="fil8" d="M9882 1952l0 41c47,0 95,-8 145,-10l0 -38 -145 7z"/>
   <path class="fil0" d="M5484 2453c64,-6 48,0 59,-27 6,26 -6,16 18,18l-4 -68c-8,2 -26,-2 -32,37l-10 -35 -55 17c6,20 16,45 24,58z"/>
   <path class="fil5" d="M5248 2351l85 2c-11,-24 -23,-51 -26,-71l-74 -1 15 70z"/>
   <path class="fil6" d="M2620 3894l-18 0 -24 1c24,46 38,34 46,104 17,-12 42,-80 49,-105l-53 0z"/>
   <path class="fil17" d="M912 4344c12,19 33,29 58,37 24,7 57,13 83,5 -7,-65 -134,-46 -141,-42z"/>
   <path class="fil0" d="M9633 3172l67 -5c-13,-36 -11,-34 -11,-78l-46 3 -10 80z"/>
   <path class="fil17" d="M896 3625c8,37 26,46 67,48l5 -75c-43,2 -51,2 -72,27z"/>
   <path class="fil12" d="M10215 2103l28 7c-2,14 6,16 -9,27 -15,10 -9,-6 -31,13 13,11 12,17 41,13 33,-6 34,-45 25,-72 -7,-23 -9,-25 -32,-27 -16,15 -13,23 -22,39z"/>
   <path class="fil0" d="M8387 3929l2 16c16,-7 30,-14 41,-23 3,-31 -4,-53 -7,-85l-29 -6 -7 98z"/>
   <path class="fil0" d="M3566 3394c14,-17 119,-16 142,-3l-1 -42c-17,15 -119,12 -142,3l1 42z"/>
   <path class="fil0" d="M7578 3547c48,26 74,-3 115,-6 -1,-13 3,-1 -4,-13 -10,-17 -35,-17 -53,-13 -9,2 -53,25 -58,32z"/>
   <path class="fil18" d="M2762 1264l45 -6 1 -57c-14,-15 4,-5 -23,-5 -6,12 -19,17 -33,22 3,20 -2,22 4,37 1,2 2,0 6,9z"/>
   <path class="fil18" d="M2909 1178l8 21c12,3 5,-2 19,9 16,12 11,8 13,19 33,-11 4,10 15,-13 0,-1 4,-24 4,-25 1,-49 0,-28 -17,-36l-42 25z"/>
   <path class="fil7" d="M8387 3929c-10,8 -6,36 -7,53l63 -13c-2,-11 -3,-17 -5,-27 -5,-21 0,-11 -8,-20 -11,9 -25,16 -41,23l-2 -16z"/>
   <polygon class="fil0" points="9682,2845 9706,2848 9740,2847 9740,2812 9682,2814 "/>
   <polygon class="fil0" points="10452,1378 10452,1407 10507,1409 10506,1373 "/>
   <polygon class="fil0" points="9820,2459 9856,2458 9857,2410 9820,2417 "/>
   <path class="fil0" d="M4834 2932c9,5 19,10 40,3 22,-7 15,-4 16,-26 -6,0 -35,-1 -39,0 -29,7 -13,-5 -17,23z"/>
   <polygon class="fil0" points="10047,1981 10078,1984 10079,1938 10046,1940 "/>
   <line class="fil0" x1="9401" y1="3869" x2="9401" y2= "3869" />
   <g>
    <path class="fil19" d="M7684 1331c-55,40 -87,152 -122,219 -36,70 -93,144 -73,204 -66,20 -21,-13 -60,38 -7,9 -42,74 -46,80 -35,67 -64,123 -96,178l-237 362 -49 42c-28,33 -21,28 -38,58l-382 -221 116 -190c55,-55 263,-366 293,-465 32,-58 61,-109 97,-175 36,-67 52,-119 89,-188l114 -244c136,39 294,141 420,205l-26 97z"/>
    <path class="fil20" d="M8347 1907c-42,38 -80,148 -117,202 -43,64 -100,115 -115,202 -42,16 -280,271 -324,314 -51,48 -114,100 -168,146 -99,86 -124,43 -250,1l-78 -51c53,-73 133,-141 197,-215 35,-40 149,-183 171,-238 63,-71 161,-200 189,-304 89,-28 187,-370 262,-467l326 196 -93 214z"/>
    <path class="fil21" d="M9080 1554c-35,26 -107,168 -190,267 -186,221 -467,425 -775,490 15,-87 72,-138 115,-202 37,-54 75,-164 117,-202l6 23c240,-147 326,-219 481,-497l41 -61c56,29 22,23 75,49 75,-56 83,-23 153,-49 17,-65 23,-137 67,-183 -21,131 -75,265 -90,365z"/>
    <path class="fil22" d="M6986 708c12,127 78,471 190,565 -37,69 -53,121 -89,188 -36,66 -65,117 -97,175 -40,-38 -67,-101 -100,-158l-45 -62c4,-42 0,-44 -19,-90 -15,-33 -27,-50 -44,-84 -31,-61 -64,-128 -61,-192l25 -7c27,-167 -91,-171 -68,-333l40 -6c30,-6 19,-4 36,-9 70,-22 86,-13 205,-24 -14,67 -9,-2 27,37z"/>
    <path class="fil23" d="M7852 1964c-28,104 -126,233 -189,304 -201,-67 -249,-158 -376,-218 32,-55 61,-111 96,-178 4,-6 39,-71 46,-80 39,-51 -6,-18 60,-38 69,39 112,86 172,121 59,35 121,63 191,89z"/>
    <path class="fil22" d="M9173 1084l-3 105c-44,46 -50,118 -67,183 -70,26 -78,-7 -153,49 -53,-26 -19,-20 -75,-49l-41 61c17,-51 32,-88 47,-142 15,-55 29,-107 11,-158 48,-114 -39,-236 -42,-315l14 -34c98,22 122,18 191,-17 30,20 24,15 46,57 19,36 25,54 36,89 19,61 20,112 36,171z"/>
    <path class="fil24" d="M6986 708c-36,-39 -41,30 -27,-37 -119,11 -135,2 -205,24 -17,5 -6,3 -36,9l-40 6c-23,162 95,166 68,333l-25 7c-38,-46 -68,-175 -76,-246 -15,-128 -14,-175 53,-289 56,-8 71,-20 116,-28l203 -32c100,-18 79,-4 85,18 -81,62 -94,118 -116,235z"/>
    <path class="fil25" d="M9055 767c-69,35 -93,39 -191,17l-14 34 -173 -208c132,-82 218,-59 316,50 44,48 51,57 62,107z"/>
    <path class="fil26" d="M7102 473c-6,-22 15,-36 -85,-18l-203 32c-45,8 -60,20 -116,28 36,-43 -4,-3 40,-37l128 -74c46,-7 48,-14 87,-24 32,-8 68,-12 100,-18 56,-11 124,-27 195,-23 45,-6 129,-29 160,4 -78,9 -172,43 -230,86 -53,39 -8,24 -76,44z"/>
   </g>
  </g>
 </g>
</svg>
