<?xml version="1.0" encoding="UTF-8"?>
<!DOCTYPE svg PUBLIC "-//W3C//DTD SVG 1.1//EN" "http://www.w3.org/Graphics/SVG/1.1/DTD/svg11.dtd">
<!-- Creator: CorelDRAW X7 -->
<svg xmlns="http://www.w3.org/2000/svg" xml:space="preserve" width="100.439mm" height="73.3688mm" version="1.1" style="shape-rendering:geometricPrecision; text-rendering:geometricPrecision; image-rendering:optimizeQuality; fill-rule:evenodd; clip-rule:evenodd"
viewBox="0 0 2358 1723"
 xmlns:xlink="http://www.w3.org/1999/xlink">
 <defs>
  <style type="text/css">
   <![CDATA[
    .fil12 {fill:#727376}
    .fil15 {fill:#15161A}
    .fil16 {fill:#17181C}
    .fil1 {fill:#191919}
    .fil10 {fill:#292929}
    .fil9 {fill:#3F3F3F}
    .fil5 {fill:#5B6162}
    .fil17 {fill:#68131C}
    .fil19 {fill:#6F111A}
    .fil8 {fill:#777878}
    .fil18 {fill:#931B25}
    .fil6 {fill:#939393}
    .fil20 {fill:#942C32}
    .fil21 {fill:#9A3C42}
    .fil7 {fill:#A0A5A1}
    .fil14 {fill:#A1DAFD}
    .fil22 {fill:#A96F72}
    .fil3 {fill:#B5B5B5}
    .fil4 {fill:#C2C5C4}
    .fil13 {fill:#D66E03}
    .fil0 {fill:#E1E1E1}
    .fil2 {fill:#FAFAFA}
    .fil11 {fill:#FE9200}
   ]]>
  </style>
 </defs>
 <g id="Layer_x0020_1">
  <metadata id="CorelCorpID_0Corel-Layer"/>
  <g id="_941943624">
   <path class="fil0" d="M80 1383l392 26c-36,48 -42,65 -102,88 -13,5 -11,6 -27,6 -11,0 -21,-1 -32,-1 8,5 48,5 59,1 19,-7 33,-10 47,-21 13,-10 26,-18 37,-31 7,-7 25,-32 27,-41 30,0 122,9 157,11 54,4 105,7 159,10 107,8 214,19 324,16l82 -310c-93,7 -189,6 -284,1 -94,-5 -188,-7 -283,-11 -92,-4 -189,-8 -282,-10 -45,-1 -95,-2 -140,-6 -47,-3 -98,0 -143,-5 -1,92 -3,179 -3,272 2,0 4,0 6,1 5,2 3,1 6,4z"/>
   <path class="fil1" d="M1354 1566c-3,3 0,1 -5,4 -1,1 -5,3 -6,3 -4,2 -7,3 -12,5l-10 2c-29,3 -31,-3 -47,-9 -7,-3 -11,-3 -15,-10 -7,-1 -10,-5 -14,-11 -20,-15 -32,-49 -40,-79 -11,-36 -11,-69 -7,-107 3,-35 12,-66 25,-94 9,-19 33,-66 52,-70 4,-7 21,-19 32,-20l8 -5c8,-3 18,-6 26,-1 20,-2 44,10 55,20 15,16 21,24 31,44 37,72 31,182 -5,248 -8,16 -16,34 -28,46 -10,9 -25,32 -40,34zm-126 -490c-1,10 -9,25 -15,33 -77,7 -150,8 -228,4 -23,-2 -150,-7 -169,-5 -16,1 -39,-2 -56,-2 -36,-1 -76,-2 -113,-4 -37,-1 -76,-2 -113,-4 -39,-2 -76,-2 -114,-4 -35,-2 -77,-5 -111,-4 -18,0 -35,-3 -51,-3 -17,-1 -34,-1 -50,-2 -34,-1 -69,0 -103,-3l-30 -1c-2,3 -2,1 -4,7l-3 2c-11,4 -8,0 -16,4 -9,4 -7,-2 -15,6 6,5 19,3 34,6 45,5 96,2 143,5 45,4 95,5 140,6 93,2 190,6 282,10 95,4 189,6 283,11 95,5 191,6 284,-1l-82 310c-110,3 -217,-8 -324,-16 -54,-3 -105,-6 -159,-10 -35,-2 -127,-11 -157,-11 -2,9 -20,34 -27,41 -11,13 -24,21 -37,31 -14,11 -28,14 -47,21 -11,4 -51,4 -59,-1 11,0 21,1 32,1 16,0 14,-1 27,-6 60,-23 66,-40 102,-88l-392 -26c-19,-1 -29,-7 -46,-9l1 -141c0,-8 0,-16 0,-24 0,-2 0,-8 0,-11 -1,-9 1,-3 -2,-8 -6,10 -17,46 -21,58 -7,17 -8,49 -11,69 -3,24 1,78 6,106l27 72c4,9 3,5 8,13l16 22c15,23 20,27 39,41 45,35 32,25 80,41 13,4 16,6 31,9l82 16c9,1 9,-1 19,-2 11,-1 27,1 38,0l59 -21c14,-5 15,-6 26,-14 50,-37 37,-23 72,-65 24,-28 22,-23 41,-60 5,-9 9,-17 14,-26l11 -30 98 7c47,5 98,4 146,10 20,2 143,8 150,11 0,7 2,20 3,29 2,20 8,38 14,57 10,31 1,20 19,51 5,8 9,15 14,23l12 21c12,19 5,7 18,19 31,30 27,30 61,43 9,4 18,8 27,10l121 23c8,0 52,-3 63,-8 11,-4 14,-8 23,-11 18,-8 29,-14 43,-28 28,-27 29,-24 51,-58 31,-46 29,-44 49,-92 18,-44 15,-60 26,-98 3,-11 -1,-9 10,-9l-2 -7 1 -4 1 -9 1 -5c-2,-33 4,-77 3,-112 0,-37 1,-77 1,-115l10 -2 2 90 0 -93c-10,-1 -5,1 -13,-3 -5,-2 -2,-2 -10,-2l-8 1 0 70 -5 -9c-3,-9 -5,-31 -13,-48 -13,-25 -22,-49 -39,-69 -42,-50 -26,-28 -52,-48l-4 -4c-8,-1 -17,-10 -26,-13 -15,-6 -92,-10 -108,-10 2,-10 14,-38 22,-43 -2,1 0,-1 -3,2 -9,9 -37,81 -48,90z"/>
   <path class="fil2" d="M1717 160c7,3 8,2 10,12 2,14 -7,24 -14,33 -19,29 -18,21 -18,48 37,-3 39,-3 42,19 6,1 13,4 17,6l-4 3c-8,3 -9,-2 -14,-1 0,38 5,236 -3,253 -12,6 -24,3 -38,6l0 97 -1 16 56 -1c-6,-9 -22,-3 -31,-4 -1,0 -1,0 -2,0l-2 -1c6,-4 15,-3 24,-3 14,0 13,-1 13,11 54,1 31,17 39,40 18,0 71,-3 84,1l27 1c9,-12 12,-36 17,-49 8,-25 5,-35 7,-62 5,-50 -10,-74 -16,-118l4 12c1,5 2,10 3,14 2,10 4,19 7,28 4,21 8,42 4,65 9,-2 16,-4 25,-6 9,-3 12,-5 24,-7 20,-2 32,-9 47,-14 8,-2 5,0 12,-3l75 -32c1,-56 9,-24 -5,-90l-13 -61c-2,-9 -5,-11 -7,-20 -5,-3 -9,-15 -12,-21l-23 -45c-18,-35 -21,-31 -44,-59l-32 -36c-13,-15 -41,-30 -59,-43 -43,-30 -41,-27 -92,-46 -4,-1 -21,-6 -23,-9 -10,-2 -15,-6 -24,-8 -8,-2 -16,0 -26,-2 -2,9 -5,11 -9,17 -4,7 -4,11 -7,19 -4,7 -7,9 -11,15 -1,2 -1,2 -2,4l-8 11c2,5 3,4 3,5 2,8 -2,-7 0,3 0,0 0,1 0,1 0,0 1,1 0,1z"/>
   <path class="fil1" d="M2175 1235c-27,-17 -23,-194 1,-220 24,22 21,131 15,170 -2,8 -4,19 -6,27 -3,9 -8,15 -10,23zm96 -163c0,-29 6,-57 14,-81 24,20 20,166 0,192 -15,-22 -14,-80 -14,-111zm-96 163c8,-2 5,4 9,-2 16,-33 16,-131 12,-171 -3,-25 -10,-36 -14,-54 17,4 20,33 22,51 7,49 10,141 -21,183 -6,0 -3,-1 -5,-1 0,0 -1,-1 -1,-1 0,0 -1,0 -1,0 -4,-1 -1,0 -1,0l0 -5zm-301 -185c1,-16 3,-32 5,-48 1,-8 2,-15 2,-23 1,-15 0,-19 6,-20l226 4 -7 95 -232 -8zm432 -204l24 -1 -2 29 -20 4c-7,0 -11,1 -18,1l-5 2 -172 21 14 1c-2,19 -13,46 -11,57l-232 -4c2,-12 1,-12 7,-23 6,-2 22,-6 25,-2l-6 -2 -9 -1c-3,2 2,1 -6,3 -4,0 -6,0 -10,-1l-24 0 -1 -36 -36 0 -1 35c-32,4 -98,-7 -127,0l0 164c6,5 16,7 25,16 5,4 7,7 11,10 8,6 8,4 11,12 -16,-1 -31,-3 -45,3 10,1 19,-2 32,-2 33,1 16,1 17,4 11,-3 11,-3 17,0 0,20 -4,8 -14,16 13,1 0,6 10,1 24,-4 19,-13 49,-12l62 3c11,1 15,2 16,14 2,38 0,41 9,86 6,31 5,20 15,47 5,14 6,10 13,20 7,9 7,10 22,10l89 3c19,2 12,-1 23,-8 17,12 -1,11 43,11l53 3c9,1 13,3 21,-4 13,-11 22,-40 26,-57l65 2c17,1 23,3 35,-33 6,-18 27,-101 18,-125 0,-9 2,-14 3,-22l-2 -57c-1,-25 -5,-47 -9,-72l23 2 0 24c0,-9 -2,-21 4,-27 0,-29 -4,-45 -4,-88 0,-21 -2,-19 -2,-28 -14,0 -28,-3 -40,1l14 0z"/>
   <path class="fil2" d="M1059 1062l1 -3c-21,-1 -194,-2 -200,-9 -5,-13 -2,-51 -2,-68 0,-22 -3,-47 4,-64l198 3 -1 -4 -108 -3c4,-4 -1,-1 5,-4 8,-3 35,-1 44,-1 17,0 33,1 50,1l100 0c2,17 4,147 0,155 -4,3 1,1 -8,3l-135 0c-23,-2 -49,-1 -73,-2 -24,-1 -50,-2 -74,-2 -12,-20 -8,-5 -8,-35 0,-13 -2,-107 2,-112 8,-14 19,-10 46,-10 -4,2 -1,1 -7,3 -4,1 0,0 -4,1 -1,0 -9,0 -11,0l64 -1c-5,6 0,3 -8,6 0,0 -6,0 -6,0 -82,4 -72,-32 -72,90 0,26 -4,38 7,50l196 6zm-712 -383l-66 3 521 -5 0 14c1,2 2,3 3,6l-1 36 0 40c5,6 4,12 4,21 0,8 0,12 -2,19l0 40c6,9 3,31 3,44 0,15 0,30 0,45 0,14 3,77 -4,85 0,33 -2,24 -12,47l-517 -16c-3,-2 -2,0 -5,-4 -16,-21 -7,-58 -7,-89 0,-18 0,-36 0,-53l9 -204c2,-23 -1,-40 8,-46 10,-6 6,-11 21,-11l99 -1c127,0 260,-5 388,-4 -6,5 -22,4 -31,4l-94 1c-43,0 -85,0 -128,0 -42,0 -84,3 -127,2 -20,0 -42,-1 -62,1 -36,3 -46,-6 -55,10 82,4 174,-2 257,-2l241 -2c2,0 7,0 8,0 1,0 2,0 5,1l0 15 -456 3zm-38 411c34,-1 76,2 111,4 38,2 75,2 114,4 37,2 76,3 113,4 37,2 77,3 113,4 17,0 40,3 56,2 19,-2 146,3 169,5 78,4 151,3 228,-4 6,-8 14,-23 15,-33 2,-9 3,-21 3,-32 18,-9 13,-35 15,-47 1,-5 1,-1 4,-5 0,0 1,0 1,-1 14,-14 5,-6 10,-20 2,-6 14,-14 8,-30 -2,-6 -9,-10 -15,-12l-8 -3c0,0 -1,0 -1,0 -1,0 -1,-1 -2,-1 -8,-2 -3,-2 -10,0l-22 6c-11,4 -33,12 -42,13 1,-15 14,-18 20,-32 3,-8 -5,-29 -9,-37 -25,0 -52,-2 -77,0 -12,1 -21,4 -36,2 -12,-2 -18,-4 -35,-5 -25,0 -43,-6 -65,-11 -8,-2 -22,-4 -31,-7 -7,-3 -23,-9 -29,-10 0,-10 5,-10 10,-13l38 -29c0,0 1,0 1,-1 8,-6 14,-8 20,-15 8,-9 2,-8 0,-29 -3,-20 -6,-12 -15,-27l-14 -20c0,0 -1,-1 -1,-1 -9,-12 -11,-25 -14,-41 -2,-20 -7,-13 0,-31 2,-6 2,-4 3,-11 -7,1 -33,7 -36,11l0 -17c-12,-5 -12,-7 -23,-7 -29,-1 -53,3 -81,3 -37,1 -73,0 -107,-1 -28,-1 -85,-3 -110,1 -41,8 -35,0 -51,0 -17,-1 -36,0 -53,0l0 2c1,0 1,1 1,1 1,2 5,-2 0,2 -3,2 -6,1 -12,1 -36,4 -28,6 -77,7 -24,0 -35,0 -54,4 -8,1 -17,2 -24,5 -8,3 1,2 -10,4 -3,1 -9,1 -13,1 -18,32 -14,70 -16,115 -2,36 -9,96 -9,124 0,44 -3,32 -5,62 0,8 -1,92 2,99 1,2 11,16 13,19 0,0 1,2 2,2 0,1 0,1 1,1 5,8 -1,4 10,10 2,1 1,0 5,3 14,10 1,1 17,9 4,2 1,0 4,3z"/>
   <path class="fil0" d="M589 610c-6,-1 -14,0 -15,-18l-8 0 -4 10c0,0 0,1 -1,2l-14 -1c2,-6 2,-7 -1,-12 -22,0 -48,-1 -67,1 -10,2 -22,2 -31,3 -32,3 -49,0 -74,9 -10,4 -33,6 -42,8 -5,0 -13,2 -15,2 -15,2 -12,-2 -12,-3 -8,3 -8,5 -15,12 -4,5 -7,8 -12,12 -5,6 -7,9 -11,14 -14,18 -3,79 -12,109 0,18 -3,11 -17,13l20 -1 -2 30 -7 51 -103 7c-104,6 -59,8 -88,21 -3,0 -1,-2 -4,1l0 13c24,6 56,2 81,3 145,6 110,-15 111,91 0,11 4,31 -5,40 1,-26 0,-51 1,-77 2,-47 2,-45 -25,-47l-148 -1 0 2c39,1 97,1 133,4 23,1 29,-5 38,8l-12 7c9,8 4,41 4,55 0,23 4,36 -11,47 -18,0 -112,-2 -122,-5 -14,-7 -10,-37 -9,-53 2,-21 -4,-40 9,-50l-29 1 0 107c20,3 109,1 145,4 2,1 8,1 10,1 5,-1 3,-1 6,-2 0,0 1,0 1,0 1,-1 2,-1 3,-1l0 -68c3,4 1,0 3,6l1 15c0,7 0,13 0,19 0,6 1,17 0,22 -2,13 -2,2 -5,14l-166 -5 0 3 130 4c8,0 16,1 22,1 23,1 18,-3 18,8 8,-4 10,1 12,11 -30,1 -41,11 -67,14 -26,4 -31,9 -56,8 -9,-1 -15,-1 -22,3 34,3 69,2 103,3 16,1 33,1 50,2 16,0 33,3 51,3 -3,-3 0,-1 -4,-3 -16,-8 -3,1 -17,-9 -4,-3 -3,-2 -5,-3 -11,-6 -5,-2 -10,-10 -1,0 -1,0 -1,-1 -1,0 -2,-2 -2,-2 -2,-3 -12,-17 -13,-19 -3,-7 -2,-91 -2,-99 2,-30 5,-18 5,-62 0,-28 7,-88 9,-124 2,-45 -2,-83 16,-115 4,0 10,0 13,-1 11,-2 2,-1 10,-4 7,-3 16,-4 24,-5 19,-4 30,-4 54,-4 49,-1 41,-3 77,-7 6,0 9,1 12,-1 5,-4 1,0 0,-2 0,0 0,-1 -1,-1l0 -2c17,0 36,-1 53,0 16,0 10,8 51,0 25,-4 82,-2 110,-1 34,1 70,2 107,1 28,0 52,-4 81,-3 11,0 11,2 23,7l0 17c3,-4 29,-10 36,-11 -1,7 -1,5 -3,11 -7,18 -2,11 0,31 3,16 5,29 14,41 0,0 1,1 1,1l14 20c9,15 12,7 15,27 2,21 8,20 0,29 -6,7 -12,9 -20,15 0,1 -1,1 -1,1l-38 29c-5,3 -10,3 -10,13 6,1 22,7 29,10 9,3 23,5 31,7 22,5 40,11 65,11 17,1 23,3 35,5 15,2 24,-1 36,-2 25,-2 52,0 77,0 4,8 12,29 9,37 -6,14 -19,17 -20,32 9,-1 31,-9 42,-13l22 -6c7,-2 2,-2 10,0 1,0 1,1 2,1 0,0 1,0 1,0l8 3c6,2 13,6 15,12 6,16 -6,24 -8,30 -5,14 4,6 -10,20 0,1 -1,1 -1,1 -3,4 -3,0 -4,5 -2,12 3,38 -15,47 0,11 -1,23 -3,32 11,-9 39,-81 48,-90 3,-3 1,-1 3,-2 6,-2 2,1 8,-4 1,-2 3,-4 5,-7l75 33c18,5 18,8 28,10 0,8 4,31 -4,34l4 4c26,20 10,-2 52,48 17,20 26,44 39,69 8,17 10,39 13,48l5 9 0 -70 8 -1c3,-5 1,2 2,-5 0,-1 -1,-7 -1,-8l-11 -99c4,4 3,1 5,7 0,0 2,7 2,7l4 47c4,47 -1,48 20,49 -7,-36 -6,-78 -13,-113 -8,-37 -14,-62 -32,-92l0 24c-12,-6 -2,4 -10,-10 -3,-5 -9,-18 -17,-18l-148 11c3,-8 -11,-7 6,-7 0,-1 0,0 -3,-2 -16,-11 -1,-13 -18,-15l-1 -14c-6,-1 -10,-2 -14,-5l-8 -8c-4,-14 -1,-32 -1,-48 0,-19 -4,-24 -17,-30 -4,-1 -14,-7 -16,-7l-69 0c-34,0 -34,-4 -65,-7l-91 -21 28 -19c1,-1 1,-1 2,-1 0,0 1,-1 1,-1 28,-21 -1,-3 34,-18 4,-1 18,-4 22,-5 27,-8 33,-11 65,-12l-10 0c0,-19 0,-35 -2,-50 -2,-25 0,-63 -5,-71 -14,-21 -36,-7 -36,-42 -9,0 -11,0 -17,-4 -7,-4 -1,-1 -6,-4 -29,-21 -71,2 -105,4 -1,4 0,-3 1,1 0,1 0,1 -1,3 -13,0 -13,0 -23,4 -9,3 -16,2 -24,4 -13,3 -6,5 -21,6 -43,3 -70,12 -124,12 -36,0 -132,-3 -163,0 -16,1 -29,7 -43,10z"/>
   <path class="fil3" d="M1601 868c6,-5 15,-4 23,-3 5,8 4,16 4,25 -1,11 1,19 -3,28 -13,4 -27,7 -28,-13 0,-11 -2,-28 4,-37zm119 -352c-11,-2 -7,-4 -16,-6 -10,-2 -6,2 -15,-4 -4,-2 1,0 -4,-2 -13,-5 -17,4 -25,-8 -10,-17 -7,-47 -7,-72 0,-26 0,-54 1,-78 3,-44 -4,-44 20,-52 9,-3 8,0 19,-4 14,-6 8,-5 16,-10 25,-19 17,30 14,42 0,3 0,4 -1,7 0,13 0,27 0,39 1,48 4,72 5,116 0,20 2,19 -7,32zm-121 -62c-6,-7 -93,-158 -100,-174 12,1 42,10 54,14 29,9 31,5 35,16 4,10 11,129 11,144zm-119 -180c21,7 15,5 26,23 29,51 60,109 89,157 6,10 5,7 6,19 0,8 1,15 2,23 0,15 4,33 1,47 -31,3 -93,-18 -101,-6 15,3 -1,-2 5,3l2 2c0,0 1,0 1,0 0,1 7,4 9,6 22,14 -9,12 15,11 0,0 4,13 -9,4l12 0c-9,4 -10,7 -11,13 1,0 2,-2 3,-1l9 -1c7,-2 3,-2 8,-1 5,0 11,5 12,11 -6,5 -8,5 -19,5 -17,-1 -49,2 -57,-1 14,2 3,0 6,-3 -7,0 -27,1 -32,-3 -5,5 -3,10 -5,7 0,0 0,1 0,2 1,-9 0,-23 -2,-29l0 27c-3,-7 -2,-20 -2,-29 -7,-8 -6,-26 -4,-38 -9,-2 -4,-1 -9,-6 -4,-4 -2,-3 -7,-7 3,-6 5,-5 3,-10l-22 6c-3,0 -4,0 -8,-1 -45,-6 -55,-2 -94,-7 -40,-4 -91,1 -131,-2 -30,-2 -263,-1 -266,-2l-67 5c2,5 52,-1 54,-2 8,0 11,2 20,1 42,-5 37,0 81,-1l323 7c10,0 9,-1 19,0 25,2 55,-6 69,12 12,15 11,19 11,55l36 42c0,1 1,1 1,1 9,12 5,15 6,40 0,42 4,79 4,124 0,12 1,2 -4,6 3,8 4,9 12,13l-4 -167c-4,-28 -9,-8 -19,-38 10,3 4,-1 11,6 5,5 16,21 17,28l4 167c-1,28 14,36 27,84 4,18 11,92 15,99l115 -14c9,-18 1,-221 -1,-269 0,-13 0,-44 -2,-56 -1,-8 2,0 -7,-11 -20,-25 -19,-11 -21,-74l-14 4c6,-9 6,-6 20,-10 7,-2 16,-4 22,-6 0,-1 0,-1 0,-1l2 -6c2,-10 1,-2 -3,-11 -4,-8 -10,-138 -11,-157 -1,-21 -4,-47 -4,-67 2,3 7,4 5,15l-2 -23c8,6 7,2 7,21l9 161c3,22 5,125 9,136 4,12 22,24 22,27l8 358 -35 6 -1 68c-5,11 -13,-4 -13,21 19,6 40,17 61,15 1,-77 0,-156 0,-233l0 -206c0,-6 -2,-22 3,-27l0 -97c14,-3 26,0 38,-6 8,-17 3,-215 3,-253 5,-1 6,4 14,1l4 -3c-4,-2 -11,-5 -17,-6 -3,-22 -5,-22 -42,-19 0,-27 -1,-19 18,-48 7,-9 16,-19 14,-33 -2,-10 -3,-9 -10,-12l0 8c0,0 0,1 0,2 0,3 0,2 -1,4l-14 18c-24,26 -19,25 -19,60 -12,3 -28,4 -39,-2l1 -47c0,0 51,-46 56,-47 13,-3 4,4 12,-4 -8,-5 -15,-9 -28,-9 -6,2 -59,61 -60,63 -3,9 0,24 -2,36l0 -5c-2,-11 -5,-15 -10,-23 -10,-16 -1,-9 -27,-15 -7,0 -9,-1 -15,-2 -6,-1 -9,-2 -15,-3 -5,0 -9,-1 -15,-2 -2,0 -3,-1 -8,-1l-6 -1c2,-9 6,-15 10,-24l9 -20c3,-6 5,-5 7,-10 3,-8 2,-16 12,-33 -21,14 -39,22 -60,32 -24,13 -30,18 -34,35 -3,15 -13,16 -6,12 3,6 9,8 9,15 -1,10 -11,8 -11,8 -20,2 -18,2 -24,-4 10,-5 5,-5 15,-8 0,-14 -8,-12 -8,-18 -1,8 -3,23 -10,28 -8,5 -3,2 -5,0l37 8c10,5 -5,-7 3,3 9,10 3,17 2,31 5,-6 24,0 31,2 16,4 22,4 27,14 -10,0 -24,1 -32,-1l-20 -7c0,-1 -1,0 -1,-1 -4,7 -7,8 -7,18 17,0 3,-1 9,4z"/>
   <path class="fil1" d="M962 272c7,3 14,5 24,4l9 -3c3,-1 8,2 24,0 13,-2 27,-1 42,-1 1,-2 -1,-5 12,-4l-45 218c110,3 217,1 325,8 72,4 77,14 81,-32 5,-55 15,-145 16,-192 0,0 1,-1 1,-1l5 -3c0,-1 1,-1 2,-2 -12,2 -43,-6 -60,-7 -22,-1 -42,-1 -64,0 -41,3 -83,3 -124,4 -41,1 -86,4 -126,4 -8,0 -113,1 -122,7z"/>
   <path class="fil4" d="M1273 645c12,-3 92,2 111,4l0 48 -112 -4 1 -48zm-684 -35c14,-3 27,-9 43,-10 31,-3 127,0 163,0 54,0 81,-9 124,-12 15,-1 8,-3 21,-6 8,-2 15,-1 24,-4 10,-4 10,-4 23,-4 1,-2 1,-2 1,-3 -1,-4 -2,3 -1,-1 34,-2 76,-25 105,-4 5,3 -1,0 6,4 6,4 8,4 17,4 0,35 22,21 36,42 5,8 3,46 5,71 2,15 2,31 2,50l10 0c-32,1 -38,4 -65,12 -4,1 -18,4 -22,5 -35,15 -6,-3 -34,18 0,0 -1,1 -1,1 -1,0 -1,0 -2,1l-28 19 91 21c31,3 31,7 65,7l69 0c2,0 12,6 16,7 13,6 17,11 17,30 0,16 -3,34 1,48l8 8c4,3 8,4 14,5l1 14c17,2 2,4 18,15 3,2 3,1 3,2 11,-4 66,-5 83,-6 24,-2 56,-7 79,-7 -3,-5 -13,-2 -20,-3 -20,-4 14,-8 -65,-9 -18,0 -27,-4 -41,-8 -24,-7 -9,-6 -32,-17 5,-12 27,-35 37,-42l57 -53c-13,0 -13,1 -23,-2 -23,-6 -142,-4 -167,-3 -40,0 -100,-4 -135,-14 -21,-6 -34,-1 -41,-5l13 -7c7,-6 11,-4 26,-8l43 -13c12,-3 7,1 22,-5l107 -16c1,-6 6,-10 10,-16 3,-6 4,-10 7,-16 15,8 80,7 100,7 0,4 2,9 3,13l10 24c2,5 1,10 2,16 7,0 23,-1 28,3l6 1 -4 -139c0,-16 -6,-20 -9,-28l-2 -10c-5,-4 -3,9 -4,-11 0,-2 0,-8 0,-11 0,-7 -1,-12 -2,-19 -3,-42 -17,-27 -86,-34 -78,-7 -155,11 -214,13 -3,12 8,-10 5,3 -80,2 -56,8 -82,9 -7,0 -17,1 -25,3l-26 4c-7,0 -15,3 -25,5l-50 7 -7 12c-12,1 -12,-1 -20,4 -16,9 -28,5 -55,9 -49,6 -116,-7 -169,7 -16,4 -55,10 -64,22z"/>
   <path class="fil1" d="M962 272c-10,-2 -202,12 -221,15l-4 4 5 4 19 4 -9 -7c-2,-1 -6,-2 -8,-2l47 -4c-1,10 -4,28 -10,34 -1,15 -20,71 -25,90 -8,30 -17,63 -26,91 0,9 0,6 11,6l44 -3c20,-1 39,-5 58,-6l67 -5 107 -8 44 -213c-15,0 -29,-1 -42,1 -16,2 -21,-1 -24,0l-9 3c-10,1 -17,-1 -24,-4z"/>
   <path class="fil3" d="M2056 235c23,11 3,21 36,-4l23 -20c0,0 0,-1 0,-2 0,0 0,-1 1,-1l1 -4c0,-1 0,-2 1,-3l2 -4c7,16 35,100 -9,100 -8,1 -19,-4 -24,-9 -7,-10 -2,-1 -6,-12 6,3 7,1 15,7 6,4 0,4 12,6l-3 0c-10,-2 -10,-6 -13,-9 -3,-3 -3,-2 -7,-6 -9,-9 -2,-2 -5,-8l-16 -22c-8,-6 -4,2 -8,-9zm-287 -156c9,0 10,0 17,3 3,1 8,3 8,3 9,5 6,-1 7,9 2,3 19,8 23,9 51,19 49,16 92,46 18,13 46,28 59,43l32 36c23,28 26,24 44,59l23 45c3,6 7,18 12,21 3,0 7,-4 12,10l10 48c3,11 4,19 7,32 1,7 2,9 3,16 1,4 3,13 4,18 13,-12 12,-8 18,-16 6,-7 4,-4 9,-7 8,-6 4,-5 9,-10l38 -31c-2,-27 -20,-78 -16,-98 0,-1 0,-2 1,-2 0,0 0,-1 0,-2 2,-11 -4,-19 -9,-33 -13,-34 5,-9 -26,-71l-50 -70 -27 -22c-12,-10 -10,-10 -26,-21l-11 -8c0,0 -1,0 -1,0 -1,0 -2,0 -2,0 0,-1 -1,-1 -1,0 -16,-2 -17,-7 -30,-17l-5 -7c-1,0 -1,-1 -1,-2 0,-1 -1,-1 -1,-2 0,-7 3,2 -1,-3 -1,-1 -5,-4 -5,-4 -3,-3 -6,-5 -9,-5 -6,3 3,1 -6,2 -6,0 -81,-30 -82,-30 -6,-5 -1,2 -4,-5 -7,2 -4,0 -9,0 -3,0 -7,0 -10,0 -8,-1 -15,-1 -23,-1l-73 56c-6,5 -3,6 -10,9l8 1c0,0 1,1 2,1z"/>
   <path class="fil5" d="M1587 1382c3,-3 5,-4 8,-6 3,-3 3,-4 8,-7 14,-10 11,-2 38,-26 7,-6 10,-14 22,-8 -11,13 -35,34 -52,40 -8,3 -16,6 -24,7zm47 -54l-1 -14 49 2 0 15 -48 -3zm-11 -153l37 1 5 10c3,4 0,1 4,4 -2,-9 -4,-7 -5,-18 13,-1 11,-3 16,7 2,5 4,11 6,15 9,41 9,52 2,92 -2,8 1,4 -4,7 -2,1 -8,3 -12,4 4,-13 10,-42 10,-55l-7 -41c0,-2 0,-4 -2,-7 -2,-5 -1,-3 -5,-6 6,19 12,48 9,69 -1,7 -4,30 -6,34 -5,9 -18,9 -29,12 1,-11 4,-23 6,-34 2,-13 -1,-25 -3,-37 -3,-15 -8,-44 -20,-56 -5,-6 2,-1 -2,-1zm-7 -7l-1 -11c12,0 37,0 47,3l0 10 -46 -2zm135 -502c27,2 20,-2 20,27l-20 0 0 -27zm-114 -124c3,14 3,39 3,53 1,21 16,24 21,37 -15,-2 -15,-2 -23,-9 -6,-6 -3,-4 -7,-10 -4,-5 -5,-4 -7,-7 -4,-6 -7,-45 -7,-57l20 -7zm-111 433c5,3 24,0 29,-1l56 -6c41,-6 22,-5 28,1 -8,5 -93,12 -105,15 -18,3 -8,2 -8,3 13,0 99,-10 110,-13 23,-7 17,-71 17,-105 -1,-73 -7,-161 -7,-234l20 2 7 352c-4,5 -5,4 -14,5 -7,1 -10,1 -16,4 -2,19 4,54 -3,69 -14,3 -52,7 -62,12l-36 6c-9,7 4,-8 -4,6 50,0 18,-10 72,13 18,7 13,3 27,17 4,4 6,6 11,10 8,6 7,7 7,10l0 4c-13,3 -16,0 -28,-12 -16,-17 -15,-12 -38,-24 0,0 -1,-1 -1,-1 -16,-8 -30,-6 -50,-6l0 14 8 3c3,3 27,13 44,38l21 -1c1,13 1,5 -11,10 13,36 18,19 27,71 3,18 5,22 2,40 -1,7 -3,14 -4,21 -1,6 -2,6 0,11 0,1 0,1 1,2 2,5 3,3 4,7 0,1 -1,0 -1,1l-7 3c-12,6 -16,37 -37,52l-28 22c-6,3 -33,11 -40,12l-1 4c21,-3 57,-21 71,-26 22,-7 43,-11 58,-24l20 -17c11,-7 32,-9 51,-20 21,-13 46,-17 68,-28l0 -19c-12,0 -19,2 -24,-5 -13,-8 5,2 -10,2 -7,1 -8,-2 -18,-1 -9,1 -18,7 -30,8 3,-3 8,-38 5,-57 -3,-21 -5,-41 -15,-55 12,-6 47,-11 54,-15 3,-2 3,-2 4,-3 10,-8 14,4 14,-16 -6,-3 -6,-3 -17,0 -1,-3 16,-3 -17,-4 -13,0 -22,3 -32,2 14,-6 29,-4 45,-3 -3,-8 -3,-6 -11,-12 -4,-3 -6,-6 -11,-10 -9,-9 -19,-11 -25,-16l0 -164c-4,-10 -2,-31 -2,-45 21,-3 153,1 189,1 4,10 4,34 2,45 4,1 6,1 10,1 8,-2 3,-1 6,-3l-12 0 1 -42 395 -37 0 32 5 -2 1 -29c1,-1 6,-1 7,-1l8 -3 -14 0c12,-4 26,-1 40,-1 -5,-6 1,-2 -7,-4 -1,0 -9,0 -10,0l-146 0 0 -11c-6,3 -2,6 -10,9 0,0 -14,1 -15,1 -13,1 -26,-1 -38,1 -5,4 -15,1 -22,1 0,-7 1,-4 3,-11 -9,7 0,11 -19,11l2 -11c0,0 -3,6 -8,9l-53 0c10,7 52,3 56,1 -5,4 -14,1 -22,2 -21,3 -4,7 -65,7 2,0 5,0 7,-1 8,-3 3,1 9,-5 -29,-2 -54,1 -80,1 -12,0 -23,2 -36,4l-49 0c-26,-1 -38,1 -62,3 -13,1 -62,4 -71,3 3,-1 23,1 30,1 33,0 30,4 29,-9 -40,0 -21,-4 -53,-4l3 -105c-3,19 -1,39 -1,58 0,49 -4,45 9,47 5,-5 5,8 4,-10 -3,-13 -9,-27 -10,-41 -2,-15 -1,-35 -1,-51l11 0 4 2 0 99c9,-1 3,2 6,-5 0,-1 1,-7 1,-9l-1 -47c0,-25 5,-39 -9,-42 -15,-3 -9,5 -13,-1 0,-1 -1,0 -2,0l-9 0 0 -82c13,-1 36,-4 39,8 0,2 1,23 0,25 -3,15 -8,-6 -8,13l119 0c40,0 15,-2 31,-7 -13,-4 -66,-1 -84,-1 -8,-23 15,-39 -39,-40 0,-12 1,-11 -13,-11 -9,0 -18,-1 -24,3l2 1c1,0 1,0 2,0 9,1 25,-5 31,4l-56 1 1 -16c-5,5 -3,21 -3,27l0 206c0,77 1,156 0,233 -21,2 -42,-9 -61,-15 0,-25 8,-10 13,-21l1 -68 35 -6 -8 -358c0,-3 -18,-15 -22,-27 -4,-11 -6,-114 -9,-136l-9 -161c0,-19 1,-15 -7,-21l2 23c2,-11 -3,-12 -5,-15 0,20 3,46 4,67 1,19 7,149 11,157 4,9 5,1 3,11l-2 6c0,0 0,0 0,1 -6,2 -15,4 -22,6 -14,4 -14,1 -20,10l14 -4c2,63 1,49 21,74 9,11 6,3 7,11 2,12 2,43 2,56 2,48 10,251 1,269l-115 14z"/>
   <path class="fil6" d="M681 510l-38 2 -48 5c-59,6 -111,9 -167,25 -50,14 -61,21 -99,47 -9,6 -17,19 -24,22 0,1 -3,5 12,3 2,0 10,-2 15,-2 9,-2 32,-4 42,-8 25,-9 42,-6 74,-9 9,-1 21,-1 31,-3 19,-2 45,-1 67,-1 3,5 3,6 1,12l14 1c1,-1 1,-2 1,-2l4 -10 8 0c1,18 9,17 15,18 9,-12 48,-18 64,-22 53,-14 120,-1 169,-7 27,-4 39,0 55,-9 8,-5 8,-3 20,-4l7 -12 50 -7c10,-2 18,-5 25,-5l26 -4c8,-2 18,-3 25,-3 26,-1 2,-7 82,-9 3,-13 -8,9 -5,-3 59,-2 136,-20 214,-13 69,7 83,-8 86,34 1,7 2,12 2,19 0,3 0,9 0,11 1,20 -1,7 4,11 4,-10 3,-16 3,-26l-3 0c0,2 0,12 0,13 2,16 -1,6 7,12l0 -16c0,-36 1,-40 -11,-55 -14,-18 -44,-10 -69,-12 -10,-1 -9,0 -19,0l-323 -7c-44,1 -39,-4 -81,1 -9,1 -12,-1 -20,-1 -2,1 -52,7 -54,2 -19,1 -38,5 -58,6l-44 3c-11,0 -11,3 -11,-6 -8,8 -20,8 -33,8 -2,-34 1,-67 1,-100 0,-17 0,-35 0,-52 0,-19 3,-30 -8,-41 -9,7 -2,0 -3,5 -1,6 3,1 4,13l-1 75c0,33 0,67 0,100l-9 1z"/>
   <path class="fil4" d="M275 988c45,-1 90,3 134,3 65,0 379,13 397,8l0 21c-27,-7 -100,-2 -133,-5 -44,-2 -93,-3 -137,-3l-199 -6c-12,0 -23,0 -35,-1 -33,-1 -25,4 -32,5 2,-18 12,-1 5,-22zm8 -26c-6,-2 -2,0 -6,-3l0 -9c4,-3 1,-2 8,-4l127 2c42,3 90,2 132,3 42,0 241,7 262,4l0 41 -530 -13 1 -17 261 3c-43,-2 -88,-1 -131,-3l-99 -3c-8,0 -18,1 -25,-1zm-6 -26c4,-10 -1,-10 -6,-15 18,3 49,2 68,2l201 4c13,1 252,5 266,3l0 23c-21,-5 -225,-4 -266,-6 -44,-2 -89,-3 -133,-3 -43,1 -92,-4 -134,-2l4 -6zm462 -27c21,0 47,3 67,-1l0 20c-29,-3 -231,-5 -272,-5 -80,0 -161,-5 -236,-4 -5,0 -14,1 -16,-1 -6,-3 -3,-1 -5,-16 151,2 312,7 462,7zm-466 -31c1,0 1,-1 2,-1l2 -3c0,-1 1,-1 1,-2 0,-1 1,-6 1,-6 -1,-10 -6,4 -2,-6 67,-3 512,9 529,4l0 43c-36,-7 -94,0 -133,-3 -43,-3 -88,1 -131,-2 -69,-5 -202,1 -261,-4 0,-1 -1,-2 -1,-2 0,-1 0,-1 0,-2 -3,-8 0,-5 -5,-11l-2 -5zm531 -64l-527 -3c6,-4 6,1 6,-8 0,-13 -4,-2 -5,-8 -1,-1 -1,-1 -2,-1 61,-1 515,4 528,0l0 20zm-2 -112l0 19 -521 2c8,-5 8,-3 5,-18l516 -3zm-526 356c2,-2 2,-5 11,-6l446 14c12,0 22,0 34,1 12,1 23,2 31,-4 -3,-11 12,-8 -27,-9l-362 -10c-41,-1 -92,-6 -132,-3 0,0 0,-1 0,-1 0,0 -1,-1 -1,-1l-3 -7c0,-1 0,-2 -1,-2 0,-1 -1,-1 -1,-2 18,4 107,4 134,5 81,5 185,4 266,8l126 4c7,-1 2,1 6,-3 -8,-3 -478,-16 -528,-16l1 -17 525 14c7,1 3,-2 4,4 7,-8 4,-71 4,-85 0,-15 0,-30 0,-45 0,-13 3,-35 -3,-44 -1,15 3,6 -5,8l-523 -8c3,-4 3,-12 5,-16 87,-2 176,2 264,2 40,0 88,-1 128,2 31,2 68,-1 98,0 8,0 19,3 26,1 7,-3 -1,3 4,-3 -9,-3 -504,-5 -522,-5l0 -19 521 4 2 -5 2 -1c2,-7 2,-11 2,-19 0,-9 1,-15 -4,-21l0 17 -7 1c-2,0 -6,0 -9,0 -5,-1 -11,-1 -17,-1l-229 0c-87,-2 -177,2 -264,-1l6 -5c0,-2 0,-7 1,-9 -7,-4 8,4 -4,-2l519 -1c0,-7 1,-5 -9,-5l-50 0c-147,0 -315,3 -457,0l2 -17 515 -1 -518 -6c4,-3 5,0 3,-16l511 -2c8,1 5,12 7,7 0,-1 0,1 0,1l1 -36c-1,-3 -2,-4 -3,-6 -2,11 6,8 -13,8 -166,-2 -335,3 -501,2l1 -15c-17,0 -4,1 -8,-4l66 -3 -65 0c5,-3 7,-4 7,-9 -15,-4 -7,3 -8,-8 -9,6 -6,23 -8,46l-9 204c0,17 0,35 0,53 0,31 -9,68 7,89 3,4 2,2 5,4z"/>
   <path class="fil3" d="M1319 950c-17,0 -3,-1 -6,7l148 -11c8,0 14,13 17,18 8,14 -2,4 10,10l0 -24c11,1 4,-4 10,3 -2,-10 -6,-11 -11,-29 -3,-17 -4,-17 -17,-24l8 -45c4,-7 5,-20 5,-29 0,-15 0,-15 -8,-23 -5,-5 -11,-9 -15,-13 -15,-17 3,-8 -29,-16 -8,-1 -4,-1 -11,-4 -5,-1 -20,-3 -26,-4 2,-7 -6,-4 28,-3 -5,-4 -21,-3 -28,-3 -1,-6 0,-11 -2,-16l-10 -24c-1,-4 -3,-9 -3,-13 -20,0 -85,1 -100,-7 -3,6 -4,10 -7,16 -4,6 -9,10 -10,16l-107 16c-15,6 -10,2 -22,5l-43 13c-15,4 -19,2 -26,8l-13 7c7,4 20,-1 41,5 35,10 95,14 135,14 25,-1 144,-3 167,3 10,3 10,2 23,2l-57 53c-10,7 -32,30 -37,42 23,11 8,10 32,17 14,4 23,8 41,8 79,1 45,5 65,9 7,1 17,-2 20,3 -23,0 -55,5 -79,7 -17,1 -72,2 -83,6z"/>
   <path class="fil6" d="M877 199c10,17 -1,35 -16,28 -12,-7 -10,-33 16,-28zm158 -26c13,19 -4,37 -17,28 -11,-7 -10,-34 17,-28zm69 -7c21,-10 27,23 10,30 -19,7 -26,-23 -10,-30zm358 -18c4,15 6,19 -2,32l-3 -3c0,-1 -1,-1 -1,-1 -6,-5 -8,-6 -12,-13 1,-1 1,-2 1,-2 1,0 1,-1 2,-1l9 -14 6 2zm-89 7l34 8 2 10c2,-5 4,-7 10,-8l12 1c8,5 9,17 4,25 -4,9 -32,24 -30,-18 -1,1 -1,2 -2,2l-3 4c-4,4 -2,8 -16,6l-9 -2 -2 -28zm-421 -41c42,-14 59,55 15,67 -43,11 -57,-53 -15,-67zm369 -25c22,-8 39,10 42,27 1,10 -1,23 -7,30 -13,17 -42,24 -58,-1 -10,-17 -4,-45 23,-56zm141 59c-1,-7 6,-3 -6,-7 -14,-5 -23,6 -26,9 -8,-5 -24,-11 -34,-15 -24,-11 -25,-8 -29,-21 -2,-11 -1,-11 -7,-18 -14,-16 -27,-21 -50,-9 -7,4 -7,6 -13,13 -26,34 11,91 52,63 11,-8 2,-7 15,-12l-3 31 -14 3c-4,0 -9,0 -13,0 -9,0 -18,0 -27,0 -67,3 -36,2 -82,-22 -22,-12 -17,-14 -43,-7 11,10 15,-1 24,4 7,9 10,27 -3,34 -21,11 -23,-12 -23,-27 -5,4 -9,8 -6,19 4,11 0,2 2,2l-21 -14c-17,-10 -36,-22 -52,-17 -23,8 -13,5 -24,14l-82 -30c-3,-12 -9,-35 -34,-36 -40,-3 -55,64 -21,82 21,11 37,-1 47,-16 8,1 13,2 18,4 -6,11 1,26 -2,29 -7,5 -39,7 -51,8 -41,6 -22,10 -66,-17 -17,-11 -34,-6 -39,11 -5,16 2,16 2,23 -21,2 -37,6 -56,9 6,9 -2,4 10,5 1,0 8,-1 9,-2l60 -7c8,-2 8,-2 17,-3 5,-1 15,-3 18,-4 15,-2 27,-1 42,-3 26,-4 54,-6 78,-9 66,-9 263,-5 346,-5l62 3c0,0 1,0 1,0 0,1 1,1 1,1 22,10 10,-4 26,49 -4,2 0,3 -7,1 -1,1 -2,1 -2,2l-5 3c0,0 -1,1 -1,1 6,13 -5,10 11,19 0,38 -6,78 -9,117 -2,19 -11,103 -8,116 -2,12 -3,30 4,38 4,-10 0,-22 1,-36l9 -107c2,-24 4,-47 7,-70 2,-25 1,-49 4,-73l11 0c-6,-5 8,-4 -9,-4 0,-10 3,-11 7,-18 0,1 1,0 1,1l20 7c8,2 22,1 32,1 -5,-10 -11,-10 -27,-14 -7,-2 -26,-8 -31,-2 1,-14 7,-21 -2,-31 -8,-10 7,2 -3,-3l-37 -8c2,2 -3,5 5,0 7,-5 9,-20 10,-28 0,6 8,4 8,18 -10,3 -5,3 -15,8 6,6 4,6 24,4 0,0 10,2 11,-8 0,-7 -6,-9 -9,-15 -7,4 3,3 6,-12 4,-17 10,-22 34,-35 21,-10 39,-18 60,-32 6,-2 8,-4 15,-5 7,-2 12,-3 18,-4 12,-3 24,-5 37,-8 17,-3 34,-9 52,-7 22,3 42,4 64,5 10,2 18,0 26,2 9,2 14,6 24,8 -1,-10 2,-4 -7,-9 0,0 -5,-2 -8,-3 -7,-3 -8,-3 -17,-3l-73 -6c-17,1 -11,5 -21,-5l14 -9c14,-9 7,-10 13,-6 -2,0 -3,0 -6,-1 -6,-3 0,1 -5,-3 9,-1 18,-2 22,-5l30 -21c3,-2 4,-3 7,-5l8 -6c16,-9 84,0 84,0 8,0 15,0 23,1 3,0 7,0 10,0 5,0 2,2 9,0 -2,-7 7,-2 -6,-6l-92 -7c-13,-1 -76,15 -92,19 -13,2 -13,4 -25,11 -9,5 -14,8 -22,12 -13,8 -33,17 -46,27l-89 54c-16,10 -30,16 -41,31 -11,-8 2,-4 -9,-6z"/>
   <path class="fil7" d="M795 238c-6,4 -10,7 -15,10 -5,7 -4,3 -11,9l-28 30c19,-3 211,-17 221,-15 9,-6 114,-7 122,-7 40,0 85,-3 126,-4 41,-1 83,-1 124,-4 22,-1 42,-1 64,0 17,1 48,9 60,7 7,2 3,1 7,-1 -16,-53 -4,-39 -26,-49 0,0 -1,0 -1,-1 0,0 -1,0 -1,0l-62 -3c-83,0 -280,-4 -346,5 -24,3 -52,5 -78,9 -15,2 -27,1 -42,3 -3,1 -13,3 -18,4 -9,1 -9,1 -17,3l-60 7c-1,1 -8,2 -9,2 -12,-1 -4,4 -10,-5z"/>
   <path class="fil1" d="M1448 560c0,9 -1,22 2,29l0 -27c2,6 3,20 2,29 0,-1 0,-2 0,-2 2,3 0,-2 5,-7 5,4 25,3 32,3 0,-13 3,-42 14,-48 8,-12 70,9 101,6 3,-14 -1,-32 -1,-47 -1,-8 -2,-15 -2,-23 -1,-12 0,-9 -6,-19 -29,-48 -60,-106 -89,-157 -11,-18 -5,-16 -26,-23l-11 0c-3,24 -2,48 -4,73 -3,23 -5,46 -7,70l-9 107c-1,14 3,26 -1,36z"/>
   <path class="fil1" d="M804 773l0 -40c0,0 0,-2 0,-1 -2,5 1,-6 -7,-7l-511 2c2,16 1,13 -3,16l518 6 -515 1 -2 17c142,3 310,0 457,0l50 0c10,0 9,-2 9,5l-519 1c12,6 -3,-2 4,2 -1,2 -1,7 -1,9l-6 5c87,3 177,-1 264,1l229 0c6,0 12,0 17,1 3,0 7,0 9,0l7 -1 0 -17z"/>
   <path class="fil2" d="M1245 1550c14,1 15,6 27,6l21 -33c7,-10 16,-21 22,-30l-21 -14c-4,0 -2,1 -6,-3 -2,-2 -4,-5 -4,-5 -3,-5 -5,-8 -8,-12 -29,-54 -18,-149 26,-190 1,0 2,-1 3,-2 3,-3 4,-5 8,-7 -5,-5 -5,-4 -7,-13 0,-6 -12,-22 -15,-33l-2 -1 -3 -3c-4,-5 -6,-8 -11,-10 -19,4 -43,51 -52,70 -13,28 -22,59 -25,94 -4,38 -4,71 7,107 8,30 20,64 40,79z"/>
   <path class="fil0" d="M1928 586c-1,24 1,37 -7,59 -4,14 -12,36 -16,50l52 3c6,4 4,-6 4,3 13,-3 37,-8 52,-8 20,-1 39,1 53,-6 9,-6 12,-21 17,-34 20,-54 30,-73 28,-129l-75 32c-7,3 -4,1 -12,3 -15,5 -27,12 -47,14 -12,2 -15,4 -24,7 -9,2 -16,4 -25,6z"/>
   <path class="fil8" d="M1422 763c-34,-1 -26,-4 -28,3 6,1 21,3 26,4 7,3 3,3 11,4 32,8 14,-1 29,16 4,4 10,8 15,13 8,8 8,8 8,23 0,9 -1,22 -5,29l-8 45c13,7 14,7 17,24 5,18 9,19 11,29 -6,-7 1,-2 -10,-3 18,30 24,55 32,92 7,35 6,77 13,113 -21,-1 -16,-2 -20,-49l-4 -47c0,0 -2,-7 -2,-7 -2,-6 -1,-3 -5,-7l11 99c0,1 1,7 1,8 -1,7 1,0 -2,5 8,0 5,0 10,2 8,4 3,2 13,3l0 93 2 -9c2,-14 -1,-61 1,-83 24,14 53,82 45,124 -2,12 -3,26 -7,36 -3,8 -10,19 -14,28 -9,18 -15,20 -31,33l-12 10 -1 5c17,-11 36,-3 72,-44 10,-10 13,-23 21,-36 7,-13 8,-33 10,-48 3,-17 -3,-35 -5,-52 -2,-9 -13,-29 -18,-40 -6,-11 -35,-41 -43,-45 -10,-6 -13,-3 -13,-9 1,-9 -2,-1 4,-6l-8 -3 0 -14c20,0 34,-2 50,6 0,0 1,1 1,1 23,12 22,7 38,24 12,12 15,15 28,12l0 -4c0,-3 1,-4 -7,-10 -5,-4 -7,-6 -11,-10 -14,-14 -9,-10 -27,-17 -54,-23 -22,-13 -72,-13 8,-14 -5,1 4,-6 -6,0 -4,-8 -5,-15 -1,-6 -1,-13 -2,-19 -1,-13 -4,-24 -6,-37l-3 -27c0,-1 -10,0 8,-3 12,-3 97,-10 105,-15 -6,-6 13,-7 -28,-1l-56 6c-5,1 -24,4 -29,1 -4,-7 -11,-81 -15,-99 -13,-48 -28,-56 -27,-84l-4 -167c-1,-7 -12,-23 -17,-28 -7,-7 -1,-3 -11,-6 10,30 15,10 19,38l4 167c-8,-4 -9,-5 -12,-13 -4,-7 -5,-9 -13,-13 -12,-7 -17,-5 -18,-10 0,-31 -2,-62 -2,-93 0,-16 1,-33 -2,-48l-15 -32 2 10c3,8 9,12 9,28l4 139 -6 -1z"/>
   <path class="fil7" d="M2120 713c-8,3 -2,1 -9,11l-28 -1c3,1 -2,4 8,-5 4,-3 5,-3 7,-8 7,0 17,-2 22,3zm-9 -189c2,56 -8,75 -28,129 -5,13 -8,28 -17,34l-18 29c-45,66 -37,43 -61,67 -8,7 -4,1 -5,8 -2,7 2,0 -2,5 0,1 -3,3 -3,4 14,-3 36,-24 57,-34 14,-6 24,-21 35,-29 9,-6 9,-12 41,-6 -8,14 -40,89 -40,100 8,-4 10,-17 14,-28l36 -85c0,-4 0,-2 0,-5 4,-2 1,1 5,-4 0,-1 2,-5 3,-6 9,-24 -4,-24 16,-55l20 -32c-7,-6 -6,9 -5,-8 5,-4 22,-73 27,-84 7,-2 4,14 5,0 0,0 -1,0 -1,-1 0,0 0,-1 0,-1 -2,-16 6,-100 6,-109l-38 31c-5,5 -1,4 -9,10 -5,3 -3,0 -9,7 -6,8 -5,4 -18,16 -1,-5 -3,-14 -4,-18 -1,-7 -2,-9 -3,-16 -3,-13 -4,-21 -7,-32l-10 -48c-5,-14 -9,-10 -12,-10 2,9 5,11 7,20l13 61c14,66 6,34 5,90z"/>
   <path class="fil9" d="M1874 1050l232 8 7 -95 -226 -4c-6,1 -5,5 -6,20 0,8 -1,15 -2,23 -2,16 -4,32 -5,48z"/>
   <path class="fil1" d="M273 878l2 5c5,6 2,3 5,11 0,1 0,1 0,2 0,0 1,1 1,2 59,5 192,-1 261,4 43,3 88,-1 131,2 39,3 97,-4 133,3l0 -43c-17,5 -462,-7 -529,-4 -4,10 1,-4 2,6 0,0 -1,5 -1,6 0,1 -1,1 -1,2l-2 3c-1,0 -1,1 -2,1z"/>
   <path class="fil1" d="M277 950l0 9c4,3 0,1 6,3 7,2 17,1 25,1l99 3c43,2 88,1 131,3l-261 -3 -1 17 530 13 0 -41c-21,3 -220,-4 -262,-4 -42,-1 -90,0 -132,-3l-127 -2c-7,2 -4,1 -8,4z"/>
   <path class="fil9" d="M1703 738c1,0 2,-1 2,0 4,6 -2,-2 13,1 14,3 9,17 9,42l1 47c0,2 -1,8 -1,9 -3,7 3,4 -6,5 -5,-5 -2,1 -4,-9 1,18 1,5 -4,10 -13,-2 -9,2 -9,-47 0,-19 -2,-39 1,-58l-3 105c32,0 13,4 53,4 4,-2 -6,-3 4,4 2,1 8,6 16,3 10,-4 2,2 9,-7l85 -2 0 -137 -144 0 -1 29 -21 1z"/>
   <path class="fil1" d="M806 853l0 -40 -2 1 -2 5 -521 -4 0 19c18,0 513,2 522,5 -5,6 3,0 -4,3 -7,2 -18,-1 -26,-1 -30,-1 -67,2 -98,0 -40,-3 -88,-2 -128,-2 -88,0 -177,-4 -264,-2 -2,4 -2,12 -5,16l523 8c8,-2 4,7 5,-8z"/>
   <path class="fil1" d="M276 1058l517 16c10,-23 12,-14 12,-47 -1,-6 3,-3 -4,-4l-525 -14 -1 17c50,0 520,13 528,16 -4,4 1,2 -6,3l-126 -4c-81,-4 -185,-3 -266,-8 -27,-1 -116,-1 -134,-5 0,1 1,1 1,2 1,0 1,1 1,2l3 7c0,0 1,1 1,1 0,0 0,1 0,1 40,-3 91,2 132,3l362 10c39,1 24,-2 27,9 -8,6 -19,5 -31,4 -12,-1 -22,-1 -34,-1l-446 -14c-9,1 -9,4 -11,6z"/>
   <path class="fil0" d="M1311 1438c-7,5 -5,6 -13,6 8,-3 7,-6 3,-17 -23,-2 -16,7 -17,9l-5 9c-1,-13 -2,-11 0,-19 0,0 1,-1 1,-1l16 -4c-1,-6 -4,-9 -4,-15 -3,-22 4,-3 6,-23 -8,-3 -10,-3 -19,-3l-5 16c-5,-12 -4,-27 15,-20 0,-8 1,-17 5,-22 0,-1 1,-1 1,-2 0,0 16,-11 3,-16 -6,-4 0,1 -11,-2 -6,-2 -2,1 -6,-3 6,-4 14,-1 19,0 7,-7 4,-11 11,-16 7,-6 15,-3 9,-18 -4,-4 -13,-1 -20,0 -1,0 -2,0 -2,0 4,-11 8,-9 17,-6 9,2 12,1 13,10 8,-3 16,-8 32,-1 37,17 32,80 20,115 -6,19 -26,40 -50,38 -7,0 -14,-3 -17,-7l-2 -8zm-36 -238c5,2 7,5 11,10l3 3c-7,-44 38,-29 44,-24 13,13 6,25 4,30 5,9 5,25 -11,29 -1,0 -6,1 -6,1 -5,0 -8,0 -14,-2 2,9 2,8 7,13 -4,2 -5,4 -8,7 -1,1 -2,2 -3,2 -44,41 -55,136 -26,190 3,4 5,7 8,12 0,0 2,3 4,5 4,4 2,3 6,3 14,-2 7,2 20,7 29,11 56,-12 70,-34l4 -6c2,-2 5,-11 7,-15 4,-7 7,-9 11,-14l-1 -17c1,-4 2,-6 2,-11 4,-28 9,-11 7,-25 0,-8 -2,-3 -4,-13 -4,-19 -5,-59 -30,-81 -12,-10 -19,-11 -32,-13 -22,-3 -7,1 -14,-7 26,0 29,2 46,12 -2,-9 0,-3 -3,-7 -11,-16 -13,7 -24,-45 -2,-12 -4,-23 -12,-27 -9,-3 -26,-4 -34,-3 -11,1 -28,13 -32,20z"/>
   <path class="fil8" d="M2191 571l55 -1 0 12 -55 0 0 -11zm26 -130l1 -14 84 -2c0,12 -2,10 -16,11 -7,0 -15,1 -23,2 -14,1 -33,6 -46,3zm3 -154l12 -1 -4 57 -11 0 3 -56zm-24 -129c3,16 2,18 8,34 5,16 29,82 27,90 -6,-4 -9,-17 -11,-24 -3,-6 -3,-7 -5,-13l-7 -13c3,18 10,28 10,51l-13 0c6,7 -9,5 11,4 -2,18 -5,35 -5,52 -1,17 3,36 3,55l-10 2c3,2 7,3 10,6 -5,20 -8,44 -16,60 -1,-18 3,-35 2,-49 -1,-23 -14,-64 -15,-81 0,-9 2,-14 0,-23 -1,-9 -3,-11 -2,-20 4,-2 4,0 7,-1l4 -2c0,0 1,0 2,-1 0,-1 1,0 1,-1l-15 -1c-4,-14 -3,-21 -10,-26l11 60c2,-2 -1,1 -1,-1 -1,-1 -2,-1 -2,-1 -4,20 14,71 16,98 0,9 -8,93 -6,109 0,0 0,1 0,1 0,1 1,1 1,1 -1,14 2,-2 -5,0 -5,11 -22,80 -27,84 -1,17 -2,2 5,8l13 -43c3,-10 11,-36 13,-44 0,10 -3,64 -11,72l-4 2c-3,24 5,71 -5,88 4,8 -9,7 8,6 16,0 63,-3 75,0l1 13c-6,-2 -67,-3 -81,-2l-12 5c11,6 3,-4 21,6 14,-6 76,-6 96,-6 -1,5 -1,10 -3,13 -2,6 -6,8 -11,12 -3,3 -6,2 -6,2l24 5c1,-9 1,-9 -3,-14 -11,-15 3,11 -3,-4 6,-9 9,-23 3,-33l-91 -1c1,-9 6,-13 8,-21l7 -82c11,-3 54,2 70,-3 1,-3 2,-10 1,-15 -3,-7 1,0 -4,-4 -8,-6 -47,-1 -64,-3l9 -114c11,1 21,7 33,8 12,0 27,-3 39,-4 3,-1 0,4 4,-8 2,-9 -5,-3 4,-9 7,4 1,5 7,16l34 -5c12,-2 6,2 10,-6 4,-17 -32,-21 -40,-21 -12,0 -48,2 -55,0 -14,1 -22,-2 -32,-1 1,-13 3,-41 2,-51 14,-12 9,-12 16,-12l8 0c2,0 8,3 10,6l10 0c7,-16 3,-47 2,-67 -8,6 -2,0 -6,9l0 49c-3,-3 -10,-5 -15,-7 -5,-2 -11,-5 -13,-4l5 -55 8 -2c-3,-12 -18,-43 -19,-55 2,3 13,9 16,6 -13,-19 -16,3 -28,-37 -6,-17 -11,-31 -16,-49 -2,2 -3,-4 -3,6z"/>
   <path class="fil0" d="M1720 516c9,-13 7,-12 7,-32 -1,-44 -4,-68 -5,-116 0,-12 0,-26 0,-39 1,-3 1,-4 1,-7 3,-12 11,-61 -14,-42 -8,5 -2,4 -16,10 -11,4 -10,1 -19,4 -24,8 -17,8 -20,52 -1,24 -1,52 -1,78 0,25 -3,55 7,72 8,12 12,3 25,8 5,2 0,0 4,2 9,6 5,2 15,4 9,2 5,4 16,6z"/>
   <path class="fil10" d="M1875 695c-16,5 9,7 -31,7l-119 0 0 6 144 0 0 137 -85 2c-7,9 1,3 -9,7 -8,3 -14,-2 -16,-3 -10,-7 0,-6 -4,-4 1,13 4,9 -29,9 -7,0 -27,-2 -30,-1 9,1 58,-2 71,-3 24,-2 36,-4 62,-3l49 0c13,-2 24,-4 36,-4 26,0 51,-3 80,-1 -6,6 -1,2 -9,5 -2,1 -5,1 -7,1 61,0 44,-4 65,-7 8,-1 17,2 22,-2 -4,2 -46,6 -56,-1l-50 -1c-2,-34 -3,-22 18,-39 0,-1 3,-3 3,-4 4,-5 0,2 2,-5 -7,5 -18,16 -24,17l-1 -110 -52 -3c4,-14 12,-36 16,-50 8,-22 6,-35 7,-59 4,-23 0,-44 -4,-65 -3,-9 -5,-18 -7,-28 -1,-4 -2,-9 -3,-14l-4 -12c6,44 21,68 16,118 -2,27 1,37 -7,62 -5,13 -8,37 -17,49l-27 -1z"/>
   <path class="fil7" d="M1901 928l9 1 10 -3c4,-1 10,-1 14,-1l76 -10c32,-4 71,-11 103,-13l172 -21 0 -32 -395 37 -1 42 12 0z"/>
   <path class="fil0" d="M882 944l0 84c1,14 23,11 47,11l-36 0c-11,-19 -6,-10 -6,-48 0,-13 -2,-41 2,-52 5,6 3,16 3,30 0,14 -3,57 2,62 0,0 1,0 1,1l5 2c2,0 8,0 10,0l126 2c4,-16 2,-53 2,-71 0,-25 7,-23 -46,-25l-84 -2c-5,0 -8,0 -12,-1 -5,-1 -5,-3 -8,-3 -3,3 -6,5 -6,10z"/>
   <path class="fil0" d="M1635 86l-19 53c-2,7 -8,17 -12,23 -5,7 -10,12 -13,22 8,-5 5,-6 11,-13 -1,6 -11,26 -16,28 26,6 17,-1 27,15 5,8 8,12 10,23l0 5c2,-12 -1,-27 2,-36 1,-2 54,-61 60,-63 13,0 20,4 28,9 -8,8 1,1 -12,4 -5,1 -56,47 -56,47l-1 47c11,6 27,5 39,2 0,-35 -5,-34 19,-60l14 -18c1,-2 1,-1 1,-4 0,-1 0,-2 0,-2l0 -8c1,0 0,-1 0,-1 0,0 0,-1 0,-1 -2,-10 2,5 0,-3 0,-1 -1,0 -3,-5l8 -11c1,-2 1,-2 2,-4 4,-6 7,-8 11,-15 3,-8 3,-12 7,-19 4,-6 7,-8 9,-17 -22,-1 -42,-2 -64,-5 -18,-2 -35,4 -52,7z"/>
   <path class="fil3" d="M1617 1051c-2,-4 -1,0 -2,-6 0,-10 3,-6 -2,-22l26 -2 -1 25 -21 5zm-91 -64l3 27 -3 -21c32,0 14,2 34,-3 0,0 3,-1 5,-1 11,1 12,6 13,21 1,8 0,14 1,22 1,5 2,15 1,23 0,12 -2,15 -2,24 10,-5 48,-9 62,-12 7,-15 1,-50 3,-69 6,-3 9,-3 16,-4 9,-1 10,0 14,-5l-7 -352 -20 -2c0,73 6,161 7,234 0,34 6,98 -17,105 -11,3 -97,13 -110,13z"/>
   <path class="fil11" d="M1060 921c3,13 2,121 0,138l-1 3 85 -1 0 -145 -85 1 1 4z"/>
   <path class="fil0" d="M643 512l38 -2 5 -3c0,-38 -1,-76 0,-113 1,-84 7,-73 -30,-73 -1,8 0,7 -3,13l-5 -2c-10,-5 -4,-5 -14,-5 -1,10 -3,8 -7,16 -4,13 -5,157 -3,164 3,10 9,4 19,5z"/>
   <path class="fil0" d="M226 926l-118 0c-4,5 -5,76 -2,82 6,4 104,6 121,6 2,-12 3,-82 -1,-88z"/>
   <path class="fil1" d="M281 682c4,5 -9,4 8,4l-1 15c166,1 335,-4 501,-2 19,0 11,3 13,-8l0 -14 -521 5z"/>
   <path class="fil1" d="M273 942c42,-2 91,3 134,2 44,0 89,1 133,3 41,2 245,1 266,6l0 -23c-14,2 -253,-2 -266,-3l-201 -4c-19,0 -50,1 -68,-2 5,5 10,5 6,15l-4 6z"/>
   <path class="fil0" d="M1535 1255l-2 -90 -10 2c0,38 -1,78 -1,115 1,35 -5,79 -3,112l12 -10c16,-13 22,-15 31,-33 4,-9 11,-20 14,-28 4,-10 5,-24 7,-36 8,-42 -21,-110 -45,-124 -2,22 1,69 -1,83l-2 9z"/>
   <path class="fil2" d="M1364 1524c1,0 4,0 5,0 8,3 3,0 8,4 -2,12 -9,25 -17,32 -5,5 -7,4 -6,6 15,-2 30,-25 40,-34 12,-12 20,-30 28,-46 36,-66 42,-176 5,-248 -10,-20 -16,-28 -31,-44 -11,-10 -35,-22 -55,-20l-9 1c6,-6 15,2 20,6 6,5 13,9 18,13 11,9 33,42 38,59 3,8 6,16 9,24 6,19 6,36 8,56 6,51 -12,111 -35,154 -18,34 -19,26 -26,37z"/>
   <path class="fil10" d="M1910 929l6 2c-3,-4 -19,0 -25,2 -6,11 -5,11 -7,23l232 4c-2,-11 9,-38 11,-57l-14 -1c-32,2 -71,9 -103,13l-76 10c-4,0 -10,0 -14,1l-10 3z"/>
   <path class="fil10" d="M281 662c1,11 -7,4 8,8 0,5 -2,6 -7,9l65 0 456 -3 0 -15c-3,-1 -4,-1 -5,-1 -1,0 -6,0 -8,0l-241 2c-83,0 -175,6 -257,2 9,-16 19,-7 55,-10 20,-2 42,-1 62,-1 43,1 85,-2 127,-2 43,0 85,0 128,0l94 -1c9,0 25,1 31,-4 -128,-1 -261,4 -388,4l-99 1c-15,0 -11,5 -21,11z"/>
   <path class="fil5" d="M882 944c0,-5 3,-7 6,-10 3,0 3,2 8,3 4,1 7,1 12,1l84 2c53,2 46,0 46,25 0,18 2,55 -2,71l-126 -2c-2,0 -8,0 -10,0l-5 -2c0,-1 -1,-1 -1,-1 -5,-5 -2,-48 -2,-62 0,-14 2,-24 -3,-30 -4,11 -2,39 -2,52 0,38 -5,29 6,48l36 0c-24,0 -46,3 -47,-11l0 -84zm-12 -14l16 0c-11,7 -8,30 -8,48 0,46 -9,66 24,66l83 2c41,0 57,6 57,-25l0 -49c0,-49 1,-21 -7,-40l22 -1 0 122 -185 -7c-4,-7 -2,-53 -2,-66l0 -50zm190 129c2,-17 3,-125 0,-138l-198 -3c-7,17 -4,42 -4,64 0,17 -3,55 2,68 6,7 179,8 200,9z"/>
   <path class="fil3" d="M33 1190c3,5 1,-1 2,8 0,3 0,9 0,11 0,8 0,16 0,24l-1 141c17,2 27,8 46,9 -3,-3 -1,-2 -6,-4 -2,-1 -4,-1 -6,-1 0,-93 2,-180 3,-272 -15,-3 -28,-1 -34,-6 8,-8 6,-2 15,-6 -23,0 -18,-13 -17,68 0,13 -2,19 -2,28z"/>
   <path class="fil1" d="M286 705c3,15 3,13 -5,18l521 -2 0 -19 -516 3z"/>
   <path class="fil1" d="M275 988c7,21 -3,4 -5,22 7,-1 -1,-6 32,-5 12,1 23,1 35,1l199 6c44,0 93,1 137,3 33,3 106,-2 133,5l0 -21c-18,5 -332,-8 -397,-8 -44,0 -89,-4 -134,-3z"/>
   <path class="fil1" d="M804 814l0 -20c-13,4 -467,-1 -528,0 1,0 1,0 2,1 1,6 5,-5 5,8 0,9 0,4 -6,8l527 3z"/>
   <path class="fil6" d="M1307 1180c8,-1 25,0 34,3 8,4 10,15 12,27 11,52 13,29 24,45 3,4 1,-2 3,7 -17,-10 -20,-12 -46,-12 7,8 -8,4 14,7 13,2 20,3 32,13 25,22 26,62 30,81 2,10 4,5 4,13 2,14 -3,-3 -7,25 0,5 -1,7 -2,11l1 17c-4,5 -7,7 -11,14 -2,4 -5,13 -7,15l-4 6c-14,22 -41,45 -70,34 -13,-5 -6,-9 -20,-7l21 14c23,4 30,-1 49,-10 -4,16 -7,32 -13,50 8,-5 4,-5 13,-9 7,-11 8,-3 26,-37 23,-43 41,-103 35,-154 -2,-20 -2,-37 -8,-56 -3,-8 -6,-16 -9,-24 -5,-17 -27,-50 -38,-59 -5,-4 -12,-8 -18,-13 -5,-4 -14,-12 -20,-6l9 -1c-8,-5 -18,-2 -26,1l-8 5z"/>
   <path class="fil2" d="M1977 800c-21,17 -20,5 -18,39l50 1 53 0c5,-3 8,-9 8,-9 0,-11 32,-86 40,-100 -32,-6 -32,0 -41,6 -11,8 -21,23 -35,29 -21,10 -43,31 -57,34z"/>
   <path class="fil1" d="M806 928l0 -20c-20,4 -46,1 -67,1 -150,0 -311,-5 -462,-7 2,15 -1,13 5,16 2,2 11,1 16,1 75,-1 156,4 236,4 41,0 243,2 272,5z"/>
   <path class="fil2" d="M910 493c3,1 236,0 266,2 40,3 91,-2 131,2 39,5 49,1 94,7 4,1 5,1 8,1l22 -6c2,5 0,4 -3,10 5,4 3,3 7,7 5,5 0,4 9,6 -3,-13 6,-97 8,-116 3,-39 9,-79 9,-117 -16,-9 -5,-6 -11,-19 -1,47 -11,137 -16,192 -4,46 -9,36 -81,32 -108,-7 -215,-5 -325,-8l45 -218c-13,-1 -11,2 -12,4l-44 213 -107 8z"/>
   <path class="fil4" d="M1311 1438c4,-11 -3,-1 -11,-31 -5,-15 3,-13 2,-22 -1,-9 -8,-9 -3,-26l5 -11c3,-4 1,2 3,-4 2,-7 3,-20 17,-29 15,6 10,-2 17,25 6,27 -3,20 2,56 2,9 0,13 -1,19 -3,22 3,22 -13,30 -11,-5 -5,-7 -18,-7zm0 0l2 8c3,4 10,7 17,7 24,2 44,-19 50,-38 12,-35 17,-98 -20,-115 -16,-7 -24,-2 -32,1 -1,-9 -4,-8 -13,-10 -9,-3 -13,-5 -17,6 0,0 1,0 2,0 7,-1 16,-4 20,0 6,15 -2,12 -9,18 -7,5 -4,9 -11,16 -5,-1 -13,-4 -19,0 4,4 0,1 6,3 11,3 5,-2 11,2 13,5 -3,16 -3,16 0,1 -1,1 -1,2 -4,5 -5,14 -5,22 -19,-7 -20,8 -15,20l5 -16c9,0 11,0 19,3 -2,20 -9,1 -6,23 0,6 3,9 4,15l-16 4c0,0 -1,1 -1,1 -2,8 -1,6 0,19l5 -9c1,-2 -6,-11 17,-9 4,11 5,14 -3,17 8,0 6,-1 13,-6z"/>
   <path class="fil6" d="M2134 63l-25 0 0 -26c21,0 34,-4 30,15 -3,12 -2,-3 -5,11zm-158 -17c6,-2 118,-9 127,-8l0 24c-16,3 -66,5 -88,6 -12,1 -15,-5 -24,-10 0,1 1,1 1,2 0,1 0,2 1,2l5 7c13,10 14,15 30,17 4,-4 0,0 3,-1 1,0 2,0 2,0 0,-1 1,-1 2,-1 0,0 1,-1 1,-1 1,0 2,0 2,-1 -5,-1 -21,-6 -25,-9l87 -7c4,-2 2,-2 6,0 7,2 17,0 27,2 0,30 13,-14 0,40 -2,8 -3,14 -6,22 -2,7 -5,13 -8,21 -6,-8 -7,-8 -13,-11 5,10 8,13 15,19 4,4 4,5 7,10 12,18 2,-2 19,32 4,9 8,18 14,23 1,-23 -20,-25 -10,-45 8,-14 14,-31 22,-44l12 36c2,-2 7,-3 2,-15l-14 -38c-3,-9 -16,-47 -15,-51 5,3 11,24 14,32 2,6 3,12 6,18 2,7 3,13 9,17 0,-7 -1,-20 -1,-26 -2,-19 -1,-13 1,-15 0,-1 2,-2 2,-3l4 -2c-20,-3 -17,-4 -18,-9 -5,-18 -7,-14 -23,-18 0,-11 -3,-19 -6,-27 -59,-5 -95,4 -143,5 -34,0 -29,6 -61,-7l-48 -19c-10,-2 -1,-2 -10,0 3,7 -2,0 4,5 1,0 76,30 82,30 9,-1 0,1 6,-2z"/>
   <path class="fil12" d="M742 295c-8,2 -29,2 -39,3 -11,1 -15,-1 -24,-1 -11,1 -8,2 -19,4 -63,8 -56,-33 -55,125 0,30 -2,58 -1,88l-9 3 48 -5c-10,-1 -16,5 -19,-5 -2,-7 -1,-151 3,-164 4,-8 6,-6 7,-16 10,0 4,0 14,5l5 2c3,-6 2,-5 3,-13 37,0 31,-11 30,73 -1,37 0,75 0,113l-5 3 9 -1c0,-33 0,-67 0,-100l1 -75c-1,-12 -5,-7 -4,-13 1,-5 -6,2 3,-5 -10,-6 -18,-3 -35,-4 1,-9 15,-4 24,-4 16,-1 78,-6 88,-3l0 12 14 3c6,-6 9,-24 10,-34l-47 4c2,0 6,1 8,2l9 7 -19 -4z"/>
   <path class="fil6" d="M1760 1273c9,-10 8,-11 10,-26 2,-9 5,-26 5,-33 -2,-42 -13,-52 -15,-61 -10,5 3,0 -10,-1 -1,1 -1,1 -4,3 -7,4 -42,9 -54,15 10,14 12,34 15,55 3,19 -2,54 -5,57 12,-1 21,-7 30,-8 10,-1 11,2 18,1 15,0 -3,-10 10,-2z"/>
   <path class="fil2" d="M1696 929c29,-7 95,4 127,0l1 -35 36 0 1 36 24 0c2,-11 2,-35 -2,-45 -36,0 -168,-4 -189,-1 0,14 -2,35 2,45z"/>
   <path class="fil1" d="M1599 454c0,-15 -7,-134 -11,-144 -4,-11 -6,-7 -35,-16 -12,-4 -42,-13 -54,-14 7,16 94,167 100,174z"/>
   <path class="fil2" d="M2164 616l-20 32c-20,31 -7,31 -16,55 -1,1 -3,5 -3,6 -4,5 -1,2 -5,4 0,3 0,1 0,5l-36 85c-4,11 -6,24 -14,28l-2 11c19,0 10,-4 19,-11 1,-10 5,-14 10,-21 6,-9 6,-10 6,-25 3,-9 12,-2 20,-14l6 -5 1 5c0,0 -4,6 -5,8 12,0 7,6 15,-17 3,-9 5,-18 10,-24l0 2c-2,7 -12,19 -19,24 1,-11 0,-5 3,-11 1,-2 5,-8 5,-8l16 -25c9,-13 3,-12 6,-27l9 -2c10,-17 2,-64 5,-88l4 -2c8,-8 11,-62 11,-72 -2,8 -10,34 -13,44l-13 43z"/>
   <path class="fil4" d="M1957 698l1 110c6,-1 17,-12 24,-17 1,-7 -3,-1 5,-8 24,-24 16,-1 61,-67l18 -29c-14,7 -33,5 -53,6 -15,0 -39,5 -52,8 0,-9 2,1 -4,-3z"/>
   <path class="fil4" d="M1565 103c-10,17 -9,25 -12,33 -2,5 -4,4 -7,10l-9 20c-4,9 -8,15 -10,24l6 1c5,0 6,1 8,1 6,1 10,2 15,2 6,1 9,2 15,3 6,1 8,2 15,2 5,-2 15,-22 16,-28 -6,7 -3,8 -11,13 3,-10 8,-15 13,-22 4,-6 10,-16 12,-23l19 -53c-13,3 -25,5 -37,8 -6,1 -11,2 -18,4 -7,1 -9,3 -15,5z"/>
   <path class="fil3" d="M2109 793l41 0 0 37 -41 0 0 -37zm-22 38c10,-1 2,2 7,-4l8 -13c2,-3 4,0 1,-3 0,13 -2,25 3,30 12,-2 25,0 38,-1 1,0 15,-1 15,-1 8,-3 4,-6 10,-9 22,2 57,-1 72,1 10,1 15,6 16,-7 -13,-6 -68,-2 -88,-2l0 -39c-6,-2 -2,-2 -11,-2 1,-7 4,-16 7,-21l2 -9 12 2c-3,-9 -21,-15 12,-21 -8,-8 0,-2 -9,-5 0,0 -4,1 -5,0l5 -8c-18,-10 -10,0 -21,-6l12 -5c14,-1 75,0 81,2l-1 -13c-12,-3 -59,0 -75,0 -17,1 -4,2 -8,-6l-9 2c-3,15 3,14 -6,27l-16 25c0,0 -4,6 -5,8 -3,6 -2,0 -3,11 7,-5 17,-17 19,-24l0 -2c-5,6 -7,15 -10,24 -8,23 -3,17 -15,17 1,-2 5,-8 5,-8l-1 -5 -6 5c-8,12 -17,5 -20,14 0,15 0,16 -6,25 -5,7 -9,11 -10,21z"/>
   <path class="fil2" d="M71 1088c2,-6 2,-4 4,-7l30 1c7,-4 13,-4 22,-3 25,1 30,-4 56,-8 26,-3 37,-13 67,-14 -2,-10 -4,-15 -12,-11 -25,-5 -68,-3 -96,-4 -20,-1 -74,1 -89,-5 -5,-8 -3,-76 -2,-91 -5,13 0,92 -1,120 -2,16 -1,17 21,17l0 5z"/>
   <path class="fil2" d="M2175 1235c2,-8 7,-14 10,-23 2,-8 4,-19 6,-27 6,-39 9,-148 -15,-170 -24,26 -28,203 -1,220z"/>
   <path class="fil0" d="M1413 587l15 32c3,15 2,32 2,48 0,31 2,62 2,93 1,5 6,3 18,10 8,4 9,6 13,13 5,-4 4,6 4,-6 0,-45 -4,-82 -4,-124 -1,-25 3,-28 -6,-40 0,0 -1,0 -1,-1l-36 -42 0 16c-8,-6 -5,4 -7,-12 0,-1 0,-11 0,-13l3 0c0,10 1,16 -3,26z"/>
   <path class="fil7" d="M1769 79c-1,0 -2,-1 -2,-1l-8 -1c7,-3 4,-4 10,-9l73 -56c0,0 -68,-9 -84,0l-8 6c-3,2 -4,3 -7,5l-30 21c-4,3 -13,4 -22,5 5,4 -1,0 5,3 3,1 4,1 6,1 -6,-4 1,-3 -13,6l-14 9c10,10 4,6 21,5l73 6z"/>
   <path class="fil6" d="M105 828l0 4c31,0 28,2 54,-4 16,-3 13,0 35,-6 7,-1 13,0 20,-1 14,-1 -2,-3 36,-4 1,-2 1,-6 2,-8 1,-6 -1,2 1,-4 3,-7 0,-2 3,-5l2 -30 -20 1c-12,4 -29,6 -40,8 -6,1 -16,2 -21,3l-50 21c-9,3 -13,8 -19,17 -5,7 -4,0 -3,8z"/>
   <path class="fil5" d="M1059 917l85 -1 0 145 -85 1 -196 -6c-11,-12 -7,-24 -7,-50 0,-122 -10,-86 72,-90 0,0 6,0 6,0 8,-3 3,0 8,-6l-64 1c2,0 10,0 11,0 4,-1 0,0 4,-1 6,-2 3,-1 7,-3 -27,0 -38,-4 -46,10 -4,5 -2,99 -2,112 0,30 -4,15 8,35 24,0 50,1 74,2 24,1 50,0 73,2l135 0c9,-2 4,0 8,-3 4,-8 2,-138 0,-155l-100 0c-17,0 -33,-1 -50,-1 -9,0 -36,-2 -44,1 -6,3 -1,0 -5,4l108 3z"/>
   <path class="fil2" d="M2028 86c0,-1 1,-1 1,0 0,0 1,0 2,0 0,0 1,0 1,0l11 8c16,11 14,11 26,21l27 22 50 70c31,62 13,37 26,71 5,14 11,22 9,33 0,1 0,2 0,2 -1,0 -1,1 -1,2 0,0 1,0 2,1 0,2 3,-1 1,1l-11 -60c-2,-2 0,2 -3,-4l-9 -27c0,-1 0,-1 1,-2 -6,-5 -10,-14 -14,-23 -17,-34 -7,-14 -19,-32 -3,-5 -3,-6 -7,-10 -7,-6 -10,-9 -15,-19 6,3 7,3 13,11 3,-8 6,-14 8,-21 3,-8 4,-14 6,-22 13,-54 0,-10 0,-40 -10,-2 -20,0 -27,-2l-14 54c-1,0 -1,0 -2,0 0,0 -1,0 -1,0 -1,0 -2,1 -2,0l-9 -5c-5,-4 -8,-6 -12,-8l-23 -17c9,5 17,11 25,16 9,-4 11,-11 17,-19 6,-8 10,-12 15,-21l-87 7c4,3 20,8 25,9 0,1 -1,1 -2,1 0,0 -1,1 -1,1 -1,0 -2,0 -2,1 0,0 -1,0 -2,0 -3,1 1,-3 -3,1z"/>
   <path class="fil1" d="M1272 693l112 4 0 -48c-19,-2 -99,-7 -111,-4l-1 48z"/>
   <path class="fil6" d="M1623 1175c4,0 -3,-5 2,1 12,12 17,41 20,56 2,12 5,24 3,37 -2,11 -5,23 -6,34 11,-3 24,-3 29,-12 2,-4 5,-27 6,-34 3,-21 -3,-50 -9,-69 4,3 3,1 5,6 2,3 2,5 2,7l7 41c0,13 -6,42 -10,55 4,-1 10,-3 12,-4 5,-3 2,1 4,-7 7,-40 7,-51 -2,-92 -2,-4 -4,-10 -6,-15 -5,-10 -3,-8 -16,-7 1,11 3,9 5,18 -4,-3 -1,0 -4,-4l-5 -10 -37 -1z"/>
   <path class="fil2" d="M1279 984c-8,5 -20,33 -22,43 16,0 93,4 108,10 9,3 18,12 26,13 8,-3 4,-26 4,-34 -10,-2 -10,-5 -28,-10l-75 -33c-2,3 -4,5 -5,7 -6,5 -2,2 -8,4z"/>
   <path class="fil3" d="M105 828c-7,3 -2,0 -8,5l-18 18c-8,9 -18,14 -21,28 29,-13 -16,-15 88,-21l103 -7 7 -51c-3,3 0,-2 -3,5 -2,6 0,-2 -1,4 -1,2 -1,6 -2,8 -38,1 -22,3 -36,4 -7,1 -13,0 -20,1 -22,6 -19,3 -35,6 -26,6 -23,4 -54,4l0 -4z"/>
   <path class="fil2" d="M1311 1438c13,0 7,2 18,7 16,-8 10,-8 13,-30 1,-6 3,-10 1,-19 -5,-36 4,-29 -2,-56 -7,-27 -2,-19 -17,-25 -14,9 -15,22 -17,29 -2,6 0,0 -3,4l-5 11c-5,17 2,17 3,26 1,9 -7,7 -2,22 8,30 15,20 11,31z"/>
   <path class="fil5" d="M68 1030l166 5c3,-12 3,-1 5,-14 1,-5 0,-16 0,-22 0,-6 0,-12 0,-19l-1 -15c-2,-6 0,-2 -3,-6l0 68c-1,0 -2,0 -3,1 0,0 -1,0 -1,0 -3,1 -1,1 -6,2 -2,0 -8,0 -10,-1 -36,-3 -125,-1 -145,-4l0 -107 29 -1c11,2 13,3 26,3 9,0 16,1 24,1l-39 1 -2 4 118 0c3,-1 3,0 2,-3l12 -7c-9,-13 -15,-7 -38,-8 -36,-3 -94,-3 -133,-4 -4,19 -4,106 -1,126z"/>
   <path class="fil2" d="M2271 1072c0,31 -1,89 14,111 20,-26 24,-172 0,-192 -8,24 -14,52 -14,81z"/>
   <path class="fil4" d="M1529 1014c2,13 5,24 6,37 1,6 1,13 2,19 1,7 -1,15 5,15l36 -6c0,-9 2,-12 2,-24 1,-8 0,-18 -1,-23 -1,-8 0,-14 -1,-22 -1,-15 -2,-20 -13,-21 -2,0 -5,1 -5,1 -20,5 -2,3 -34,3l3 21z"/>
   <path class="fil4" d="M1321 89c-27,11 -33,39 -23,56 16,25 45,18 58,1 6,-7 8,-20 7,-30 -3,-17 -20,-35 -42,-27z"/>
   <path class="fil7" d="M2056 235c4,11 0,3 8,9l16 22c3,6 -4,-1 5,8 4,4 4,3 7,6 3,3 3,7 13,9l3 0c-12,-2 -6,-2 -12,-6 -8,-6 -9,-4 -15,-7 4,11 -1,2 6,12 5,5 16,10 24,9 44,0 16,-84 9,-100l-2 4c-1,1 -1,2 -1,3l-1 4c-1,0 -1,1 -1,1 0,1 0,2 0,2l-23 20c-33,25 -13,15 -36,4z"/>
   <path class="fil9" d="M2319 1113c5,-4 4,6 4,-9 43,0 35,11 35,-51l-18 -3c0,-7 0,-15 0,-23 0,-10 2,-16 2,-22 1,-16 -3,2 -4,-18 0,-8 0,-18 0,-26 -6,6 -4,18 -4,27l0 -24 -23 -2c4,25 8,47 9,72l2 57c-1,8 -3,13 -3,22z"/>
   <path class="fil4" d="M1289 1550c-4,-11 5,-20 12,-25 31,-23 40,-8 38,2 -1,6 -2,4 -10,13 -8,9 -27,13 -40,10zm26 -57c-6,9 -15,20 -22,30l-21 33c-12,0 -13,-5 -27,-6 4,6 7,10 14,11 38,2 55,-2 86,-19 -4,5 -7,6 -12,10l11 6c-6,18 -23,11 -13,20 5,-2 8,-3 12,-5 1,0 5,-2 6,-3 5,-3 2,-1 5,-4 -1,-2 1,-1 6,-6 8,-7 15,-20 17,-32 -5,-4 0,-1 -8,-4 -1,0 -4,0 -5,0 -9,4 -5,4 -13,9 6,-18 9,-34 13,-50 -19,9 -26,14 -49,10z"/>
   <path class="fil0" d="M870 980c0,13 -2,59 2,66l185 7 0 -122 -22 1c8,19 7,-9 7,40l0 49c0,31 -16,25 -57,25l-83 -2c-33,0 -24,-20 -24,-66 0,-18 -3,-41 8,-48l-16 0 0 50z"/>
   <path class="fil9" d="M51 946c-1,15 -3,83 2,91 15,6 69,4 89,5 28,1 71,-1 96,4 0,-11 5,-7 -18,-8 -6,0 -14,-1 -22,-1l-130 -4 -14 -2 2 -130 13 1 148 1c27,2 27,0 25,47 -1,26 0,51 -1,77 9,-9 5,-29 5,-40 -1,-106 34,-85 -111,-91 -25,-1 -57,3 -81,-3 -6,14 -1,37 -3,53z"/>
   <path class="fil0" d="M1518 1399l-1 9c7,-1 34,-9 40,-12l28 -22c21,-15 25,-46 37,-52l7 -3c0,-1 1,0 1,-1 -1,-4 -2,-2 -4,-7 -1,-1 -1,-1 -1,-2 -2,-5 -1,-5 0,-11 1,-7 3,-14 4,-21 3,-18 1,-22 -2,-40 -9,-52 -14,-35 -27,-71 12,-5 12,3 11,-10l-21 1c-17,-25 -41,-35 -44,-38 -6,5 -3,-3 -4,6 0,6 3,3 13,9 8,4 37,34 43,45 5,11 16,31 18,40 2,17 8,35 5,52 -2,15 -3,35 -10,48 -8,13 -11,26 -21,36 -36,41 -55,33 -72,44z"/>
   <path class="fil8" d="M228 923c1,3 1,2 -2,3 4,6 3,76 1,88 -17,0 -115,-2 -121,-6 -3,-6 -2,-77 2,-82l2 -4 39 -1c-8,0 -15,-1 -24,-1 -13,0 -15,-1 -26,-3 -13,10 -7,29 -9,50 -1,16 -5,46 9,53 10,3 104,5 122,5 15,-11 11,-24 11,-47 0,-14 5,-47 -4,-55z"/>
   <path class="fil2" d="M1976 46c3,0 6,2 9,5 0,0 4,3 5,4 4,5 1,-4 1,3 9,5 12,11 24,10 22,-1 72,-3 88,-6l0 -24c-9,-1 -121,6 -127,8z"/>
   <path class="fil2" d="M1703 738l21 -1 1 -29 0 -6c0,-19 5,2 8,-13 1,-2 0,-23 0,-25 -3,-12 -26,-9 -39,-8l0 82 9 0z"/>
   <path class="fil4" d="M2251 422l-1 -18c7,-5 9,-5 11,-13 1,-7 0,-18 0,-25 6,1 3,-1 4,-2l-10 0c-2,-3 -8,-6 -10,-6l-8 0c-7,0 -2,0 -16,12 1,10 -1,38 -2,51 10,-1 18,2 32,1z"/>
   <path class="fil6" d="M2267 297l-15 -4 -3 -22c3,-5 -1,-26 -6,-33 -3,3 -14,-3 -16,-6 1,12 16,43 19,55l-8 2 -5 55c2,-1 8,2 13,4 5,2 12,4 15,7l0 -49c4,-9 -2,-3 6,-9z"/>
   <path class="fil0" d="M2175 1235l0 5c0,0 -3,-1 1,0 0,0 1,0 1,0 0,0 1,1 1,1 2,0 -1,1 5,1 31,-42 28,-134 21,-183 -2,-18 -5,-47 -22,-51 4,18 11,29 14,54 4,40 4,138 -12,171 -4,6 -1,0 -9,2z"/>
   <path class="fil4" d="M1489 585c-3,3 8,5 -6,3 8,3 40,0 57,1 11,0 13,0 19,-5 -1,-6 -7,-11 -12,-11 -5,-1 -1,-1 -8,1l-9 1c-1,-1 -2,1 -3,1 1,-6 2,-9 11,-13l-12 0c13,9 9,-4 9,-4 -24,1 7,3 -15,-11 -2,-2 -9,-5 -9,-6 0,0 -1,0 -1,0l-2 -2c-6,-5 10,0 -5,-3 -11,6 -14,35 -14,48z"/>
   <path class="fil0" d="M950 178c44,9 51,-64 10,-63 -10,0 -10,3 -10,13 -1,11 -2,41 0,50z"/>
   <path class="fil8" d="M1289 1213l2 1 7 10c8,10 24,9 36,-2l3 -3c2,-5 9,-17 -4,-30 -6,-5 -51,-20 -44,24z"/>
   <path class="fil7" d="M1617 549c0,12 3,51 7,57 2,3 3,2 7,7 4,6 1,4 7,10 8,7 8,7 23,9 -5,-13 -20,-16 -21,-37 0,-14 0,-39 -3,-53l-20 7z"/>
   <path class="fil4" d="M950 178c-2,-9 -1,-39 0,-50 0,-10 0,-13 10,-13 41,-1 34,72 -10,63zm2 -64c-42,14 -28,78 15,67 44,-12 27,-81 -15,-67z"/>
   <path class="fil8" d="M1601 868c-6,9 -4,26 -4,37 1,20 15,17 28,13 4,-9 2,-17 3,-28 0,-9 1,-17 -4,-25 -8,-1 -17,-2 -23,3z"/>
   <path class="fil13" d="M68 1033l0 -3c-3,-20 -3,-107 1,-126l0 -2 -13 -1 -2 130 14 2z"/>
   <polygon class="fil2" points="2109,830 2150,830 2150,793 2109,793 "/>
   <path class="fil6" d="M1259 1561c4,7 8,7 15,10 16,6 18,12 47,9l10 -2c-10,-9 7,-2 13,-20l-11 -6c5,-4 8,-5 12,-10 -31,17 -48,21 -86,19z"/>
   <path class="fil8" d="M1289 1550c13,3 32,-1 40,-10 8,-9 9,-7 10,-13 2,-10 -7,-25 -38,-2 -7,5 -16,14 -12,25z"/>
   <path class="fil2" d="M1717 833c2,10 -1,4 4,9l0 -99 -4 -2 -11 0c0,16 -1,36 1,51 1,14 7,28 10,41z"/>
   <path class="fil7" d="M2290 879c7,0 11,-1 18,-1l20 -4 2 -29 -24 1 -8 3c-1,0 -6,0 -7,1l-1 29z"/>
   <path class="fil2" d="M2217 441c13,3 32,-2 46,-3 8,-1 16,-2 23,-2 14,-1 16,1 16,-11l-84 2 -1 14z"/>
   <path class="fil14" d="M1415 168c23,-12 29,24 10,30 -20,7 -28,-21 -10,-30zm-40 15l9 2c14,2 12,-2 16,-6l3 -4c1,0 1,-1 2,-2 -2,42 26,27 30,18 5,-8 4,-20 -4,-25l-12 -1c-6,1 -8,3 -10,8l-2 -10 -34 -8 2 28z"/>
   <path class="fil9" d="M2106 66c-4,-2 -2,-2 -6,0 -5,9 -9,13 -15,21 -6,8 -8,15 -17,19 -8,-5 -16,-11 -25,-16l23 17c4,2 7,4 12,8l9 5c0,1 1,0 2,0 0,0 1,0 1,0 1,0 1,0 2,0l14 -54z"/>
   <path class="fil11" d="M1415 168c-18,9 -10,37 10,30 19,-6 13,-42 -10,-30z"/>
   <path class="fil11" d="M1180 182c4,20 34,16 31,-9 -3,-21 -35,-14 -31,9z"/>
   <path class="fil2" d="M2134 63c3,-14 2,1 5,-11 4,-19 -9,-15 -30,-15l0 26 25 0z"/>
   <path class="fil0" d="M1587 1382c8,-1 16,-4 24,-7 17,-6 41,-27 52,-40 -12,-6 -15,2 -22,8 -27,24 -24,16 -38,26 -5,3 -5,4 -8,7 -3,2 -5,3 -8,6z"/>
   <path class="fil3" d="M1306 1247c6,2 9,2 14,2 0,0 5,-1 6,-1 16,-4 16,-20 11,-29l-3 3c-12,11 -28,12 -36,2l-7 -10c3,11 15,27 15,33z"/>
   <path class="fil11" d="M1104 166c-16,7 -9,37 10,30 17,-7 11,-40 -10,-30z"/>
   <path class="fil11" d="M1035 173c-27,-6 -28,21 -17,28 13,9 30,-9 17,-28z"/>
   <polygon class="fil0" points="1682,1331 1682,1316 1633,1314 1634,1328 "/>
   <path class="fil11" d="M877 199c-26,-5 -28,21 -16,28 15,7 26,-11 16,-28z"/>
   <polygon class="fil2" points="2191,582 2246,582 2246,570 2191,571 "/>
   <polygon class="fil2" points="2217,343 2228,343 2232,286 2220,287 "/>
   <path class="fil8" d="M1638 1046l1 -25 -26 2c5,16 2,12 2,22 1,6 0,2 2,6l21 -5z"/>
   <path class="fil0" d="M1662 1160c-10,-3 -35,-3 -47,-3l1 11 46 2 0 -10z"/>
   <path class="fil7" d="M1751 693l20 0c0,-29 7,-25 -20,-27l0 27z"/>
   <path class="fil4" d="M1462 148l-6 -2 -9 14c-1,0 -1,1 -2,1 0,0 0,1 -1,2 4,7 6,8 12,13 0,0 1,0 1,1l3 3c8,-13 6,-17 2,-32z"/>
   <path class="fil2" d="M2087 831c-2,7 -3,4 -3,11 7,0 17,3 22,-1 -5,-5 -3,-17 -3,-30 3,3 1,0 -1,3l-8 13c-5,6 3,3 -7,4z"/>
   <path class="fil2" d="M2120 713c-5,-5 -15,-3 -22,-3 -2,5 -3,5 -7,8 -10,9 -5,6 -8,5l28 1c7,-10 1,-8 9,-11z"/>
   <g>
    <path class="fil15" d="M1925 396c-10,7 -16,27 -22,40 -7,13 -17,26 -14,37 -12,4 -4,-2 -11,7 -1,2 -8,14 -8,15 -7,12 -12,23 -18,33l-43 66 -10 8c-5,6 -3,5 -6,11l-71 -41 22 -35c10,-10 48,-67 53,-85 6,-11 12,-20 18,-32 7,-13 10,-22 17,-35l21 -45c25,7 54,26 77,38l-5 18z"/>
    <path class="fil16" d="M2047 501c-8,7 -15,28 -22,38 -7,11 -18,21 -21,37 -7,3 -51,50 -59,57 -10,9 -21,19 -31,27 -18,16 -23,8 -46,0l-15 -9c10,-13 25,-26 37,-39 6,-8 27,-34 31,-44 12,-13 30,-37 35,-56 16,-5 34,-68 48,-86l60 36 -17 39z"/>
    <path class="fil17" d="M2182 437c-7,4 -20,30 -35,49 -35,40 -86,78 -143,90 3,-16 14,-26 21,-37 7,-10 14,-31 22,-38l1 5c44,-27 60,-40 88,-92l8 -11c10,5 4,4 14,9 14,-10 15,-4 28,-9 3,-12 4,-25 12,-34 -4,25 -14,49 -16,68z"/>
    <path class="fil18" d="M1797 281c2,23 14,87 35,104 -7,13 -10,22 -17,35 -6,12 -12,21 -18,32 -7,-7 -12,-19 -18,-29l-8 -12c1,-8 0,-8 -4,-16 -2,-6 -5,-10 -8,-16 -5,-11 -12,-23 -11,-35l5 -1c5,-31 -17,-32 -13,-61l8 -2c5,-1 3,0 6,-1 13,-4 16,-3 38,-5 -3,13 -2,0 5,7z"/>
    <path class="fil19" d="M1956 512c-5,19 -23,43 -35,56 -37,-13 -46,-29 -69,-40 6,-10 11,-21 18,-33 0,-1 7,-13 8,-15 7,-9 -1,-3 11,-7 13,7 21,16 32,23 11,6 22,11 35,16z"/>
    <path class="fil18" d="M2199 350l-1 19c-8,9 -9,22 -12,34 -13,5 -14,-1 -28,9 -10,-5 -4,-4 -14,-9l-8 11c3,-9 6,-16 9,-26 3,-10 5,-19 2,-29 9,-21 -7,-43 -8,-58l3 -6c18,4 22,3 35,-3 6,4 4,3 9,10 3,7 4,10 6,17 4,11 4,20 7,31z"/>
    <path class="fil20" d="M1797 281c-7,-7 -8,6 -5,-7 -22,2 -25,1 -38,5 -3,1 -1,0 -6,1l-8 2c-4,29 18,30 13,61l-5 1c-7,-9 -12,-32 -14,-45 -3,-24 -2,-32 10,-53 10,-2 13,-4 21,-5l38 -6c18,-4 14,-1 15,3 -15,11 -17,22 -21,43z"/>
    <path class="fil21" d="M2177 292c-13,6 -17,7 -35,3l-3 6 -31 -38c24,-15 40,-11 58,9 8,9 9,11 11,20z"/>
    <path class="fil22" d="M1818 238c-1,-4 3,-7 -15,-3l-38 6c-8,1 -11,3 -21,5 6,-8 -1,-1 7,-7l24 -14c8,-1 8,-2 16,-4 6,-2 12,-2 18,-3 10,-2 23,-5 36,-5 8,-1 24,-5 29,1 -14,2 -31,8 -42,16 -10,7 -1,4 -14,8z"/>
   </g>
  </g>
 </g>
</svg>
